<svg xmlns="http://www.w3.org/2000/svg" width="679" height="151" viewBox="0 0 679 151">
  <g fill="#007C97" transform="matrix(1 0 0 -1 .126 150.861)">
    <path d="M93.6585626,87.5058103 C90.5274953,89.7426776 88.4335086,93.6435225 88.4335086,97.8923398 C88.4335086,99.1700613 89.1308205,101.671497 89.6032152,103.284202 C89.8377034,104.083376 89.8841909,104.482621 90.7906964,104.667887 C95.2124744,105.565506 97.1499077,105.426043 97.514971,105.95518 C98.7113395,107.950723 99.1919378,110.61213 99.1919378,110.61213 L65.0797118,121.503185 C65.0797118,121.503185 67.2263388,115.960239 68.3536597,115.47212 L83.8620137,108.585823 C83.8620137,108.585823 75.8873631,106.837758 71.4908797,105.50808 L70.450381,105.183351 C70.450381,105.183351 72.1430715,102.345565 74.7511548,100.748584 C77.6326938,101.573053 82.9288462,102.934178 82.9288462,102.934178 C75.4477831,88.2147441 60.0645351,78.5932068 43.3434053,78.5932068 C42.5749949,78.5932068 39.384451,78.6355924 37.3813883,78.4687845 C35.6463122,78.3204348 34.8088542,76.8868435 36.5131666,76.1307386 C39.5669827,74.4900047 41.7792389,71.7486117 42.7670975,68.5416605 C43.3892091,66.5481687 42.2960701,65.348382 40.92469,64.255243 C37.920096,61.93839 30.2517157,56.2067594 22.7063905,50.5886129 C21.8203942,52.2628452 20.9931908,53.9541684 20.2452896,55.6454917 C13.445131,71.0191687 10.1397358,92.3746883 10.1397358,120.931663 L10.1397358,121.185976 L69.0345643,140.088599 L127.925975,121.195547 L127.925975,120.931663 C127.925975,110.573162 127.474773,100.990592 126.586042,92.4492049 L126.50674,91.695151 L136.159041,91.695151 L136.221252,92.3104262 C137.094943,101.009734 137.537941,110.638792 137.537941,120.930979 L137.537941,128.20695 L69.0345643,150.183214 L0.527085779,128.196696 L0.527085779,120.930979 C0.527085779,91.0094609 4.10183486,68.3830562 11.4550575,51.7569522 C12.494189,49.4093354 13.653641,47.0740241 14.9081188,44.7886184 C8.92012354,40.3394949 4.32743577,36.9370229 4.32743577,36.9370229 C5.69676498,34.5470204 7.24794219,32.2465747 7.24794219,32.2465747 L44.9075717,59.1676005 C65.1849923,72.8157724 88.8744559,80.028849 113.421203,80.028849 L124.857119,80.028849 C123.200661,70.6664109 120.839371,62.4729958 117.819737,55.6454917 C114.383083,47.8766165 109.771254,40.6977218 104.112772,34.3077467 C99.5460629,29.1469549 94.2793069,24.4742813 88.457436,20.4175666 C78.5583412,13.5189641 70.0531866,10.5793157 69.1029282,10.2614235 L69.033197,10.2374962 L68.851349,10.300391 C67.925018,10.6087122 59.511471,13.5093931 49.5775106,20.4367085 C43.7611088,24.4920559 38.4991383,29.1640458 33.937898,34.3221032 C32.4967867,35.9512152 31.0584099,37.7334625 29.5427819,39.7727581 L29.1414857,40.3121493 L21.3315922,34.7124611 L21.7445102,34.1546116 C23.4638627,31.835024 25.0970766,29.8066666 26.7378105,27.9533209 C31.8056275,22.2244249 37.6404876,17.0424402 44.0803683,12.5516147 C54.8934886,5.01312583 64.0836496,1.75626896 65.8071039,1.18337936 C65.8795696,1.15808471 67.5845657,0.56605321 68.438431,0.327463149 C68.6592464,0.265251987 68.8841637,0.214662691 68.8841637,0.214662691 L69.0290952,0.18321529 L69.175394,0.213979052 C69.175394,0.213979052 69.4126167,0.264568348 69.6361667,0.327463149 C70.4886647,0.566736849 72.1936608,1.16013563 72.2565556,1.18201208 C73.9827444,1.75558532 83.141458,4.99876941 93.9525274,12.5324728 C100.400612,17.0246656 106.240941,22.2073339 111.311493,27.9362299 C117.626267,35.0693208 122.773386,43.0836224 126.609969,51.7569522 C130.174464,59.8156904 132.798954,69.0892554 134.611282,80.028849 L142.802646,80.028849 C143.127375,82.0927556 143.671551,85.5150531 143.671551,85.5150531 L113.421203,85.5150531 C100.523667,85.7591123 96.7903135,85.268943 93.6585626,87.5058103" transform="translate(.307 .265)"/>
    <polygon points="450.258 22.425 460.685 22.425 460.685 128.473 450.258 128.473"/>
    <path d="M43.7529051,39.6510703 L43.6230137,39.7242197 C39.426153,42.1046512 36.2882493,43.1212226 32.6396672,44.3032347 C30.2230029,45.0873688 27.4836608,45.9760996 23.9246354,47.4671166 C19.4932865,49.3245642 18.0863572,50.3117391 16.9125488,51.5874097 C16.2931717,52.2621616 15.1391888,53.5180067 14.6961907,55.3863924 C14.1971341,57.4878992 14.8021547,59.3473976 15.3976044,60.5362461 C16.9631381,63.6659461 20.2302495,65.0010933 21.8012523,65.6430305 C22.6749431,66.0019411 25.1052802,66.8400826 28.7846261,66.8585409 L28.9234049,66.8585409 C35.9512152,66.8585409 41.7778717,63.8430086 45.427821,61.3128602 L45.9856706,60.9259204 L51.969564,69.3681802 L51.4123981,69.7551199 C46.5332655,73.1370828 38.672099,77.1691865 28.9254558,77.1691865 L28.7319859,77.1678192 C23.4002842,77.13979 19.6006179,75.9024031 17.8115342,75.1681747 C15.498783,74.2227017 9.35560167,71.7116952 6.05225733,65.109792 C4.13943501,61.2875655 3.60346192,56.9977299 4.54414938,53.030572 C5.60515733,48.5602556 8.00131253,45.7976698 8.98370198,44.7284582 C11.425661,42.0732038 14.4282041,40.2492545 19.8549316,37.9754707 C23.8282423,36.3087585 26.791818,35.3489292 29.4060541,34.5019003 C32.7504168,33.4176486 35.1670812,32.6348818 38.4396617,30.7788015 L38.5832259,30.6981321 C39.6394484,30.0999478 41.2446331,29.2050642 42.5203038,27.7817275 C45.3307443,24.6465584 44.6471051,20.4879815 44.0072189,18.5731082 C43.8164836,18.0022696 43.0596951,16.029287 40.8823044,14.2866908 C36.7353493,10.9669391 30.6495937,10.0980338 25.7116682,10.6251196 C17.5079984,11.5008613 9.84372002,16.3574338 7.12283623,18.3440891 L6.59096498,18.7645272 L0.220131804,10.8596078 L0.751319418,10.4384861 C2.51100657,9.04454586 7.01960672,6.08849021 11.8467827,4.06628562 C16.3970848,2.16029969 21.2611773,1.15056468 23.4002842,0.945472935 C25.05264,0.786185014 26.9264949,0.605704281 28.9377613,0.605704281 C31.7242744,0.605704281 35.7481744,0.963247552 38.3145558,1.70089419 C40.0981703,2.21293991 43.8096472,3.28010061 47.5553061,6.36468042 C51.463671,9.58256987 53.2486528,13.2783231 53.8406843,14.720118 C57.1802616,22.8520056 54.3322209,30.4294619 50.2741389,34.674861 C47.7993652,37.2638024 45.189231,38.838907 43.7529051,39.6510703" transform="translate(309.727 19.808)"/>
    <path d="M36.2328746,74.5166666 L36.2335582,74.5166666 C28.1700345,75.2044076 21.6050478,71.9872017 19.1535179,70.5720687 C16.5351799,69.0598589 13.9899914,67.2577862 10.5813667,64.4897313 L10.5813667,106.106948 L0.155869725,106.106948 L0.155869725,0.0587929663 L10.5813667,0.0587929663 L10.5813667,50.7670428 C13.5729715,54.1455874 18.7248761,58.8230464 23.6839945,61.1809178 C27.1343212,62.823019 30.7056521,64.5225459 35.3865293,64.124668 C39.4760587,63.7801138 42.5572203,62.5249524 44.5452429,60.3940492 C45.6096691,59.2516882 47.3919163,57.3395495 47.3919163,50.2693535 L47.3919163,0.0587929663 L57.8180969,0.0587929663 L57.8180969,50.2693535 C57.8180969,61.4475371 53.9719431,65.5732993 52.1233828,67.5565365 C49.527605,70.3396314 44.6641961,73.8056819 36.2328746,74.5166666" transform="translate(375.814 22.366)"/>
    <path d="M36.2328746,74.5166666 C28.1782382,75.2023566 21.6050478,71.9872017 19.1528342,70.5713851 C16.4996307,69.0393498 13.9223111,67.2106151 10.4487407,64.3823999 L9.83414907,70.4189336 L0.154502446,70.4189336 L0.154502446,0.0649457186 L10.5813667,0.0649457186 L10.5813667,50.7670428 C13.5722879,54.1449038 18.7228252,58.8223628 23.6812599,61.1802342 C27.1322703,62.8223354 30.7022339,64.5218623 35.3858457,64.124668 C39.475375,63.7794302 42.5565366,62.5249524 44.543192,60.3940492 C45.6083018,59.2523718 47.390549,57.3409168 47.390549,50.2693535 L47.390549,0.0649457186 L57.8167296,0.0649457186 L57.8167296,50.2693535 C57.8167296,61.4475371 53.9705758,65.5732993 52.1220155,67.5558528 C49.5269213,70.3389478 44.6628288,73.8049982 36.2328746,74.5166666" transform="translate(546.328 22.36)"/>
    <path d="M11.6218654,45.1201834 C11.8905356,46.7547646 12.1817659,47.8492709 12.3164428,48.3524293 L12.3608793,48.5171863 C13.0622931,51.1867972 13.7329431,53.0462957 15.4516119,55.7986268 C16.6855806,57.774344 18.3434055,59.6481989 20.2459732,61.2192016 C21.3808142,62.15442 23.2799637,63.7199536 26.2578958,64.8452236 C27.1083429,65.1685849 29.4238287,65.9404135 32.5419068,66.1215779 C35.7003197,66.2993241 38.1668897,65.7968493 39.3543709,65.4823753 L39.6428666,65.4064914 C40.9151191,65.0762937 42.656348,64.6244082 44.435177,63.3822359 C47.8896056,60.968306 50.9639308,56.4945715 52.2662634,51.9852877 C52.6559377,50.6344168 52.9437498,48.3961822 53.0989359,45.1201834 L11.6218654,45.1201834 Z M63.7329427,39.9846862 C63.7329427,45.6424837 63.4588034,50.7649918 62.294566,54.7970955 C60.3523472,61.5179519 55.8198197,68.0179929 50.4648743,71.7609172 C47.1478571,74.0784539 43.997648,74.8981372 42.3042738,75.3384008 L42.0581637,75.4019793 C40.2485709,75.8825776 36.527523,76.6468861 31.9314171,76.3741141 C27.5260465,76.1191167 24.1413491,75.0485378 22.5177061,74.4332626 C17.9209165,72.6968192 14.9710136,70.2637475 13.5538296,69.0947245 C10.8001312,66.8236753 8.38551773,64.0863842 6.56977216,61.1802342 C4.1934425,57.3716805 3.14815825,54.4484395 2.2320818,50.9632472 C1.9107714,49.7579914 0.932483791,46.0902674 0.682955504,40.3798296 C0.486067431,35.8978914 0.701413761,32.0435339 1.34471819,28.5986763 C1.83898929,25.9352182 2.58757416,21.9106345 5.26128684,17.3152122 C8.39303776,11.9363394 11.8228553,8.82236314 13.5893789,7.44414663 C15.5924416,5.88134755 19.8494625,3.0004922 25.8620688,1.26336514 C28.7894116,0.418387155 31.8015256,0.00752003057 35.0672698,0.00752003057 C36.5138503,0.00752003057 37.7867863,0.0847712537 38.8095105,0.146298777 C43.8616038,0.447099999 47.731685,1.51494434 49.5898161,2.12475046 C53.4058898,3.37854464 56.9792716,5.18471926 60.2094666,7.49336865 L60.7611634,7.88714479 L54.6378076,16.201564 L54.0861108,15.8077879 C52.8904259,14.9525553 50.0136724,13.2393556 46.7841611,12.0710163 C43.6257483,10.9286553 40.0660392,10.209467 38.0821185,10.0911974 C35.411824,9.93122583 32.4776448,10.0570154 28.7948807,11.1214416 C24.4797504,12.3656648 21.4724218,14.3953894 20.0654925,15.4939975 C19.1138668,16.2371133 16.6493477,18.4015148 14.3072,22.4240475 C12.5249527,25.4881182 12.0108561,28.2404494 11.5993053,30.452022 C11.3456752,31.817933 11.1809182,33.2624625 11.0995651,34.8491889 L63.7329427,34.8491889 L63.7329427,39.9846862 Z" transform="translate(614.957 20.406)"/>
    <path d="M47.1711009,20.5091743 C44.8494623,18.4302277 41.8694793,16.749159 39.6476521,15.5240777 C37.5611854,14.3741966 32.5829252,11.8925865 27.0283572,10.9525827 C23.4768518,10.3516639 19.952692,10.2422816 16.641144,11.7975607 C13.7978888,13.1340752 12.3157592,15.3394951 11.929503,15.9834832 C10.7734693,17.9058764 10.639476,19.6758182 10.5676939,20.6274439 C10.3837949,23.0058244 10.8090185,25.1210039 11.8303754,26.9135058 C12.221417,27.6012468 13.4136836,29.6931825 18.6086575,32.5015721 C21.1839261,33.8948287 24.9070249,35.4788206 34.6358935,37.6213457 C38.6919246,38.514862 42.904509,39.276436 47.1711009,39.8855585 L47.1711009,20.5091743 Z M42.8416142,74.7641439 L42.8409305,74.7648276 C38.6290298,76.3337794 34.5183076,77.1370554 29.6494296,77.1370554 C18.9942299,77.1370554 9.58188623,73.098799 2.85624434,65.9814319 L2.38795153,65.4857935 L9.6810139,58.7642534 L10.4501079,59.4909619 C12.8428449,61.798244 17.3083758,64.9908388 21.1319695,65.9000788 C23.7386856,66.5194559 26.1936338,66.8824683 29.2501844,66.8824683 C32.8707373,66.8824683 35.6093957,66.4558774 38.6502226,65.3230874 C46.0554018,62.5529816 47.110257,56.158221 47.1711009,50.950258 L47.1711009,50.4067649 C42.1114876,49.7258603 37.1427983,48.8508022 32.3935571,47.8034671 C22.0241186,45.520796 17.4013507,43.7023158 13.6495391,41.6732749 C6.63881972,37.8831795 4.08269296,34.3795289 2.76942217,32.0742977 C1.34676911,29.5776475 -0.259782874,25.4272743 0.170226147,19.8289533 C0.289179357,18.2777761 0.567420489,14.6449177 2.99228853,10.6121304 C3.97946345,8.96934555 6.85279877,5.23394128 12.2056933,2.71814923 C15.2820694,1.27293608 18.4979079,0.569471406 22.0364241,0.569471406 C31.7714455,0.569471406 39.2484068,4.15857691 41.8551229,5.56892446 C44.0270444,6.74410014 45.7005931,7.91859219 47.3064614,9.06984051 L47.9128493,2.58005413 L57.5979651,2.58005413 L57.5979651,50.950258 C57.5979651,56.8869804 57.5979651,69.2410233 42.8416142,74.7641439 L42.8416142,74.7641439 Z" transform="translate(243.657 19.844)"/>
    <path d="M52.640214,21.1928134 C51.9764004,20.1208673 49.7901224,17.4259618 46.9748964,14.9969919 C44.0578082,12.4798326 40.1672178,10.863026 37.9166778,10.482239 C35.7529599,10.116492 31.3277637,10.0775246 27.3845331,11.3443079 C25.6863735,11.889852 21.9940385,13.7760124 19.0099536,16.5358636 C15.8911919,19.4194535 13.9469222,22.9231041 13.1169842,25.0567419 C11.0947797,30.2578685 10.8486696,34.9660912 10.7994475,37.8941177 L10.7960293,38.0978422 C10.7392873,41.3519645 11.1132379,46.3179192 13.2167955,51.4958021 C14.1937159,53.8974264 17.2229209,59.8758507 24.2534659,63.5141782 C27.6053486,65.249938 31.2771744,66.2391638 34.8724327,66.3745244 C35.186223,66.3868299 35.4911261,66.392299 35.7885091,66.392299 C39.949137,66.392299 42.5134674,65.2848036 43.8041781,64.7276377 L44.1781287,64.5690334 C47.4438729,63.1942351 50.2898626,61.1234921 52.640214,58.4142302 L52.640214,21.1928134 Z M52.640214,71.2693806 C51.4616201,72.3802943 49.7361149,73.5404299 48.2286906,74.174847 L47.9333585,74.3026875 C46.0287399,75.1237381 41.570729,77.0461314 34.4779729,76.7952358 C29.358883,76.6003987 24.1659601,75.2105603 19.4597882,72.774754 C9.71041039,67.7288135 5.3111925,59.7357047 3.55629082,55.4205744 C0.78960321,48.6053758 0.296699388,42.1402004 0.370532415,37.9166778 L0.373950611,37.7163715 C0.433427217,34.2045172 0.533238531,28.3272715 3.52894526,21.3158685 C5.71590687,16.2008804 8.33356115,12.0006015 12.5085454,8.32672476 C17.1798517,4.21600259 25.1586041,0.0396510703 35.2962889,0.341819571 C42.9304873,0.569471406 48.9690718,3.98766712 52.7851455,8.26724816 L53.3867479,2.29976208 L63.0657109,2.29976208 L63.0657109,108.3486 L52.640214,108.3486 L52.640214,71.2693806 Z" transform="translate(169.02 20.158)"/>
    <path d="M47.1711009,20.5091743 C44.8494623,18.4302277 41.8687957,16.749159 39.6469685,15.5240777 C37.5611854,14.3741966 32.5829252,11.8925865 27.0283572,10.9525827 C23.4768518,10.3516639 19.952692,10.2422816 16.641144,11.7975607 C13.7978888,13.1340752 12.3157592,15.3394951 11.929503,15.9834832 C10.7734693,17.9058764 10.639476,19.6758182 10.5676939,20.6274439 C10.3837949,23.0058244 10.8090185,25.1210039 11.8303754,26.9135058 C12.221417,27.6012468 13.4136836,29.6931825 18.6086575,32.5015721 C21.1839261,33.8948287 24.9070249,35.4788206 34.6358935,37.6213457 C38.6919246,38.514862 42.904509,39.276436 47.1711009,39.8855585 L47.1711009,20.5091743 Z M42.8416142,74.7641439 L42.8409305,74.7648276 C38.6290298,76.3337794 34.5183076,77.1370554 29.648746,77.1370554 C18.9942299,77.1370554 9.58188623,73.098799 2.85624434,65.9814319 L2.38726789,65.4857935 L9.6810139,58.7642534 L10.4501079,59.4909619 C12.8428449,61.798244 17.3083758,64.9908388 21.1319695,65.9000788 C23.7386856,66.5194559 26.1936338,66.8824683 29.2501844,66.8824683 C32.8707373,66.8824683 35.6093957,66.4558774 38.6502226,65.3230874 C46.0547181,62.5529816 47.110257,56.158221 47.1711009,50.950258 L47.1711009,50.4067649 C42.1114876,49.7258603 37.1427983,48.8508022 32.3935571,47.8034671 C22.0241186,45.520796 17.4006671,43.7023158 13.6495391,41.6732749 C6.63881972,37.8831795 4.08269296,34.3795289 2.76942217,32.0742977 C1.34676911,29.5776475 -0.259782874,25.4272743 0.170226147,19.8289533 C0.289179357,18.2777761 0.567420489,14.6449177 2.99228853,10.6121304 C3.97946345,8.96934555 6.85279877,5.23394128 12.2056933,2.71814923 C15.2820694,1.27293608 18.4979079,0.569471406 22.0364241,0.569471406 C31.7714455,0.569471406 39.2484068,4.15857691 41.8551229,5.56892446 C44.0270444,6.74410014 45.7005931,7.91859219 47.3057778,9.06984051 L47.9128493,2.58005413 L57.5972814,2.58005413 L57.5972814,50.950258 C57.5972814,56.8869804 57.5972814,69.2410233 42.8416142,74.7641439 L42.8416142,74.7641439 Z" transform="translate(472.44 19.844)"/>
  </g>
</svg>
