<?xml version="1.0" encoding="UTF-8" standalone="no"?><!-- Created with Inkscape (http://www.inkscape.org/) -->
<svg xmlns:dc="http://purl.org/dc/elements/1.1/" 
  xmlns:cc="http://creativecommons.org/ns#" 
  xmlns:rdf="http://www.w3.org/1999/02/22-rdf-syntax-ns#" 
  xmlns:svg="http://www.w3.org/2000/svg" 
  xmlns="http://www.w3.org/2000/svg" 
  xmlns:sodipodi="http://sodipodi.sourceforge.net/DTD/sodipodi-0.dtd" 
  xmlns:inkscape="http://www.inkscape.org/namespaces/inkscape" version="1.1" id="svg3713" xml:space="preserve" width="1737.2667" height="664.86932" viewBox="0 0 1737.2667 664.86932" sodipodi:docname="final-dashlane-logo-teal.svg" inkscape:version="0.92.4 (5da689c313, 2019-01-14)">
  <metadata id="metadata3719">
    <rdf:RDF>
      <cc:Work rdf:about="">
        <dc:format>image/svg+xml</dc:format>
        <dc:type rdf:resource="http://purl.org/dc/dcmitype/StillImage" />
        <dc:title></dc:title>
      </cc:Work>
    </rdf:RDF>
  </metadata>
  <defs id="defs3717">
    <clipPath clipPathUnits="userSpaceOnUse" id="clipPath3729">
      <path d="M 0,498.652 H 1302.948 V 0 H 0 Z" id="path3727" inkscape:connector-curvature="0" />
    </clipPath>
  </defs>
  <sodipodi:namedview pagecolor="#ffffff" bordercolor="#666666" borderopacity="1" objecttolerance="10" gridtolerance="10" guidetolerance="10" inkscape:pageopacity="0" inkscape:pageshadow="2" inkscape:window-width="1920" inkscape:window-height="1017" id="namedview3715" showgrid="false" inkscape:zoom="1.0159637" inkscape:cx="868.63336" inkscape:cy="332.43466" inkscape:window-x="-8" inkscape:window-y="-8" inkscape:window-maximized="1" inkscape:current-layer="g3721" />
  <g id="g3721" inkscape:groupmode="layer" inkscape:label="final-dashlane-logo-teal" transform="matrix(1.3333333,0,0,-1.3333333,0,664.86933)">
    <g id="g3723" transform="matrix(0.51272937,0,0,0.51272937,75.634342,75.846403)">
      <g id="g3725" clip-path="url(#clipPath3729)">
        <g id="g3731" transform="translate(291.4494,283.3876)">
          <path d="m 0,0 c -4.58,3.272 -7.643,8.978 -7.643,15.193 0,1.869 1.02,5.528 1.711,7.887 0.343,1.169 0.411,1.753 1.737,2.024 6.468,1.313 9.302,1.109 9.836,1.883 1.75,2.919 2.453,6.812 2.453,6.812 L -41.804,49.73 c 0,0 3.14,-8.108 4.789,-8.822 L -14.33,30.835 c 0,0 -11.665,-2.557 -18.096,-4.502 l -1.522,-0.475 c 0,0 2.476,-4.151 6.291,-6.487 4.215,1.206 11.962,3.197 11.962,3.197 -10.943,-21.531 -33.445,-35.605 -57.904,-35.605 -1.124,0 -5.791,0.062 -8.721,-0.182 -2.538,-0.217 -3.763,-2.314 -1.27,-3.42 4.467,-2.4 7.703,-6.41 9.148,-11.101 0.91,-2.916 -0.689,-4.671 -2.695,-6.27 -4.395,-3.389 -15.612,-11.773 -26.649,-19.991 -1.296,2.449 -2.506,4.923 -3.6,7.397 -9.947,22.488 -14.782,53.726 -14.782,95.498 v 0.372 l 86.149,27.65 86.144,-27.636 v -0.386 c 0,-15.152 -0.66,-29.169 -1.96,-41.663 L 48.049,6.128 h 14.119 l 0.091,0.9 c 1.278,12.725 1.926,26.81 1.926,41.865 V 59.536 L -36.019,91.682 -136.229,59.521 V 48.893 c 0,-43.768 5.229,-76.865 15.985,-101.185 1.52,-3.434 3.216,-6.85 5.051,-10.193 -8.759,-6.508 -15.477,-11.485 -15.477,-11.485 2.003,-3.496 4.272,-6.861 4.272,-6.861 l 55.087,39.379 c 29.661,19.964 64.313,30.515 100.219,30.515 H 45.636 C 43.213,-24.632 39.759,-36.617 35.342,-46.604 30.315,-57.968 23.569,-68.469 15.292,-77.816 8.612,-85.365 0.908,-92.2 -7.608,-98.134 c -14.48,-10.091 -26.921,-14.391 -28.311,-14.856 l -0.102,-0.035 -0.266,0.092 c -1.355,0.451 -13.662,4.694 -28.193,14.827 -8.508,5.932 -16.205,12.766 -22.877,20.311 -2.108,2.383 -4.212,4.99 -6.429,7.973 l -0.587,0.789 -11.424,-8.191 0.604,-0.816 c 2.515,-3.393 4.904,-6.36 7.304,-9.071 7.413,-8.38 15.948,-15.96 25.368,-22.529 15.817,-11.027 29.26,-15.791 31.781,-16.629 0.106,-0.037 2.6,-0.903 3.849,-1.252 0.323,-0.091 0.652,-0.165 0.652,-0.165 l 0.212,-0.046 0.214,0.045 c 0,0 0.347,0.074 0.674,0.166 1.247,0.35 3.741,1.218 3.833,1.25 2.525,0.839 15.922,5.583 31.736,16.603 9.432,6.571 17.975,14.152 25.392,22.532 9.237,10.434 16.766,22.157 22.378,34.844 5.214,11.788 9.053,25.353 11.704,41.355 h 11.982 c 0.475,3.019 1.271,8.025 1.271,8.025 H 28.908 C 10.042,-2.555 4.581,-3.272 0,0" style="fill:#007c97;fill-opacity:1;fill-rule:nonzero;stroke:none" id="path3733" inkscape:connector-curvature="0" />
        </g>
        <path d="m 812.619,187.802 h 15.252 v 155.123 h -15.252 z" style="fill:#007c97;fill-opacity:1;fill-rule:nonzero;stroke:none" id="path3735" inkscape:connector-curvature="0" />
        <g id="g3737" transform="translate(671.0568,241.975)">
          <path d="m 0,0 -0.19,0.107 c -6.139,3.482 -10.729,4.969 -16.066,6.698 -3.535,1.147 -7.542,2.447 -12.748,4.628 -6.482,2.717 -8.54,4.161 -10.257,6.027 -0.906,0.987 -2.594,2.824 -3.242,5.557 -0.73,3.074 0.155,5.794 1.026,7.533 2.29,4.578 7.069,6.531 9.367,7.47 1.278,0.525 4.833,1.751 10.215,1.778 h 0.203 c 10.28,0 18.803,-4.411 24.142,-8.112 l 0.816,-0.566 8.753,12.349 -0.815,0.566 C 4.067,48.982 -7.432,54.88 -21.689,54.88 l -0.283,-0.002 c -7.799,-0.041 -13.357,-1.851 -15.974,-2.925 -3.383,-1.383 -12.369,-5.056 -17.201,-14.713 -2.798,-5.591 -3.582,-11.866 -2.206,-17.669 1.552,-6.539 5.057,-10.58 6.494,-12.144 3.572,-3.884 7.964,-6.552 15.902,-9.878 5.812,-2.438 10.147,-3.842 13.971,-5.081 4.892,-1.586 8.427,-2.731 13.214,-5.446 l 0.21,-0.118 c 1.545,-0.875 3.893,-2.184 5.759,-4.266 4.111,-4.586 3.111,-10.669 2.175,-13.47 -0.279,-0.835 -1.386,-3.721 -4.571,-6.27 -6.066,-4.856 -14.968,-6.127 -22.191,-5.356 -12,1.281 -23.211,8.385 -27.191,11.291 l -0.778,0.615 -9.319,-11.563 0.777,-0.616 c 2.574,-2.039 9.169,-6.363 16.23,-9.321 6.656,-2.788 13.771,-4.265 16.9,-4.565 2.417,-0.233 5.158,-0.497 8.1,-0.497 4.076,0 9.962,0.523 13.716,1.602 2.609,0.749 8.038,2.31 13.517,6.822 5.717,4.707 8.328,10.113 9.194,12.222 4.885,11.895 0.719,22.979 -5.217,29.189 C 5.919,-3.492 2.101,-1.188 0,0" style="fill:#007c97;fill-opacity:1;fill-rule:nonzero;stroke:none" id="path3739" inkscape:connector-curvature="0" />
        </g>
        <g id="g3741" transform="translate(756.7258,296.7162)">
          <path d="m 0,0 h 0.001 c -11.795,1.006 -21.398,-3.7 -24.984,-5.77 -3.83,-2.212 -7.553,-4.848 -12.539,-8.897 v 60.876 h -15.25 v -155.123 h 15.25 v 74.174 c 4.376,4.942 11.912,11.784 19.166,15.233 5.047,2.402 10.271,4.888 17.118,4.306 5.982,-0.504 10.489,-2.34 13.397,-5.457 1.557,-1.671 4.164,-4.468 4.164,-14.81 v -73.446 h 15.251 v 73.446 c 0,16.351 -5.626,22.386 -8.33,25.287 C 19.447,-6.11 12.333,-1.04 0,0" style="fill:#007c97;fill-opacity:1;fill-rule:nonzero;stroke:none" id="path3743" inkscape:connector-curvature="0" />
        </g>
        <g id="g3745" transform="translate(1006.1462,296.7075)">
          <path d="m 0,0 c -11.782,1.003 -21.397,-3.7 -24.984,-5.771 -3.881,-2.241 -7.651,-4.916 -12.732,-9.053 l -0.899,8.83 h -14.159 v -102.911 h 15.252 v 74.165 c 4.375,4.941 11.909,11.783 19.162,15.232 5.048,2.402 10.27,4.888 17.121,4.307 5.982,-0.505 10.489,-2.34 13.395,-5.457 1.558,-1.67 4.165,-4.466 4.165,-14.81 v -73.437 h 15.251 v 73.437 c 0,16.351 -5.626,22.386 -8.33,25.286 C 19.446,-6.111 12.331,-1.041 0,0" style="fill:#007c97;fill-opacity:1;fill-rule:nonzero;stroke:none" id="path3747" inkscape:connector-curvature="0" />
        </g>
        <g id="g3749" transform="translate(1070.5348,250.8495)">
          <path d="m 0,0 c 0.393,2.391 0.819,3.992 1.016,4.728 l 0.065,0.241 c 1.026,3.905 2.007,6.625 4.521,10.651 1.805,2.89 4.23,5.631 7.013,7.929 1.66,1.368 4.438,3.658 8.794,5.304 1.244,0.473 4.631,1.602 9.192,1.867 4.62,0.26 8.228,-0.475 9.965,-0.935 l 0.422,-0.111 c 1.861,-0.483 4.408,-1.144 7.01,-2.961 5.053,-3.531 9.55,-10.075 11.455,-16.671 C 60.023,8.066 60.444,4.792 60.671,0 Z m 76.226,-7.512 c 0,8.276 -0.401,15.769 -2.104,21.667 -2.841,9.831 -9.471,19.339 -17.304,24.814 -4.852,3.39 -9.46,4.589 -11.937,5.233 l -0.36,0.093 c -2.647,0.703 -8.09,1.821 -14.813,1.422 C 23.264,45.344 18.313,43.778 15.938,42.878 9.214,40.338 4.899,36.779 2.826,35.069 -1.202,31.747 -4.734,27.743 -7.39,23.492 c -3.476,-5.571 -5.005,-9.847 -6.345,-14.945 -0.47,-1.763 -1.901,-7.128 -2.266,-15.481 -0.288,-6.556 0.027,-12.194 0.968,-17.233 0.723,-3.896 1.818,-9.783 5.729,-16.505 4.581,-7.868 9.598,-12.423 12.182,-14.439 2.93,-2.286 9.157,-6.5 17.952,-9.041 4.282,-1.236 8.688,-1.837 13.465,-1.837 2.116,0 3.978,0.113 5.474,0.203 7.39,0.44 13.051,2.002 15.769,2.894 5.582,1.834 10.809,4.476 15.534,7.853 l 0.807,0.576 -8.957,12.162 -0.807,-0.576 c -1.749,-1.251 -5.957,-3.757 -10.681,-5.466 -4.62,-1.671 -9.827,-2.723 -12.729,-2.896 -3.906,-0.234 -8.198,-0.05 -13.585,1.507 -6.312,1.82 -10.711,4.789 -12.769,6.396 -1.392,1.087 -4.997,4.253 -8.423,10.137 -2.607,4.482 -3.359,8.508 -3.961,11.743 -0.371,1.998 -0.612,4.111 -0.731,6.432 h 76.99 z" style="fill:#007c97;fill-opacity:1;fill-rule:nonzero;stroke:none" id="path3751" inkscape:connector-curvature="0" />
        </g>
        <g id="g3753" transform="translate(579.4118,214.0273)">
          <path d="m 0,0 c -3.396,-3.041 -7.755,-5.5 -11.005,-7.292 -3.052,-1.682 -10.334,-5.312 -18.459,-6.687 -5.195,-0.879 -10.35,-1.039 -15.194,1.236 -4.159,1.955 -6.327,5.181 -6.892,6.123 -1.691,2.812 -1.887,5.401 -1.992,6.793 -0.269,3.479 0.353,6.573 1.847,9.195 0.572,1.006 2.316,4.066 9.915,8.174 3.767,2.038 9.213,4.355 23.444,7.489 5.933,1.307 12.095,2.421 18.336,3.312 z m -6.333,79.362 -10e-4,0.001 c -6.161,2.295 -12.174,3.47 -19.296,3.47 -15.586,0 -29.354,-5.907 -39.192,-16.318 l -0.685,-0.725 10.668,-9.832 1.125,1.063 c 3.5,3.375 10.032,8.045 15.625,9.375 3.813,0.906 7.404,1.437 11.875,1.437 5.296,0 9.302,-0.624 13.75,-2.281 C -1.632,61.5 -0.089,52.146 0,44.528 v -0.795 c -7.401,-0.996 -14.669,-2.276 -21.616,-3.808 -15.168,-3.339 -21.93,-5.999 -27.418,-8.967 -10.255,-5.544 -13.994,-10.669 -15.915,-14.041 -2.081,-3.652 -4.431,-9.723 -3.802,-17.912 0.174,-2.269 0.581,-7.583 4.128,-13.482 1.444,-2.403 5.647,-7.867 13.477,-11.547 4.5,-2.114 9.204,-3.143 14.38,-3.143 14.24,0 25.177,5.25 28.99,7.313 3.177,1.719 5.625,3.437 7.974,5.121 l 0.887,-9.493 h 14.167 v 70.754 c 0,8.684 0,26.755 -21.585,34.834" style="fill:#007c97;fill-opacity:1;fill-rule:nonzero;stroke:none" id="path3755" inkscape:connector-curvature="0" />
        </g>
        <g id="g3757" transform="translate(478.2345,215.4858)">
          <path d="m 0,0 c -0.971,-1.568 -4.169,-5.51 -8.287,-9.063 -4.267,-3.682 -9.958,-6.047 -13.25,-6.604 -3.165,-0.535 -9.638,-0.592 -15.406,1.261 -2.484,0.798 -7.885,3.557 -12.25,7.594 -4.562,4.218 -7.406,9.343 -8.62,12.464 -2.958,7.608 -3.318,14.495 -3.39,18.778 l -0.005,0.298 c -0.083,4.76 0.464,12.024 3.541,19.598 1.429,3.513 5.86,12.258 16.144,17.58 4.903,2.539 10.274,3.986 15.533,4.184 0.459,0.018 0.905,0.026 1.34,0.026 6.086,0 9.837,-1.62 11.725,-2.435 l 0.547,-0.232 C -7.601,61.438 -3.438,58.409 0,54.446 Z m 0,73.25 c -1.724,1.625 -4.248,3.322 -6.453,4.25 l -0.432,0.187 c -2.786,1.201 -9.307,4.013 -19.682,3.646 -7.488,-0.285 -15.084,-2.318 -21.968,-5.881 -14.261,-7.381 -20.696,-19.073 -23.263,-25.385 -4.047,-9.969 -4.768,-19.426 -4.66,-25.604 l 0.005,-0.293 c 0.087,-5.137 0.233,-13.734 4.615,-23.99 3.199,-7.482 7.028,-13.626 13.135,-19 6.833,-6.013 18.504,-12.122 33.333,-11.68 11.167,0.333 20,5.333 25.582,11.593 l 0.88,-8.729 H 15.25 V 127.488 H 0 Z" style="fill:#007c97;fill-opacity:1;fill-rule:nonzero;stroke:none" id="path3759" inkscape:connector-curvature="0" />
        </g>
        <g id="g3761" transform="translate(914.0651,214.0273)">
          <path d="m 0,0 c -3.396,-3.041 -7.756,-5.5 -11.006,-7.292 -3.051,-1.682 -10.333,-5.312 -18.458,-6.687 -5.195,-0.879 -10.35,-1.039 -15.194,1.236 -4.159,1.955 -6.327,5.181 -6.892,6.123 -1.691,2.812 -1.887,5.401 -1.992,6.793 -0.269,3.479 0.353,6.573 1.847,9.195 0.572,1.006 2.316,4.066 9.915,8.174 3.767,2.038 9.213,4.355 23.444,7.489 5.933,1.307 12.095,2.421 18.336,3.312 z m -6.333,79.362 -10e-4,0.001 c -6.161,2.295 -12.174,3.47 -19.297,3.47 -15.585,0 -29.353,-5.907 -39.191,-16.318 l -0.686,-0.725 10.669,-9.832 1.125,1.063 c 3.5,3.375 10.032,8.045 15.625,9.375 3.813,0.906 7.404,1.437 11.875,1.437 5.296,0 9.302,-0.624 13.75,-2.281 C -1.633,61.5 -0.089,52.146 0,44.528 V 43.733 C -7.401,42.737 -14.669,41.457 -21.616,39.925 -36.784,36.586 -43.547,33.926 -49.034,30.958 -59.289,25.414 -63.028,20.289 -64.949,16.917 -67.03,13.265 -69.38,7.194 -68.751,-0.995 c 0.174,-2.269 0.581,-7.583 4.128,-13.482 1.444,-2.403 5.647,-7.867 13.477,-11.547 4.5,-2.114 9.204,-3.143 14.38,-3.143 14.24,0 25.177,5.25 28.99,7.313 3.177,1.719 5.625,3.437 7.973,5.121 l 0.888,-9.493 h 14.166 v 70.754 c 0,8.684 0,26.755 -21.584,34.834" style="fill:#007c97;fill-opacity:1;fill-rule:nonzero;stroke:none" id="path3763" inkscape:connector-curvature="0" />
        </g>
      </g>
    </g>
  </g>
</svg>