<svg id="Layer_3" enable-background="new 0 0 64 64" height="512" viewBox="0 0 64 64" width="512" xmlns="http://www.w3.org/2000/svg"><path d="m43 48.224-1.904-4.224c-.807-1.965-1.521-3.968-2.14-6l-1.087-4c-1.234-5.153-1.869-10.468-1.869-15.839v-4.161h-8v4.161c0 5.372-.635 10.686-1.869 15.839l-1.087 4c-.619 2.032-1.334 4.035-2.14 6l-1.794 4c-2.433 4.989-5.484 9.695-9.11 14h12v-2c0-4.418 3.582-8 8-8s8 3.582 8 8v2h12c-3.571-4.241-6.585-8.87-9-13.776z" fill="#a8b0bc"/><path d="m28 10h8v4h-8z" fill="#4d5d7a"/><path d="m30 6h4v4h-4z" fill="#8892a0"/><path d="m18 44h28v4h-28z" fill="#4d5d7a"/><path d="m22 34h20v4h-20z" fill="#4d5d7a"/><circle cx="6" cy="52" fill="#78b75b" r="4"/><circle cx="58" cy="52" fill="#78b75b" r="4"/><path d="m15 26c-.034 0-.066.009-.1.01-.459-2.287-2.478-4.01-4.9-4.01s-4.441 1.723-4.9 4.01c-.034-.001-.066-.01-.1-.01-1.657 0-3 1.343-3 3s1.343 3 3 3c.841 0 1.598-.348 2.143-.905.811.567 1.793.905 2.857.905s2.046-.338 2.857-.905c.545.557 1.302.905 2.143.905 1.657 0 3-1.343 3-3s-1.343-3-3-3z" fill="#a1cdfb"/><path d="m59 26c-.034 0-.066.009-.1.01-.459-2.287-2.478-4.01-4.9-4.01s-4.441 1.723-4.9 4.01c-.034-.001-.066-.01-.1-.01-1.657 0-3 1.343-3 3s1.343 3 3 3c.841 0 1.598-.348 2.143-.905.811.567 1.793.905 2.857.905s2.046-.338 2.857-.905c.545.557 1.302.905 2.143.905 1.657 0 3-1.343 3-3s-1.343-3-3-3z" fill="#a1cdfb"/><path d="m1 61h62v2h-62z"/><path d="m6 57c-2.757 0-5-2.243-5-5s2.243-5 5-5 5 2.243 5 5-2.243 5-5 5zm0-8c-1.654 0-3 1.346-3 3s1.346 3 3 3 3-1.346 3-3-1.346-3-3-3z"/><path d="m5 51h2v11h-2z"/><path d="m58 57c-2.757 0-5-2.243-5-5s2.243-5 5-5 5 2.243 5 5-2.243 5-5 5zm0-8c-1.654 0-3 1.346-3 3s1.346 3 3 3 3-1.346 3-3-1.346-3-3-3z"/><path d="m57 51h2v11h-2z"/><path d="m36 15h-8c-.552 0-1-.447-1-1v-4c0-.553.448-1 1-1h8c.552 0 1 .447 1 1v4c0 .553-.448 1-1 1zm-7-2h6v-2h-6z"/><path d="m35 10h-2v-3h-2v3h-2v-4c0-.553.448-1 1-1h4c.552 0 1 .447 1 1z"/><path d="m31 1h2v5h-2z"/><path d="m12.765 62.645-1.53-1.289c3.545-4.21 6.565-8.851 8.976-13.794l1.798.877c-2.484 5.09-5.593 9.87-9.244 14.206z"/><path d="m23.83 44.38-1.851-.76c.792-1.929 1.501-3.918 2.108-5.911l1.913.582c-.625 2.054-1.355 4.102-2.17 6.089z"/><path d="m27.104 34.232-1.945-.465c1.221-5.104 1.841-10.355 1.841-15.607v-4.16h2v4.16c0 5.408-.638 10.816-1.896 16.072z"/><path d="m51.235 62.645c-3.595-4.271-6.668-8.974-9.132-13.979l1.794-.883c2.393 4.859 5.376 9.426 8.868 13.572z"/><path d="m40.17 44.38c-.814-1.985-1.545-4.034-2.171-6.088l1.913-.584c.608 1.995 1.318 3.984 2.109 5.912z"/><path d="m36.896 34.232c-1.258-5.256-1.896-10.664-1.896-16.072v-4.16h2v4.16c0 5.252.62 10.503 1.841 15.607z"/><path d="m41 62h-2v-2c0-3.859-3.14-7-7-7s-7 3.141-7 7v2h-2v-2c0-4.963 4.038-9 9-9s9 4.037 9 9z"/><path d="m46 49h-28c-.552 0-1-.447-1-1v-4c0-.553.448-1 1-1h28c.552 0 1 .447 1 1v4c0 .553-.448 1-1 1zm-27-2h26v-2h-26z"/><path d="m42 39h-20c-.552 0-1-.447-1-1v-4c0-.553.448-1 1-1h20c.552 0 1 .447 1 1v4c0 .553-.448 1-1 1zm-19-2h18v-2h-18z"/><path d="m25.838 40h6.325v2h-6.325z" transform="matrix(.316 -.949 .949 .316 -19.069 55.539)"/><path d="m34 37.838h2v6.325h-2z" transform="matrix(.949 -.316 .316 .949 -11.169 13.172)"/><path d="m31 12.343h2v11.314h-2z" transform="matrix(.707 -.707 .707 .707 -3.355 27.9)"/><path d="m26.343 17h11.314v2h-11.314z" transform="matrix(.707 -.707 .707 .707 -3.355 27.9)"/><path d="m31.638 20.079h2v13.117h-2z" transform="matrix(.707 -.707 .707 .707 -9.276 30.88)"/><path d="m24.804 25.638h13.117v2h-13.117z" transform="matrix(.707 -.707 .707 .707 -9.65 29.979)"/><path d="m15 33c-.808 0-1.578-.238-2.232-.682-1.708.895-3.827.895-5.535 0-.655.444-1.425.682-2.233.682-2.206 0-4-1.794-4-4 0-1.976 1.439-3.62 3.323-3.942.819-2.392 3.094-4.058 5.677-4.058s4.858 1.666 5.677 4.058c1.884.322 3.323 1.966 3.323 3.942 0 2.206-1.794 4-4 4zm-2.144-2.904c.262 0 .521.103.715.301.382.388.889.603 1.429.603 1.103 0 2-.897 2-2 0-1.09-.875-1.979-1.96-2-.057.007-.107.01-.14.01-.475 0-.886-.335-.98-.803-.374-1.858-2.022-3.207-3.92-3.207s-3.546 1.349-3.92 3.207c-.096.478-.535.808-1.009.803-.038-.002-.121-.01-.158-.015-1.016.005-1.913.902-1.913 2.005s.897 2 2 2c.54 0 1.047-.215 1.429-.604.342-.35.886-.4 1.287-.12 1.355.947 3.213.947 4.568 0 .174-.121.374-.18.572-.18z"/><path d="m59 33c-.808 0-1.578-.238-2.232-.682-1.708.895-3.827.895-5.535 0-.655.444-1.425.682-2.233.682-2.206 0-4-1.794-4-4 0-1.976 1.439-3.62 3.323-3.942.819-2.392 3.094-4.058 5.677-4.058s4.858 1.666 5.677 4.058c1.884.322 3.323 1.966 3.323 3.942 0 2.206-1.794 4-4 4zm-2.144-2.904c.262 0 .521.103.715.301.382.388.889.603 1.429.603 1.103 0 2-.897 2-2 0-1.09-.875-1.979-1.96-2-.057.007-.106.01-.14.01-.475 0-.886-.335-.98-.803-.374-1.858-2.022-3.207-3.92-3.207s-3.546 1.349-3.92 3.207c-.096.478-.529.808-1.009.803-.038-.002-.121-.01-.158-.015-1.016.005-1.913.902-1.913 2.005s.897 2 2 2c.54 0 1.047-.215 1.429-.604.341-.35.886-.4 1.287-.12 1.355.947 3.213.947 4.568 0 .174-.121.374-.18.572-.18z"/></svg>