<svg id="Layer_3" enable-background="new 0 0 64 64" height="512" viewBox="0 0 64 64" width="512" xmlns="http://www.w3.org/2000/svg"><path fill="#605367" d="m63 52c0-2.757-2.243-5-5-5s-5 2.243-5 5c0 2.414 1.721 4.434 4 4.899v4.101h-4.516c-3.073-3.7-5.729-7.733-7.941-12h1.457c.552 0 1-.447 1-1v-4c0-.553-.448-1-1-1h-4.217c-.524-1.314-1.003-2.652-1.444-4h1.661c.552 0 1-.447 1-1v-4c0-.553-.448-1-1-1h-3.331c-1.103-4.863-1.669-9.85-1.669-14.84v-4.16-4c0-.553-.448-1-1-1h-1v-3c0-.553-.448-1-1-1h-1v-4h-2v4h-1c-.552 0-1 .447-1 1v3h-1c-.552 0-1 .447-1 1v4 4.16c0 4.99-.566 9.977-1.669 14.84h-3.331c-.552 0-1 .447-1 1v4c0 .553.448 1 1 1h1.661c-.441 1.348-.92 2.685-1.444 4h-4.217c-.552 0-1 .447-1 1v4c0 .553.448 1 1 1h1.482c-2.212 4.27-4.882 8.298-7.957 12h-4.525v-4.101c2.279-.465 4-2.484 4-4.899 0-2.757-2.243-5-5-5s-5 2.243-5 5c0 2.414 1.721 4.434 4 4.899v4.101h-4v2h62v-2h-4v-4.101c2.279-.465 4-2.485 4-4.899zm-60 0c0-1.654 1.346-3 3-3s3 1.346 3 3c0 1.302-.839 2.402-2 2.816v-3.816h-2v3.816c-1.161-.414-2-1.514-2-2.816zm36.642-9h-2.921l-1.333-4h2.846c.426 1.346.899 2.68 1.408 4zm-6.363-4 1.333 4h-5.225l1.333-4zm1.742-19.393-1.607-1.607 1.586-1.586v1.746c0 .483.011.965.021 1.447zm-3.021-3.021-1.586-1.586h3.172zm-3-.172 1.586 1.586-1.607 1.607c.01-.482.021-.964.021-1.447zm-.262 7.738 1.848 1.848-2.342 2.342c.207-1.391.372-2.789.494-4.19zm.676-2.152 2.586-2.586 2.586 2.586-2.586 2.586zm5.848 2.152c.122 1.401.287 2.799.494 4.19l-2.342-2.342zm-4.262-17.152h2v2h-2zm-2 4h6v2h-6zm-1.361 20.775 4.361-4.361 4.361 4.361c.082.409.17.817.259 1.225h-9.24c.089-.408.177-.816.259-1.225zm-4.639 3.225h18v2h-18zm2.766 4h2.846l-1.333 4h-2.921c.509-1.32.982-2.654 1.408-4zm-6.766 6h26v2h-26zm2.724 4h20.55c2.12 4.247 4.675 8.275 7.62 12h-8.894v-1c0-4.963-4.038-9-9-9s-9 4.037-9 9v1h-8.893c2.945-3.725 5.497-7.753 7.617-12zm17.276 12h-14v-1c0-3.859 3.14-7 7-7s7 3.141 7 7zm16-9c0-1.654 1.346-3 3-3s3 1.346 3 3c0 1.302-.839 2.402-2 2.816v-3.816h-2v3.816c-1.161-.414-2-1.514-2-2.816z"/><path fill="#605367" d="m5 33c.808 0 1.578-.238 2.232-.682 1.708.895 3.827.895 5.535 0 .655.444 1.425.682 2.233.682 2.206 0 4-1.794 4-4 0-1.976-1.439-3.62-3.323-3.942-.819-2.392-3.094-4.058-5.677-4.058s-4.858 1.666-5.677 4.058c-1.884.322-3.323 1.966-3.323 3.942 0 2.206 1.794 4 4 4zm-.087-6.005c.037.005.12.013.158.015.475.005.913-.325 1.009-.803.374-1.858 2.022-3.207 3.92-3.207s3.546 1.349 3.92 3.207c.094.468.505.803.98.803.033 0 .083-.003.14-.01 1.084.021 1.96.91 1.96 2 0 1.103-.897 2-2 2-.54 0-1.047-.215-1.429-.604-.194-.198-.453-.301-.715-.301-.199 0-.399.06-.572.181-1.355.947-3.213.947-4.568 0-.401-.28-.945-.229-1.287.12-.382.389-.889.604-1.429.604-1.103 0-2-.897-2-2s.897-2 1.913-2.005z"/><path fill="#605367" d="m49 33c.808 0 1.578-.238 2.232-.682 1.708.895 3.827.895 5.535 0 .655.444 1.425.682 2.233.682 2.206 0 4-1.794 4-4 0-1.976-1.439-3.62-3.323-3.942-.819-2.392-3.094-4.058-5.677-4.058s-4.858 1.666-5.677 4.058c-1.884.322-3.323 1.966-3.323 3.942 0 2.206 1.794 4 4 4zm-.087-6.005c.037.005.121.013.158.015.48.005.913-.325 1.009-.803.374-1.858 2.022-3.207 3.92-3.207s3.546 1.349 3.92 3.207c.094.468.505.803.98.803.034 0 .083-.003.14-.01 1.084.021 1.96.91 1.96 2 0 1.103-.897 2-2 2-.54 0-1.047-.215-1.429-.604-.194-.198-.453-.301-.715-.301-.199 0-.399.06-.572.181-1.355.947-3.213.947-4.568 0-.401-.28-.946-.229-1.287.12-.382.389-.889.604-1.429.604-1.103 0-2-.897-2-2s.897-2 1.913-2.005z"/></svg>
