<?xml version="1.0" encoding="UTF-8"?>
<svg width="1066px" height="280px" viewBox="0 0 1066 280" version="1.1" xmlns="http://www.w3.org/2000/svg" xmlns:xlink="http://www.w3.org/1999/xlink">
    <!-- Generator: Sketch 51.3 (57544) - http://www.bohemiancoding.com/sketch -->
    <title>react ladies</title>
    <desc>Created with Sketch.</desc>
    <defs>
        <circle id="path-1" cx="120" cy="120" r="120"></circle>
        <path d="M12,160 L-3.19744231e-14,160 L-3.19744231e-14,-1.42108547e-14 L264,-1.42108547e-14 L264,160 L252,160 C252,226.27417 198.27417,280 132,280 C65.72583,280 12,226.27417 12,160 Z" id="path-3"></path>
        <path d="M124,144.610951 L124,163 L128,163 C167.764502,163 200,195.235498 200,235 L200,244 L0,244 L0,235 C-4.86974701e-15,195.235498 32.235498,163 72,163 L76,163 L76,144.610951 C58.7626345,136.422372 46.3722246,119.687011 44.3051388,99.8812385 C38.4803105,99.0577866 34,94.0521096 34,88 L34,74 C34,68.0540074 38.3245733,63.1180731 44,62.1659169 L44,56 C44,25.072054 69.072054,5.68137151e-15 100,0 C130.927946,-5.68137151e-15 156,25.072054 156,56 L156,62.1659169 C161.675427,63.1180731 166,68.0540074 166,74 L166,88 C166,94.0521096 161.51969,99.0577866 155.694861,99.8812385 C153.627775,119.687011 141.237365,136.422372 124,144.610951 Z" id="path-5"></path>
        <path d="M124,144.610951 L124,163 L128,163 C167.764502,163 200,195.235498 200,235 L200,244 L0,244 L0,235 C-4.86974701e-15,195.235498 32.235498,163 72,163 L76,163 L76,144.610951 C58.7626345,136.422372 46.3722246,119.687011 44.3051388,99.8812385 C38.4803105,99.0577866 34,94.0521096 34,88 L34,74 C34,68.0540074 38.3245733,63.1180731 44,62.1659169 L44,56 C44,25.072054 69.072054,5.68137151e-15 100,0 C130.927946,-5.68137151e-15 156,25.072054 156,56 L156,62.1659169 C161.675427,63.1180731 166,68.0540074 166,74 L166,88 C166,94.0521096 161.51969,99.0577866 155.694861,99.8812385 C153.627775,119.687011 141.237365,136.422372 124,144.610951 Z" id="path-7"></path>
        <path d="M149.544255,0.3304167 C178.784209,9.4878872 200,36.7921987 200,69.051724 L200,78 L0,78 L0,69.051724 C0,36.3969699 21.7388273,8.8195914 51.5340368,0.0020332 C51.182234,1.4201865 51,2.8712315 51,4.3476251 C51,20.6289957 73.161905,33.8276544 100.5,33.8276544 C127.838095,33.8276544 150,20.6289957 150,4.3476251 C150,2.9849859 149.844766,1.6439396 149.544255,0.3304167 Z" id="path-9"></path>
        <rect id="path-11" x="0" y="0" width="264" height="280"></rect>
        <path d="M15.0421575,56.0749852 C20.6795257,24.2058307 48.5129755,0 82,0 C119.555363,0 150,30.444637 150,68 L150,98.751022 C150.875211,108.554379 151.693946,115.422143 152.456205,119.354314 C153.833317,126.458254 158.150269,124.115419 158.150269,134.220201 C158.150269,144.324983 153.822005,147.720206 153.803237,156.705482 C153.784469,165.690758 169.200444,172.836185 169.200444,184.242606 C169.200444,195.649027 162.126079,249.475928 91.577598,249.475928 C76.507235,249.475928 63.670509,245.188589 53.06742,236.613911 C53.750275,243.103957 54.394468,250.565987 55,259 L8,259 C8.9324304,235.228591 0.7156549,221.936205 0.7156549,195.44564 C0.7156549,168.955074 14.3525844,130.427541 14,121 C14.019981,120.417741 14.0406721,119.728417 14.0620734,118.932027 C14.0208303,117.959828 14,116.982347 14,116 L14,68 C14,64.0240875 14.3412247,60.1278723 14.9959868,56.3390417 C14.9973236,56.2261704 14.9986613,56.1131564 15,56 C15.0140661,56.0249783 15.0281186,56.0499734 15.0421575,56.0749852 Z M81.5,32 C51.400481,32 27,56.4004811 27,86.5 L27,109.5 C27,139.599519 51.400481,164 81.5,164 L82.5,164 C112.599519,164 137,139.599519 137,109.5 L137,86.5 C137,56.4004811 112.599519,32 82.5,32 L81.5,32 Z" id="path-13"></path>
        <path d="M15.0421575,56.0749852 C20.6795257,24.2058307 48.5129755,0 82,0 C119.555363,0 150,30.444637 150,68 L150,98.751022 C150.875211,108.554379 151.693946,115.422143 152.456205,119.354314 C153.833317,126.458254 158.150269,124.115419 158.150269,134.220201 C158.150269,144.324983 153.822005,147.720206 153.803237,156.705482 C153.784469,165.690758 169.200444,172.836185 169.200444,184.242606 C169.200444,195.649027 162.126079,249.475928 91.577598,249.475928 C76.507235,249.475928 63.670509,245.188589 53.06742,236.613911 C53.750275,243.103957 54.394468,250.565987 55,259 L8,259 C8.9324304,235.228591 0.7156549,221.936205 0.7156549,195.44564 C0.7156549,168.955074 14.3525844,130.427541 14,121 C14.019981,120.417741 14.0406721,119.728417 14.0620734,118.932027 C14.0208303,117.959828 14,116.982347 14,116 L14,68 C14,64.0240875 14.3412247,60.1278723 14.9959868,56.3390417 C14.9973236,56.2261704 14.9986613,56.1131564 15,56 C15.0140661,56.0249783 15.0281186,56.0499734 15.0421575,56.0749852 Z M81.5,32 C51.400481,32 27,56.4004811 27,86.5 L27,109.5 C27,139.599519 51.400481,164 81.5,164 L82.5,164 C112.599519,164 137,139.599519 137,109.5 L137,86.5 C137,56.4004811 112.599519,32 82.5,32 L81.5,32 Z" id="path-15"></path>
        <path d="M15.0421575,56.0749852 C20.6795257,24.2058307 48.5129755,0 82,0 C119.555363,0 150,30.444637 150,68 L150,98.751022 C150.875211,108.554379 151.693946,115.422143 152.456205,119.354314 C153.833317,126.458254 158.150269,124.115419 158.150269,134.220201 C158.150269,144.324983 153.822005,147.720206 153.803237,156.705482 C153.784469,165.690758 169.200444,172.836185 169.200444,184.242606 C169.200444,195.649027 162.126079,249.475928 91.577598,249.475928 C76.507235,249.475928 63.670509,245.188589 53.06742,236.613911 C53.750275,243.103957 54.394468,250.565987 55,259 L8,259 C8.9324304,235.228591 0.7156549,221.936205 0.7156549,195.44564 C0.7156549,168.955074 14.3525844,130.427541 14,121 C14.019981,120.417741 14.0406721,119.728417 14.0620734,118.932027 C14.0208303,117.959828 14,116.982347 14,116 L14,68 C14,64.0240875 14.3412247,60.1278723 14.9959868,56.3390417 C14.9973236,56.2261704 14.9986613,56.1131564 15,56 C15.0140661,56.0249783 15.0281186,56.0499734 15.0421575,56.0749852 Z M81.5,32 C51.400481,32 27,56.4004811 27,86.5 L27,109.5 C27,139.599519 51.400481,164 81.5,164 L82.5,164 C112.599519,164 137,139.599519 137,109.5 L137,86.5 C137,56.4004811 112.599519,32 82.5,32 L81.5,32 Z" id="path-17"></path>
        <path d="M15.0421575,56.0749852 C20.6795257,24.2058307 48.5129755,0 82,0 C119.555363,0 150,30.444637 150,68 L150,98.751022 C150.875211,108.554379 151.693946,115.422143 152.456205,119.354314 C153.833317,126.458254 158.150269,124.115419 158.150269,134.220201 C158.150269,144.324983 153.822005,147.720206 153.803237,156.705482 C153.784469,165.690758 169.200444,172.836185 169.200444,184.242606 C169.200444,195.649027 162.126079,249.475928 91.577598,249.475928 C76.507235,249.475928 63.670509,245.188589 53.06742,236.613911 C53.750275,243.103957 54.394468,250.565987 55,259 L8,259 C8.9324304,235.228591 0.7156549,221.936205 0.7156549,195.44564 C0.7156549,168.955074 14.3525844,130.427541 14,121 C14.019981,120.417741 14.0406721,119.728417 14.0620734,118.932027 C14.0208303,117.959828 14,116.982347 14,116 L14,68 C14,64.0240875 14.3412247,60.1278723 14.9959868,56.3390417 C14.9973236,56.2261704 14.9986613,56.1131564 15,56 C15.0140661,56.0249783 15.0281186,56.0499734 15.0421575,56.0749852 Z M81.5,32 C51.400481,32 27,56.4004811 27,86.5 L27,109.5 C27,139.599519 51.400481,164 81.5,164 L82.5,164 C112.599519,164 137,139.599519 137,109.5 L137,86.5 C137,56.4004811 112.599519,32 82.5,32 L81.5,32 Z" id="path-19"></path>
        <circle id="path-21" cx="120" cy="120" r="120"></circle>
        <path d="M12,160 L-3.19744231e-14,160 L-3.19744231e-14,-1.42108547e-14 L264,-1.42108547e-14 L264,160 L252,160 C252,226.27417 198.27417,280 132,280 C65.72583,280 12,226.27417 12,160 Z" id="path-23"></path>
        <path d="M124,144.610951 L124,163 L128,163 C167.764502,163 200,195.235498 200,235 L200,244 L0,244 L0,235 C-4.86974701e-15,195.235498 32.235498,163 72,163 L76,163 L76,144.610951 C58.7626345,136.422372 46.3722246,119.687011 44.3051388,99.8812385 C38.4803105,99.0577866 34,94.0521096 34,88 L34,74 C34,68.0540074 38.3245733,63.1180731 44,62.1659169 L44,56 C44,25.072054 69.072054,5.68137151e-15 100,0 C130.927946,-5.68137151e-15 156,25.072054 156,56 L156,62.1659169 C161.675427,63.1180731 166,68.0540074 166,74 L166,88 C166,94.0521096 161.51969,99.0577866 155.694861,99.8812385 C153.627775,119.687011 141.237365,136.422372 124,144.610951 Z" id="path-25"></path>
        <path d="M124,144.610951 L124,163 L128,163 C167.764502,163 200,195.235498 200,235 L200,244 L0,244 L0,235 C-4.86974701e-15,195.235498 32.235498,163 72,163 L76,163 L76,144.610951 C58.7626345,136.422372 46.3722246,119.687011 44.3051388,99.8812385 C38.4803105,99.0577866 34,94.0521096 34,88 L34,74 C34,68.0540074 38.3245733,63.1180731 44,62.1659169 L44,56 C44,25.072054 69.072054,5.68137151e-15 100,0 C130.927946,-5.68137151e-15 156,25.072054 156,56 L156,62.1659169 C161.675427,63.1180731 166,68.0540074 166,74 L166,88 C166,94.0521096 161.51969,99.0577866 155.694861,99.8812385 C153.627775,119.687011 141.237365,136.422372 124,144.610951 Z" id="path-27"></path>
        <path d="M26,0.6883435 L26,45 L102,45 L102,0.6883435 C111.362956,1.9893126 120.149952,5.0907916 128.00002,9.6318143 L128.00002,81 L0,81 L0,9.6318027 C7.8500482,5.0907916 16.6370437,1.9893126 26,0.6883435 Z" id="path-29"></path>
        <rect id="path-31" x="0" y="0" width="264" height="280"></rect>
        <circle id="path-33" cx="120" cy="120" r="120"></circle>
        <path d="M12,160 L-3.19744231e-14,160 L-3.19744231e-14,-1.42108547e-14 L264,-1.42108547e-14 L264,160 L252,160 C252,226.27417 198.27417,280 132,280 C65.72583,280 12,226.27417 12,160 Z" id="path-35"></path>
        <path d="M124,144.610951 L124,163 L128,163 C167.764502,163 200,195.235498 200,235 L200,244 L0,244 L0,235 C-4.86974701e-15,195.235498 32.235498,163 72,163 L76,163 L76,144.610951 C58.7626345,136.422372 46.3722246,119.687011 44.3051388,99.8812385 C38.4803105,99.0577866 34,94.0521096 34,88 L34,74 C34,68.0540074 38.3245733,63.1180731 44,62.1659169 L44,56 C44,25.072054 69.072054,5.68137151e-15 100,0 C130.927946,-5.68137151e-15 156,25.072054 156,56 L156,62.1659169 C161.675427,63.1180731 166,68.0540074 166,74 L166,88 C166,94.0521096 161.51969,99.0577866 155.694861,99.8812385 C153.627775,119.687011 141.237365,136.422372 124,144.610951 Z" id="path-37"></path>
        <path d="M105.192402,29.0517235 C105.065362,30.0353144 105,31.0364513 105,32.0517235 C105,45.8588423 117.088312,57.0517235 132,57.0517235 C146.911688,57.0517235 159,45.8588423 159,32.0517235 C159,31.0364513 158.934638,30.0353144 158.807598,29.0517235 L160,29.0517235 C199.764502,29.0517235 232,61.2872215 232,101.051724 L232,110 L32,110 L32,101.051724 C32,61.2872215 64.235498,29.0517235 104,29.0517235 L105.192402,29.0517235 Z" id="path-39"></path>
        <path d="M35.117844,15.1280772 C36.1757121,24.6198025 44.2259873,32 54,32 C63.8042055,32 71.8740075,24.574136 72.8917593,15.0400546 C72.9736685,14.272746 72.1167429,13 71.042767,13 C56.1487536,13 44.7379213,13 37.0868244,13 C36.0066168,13 35.0120058,14.1784435 35.117844,15.1280772 Z" id="path-41"></path>
        <rect id="path-43" x="0" y="0" width="264" height="280"></rect>
        <filter x="-0.8%" y="-2.0%" width="101.5%" height="108.0%" filterUnits="objectBoundingBox" id="filter-45">
            <feOffset dx="0" dy="2" in="SourceAlpha" result="shadowOffsetOuter1"></feOffset>
            <feColorMatrix values="0 0 0 0 0   0 0 0 0 0   0 0 0 0 0  0 0 0 0.16 0" type="matrix" in="shadowOffsetOuter1" result="shadowMatrixOuter1"></feColorMatrix>
            <feMerge>
                <feMergeNode in="shadowMatrixOuter1"></feMergeNode>
                <feMergeNode in="SourceGraphic"></feMergeNode>
            </feMerge>
        </filter>
        <path d="M198.74696,37.856181 C193.606255,34.0244119 187.528383,30.7396605 181.187893,29.4782789 C174.741035,28.1960616 170.829392,27.8846292 164.483286,29.4052984 C162.85043,29.796545 162.299428,30.1854765 160.862131,29.2568033 C159.651446,28.4743102 151.200134,19.7668788 125.441738,24.5998777 C99.4069464,29.4847361 91.6728211,68.675365 82.0154166,70.1662691 C78.5349852,70.703365 74.2336661,69.781637 74.0992189,67.6388757 C70.1355043,73.6726057 69.0913088,81.6460323 70.7717335,88.7129442 C72.2186099,94.7989286 75.2686121,100.517478 80.7607964,103.849523 C85.4865987,106.716901 92.0203357,107.966046 97.4817987,107.437218 C99.9669245,107.196782 102.227091,106.673576 104.513684,105.671152 C107.272659,104.461694 109.470722,102.280238 112.177835,101.127995 C109.351471,103.576015 106.275372,105.735312 103.001731,107.546357 C101.362599,108.452872 99.6980301,109.07761 97.8887739,109.570058 C96.6533133,109.906073 94.127556,111.05104 92.9327267,110.752066 C100.740244,112.148383 108.093217,110.931649 115.252282,107.589351 C118.483309,106.08125 121.59079,104.256976 124.44325,102.112561 C127.276221,99.9826977 130.537639,97.8062025 132.753871,95.0036468 C131.823641,96.2071517 133.450882,94.4169423 133.665931,94.1980029 C134.274082,93.578226 134.869349,92.9458816 135.453055,92.302954 C136.455298,91.1993278 137.450603,90.0751967 138.383805,88.9120401 C140.37772,86.426318 142.234875,83.8298033 143.891185,81.1086057 C145.568637,78.352682 152.249704,67.2357231 154.266412,64.6190342 C152.361358,70.327001 150.286511,76.0372828 147.858864,81.5445 C152.572444,80.0744315 157.142657,76.0002417 160.15401,72.2035294 C163.545911,67.9275978 165.554691,62.9359795 166.262273,57.5379012 C170.087576,67.953725 179.047309,76.1675881 188.294435,81.8328914 C186.29094,78.1026546 183.238626,74.9478777 181.242068,71.1548033 C190.433037,80.4838679 205.809898,85.0481908 209.837367,98.7289227 C210.869671,93.9714569 214.189889,90.1482867 215.184533,85.2955724 C216.28885,79.9070851 217.081329,74.1868816 216.90592,68.6796644 C216.508524,56.4379129 208.273882,44.9574883 198.74696,37.856181 Z" id="path-46"></path>
        <circle id="path-48" cx="120" cy="120" r="120"></circle>
        <path d="M12,160 L-3.19744231e-14,160 L-3.19744231e-14,-1.42108547e-14 L264,-1.42108547e-14 L264,160 L252,160 C252,226.27417 198.27417,280 132,280 C65.72583,280 12,226.27417 12,160 Z" id="path-50"></path>
        <path d="M124,144.610951 L124,163 L128,163 C167.764502,163 200,195.235498 200,235 L200,244 L0,244 L0,235 C-4.86974701e-15,195.235498 32.235498,163 72,163 L76,163 L76,144.610951 C58.7626345,136.422372 46.3722246,119.687011 44.3051388,99.8812385 C38.4803105,99.0577866 34,94.0521096 34,88 L34,74 C34,68.0540074 38.3245733,63.1180731 44,62.1659169 L44,56 C44,25.072054 69.072054,5.68137151e-15 100,0 C130.927946,-5.68137151e-15 156,25.072054 156,56 L156,62.1659169 C161.675427,63.1180731 166,68.0540074 166,74 L166,88 C166,94.0521096 161.51969,99.0577866 155.694861,99.8812385 C153.627775,119.687011 141.237365,136.422372 124,144.610951 Z" id="path-52"></path>
        <path d="M124,144.610951 L124,163 L128,163 C167.764502,163 200,195.235498 200,235 L200,244 L0,244 L0,235 C-4.86974701e-15,195.235498 32.235498,163 72,163 L76,163 L76,144.610951 C58.7626345,136.422372 46.3722246,119.687011 44.3051388,99.8812385 C38.4803105,99.0577866 34,94.0521096 34,88 L34,74 C34,68.0540074 38.3245733,63.1180731 44,62.1659169 L44,56 C44,25.072054 69.072054,5.68137151e-15 100,0 C130.927946,-5.68137151e-15 156,25.072054 156,56 L156,62.1659169 C161.675427,63.1180731 166,68.0540074 166,74 L166,88 C166,94.0521096 161.51969,99.0577866 155.694861,99.8812385 C153.627775,119.687011 141.237365,136.422372 124,144.610951 Z" id="path-54"></path>
        <path d="M133.624032,0.2681342 C170.760022,3.1373245 200,34.1798426 200,72.051724 L200,81 L0,81 L0,72.051724 C0,33.8348009 29.7752018,2.5722494 67.3929298,0.1967444 C67.1342224,1.2735458 67,2.3767131 67,3.5 C67,15.3741221 81.998461,25 100.5,25 C119.001539,25 134,15.3741221 134,3.5 C134,2.4015235 133.871641,1.3222877 133.624025,0.2681336 L133.624032,0.2681342 Z" id="path-56"></path>
        <path d="M133.624032,0.2681342 C170.760022,3.1373245 200,34.1798426 200,72.051724 L200,81 L0,81 L0,72.051724 C0,33.8348009 29.7752018,2.5722494 67.3929298,0.1967444 C67.1342224,1.2735458 67,2.3767131 67,3.5 C67,15.3741221 81.998461,25 100.5,25 C119.001539,25 134,15.3741221 134,3.5 C134,2.4015235 133.871641,1.3222877 133.624025,0.2681336 L133.624032,0.2681342 Z" id="path-58"></path>
        <rect id="path-60" x="0" y="0" width="264" height="280"></rect>
        <path d="M217,267 L217,258 C217,218.235498 184.764502,186 145,186 L141,186 L141,167.610951 C158.530782,159.282984 171.048193,142.114792 172.791419,121.867187 C178.569129,121.002364 183,116.018625 183,110 L183,97 C183,96.4315537 182.960475,95.8723389 182.884023,95.3249541 C161.364085,83.7373848 142.890027,67.1442914 130.845581,48.302359 C112.763849,73.9237118 76.5299076,78.5347548 51.2240944,94.679971 C51.0770557,95.4306015 51,96.2063021 51,97 L51,110 C51,116.018625 55.4308707,121.002364 61.2085808,121.867187 C62.9518066,142.114792 75.4692178,159.282984 93,167.610951 L93,186 L89,186 C49.235498,186 17,218.235498 17,258 L17,267 L16.0053198,267 C-22.4337677,245.051165 20.8572256,209.888877 21.1740982,198 C21.5397764,186.255758 -0.277399696,183.560973 0.00267373922,155 C0.944497502,125.971596 31.3716806,128.588232 31.2026676,109 C31.3716806,89.9992744 19.8139454,82.1607482 31.2026676,46 C42.8395963,9.53932757 72.9165934,0.768171773 116.002651,0.0159928999 L116.002651,0 C116.16951,0.002426813 116.336177,0.0049705256 116.502651,0.0076322645 C116.669125,0.0049705256 116.835791,0.002426813 117.002651,0 L117.002651,0.0159928999 C160.088708,0.768171773 190.165705,9.53932757 201.802634,46 C213.191356,82.1607482 201.633621,89.9992744 201.802634,109 C201.633621,128.588232 232.060804,125.971596 233.002628,155 C233.282701,183.560973 211.465525,186.255758 211.831204,198 C212.148076,209.888877 255.439069,245.051165 216.999964,267.00001 L217,267 Z" id="path-62"></path>
        <path d="M217,267 L217,258 C217,218.235498 184.764502,186 145,186 L141,186 L141,140 L93,140 L93,186 L89,186 C49.235498,186 17,218.235498 17,258 L17,267 L16.0053198,267 C-22.4337677,245.051165 20.8572256,209.888877 21.1740982,198 C21.5397764,186.255758 -0.277399696,183.560973 0.00267373922,155 C0.944497502,125.971596 31.3716806,128.588232 31.2026676,109 C31.3716806,89.9992744 19.8139454,82.1607482 31.2026676,46 C42.8395963,9.53932757 72.9165934,0.768171773 116.002651,0.0159928999 L116.002651,0 C116.16951,0.002426813 116.336177,0.0049705256 116.502651,0.0076322645 C116.669125,0.0049705256 116.835791,0.002426813 117.002651,0 L117.002651,0.0159928999 C160.088708,0.768171773 190.165705,9.53932757 201.802634,46 C213.191356,82.1607482 201.633621,89.9992744 201.802634,109 C201.633621,128.588232 232.060804,125.971596 233.002628,155 C233.282701,183.560973 211.465525,186.255758 211.831204,198 C212.148076,209.888877 255.439069,245.051165 216.999964,267.00001 L217,267 Z" id="path-64"></path>
    </defs>
    <g id="Page-1" stroke="none" stroke-width="1" fill="none" fill-rule="evenodd">
        <g id="react-ladies" transform="translate(-12.000000, 0.000000)">
            <g id="Avataaar/Circle">
                <g id="Circle" transform="translate(12.000000, 40.000000)">
                    <g id="Circle-Background" fill="#E6E6E6" fill-rule="nonzero">
                        <circle id="path-1" cx="120" cy="120" r="120"></circle>
                    </g>
                    <g id="Color/Palette/Blue-02-Clipped">
                        <mask id="mask-2" fill="white">
                            <use xlink:href="#path-1"></use>
                        </mask>
                        <g id="path-1"></g>
                        <g id="Color/Palette/Blue-02" mask="url(#mask-2)" fill="#5199E4" fill-rule="nonzero">
                            <rect id="ðŸ–Color" x="0" y="0" width="240" height="240"></rect>
                        </g>
                    </g>
                </g>
                <g id="Avataaar-Clipped">
                    <mask id="mask-4" fill="white">
                        <use xlink:href="#path-3"></use>
                    </mask>
                    <g id="path-3"></g>
                    <g id="Avataaar" mask="url(#mask-4)">
                        <g id="Body" transform="translate(32.000000, 36.000000)">
                            <g id="path-5-link" fill="#D0C6AC" fill-rule="nonzero">
                                <path d="M124,144.610951 L124,163 L128,163 C167.764502,163 200,195.235498 200,235 L200,244 L0,244 L0,235 C-4.86974701e-15,195.235498 32.235498,163 72,163 L76,163 L76,144.610951 C58.7626345,136.422372 46.3722246,119.687011 44.3051388,99.8812385 C38.4803105,99.0577866 34,94.0521096 34,88 L34,74 C34,68.0540074 38.3245733,63.1180731 44,62.1659169 L44,56 C44,25.072054 69.072054,5.68137151e-15 100,0 C130.927946,-5.68137151e-15 156,25.072054 156,56 L156,62.1659169 C161.675427,63.1180731 166,68.0540074 166,74 L166,88 C166,94.0521096 161.51969,99.0577866 155.694861,99.8812385 C153.627775,119.687011 141.237365,136.422372 124,144.610951 Z" id="path-5"></path>
                            </g>
                            <g id="Skin/ðŸ‘¶ðŸ½-03-Brown-Clipped">
                                <mask id="mask-6" fill="white">
                                    <use xlink:href="#path-5"></use>
                                </mask>
                                <g id="path-5"></g>
                                <g id="Skin/ðŸ‘¶ðŸ½-03-Brown" mask="url(#mask-6)">
                                    <g transform="translate(-32.000000, 0.000000)" id="Color">
                                        <g>
                                            <rect id="Rectangle-path" fill="#D08B5B" fill-rule="nonzero" x="0" y="0" width="264" height="244"></rect>
                                        </g>
                                    </g>
                                </g>
                            </g>
                            <g id="Neck-Shadow-Clipped">
                                <mask id="mask-8" fill="white">
                                    <use xlink:href="#path-7"></use>
                                </mask>
                                <g id="path-5"></g>
                                <path d="M156,94 L156,102 C156,132.927946 130.927946,158 100,158 C69.072054,158 44,132.927946 44,102 L44,94 C44,124.927946 69.072054,150 100,150 C130.927946,150 156,124.927946 156,94 Z" id="Neck-Shadow" fill-opacity="0.100000001" fill="#000000" fill-rule="nonzero" mask="url(#mask-8)"></path>
                            </g>
                        </g>
                        <g id="Clothing/Shirt-Scoop-Neck" transform="translate(32.000000, 202.000000)">
                            <g id="Clothes" fill="#E6E6E6">
                                <path d="M149.544255,0.3304167 C178.784209,9.4878872 200,36.7921987 200,69.051724 L200,78 L0,78 L0,69.051724 C0,36.3969699 21.7388273,8.8195914 51.5340368,0.0020332 C51.182234,1.4201865 51,2.8712315 51,4.3476251 C51,20.6289957 73.161905,33.8276544 100.5,33.8276544 C127.838095,33.8276544 150,20.6289957 150,4.3476251 C150,2.9849859 149.844766,1.6439396 149.544255,0.3304167 Z" id="path-7"></path>
                            </g>
                            <g id="Color/Palette/Gray-01-Clipped">
                                <mask id="mask-10" fill="white">
                                    <use xlink:href="#path-9"></use>
                                </mask>
                                <g id="path-7"></g>
                                <g id="Color/Palette/Gray-01" mask="url(#mask-10)" fill="#E6E6E6">
                                    <g transform="translate(-32.000000, -32.000000)" id="ðŸ–Color">
                                        <rect x="0" y="0" width="264" height="110"></rect>
                                    </g>
                                </g>
                            </g>
                        </g>
                        <g id="Face" transform="translate(88.000000, 88.000000)" fill="#000000" fill-rule="nonzero">
                            <g id="Mouth/Default" transform="translate(30.000000, 61.000000)" fill-opacity="0.699999988">
                                <path d="M0,0 C0,7.7319865 6.2680135,14 14,14 C21.7319865,14 28,7.7319865 28,0" id="Mouth"></path>
                            </g>
                            <g id="Nose/Default" transform="translate(32.000000, 42.000000)" fill-opacity="0.16">
                                <path d="M0,0 C0,4.418278 5.372583,8 12,8 C18.627417,8 24,4.418278 24,0" id="Nose"></path>
                            </g>
                            <g id="Eyes/Default-ðŸ˜€" transform="translate(12.000000, 18.000000)" fill-opacity="0.599999964">
                                <circle id="Eye" cx="6" cy="6" r="6"></circle>
                                <circle id="Eye" cx="58" cy="6" r="6"></circle>
                            </g>
                            <g id="Eyebrow/Outline/Default" fill-opacity="0.599999964">
                                <g id="I-Browse">
                                    <path d="M3.63024536,11.1585767 C7.54515501,5.64986673 18.2779197,2.56083721 27.5230268,4.83118046 C28.5957248,5.0946055 29.6788665,4.43856013 29.9422916,3.36586212 C30.2057166,2.2931641 29.5496712,1.21002236 28.4769732,0.94659732 C17.7403633,-1.69001789 5.31209962,1.88699832 0.369754639,8.84142326 C-0.270109626,9.74178291 -0.0589363917,10.9903811 0.84142326,11.6302454 C1.74178291,12.2701096 2.9903811,12.0589364 3.63024536,11.1585767 Z" id="Eyebrow"></path>
                                    <path d="M61.6302461,11.1585767 C65.5451557,5.64986673 76.2779204,2.56083721 85.5230275,4.83118046 C86.5957255,5.0946055 87.6788672,4.43856013 87.9422923,3.36586212 C88.2057173,2.2931641 87.5496719,1.21002236 86.4769739,0.94659732 C75.740364,-1.69001789 63.3121003,1.88699832 58.3697553,8.84142326 C57.7298911,9.74178291 57.9410643,10.9903811 58.841424,11.6302454 C59.7417836,12.2701096 60.9903818,12.0589364 61.6302461,11.1585767 Z" id="Eyebrow" transform="translate(73.000154, 6.039198) scale(-1, 1) translate(-73.000154, -6.039198) "></path>
                                </g>
                            </g>
                        </g>
                        <g id="Top">
                            <g id="Top/Accesories/Hijab-Clipped">
                                <mask id="mask-12" fill="white">
                                    <use xlink:href="#path-11"></use>
                                </mask>
                                <g id="path-9"></g>
                                <g id="Top/Accesories/Hijab" mask="url(#mask-12)">
                                    <g transform="translate(50.000000, 21.000000)" id="Group">
                                        <g>
                                            <g id="Hijab-Mask" fill="#3B6BAD">
                                                <path d="M15.0421575,56.0749852 C20.6795257,24.2058307 48.5129755,0 82,0 C119.555363,0 150,30.444637 150,68 L150,98.751022 C150.875211,108.554379 151.693946,115.422143 152.456205,119.354314 C153.833317,126.458254 158.150269,124.115419 158.150269,134.220201 C158.150269,144.324983 153.822005,147.720206 153.803237,156.705482 C153.784469,165.690758 169.200444,172.836185 169.200444,184.242606 C169.200444,195.649027 162.126079,249.475928 91.577598,249.475928 C76.507235,249.475928 63.670509,245.188589 53.06742,236.613911 C53.750275,243.103957 54.394468,250.565987 55,259 L8,259 C8.9324304,235.228591 0.7156549,221.936205 0.7156549,195.44564 C0.7156549,168.955074 14.3525844,130.427541 14,121 C14.019981,120.417741 14.0406721,119.728417 14.0620734,118.932027 C14.0208303,117.959828 14,116.982347 14,116 L14,68 C14,64.0240875 14.3412247,60.1278723 14.9959868,56.3390417 C14.9973236,56.2261704 14.9986613,56.1131564 15,56 C15.0140661,56.0249783 15.0281186,56.0499734 15.0421575,56.0749852 Z M81.5,32 C51.400481,32 27,56.4004811 27,86.5 L27,109.5 C27,139.599519 51.400481,164 81.5,164 L82.5,164 C112.599519,164 137,139.599519 137,109.5 L137,86.5 C137,56.4004811 112.599519,32 82.5,32 L81.5,32 Z" id="path-11"></path>
                                            </g>
                                            <g id="Color/Palette/Blue-03-Clipped">
                                                <mask id="mask-14" fill="white">
                                                    <use xlink:href="#path-13"></use>
                                                </mask>
                                                <g id="path-11"></g>
                                                <g id="Color/Palette/Blue-03" mask="url(#mask-14)">
                                                    <g transform="translate(-50.000000, -21.000000)" id="ðŸ–Color">
                                                        <g>
                                                            <rect id="Rectangle-path" fill="#25557C" fill-rule="nonzero" x="0" y="0" width="264" height="280"></rect>
                                                        </g>
                                                    </g>
                                                </g>
                                            </g>
                                            <g id="Band-Clipped">
                                                <mask id="mask-16" fill="white">
                                                    <use xlink:href="#path-15"></use>
                                                </mask>
                                                <g id="path-11"></g>
                                                <path d="M21.0744416,83.959767 C20.3690172,80.246903 20,76.4161983 20,72.5 C20,38.5344879 47.7583455,11 82,11 C116.241654,11 144,38.5344879 144,72.5 C144,76.4161983 143.630983,80.246903 142.925558,83.959767 C141.341315,51.6827942 114.669927,26 82,26 C49.330073,26 22.6586845,51.6827942 21.0744428,83.959774 L21.0744416,83.959767 Z" id="Band" fill-opacity="0.5" fill="#FFFFFF" mask="url(#mask-16)"></path>
                                            </g>
                                            <g id="Shadows-Clipped">
                                                <mask id="mask-18" fill="white">
                                                    <use xlink:href="#path-17"></use>
                                                </mask>
                                                <g id="path-11"></g>
                                                <path d="M136.929085,83.69543 C137.631457,87.187732 138,90.800827 138,94.5 L138,117.5 C138,147.599519 113.599519,172 83.5,172 L80.5,172 C50.400481,172 26,147.599519 26,117.5 L26,94.5 C26,90.800827 26.3685433,87.187732 27.0709154,83.69543 C27.0238287,84.624341 27,85.559388 27,86.5 L27,109.5 C27,139.599519 51.400481,164 81.5,164 L82.5,164 C112.599519,164 137,139.599519 137,109.5 L137,86.5 C137,85.559388 136.976171,84.624341 136.929085,83.69543 Z M63.16682,185.995462 C69.651206,190.981028 84.663493,192.708321 101.404574,189.756416 C118.145655,186.804512 131.661822,180.046883 136.049987,173.144193 C136.118291,173.396526 136.175421,173.652296 136.221114,173.911435 C137.930607,183.606451 122.985409,194.345413 102.84008,197.897578 C82.694752,201.449742 64.977919,196.469978 63.268426,186.774963 C63.222732,186.515823 63.188938,186.255938 63.166824,185.995464 L63.16682,185.995462 Z M75.034638,214.921439 C83.227056,220.574977 99.421729,220.843835 116.103682,214.772101 C132.785635,208.700366 145.018656,198.084674 147.660388,188.487828 C147.803116,188.80837 147.935124,189.134883 148.056117,189.46731 C152.582768,201.904181 139.979008,217.909268 119.904831,225.215671 C99.830654,232.522074 79.887742,228.363007 75.361091,215.926135 C75.240098,215.593709 75.131343,215.258733 75.034643,214.921442 L75.034638,214.921439 Z" id="Shadows" fill-opacity="0.16" fill="#000000" opacity="0.899999976" mask="url(#mask-18)"></path>
                                            </g>
                                            <g id="Top/_Resources/Blank-Clipped">
                                                <mask id="mask-20" fill="white">
                                                    <use xlink:href="#path-19"></use>
                                                </mask>
                                                <g id="path-11"></g>
                                            </g>
                                        </g>
                                    </g>
                                </g>
                            </g>
                        </g>
                    </g>
                </g>
            </g>
            <g id="Avataaar/Circle" transform="translate(826.000000, 0.000000)">
                <g id="Circle" transform="translate(12.000000, 40.000000)">
                    <g id="Circle-Background" fill="#E6E6E6" fill-rule="nonzero">
                        <circle id="path-13" cx="120" cy="120" r="120"></circle>
                    </g>
                    <g id="Color/Palette/Red-Clipped">
                        <mask id="mask-22" fill="white">
                            <use xlink:href="#path-21"></use>
                        </mask>
                        <g id="path-13"></g>
                        <g id="Color/Palette/Red" mask="url(#mask-22)" fill="#FF5C5C" fill-rule="nonzero">
                            <rect id="ðŸ–Color" x="0" y="0" width="240" height="240"></rect>
                        </g>
                    </g>
                </g>
                <g id="Avataaar-Clipped">
                    <mask id="mask-24" fill="white">
                        <use xlink:href="#path-23"></use>
                    </mask>
                    <g id="path-15"></g>
                    <g id="Avataaar" mask="url(#mask-24)">
                        <g id="Body" transform="translate(32.000000, 36.000000)">
                            <g id="path-17-link" fill="#D0C6AC" fill-rule="nonzero">
                                <path d="M124,144.610951 L124,163 L128,163 C167.764502,163 200,195.235498 200,235 L200,244 L0,244 L0,235 C-4.86974701e-15,195.235498 32.235498,163 72,163 L76,163 L76,144.610951 C58.7626345,136.422372 46.3722246,119.687011 44.3051388,99.8812385 C38.4803105,99.0577866 34,94.0521096 34,88 L34,74 C34,68.0540074 38.3245733,63.1180731 44,62.1659169 L44,56 C44,25.072054 69.072054,5.68137151e-15 100,0 C130.927946,-5.68137151e-15 156,25.072054 156,56 L156,62.1659169 C161.675427,63.1180731 166,68.0540074 166,74 L166,88 C166,94.0521096 161.51969,99.0577866 155.694861,99.8812385 C153.627775,119.687011 141.237365,136.422372 124,144.610951 Z" id="path-17"></path>
                            </g>
                            <g id="Skin/ðŸ‘¶ðŸ¼-04-Light-Clipped">
                                <mask id="mask-26" fill="white">
                                    <use xlink:href="#path-25"></use>
                                </mask>
                                <g id="path-17"></g>
                                <g id="Skin/ðŸ‘¶ðŸ¼-04-Light" mask="url(#mask-26)">
                                    <g transform="translate(-32.000000, 0.000000)" id="Color">
                                        <g>
                                            <rect id="Rectangle-path" fill="#EDB98A" fill-rule="nonzero" x="0" y="0" width="264" height="244"></rect>
                                        </g>
                                    </g>
                                </g>
                            </g>
                            <g id="Neck-Shadow-Clipped">
                                <mask id="mask-28" fill="white">
                                    <use xlink:href="#path-27"></use>
                                </mask>
                                <g id="path-17"></g>
                                <path d="M156,94 L156,102 C156,132.927946 130.927946,158 100,158 C69.072054,158 44,132.927946 44,102 L44,94 C44,124.927946 69.072054,150 100,150 C130.927946,150 156,124.927946 156,94 Z" id="Neck-Shadow" fill-opacity="0.100000001" fill="#000000" fill-rule="nonzero" mask="url(#mask-28)"></path>
                            </g>
                        </g>
                        <g id="Clothing/Overall" transform="translate(68.000000, 199.000000)">
                            <g id="Overall" fill="#B7C1DB">
                                <path d="M26,0.6883435 L26,45 L102,45 L102,0.6883435 C111.362956,1.9893126 120.149952,5.0907916 128.00002,9.6318143 L128.00002,81 L0,81 L0,9.6318027 C7.8500482,5.0907916 16.6370437,1.9893126 26,0.6883435 Z" id="path-19"></path>
                            </g>
                            <g id="Color/Palette/Blue-03-Clipped">
                                <mask id="mask-30" fill="white">
                                    <use xlink:href="#path-29"></use>
                                </mask>
                                <g id="path-19"></g>
                                <g id="Color/Palette/Blue-03" mask="url(#mask-30)" fill="#25557C">
                                    <g transform="translate(-68.000000, -29.000000)" id="ðŸ–Color">
                                        <rect x="0" y="0" width="264" height="110"></rect>
                                    </g>
                                </g>
                            </g>
                            <circle id="Button" fill="#F4F4F4" cx="13" cy="54" r="5"></circle>
                            <circle id="Button" fill="#F4F4F4" cx="115" cy="54" r="5"></circle>
                        </g>
                        <g id="Face" transform="translate(88.000000, 88.000000)" fill="#000000" fill-rule="nonzero">
                            <g id="Mouth/Default" transform="translate(30.000000, 61.000000)" fill-opacity="0.699999988">
                                <path d="M0,0 C0,7.7319865 6.2680135,14 14,14 C21.7319865,14 28,7.7319865 28,0" id="Mouth"></path>
                            </g>
                            <g id="Nose/Default" transform="translate(32.000000, 42.000000)" fill-opacity="0.16">
                                <path d="M0,0 C0,4.418278 5.372583,8 12,8 C18.627417,8 24,4.418278 24,0" id="Nose"></path>
                            </g>
                            <g id="Eyes/Default-ðŸ˜€" transform="translate(12.000000, 18.000000)" fill-opacity="0.599999964">
                                <circle id="Eye" cx="6" cy="6" r="6"></circle>
                                <circle id="Eye" cx="58" cy="6" r="6"></circle>
                            </g>
                            <g id="Eyebrow/Outline/Default" fill-opacity="0.599999964">
                                <g id="I-Browse">
                                    <path d="M3.63024536,11.1585767 C7.54515501,5.64986673 18.2779197,2.56083721 27.5230268,4.83118046 C28.5957248,5.0946055 29.6788665,4.43856013 29.9422916,3.36586212 C30.2057166,2.2931641 29.5496712,1.21002236 28.4769732,0.94659732 C17.7403633,-1.69001789 5.31209962,1.88699832 0.369754639,8.84142326 C-0.270109626,9.74178291 -0.0589363917,10.9903811 0.84142326,11.6302454 C1.74178291,12.2701096 2.9903811,12.0589364 3.63024536,11.1585767 Z" id="Eyebrow"></path>
                                    <path d="M61.6302461,11.1585767 C65.5451557,5.64986673 76.2779204,2.56083721 85.5230275,4.83118046 C86.5957255,5.0946055 87.6788672,4.43856013 87.9422923,3.36586212 C88.2057173,2.2931641 87.5496719,1.21002236 86.4769739,0.94659732 C75.740364,-1.69001789 63.3121003,1.88699832 58.3697553,8.84142326 C57.7298911,9.74178291 57.9410643,10.9903811 58.841424,11.6302454 C59.7417836,12.2701096 60.9903818,12.0589364 61.6302461,11.1585767 Z" id="Eyebrow" transform="translate(73.000154, 6.039198) scale(-1, 1) translate(-73.000154, -6.039198) "></path>
                                </g>
                            </g>
                        </g>
                        <g id="Top">
                            <g id="Top/Long-Hair/Frida-Clipped">
                                <mask id="mask-32" fill="white">
                                    <use xlink:href="#path-31"></use>
                                </mask>
                                <g id="path-21"></g>
                                <g id="Top/Long-Hair/Frida" mask="url(#mask-32)">
                                    <g transform="translate(56.000000, 0.000000)" id="Group">
                                        <g>
                                            <g id="Cabello" transform="translate(0.000000, 12.000000)" fill="#1F3540" fill-rule="nonzero">
                                                <path d="M132,85.9365741 C131.972333,85.957925 131.944556,85.9790669 131.916667,86 C129.014089,38.8525344 83.4472619,55.7423461 76,29.336176 C68.5527463,55.7423492 22.985911,38.8525302 20.0833333,86 C20.0554443,85.9790669 20.0276665,85.957925 20,85.9365741 L20,86.1659169 C14.8446259,87.0308248 10.8038839,91.1828748 10.1066457,96.3931952 C7.55032816,93.4871212 6,89.6746099 6,85.5 C6,83.8551557 6.2406808,82.2665254 6.68874609,80.7674054 C2.63063706,77.7614652 0,72.9379417 0,67.5 C0,61.0069879 3.75045759,55.3899422 9.20323008,52.6970055 C8.4273349,50.7836628 8,48.6917361 8,46.5 C8,38.865183 13.1854816,32.4415002 20.2266501,30.5587463 C20.0773647,29.560863 20,28.5394662 20,27.5 C20,16.1781626 29.1781626,7 40.5,7 C43.1291474,7 45.6426956,7.49493913 47.9525545,8.3967274 C51.6825514,3.30576666 57.7052241,0 64.5,0 C68.7622496,0 72.7206886,1.30076749 76,3.52698535 C79.2793114,1.30076749 83.2377504,0 87.5,0 C94.2947759,0 100.317449,3.30576666 104.047446,8.3967274 C106.357304,7.49493913 108.870853,7 111.5,7 C122.821837,7 132,16.1781626 132,27.5 C132,28.5394662 131.922635,29.560863 131.77335,30.5587463 C138.814518,32.4415002 144,38.865183 144,46.5 C144,49.0427105 143.424844,51.4510861 142.397534,53.6021248 C146.970105,56.5355997 150,61.6639649 150,67.5 C150,72.2098901 148.026608,76.4588698 144.861548,79.4652142 C145.596416,81.3343479 146,83.370043 146,85.5 C146,89.6746099 144.449672,93.4871212 141.893354,96.3931952 C141.196116,91.1828748 137.155374,87.0308248 132,86.1659169 L132,85.9365741 Z M52,168.610951 L52,172.811832 C51.1847358,172.935746 50.3498715,173 49.5,173 C42.6790709,173 36.8248202,168.861157 34.3116389,162.957863 C25.7536314,162.348807 19,155.213101 19,146.5 C19,145.029028 19.1924867,143.603013 19.5536459,142.245771 C12.8575367,140.144362 8,133.88945 8,126.5 C8,122.755519 9.24731211,119.302363 11.3491137,116.533355 C13.0865598,119.870864 16.346706,122.289132 20.2085808,122.867187 C21.9518066,143.114792 34.4692178,160.282984 52,168.610951 Z M100,168.610951 C117.530782,160.282984 130.048193,143.114792 131.791419,122.867187 C135.653294,122.289132 138.91344,119.870864 140.650886,116.533355 C142.752688,119.302363 144,122.755519 144,126.5 C144,133.88945 139.142463,140.144362 132.446354,142.245771 C132.807513,143.603013 133,145.029028 133,146.5 C133,155.213101 126.246369,162.348807 117.688361,162.957863 C115.17518,168.861157 109.320929,173 102.5,173 C101.650128,173 100.815264,172.935746 100,172.811832 L100,168.610951 Z" id="Shape"></path>
                                            </g>
                                            <g id="Ornamentos" transform="translate(10.000000, 0.000000)" fill-rule="nonzero">
                                                <g id="hoja" opacity="0.899999976" transform="translate(120.000000, 64.500000) scale(-1, 1) rotate(160.000000) translate(-120.000000, -64.500000) translate(107.000000, 57.000000)">
                                                    <path d="M3.61111111,10 C3.61111111,10 1.95,0 13,0 C20.2222222,0 25.2777778,5.71428571 25.2777778,5.71428571 C25.2777778,5.71428571 19.8611111,14.2857143 11.5555556,14.2857143 C5.05555556,14.2857143 3.61111111,10 3.61111111,10 Z" id="leaf" fill="#5DD362"></path>
                                                    <path d="M25.2777778,5.71428571 C25.2777778,5.71428571 19.8611111,14.2857143 11.5555556,14.2857143 C7.22222222,14.2857143 5.12777778,12.3571429 4.18888889,11.0714286 C2.09444444,12.8571429 1.37222222,14.5 1.37222222,14.5714286 C1.3,14.8571429 1.01111111,15 0.722222222,15 C0.65,15 0.505555556,15 0.433333333,14.9285714 C0.0722222222,14.7857143 -0.0722222222,14.3571429 0.0722222222,14 C0.144444444,13.7857143 1.95,9.85714286 7.43888889,7.28571429 C15.3833333,3.14285714 25.2777778,5.71428571 25.2777778,5.71428571 Z" id="leaf" fill="#42BC53"></path>
                                                </g>
                                                <g id="hoja" transform="translate(93.307368, 21.745191) rotate(60.000000) translate(-93.307368, -21.745191) translate(85.807368, 7.245191)">
                                                    <path d="M15,12 C15,5.9 9,0 9,0 C9,0 1.7,4.3 1,13 C0.3,21.7 6.8,23.7 6.8,23.7 C6.8,23.7 15,20.8 15,12 Z" id="leaf" fill="#5DD362"></path>
                                                    <path d="M8,29 C8.1,29 8.2,29 8.3,28.9 C8.8,28.7 9.1,28.1 8.9,27.6 C8.4,26.1 8,24.7 7.8,23.2 C10,22.2 15,18.9 15,12 C15,5.9 9,0 9,0 C9,0 8.6,1.1 8,3 C8,3 8,3 8,3 C7.8,3.5 2.8,16.6 7.1,28.3 C7.2,28.7 7.6,29 8,29 Z" id="leaf" fill="#42BC53"></path>
                                                </g>
                                                <g id="hoja" transform="translate(29.307368, 59.745191) rotate(-120.000000) translate(-29.307368, -59.745191) translate(21.807368, 45.245191)">
                                                    <path d="M15,12 C15,5.9 9,0 9,0 C9,0 1.7,4.3 1,13 C0.3,21.7 6.8,23.7 6.8,23.7 C6.8,23.7 15,20.8 15,12 Z" id="leaf" fill="#5DD362"></path>
                                                    <path d="M8,29 C8.1,29 8.2,29 8.3,28.9 C8.8,28.7 9.1,28.1 8.9,27.6 C8.4,26.1 8,24.7 7.8,23.2 C10,22.2 15,18.9 15,12 C15,5.9 9,0 9,0 C9,0 8.6,1.1 8,3 C8,3 8,3 8,3 C7.8,3.5 2.8,16.6 7.1,28.3 C7.2,28.7 7.6,29 8,29 Z" id="leaf" fill="#42BC53"></path>
                                                </g>
                                                <g id="Flor" transform="translate(13.000000, 42.000000) scale(-1, 1) translate(-13.000000, -42.000000) translate(0.000000, 29.000000)">
                                                    <path d="M24.4244753,20.9561089 C25.2601813,19.8468762 25.6139026,18.4784184 25.4208747,17.1027473 C25.2278468,15.7270762 24.5099609,14.5094298 23.401533,13.6738657 C23.1024018,13.448127 22.7077101,13.2632031 22.2596302,13.1057873 C22.7130645,12.9646232 23.1137179,12.7934099 23.4204085,12.5786628 C25.7688628,10.9342574 26.3421384,7.68540233 24.6974016,5.33647474 C23.0526648,2.98754715 19.8036678,2.41507618 17.4552135,4.05948158 C17.148523,4.2742286 16.8506035,4.59216121 16.5623958,4.97030055 C16.5681989,4.4950724 16.5289465,4.06126726 16.4191304,3.70296871 C16.0132035,2.3748027 15.1137169,1.2836091 13.8873598,0.632188307 C12.6611446,-0.0200371698 11.2540931,-0.154883395 9.92559572,0.250570203 C7.18364131,1.0892266 5.6350141,4.00181908 6.47286581,6.7436316 C6.58216096,7.10017888 6.78669399,7.47891226 7.05541252,7.86771872 C6.6074755,7.71655089 6.18638481,7.62487741 5.81372806,7.61849197 C2.94678437,7.56848119 0.573854142,9.85989025 0.523370073,12.7271653 C0.504358584,13.8654889 0.853022045,14.9255192 1.46080913,15.7935291 C2.38423063,17.1113044 3.90375474,17.9869973 5.63218533,18.0167186 C6.00484208,18.0231041 6.42832327,17.945939 6.88109576,17.8108811 C6.59932552,18.1901555 6.38197496,18.5617056 6.2605192,18.9140724 C5.69762142,20.5489044 5.99965968,22.2756795 6.92293929,23.5942594 C7.53072638,24.4622693 8.40824188,25.1534041 9.48422896,25.5235908 C12.1953795,26.4571485 15.1603315,25.0102268 16.0934159,22.2994077 C16.2148717,21.947041 16.272275,21.5203224 16.2839005,21.0473654 C16.5573519,21.4328579 16.8436218,21.7550638 17.1409542,21.9792407 C18.2505182,22.81542 19.6186447,23.168668 20.9943157,22.9756401 C22.3707915,22.7827541 23.5887693,22.0653415 24.4244753,20.9561089 Z" id="Shape" fill="#4ACAD3"></path>
                                                    <path d="M11.178297,8.63990176 C10.9452631,7.87696713 11.3743225,7.06939957 12.1372572,6.83636565 C12.9001918,6.60333173 13.7077594,7.03239119 13.9407933,7.79532582 C14.1738272,8.55826044 13.7087793,11.9767907 13.7087793,11.9767907 C13.7087793,11.9767907 11.4113309,9.40283638 11.178297,8.63990176 Z M8.9355486,14.4373723 C8.1377895,14.4232361 7.50243635,13.7656743 7.5165726,12.9679152 C7.53070884,12.1701561 8.18827062,11.534803 8.98602972,11.5489392 C9.78378882,11.5630754 12.8914353,13.0618808 12.8914353,13.0618808 C12.8914353,13.0618808 9.73297629,14.4510353 8.9355486,14.4373723 Z M14.9931854,12.4189898 C14.9931854,12.4189898 16.7313261,9.4385895 17.3849366,8.98092648 C18.0385471,8.52326347 18.9389925,8.68203629 19.3966555,9.33564681 C19.8543185,9.98925733 19.6955457,10.8897027 19.0419352,11.3473657 C18.3883247,11.8050287 14.9931854,12.4189898 14.9931854,12.4189898 Z M11.9202121,19.2569641 C11.1657288,18.9973982 10.7651265,18.1754621 11.0246924,17.4209789 C11.2842584,16.6664957 13.670556,14.1745805 13.670556,14.1745805 C13.670556,14.1745805 14.0160946,17.6074345 13.7565287,18.3619178 C13.4966313,19.1159277 12.6746953,19.5165301 11.9202121,19.2569641 Z M17.2395979,17.2963365 C16.6023761,16.8164172 14.9694239,13.7771777 14.9694239,13.7771777 C14.9694239,13.7771777 18.3408473,14.5093818 18.978069,14.9893011 C19.6152908,15.4692204 19.7426018,16.3753059 19.2623511,17.0120544 C18.7824319,17.6492761 17.8763463,17.7765872 17.2395979,17.2963365 Z" id="Shape" fill="#FFFFFF"></path>
                                                </g>
                                                <g id="Flor" transform="translate(20.000000, 16.000000)">
                                                    <path d="M30.5258511,33.0981022 L30.7843694,30.7838831 L33.0980227,30.5247992 C35.9451175,30.2051869 38.2084249,28.4080043 39.1519882,25.7142103 C40.2177395,22.6719541 39.217042,19.3553405 36.6052724,17.4325757 L34.7311566,16.052869 L35.6634061,13.9191036 C36.8915092,11.1127382 36.3082875,8.02353005 34.142278,5.85752056 C31.9762685,3.69151107 28.8870604,3.10828939 26.0801294,4.33582677 L23.9469296,5.26864203 L22.5666572,3.39396053 C20.6438924,0.78558504 17.3267131,-0.217940904 14.2844569,0.847810436 C11.5917943,1.79137373 9.79348029,4.05468111 9.4749994,6.90177585 L9.21591547,9.21542924 L6.90226208,9.47451317 C4.05460165,9.79355975 1.79129427,11.5918737 0.847730981,14.2845363 C-0.0896097682,16.9607941 0.549614762,19.8457897 2.51650298,21.812678 L2.51706867,21.8132437 C2.78576925,22.0819442 3.08049135,22.3348056 3.39388108,22.5656053 L5.26856258,23.9458777 L4.33518163,26.0796431 C3.10877562,28.8865742 3.6919973,31.9757823 5.85800679,34.1417918 C8.02401628,36.3078013 11.1132244,36.891023 13.9201555,35.664617 L16.0539209,34.731236 L17.4341933,36.6059175 C19.3513012,39.2165558 22.6741374,40.217819 25.7169593,39.1526333 C28.4096219,38.2079386 30.2073702,35.9451969 30.5258511,33.0981022 Z" id="Shape" fill="#FDB599"></path>
                                                    <path d="M22.8816016,25.1907295 C23.087511,25.9589303 22.6315686,26.7486271 21.8633678,26.9545366 C21.095167,27.1604461 20.3049044,26.703938 20.0995606,25.9363028 C19.8942168,25.1686677 20,20 20,20 C20,20 17.50759,24.5288775 16.9452987,25.0911688 C16.3835731,25.6528945 15.4711225,25.6534601 14.9088312,25.0911688 C14.3465399,24.5288775 14.3471055,23.6164269 14.9088312,23.0547013 C15.4711225,22.49241 20,20 20,20 C20,20 14.831898,20.1063489 14.0636972,19.9004394 C13.2954963,19.6945299 12.8395539,18.904833 13.0454634,18.1366322 C13.2513729,17.3684314 14.0410697,16.912489 14.8092705,17.1183984 C15.5774713,17.3243079 20,20 20,20 C20,20 17.3243079,15.5774713 17.1183984,14.8092705 C16.912489,14.0410697 17.3684314,13.2513729 18.1366322,13.0454634 C18.904833,12.8395539 19.6945299,13.2954963 19.9004394,14.0636972 C20.1063489,14.831898 20,20 20,20 C20,20 22.49241,15.4711225 23.0547013,14.9088312 C23.6169926,14.3465399 24.5288775,14.3465399 25.0911688,14.9088312 C25.6534601,15.4711225 25.6534601,16.3830074 25.0911688,16.9452987 C24.5288775,17.50759 20,20 20,20 C20,20 25.1686677,19.8942168 25.9363028,20.0995606 C26.703938,20.3049044 27.1604461,21.095167 26.9545366,21.8633678 C26.7486271,22.6315686 25.9589303,23.087511 25.1907295,22.8816016 C24.4225287,22.6756921 20,20 20,20 C20,20 22.6751264,24.421963 22.8816016,25.1907295 Z" id="Shape" fill="#FFFFFF"></path>
                                                </g>
                                                <g id="Flor" transform="translate(89.000000, 26.000000)">
                                                    <path d="M34.7579072,29.8221549 C35.9471811,28.2436316 36.4505537,26.2962107 36.1758602,24.338525 C35.9011667,22.3808393 34.8795597,20.6480348 33.3021815,19.4589627 C32.8764948,19.1377192 32.3148182,18.8745582 31.6771661,18.6505434 C32.322438,18.4496561 32.8925986,18.2060063 33.3290428,17.9004048 C36.6710739,15.5602894 37.4868893,10.9369187 35.1463023,7.59421406 C32.8057153,4.25150941 28.1821427,3.43683918 24.8401115,5.77695456 C24.4036673,6.08255608 23.979705,6.53499864 23.5695632,7.07312001 C23.5778216,6.3968338 23.5219623,5.77949571 23.3656856,5.26960932 C22.7880204,3.37952692 21.5079818,1.82667448 19.7627813,0.899652591 C18.0177827,-0.0285144339 16.0154402,-0.220410986 14.1248862,0.356580673 C10.2228742,1.55005325 8.01905852,5.69489638 9.21138596,9.59670651 C9.36692136,10.1041007 9.6579876,10.6430675 10.0403947,11.196369 C9.40294591,10.9812455 8.80370145,10.8507871 8.27338223,10.8417001 C4.19350083,10.7705309 0.816638586,14.0313823 0.744795872,18.1117353 C0.717741062,19.7316573 1.21391599,21.2401619 2.07884376,22.4754068 C3.39294359,24.3507024 5.55534329,25.5968808 8.01503297,25.6391765 C8.54535219,25.6482635 9.14799849,25.5384516 9.79232859,25.3462538 C9.39134786,25.8859905 9.08204129,26.414735 8.9092004,26.9161799 C8.10815356,29.2426717 8.53797723,31.7000054 9.85187515,33.5764461 C10.7168029,34.811691 11.965575,35.7952289 13.4967874,36.322033 C17.3549631,37.6505575 21.5743179,35.5914767 22.9021688,31.7337725 C23.0750097,31.2323275 23.1566991,30.6250741 23.173243,29.95202 C23.5623854,30.5006054 23.9697696,30.9591293 24.3928963,31.2781502 C25.9718913,32.4680977 27.9188405,32.9707967 29.8765262,32.6961032 C31.8353571,32.4216117 33.5686332,31.4006783 34.7579072,29.8221549 Z" id="Shape" fill="#F7D30C"></path>
                                                    <path d="M15.9075765,12.2952448 C15.5759513,11.2095302 16.1865359,10.0602994 17.2722506,9.72867419 C18.3579653,9.397049 19.507196,10.0076336 19.8388212,11.0933483 C20.1704464,12.1790629 19.5086475,17.0438945 19.5086475,17.0438945 C19.5086475,17.0438945 16.2392017,13.3809595 15.9075765,12.2952448 Z M12.715973,20.5454914 C11.5807004,20.5253744 10.676544,19.5896134 10.696661,18.4543409 C10.716778,17.3190683 11.652539,16.4149119 12.7878115,16.4350289 C13.9230841,16.4551458 18.3455041,18.5880611 18.3455041,18.5880611 C18.3455041,18.5880611 13.850774,20.5649348 12.715973,20.5454914 Z M21.3364561,17.6731778 C21.3364561,17.6731778 23.8099641,13.4318389 24.7401021,12.7805492 C25.6702401,12.1292596 26.9516432,12.3552055 27.6029329,13.2853435 C28.2542225,14.2154816 28.0282766,15.4968846 27.0981386,16.1481743 C26.1680005,16.799464 21.3364561,17.6731778 21.3364561,17.6731778 Z M16.9633787,27.4041412 C15.889691,27.0347589 15.3196031,25.8650807 15.6889854,24.7913931 C16.0583677,23.7177054 19.4542528,20.1715184 19.4542528,20.1715184 C19.4542528,20.1715184 19.9459808,25.0567338 19.5765985,26.1304214 C19.2067446,27.2034356 18.0370664,27.7735236 16.9633787,27.4041412 Z M24.5332739,24.6140173 C23.6264583,23.9310553 21.3026416,19.6059836 21.3026416,19.6059836 C21.3026416,19.6059836 26.1004365,20.6479665 27.0072521,21.3309285 C27.9140676,22.0138905 28.095241,23.30332 27.4118074,24.209462 C26.7288453,25.1162776 25.4394159,25.297451 24.5332739,24.6140173 Z" id="Shape" fill="#FFFFFF"></path>
                                                </g>
                                                <g id="Flor" transform="translate(48.000000, 0.000000)">
                                                    <path d="M54.1379237,31.5464048 C55.9625462,24.5630399 48.1438056,19.13187 45.1845324,17.3616591 C45.6989766,14.4276922 46.8574047,4.80065356 40.7169237,1.24584505 C34.6121663,-2.28828261 26.9236153,3.44959091 24.6013353,5.39402404 C24.4009276,5.26871855 24.1656352,5.12587117 23.8977086,4.97076479 C20.8314374,3.19565841 13.1300975,-0.380512394 7.84990403,4.73636964 C2.20473848,10.2044755 5.53732179,18.7392794 6.80518652,21.4340926 C4.64577053,23.4449497 -1.57937327,30.0260297 0.986877047,37.024011 C1.69277097,38.9530347 2.99822799,40.4795811 4.86875265,41.5624535 C8.89955964,43.8959428 14.4760657,43.5196765 16.591707,43.2691852 C17.5849083,45.1496134 20.4220029,49.9813784 24.4796026,52.3303784 C26.1496784,53.2972082 27.8550402,53.7431811 29.5502657,53.6552686 C36.4552712,53.2971895 39.4664791,43.6601819 40.2201879,40.7426742 C43.0812084,40.3465884 52.3062726,38.5442744 54.1379237,31.5464048 Z" id="Shape" fill="#FF7398"></path>
                                                    <path d="M27.7643057,25.6030632 C27.7643057,25.6030632 31.4492792,33.7908502 28.1176886,34.3138653 C24.7835165,34.8339614 26.6574825,25.7216143 26.6574825,25.7216143 C26.6574825,25.7216143 19.5457139,31.7290717 18.5074329,28.7503567 C17.4680864,25.7710249 26.208593,24.7024398 26.208593,24.7024398 C26.208593,24.7024398 18.2208741,20.0098596 20.8149072,17.8660564 C23.4089403,15.7222531 27.0309781,23.9576566 27.0309781,23.9576566 C27.0309781,23.9576566 28.975509,15.0385915 31.8514465,16.7035111 C34.727384,18.3684307 27.9942413,24.5153028 27.9942413,24.5153028 C27.9942413,24.5153028 36.8711392,23.5256765 36.3635103,26.8673556 C35.8586276,30.2092 27.7643057,25.6030632 27.7643057,25.6030632 Z" id="Shape" fill="#FFFFFF"></path>
                                                </g>
                                            </g>
                                            <g id="Arete" transform="translate(125.000000, 129.000000)" fill-rule="nonzero">
                                                <rect id="Cadenita" fill="#E6E6E6" x="9" y="0" width="2" height="39" rx="1"></rect>
                                                <polygon id="Rayo" fill="#9177FF" points="20 37 10.57 37 17 20 6 20 0 41 8.636 41 4 60"></polygon>
                                            </g>
                                            <g id="Top/_Resources/Prescription-01" transform="translate(13.000000, 93.000000)" fill="#D6EAF2" fill-rule="nonzero">
                                                <g id="Glasses">
                                                    <path d="M46.2491397,7.27516667 C48.6207695,7.2975 49.7419096,7.69183333 50.1459601,10.1651667 C50.5553446,12.6705 50.1572949,15.4871667 49.6852359,17.9548333 C48.9648125,21.7228333 47.7666627,25.4145 44.9776475,28.1685 C43.5084639,29.6188333 41.7165732,30.7748333 39.8106684,31.5641667 C38.7985419,31.9835 37.7297416,32.2861667 36.6612747,32.5158333 C36.3489024,32.5828333 33.6822357,32.9501667 35.3177735,32.7635 C31.5009631,33.1991667 27.3601122,33.1818333 24.1723805,30.7525 C20.6396056,28.0601667 18.2203032,23.7998333 17.1565036,19.5561667 C16.5340925,17.0731667 15.2262624,11.1345 17.6158944,9.14916667 C20.3532365,6.8745 46.2491397,7.27516667 46.2491397,7.27516667 Z M22.2178029,0.4905 C16.7774562,0.677833333 13.1466691,1.63383333 10.4633337,7.06916667 C5.54571911,17.0301667 13.9627711,31.9688333 23.352278,36.0395 C34.3293166,40.7991667 46.5921826,35.5318333 52.3955746,26.0058333 C55.4689587,20.9621667 57.0224862,13.3231667 56.9224737,7.50383333 C56.7951245,0.0765 51.6071427,-0.1295 45.5090472,0.0338333333 L22.2178029,0.4905 Z" id="Frame-Stuff"></path>
                                                    <path d="M79.6805515,7.27256667 C77.3089217,7.29523333 76.1877816,7.68923333 75.7837311,10.1625667 C75.3743466,12.6679 75.7723963,15.4845667 76.244122,17.9522333 C76.9648787,21.7202333 78.1630285,25.4119 80.9520437,28.1659 C82.4212273,29.6162333 84.213118,30.7722333 86.1190228,31.5619 C87.1311493,31.9809 88.1999496,32.2835667 89.2684165,32.5132333 C89.5807888,32.5802333 92.2471221,32.9479 90.6119177,32.7609 C94.4287281,33.1965667 98.569579,33.1792333 101.757311,30.7499 C105.290086,28.0575667 107.709388,23.7975667 108.773188,19.5539 C109.395599,17.0705667 110.703095,11.1322333 108.313797,9.14656667 C105.576455,6.8719 79.6805515,7.27256667 79.6805515,7.27256667 Z M103.711555,0.4879 C109.152235,0.675233333 112.783022,1.63156667 115.466357,7.06656667 C120.383639,17.0275667 111.96692,31.9662333 102.577413,36.0372333 C91.6003746,40.7965667 79.3375086,35.5292333 73.5337832,26.0035667 C70.4607325,20.9595667 68.907205,13.3205667 69.0068841,7.50123333 C69.1345667,0.0739 74.3225485,-0.1321 80.420644,0.0315666667 L103.711555,0.4879 Z" id="Frame-Stuff"></path>
                                                    <path d="M13.1969483,4.9267 C9.78501392,5.11836667 5.88606327,5.16436667 2.69005822,6.63936667 C-0.69461078,8.20136667 -1.2176675,11.7387 3.04920921,12.2260333 C4.97094906,12.4457 6.89488267,12.0827 8.78716336,11.7450333 C10.336903,11.4683667 12.4419791,11.5580333 13.9064752,10.9657 C16.6355213,9.86236667 16.4603333,4.74003333 13.1969483,4.9267" id="Frame-Stuff"></path>
                                                    <path d="M112.73467,4.9267 C116.146606,5.11836667 120.045559,5.16436667 123.241565,6.63936667 C126.626236,8.20136667 127.149293,11.7387 122.882414,12.2260333 C120.960673,12.4457 119.036739,12.0827 117.144457,11.7450333 C115.594717,11.4683667 113.489639,11.5580333 112.025143,10.9657 C109.295782,9.86236667 109.471283,4.74003333 112.73467,4.9267" id="Frame-Stuff"></path>
                                                    <path d="M73.1094302,7.01263333 C71.1631869,4.71263333 66.0912197,3.38463333 62.8914864,3.38463333 C59.6914198,3.38463333 54.7681378,4.71263333 52.8222279,7.01263333 C51.8407719,8.1723 51.8074344,9.72396667 53.5083137,10.4509667 C55.6262451,11.3566333 57.5174814,9.7143 59.2126933,8.8553 C61.3809643,7.75663333 64.7120473,7.8773 66.7189648,8.8553 C68.4271783,9.68796667 70.3050797,11.3566333 72.4233444,10.4509667 C74.1242237,9.72396667 74.0908862,8.1723 73.1094302,7.01263333" id="Frame-Stuff"></path>
                                                </g>
                                            </g>
                                        </g>
                                    </g>
                                </g>
                            </g>
                        </g>
                    </g>
                </g>
            </g>
            <g id="Avataaar/Circle" transform="translate(264.000000, 0.000000)">
                <g id="Circle" stroke-width="1" fill-rule="evenodd" transform="translate(12.000000, 40.000000)">
                    <mask id="mask-34" fill="white">
                        <use xlink:href="#path-33"></use>
                    </mask>
                    <use id="Circle-Background" fill="#E6E6E6" xlink:href="#path-33"></use>
                    <g id="Color/Palette/Pastel-Blue" mask="url(#mask-34)" fill="#B1E2FF">
                        <rect id="ðŸ–Color" x="0" y="0" width="240" height="240"></rect>
                    </g>
                </g>
                <mask id="mask-36" fill="white">
                    <use xlink:href="#path-35"></use>
                </mask>
                <g id="Mask"></g>
                <g id="Avataaar" stroke-width="1" fill-rule="evenodd" mask="url(#mask-36)">
                    <g id="Body" transform="translate(32.000000, 36.000000)">
                        <mask id="mask-38" fill="white">
                            <use xlink:href="#path-37"></use>
                        </mask>
                        <use fill="#D0C6AC" xlink:href="#path-37"></use>
                        <g id="Skin/ðŸ‘¶ðŸ»-05-Pale" mask="url(#mask-38)" fill="#FFDBB4">
                            <g transform="translate(-32.000000, 0.000000)" id="Color">
                                <rect x="0" y="0" width="264" height="244"></rect>
                            </g>
                        </g>
                        <path d="M156,94 L156,102 C156,132.927946 130.927946,158 100,158 C69.072054,158 44,132.927946 44,102 L44,94 C44,124.927946 69.072054,150 100,150 C130.927946,150 156,124.927946 156,94 Z" id="Neck-Shadow" fill-opacity="0.100000001" fill="#000000" mask="url(#mask-38)"></path>
                    </g>
                    <g id="Clothing/Blazer-+-Sweater" transform="translate(0.000000, 170.000000)">
                        <mask id="mask-40" fill="white">
                            <use xlink:href="#path-39"></use>
                        </mask>
                        <use id="Clothes" fill="#E6E6E6" fill-rule="evenodd" xlink:href="#path-39"></use>
                        <g id="Color/Palette/Gray-02" mask="url(#mask-40)" fill="#929598" fill-rule="evenodd">
                            <rect id="ðŸ–Color" x="0" y="0" width="264" height="110"></rect>
                        </g>
                        <g id="Blazer" stroke-width="1" fill-rule="evenodd" transform="translate(32.000000, 28.000000)">
                            <path d="M68.784807,1.12222847 C65.7399891,12.7311115 64,26.1729736 64,40.5 C64,55.7087296 65.9607412,69.9199941 69.3616767,82 L0,82 L0,73.0517235 C-4.73780084e-15,34.3646437 30.512317,2.80409739 68.784807,1.12222847 Z M131.638323,82 C135.039259,69.9199941 137,55.7087296 137,40.5 C137,26.1942016 135.265163,12.7709464 132.228719,1.17384225 C170.024954,3.36285166 200,34.7067641 200,73.0517235 L200,82 L131.638323,82 Z" id="Saco" fill="#3A4C5A"></path>
                            <path d="M149,58 L158.555853,50.83311 C159.998897,49.7508275 161.987779,49.7682725 163.411616,50.8757011 L170,56 L149,58 Z" id="Pocket-hanky" fill="#E6E6E6"></path>
                            <path d="M69,1.13686838e-13 C65,19.3333333 66.6666667,46.6666667 74,82 L58,82 L44,46 L50,37 L44,31 L63,1 C65.027659,0.369238637 67.027659,0.0359053037 69,1.13686838e-13 Z" id="Wing" fill="#2F4351"></path>
                            <path d="M151,1.13686838e-13 C147,19.3333333 148.666667,46.6666667 156,82 L140,82 L126,46 L132,37 L126,31 L145,1 C147.027659,0.369238637 149.027659,0.0359053037 151,1.13686838e-13 Z" id="Wing" fill="#2F4351" transform="translate(141.000000, 41.000000) scale(-1, 1) translate(-141.000000, -41.000000) "></path>
                        </g>
                        <path d="M156,21.5390062 C162.772319,26.1359565 167,32.6563196 167,39.8878801 C167,47.2887711 162.572015,53.9447688 155.520105,58.5564942 L149.57933,53.8764929 L145,54.207887 L146,51.0567821 L145.922229,50.995516 C152.022491,47.8530505 156,42.7003578 156,36.8768102 L156,21.5390062 Z M108,21.5390062 L108,36.8768102 C108,42.7003578 111.977509,47.8530505 118.077771,50.995516 L118,51.0567821 L119,54.207887 L114.42067,53.8764929 L108.479895,58.5564942 C101.427985,53.9447688 97,47.2887711 97,39.8878801 C97,32.6563196 101.227681,26.1359565 108,21.5390062 Z" id="Collar" fill="#F2F2F2" fill-rule="evenodd"></path>
                    </g>
                    <g id="Face" transform="translate(76.000000, 82.000000)">
                        <g id="Mouth/Smile" transform="translate(2.000000, 52.000000)">
                            <mask id="mask-42" fill="white">
                                <use xlink:href="#path-41"></use>
                            </mask>
                            <use id="Mouth" fill-opacity="0.699999988" fill="#000000" fill-rule="evenodd" xlink:href="#path-41"></use>
                            <rect id="Teeth" fill="#FFFFFF" fill-rule="evenodd" mask="url(#mask-42)" x="39" y="2" width="31" height="16" rx="5"></rect>
                            <g id="Tongue" stroke-width="1" fill-rule="evenodd" mask="url(#mask-42)" fill="#FF4F6D">
                                <g transform="translate(38.000000, 24.000000)">
                                    <circle cx="11" cy="11" r="11"></circle>
                                    <circle cx="21" cy="11" r="11"></circle>
                                </g>
                            </g>
                        </g>
                        <g id="Nose/Default" transform="translate(28.000000, 40.000000)" fill="#000000" fill-opacity="0.16">
                            <path d="M16,8 C16,12.418278 21.372583,16 28,16 C34.627417,16 40,12.418278 40,8" id="Nose"></path>
                        </g>
                        <g id="Eyes/Default-ðŸ˜€" transform="translate(0.000000, 8.000000)" fill="#000000" fill-opacity="0.599999964">
                            <circle id="Eye" cx="30" cy="22" r="6"></circle>
                            <circle id="Eye" cx="82" cy="22" r="6"></circle>
                        </g>
                        <g id="Eyebrow/Outline/Default" fill="#000000" fill-opacity="0.599999964">
                            <g id="I-Browse" transform="translate(12.000000, 6.000000)">
                                <path d="M3.63024536,11.1585767 C7.54515501,5.64986673 18.2779197,2.56083721 27.5230268,4.83118046 C28.5957248,5.0946055 29.6788665,4.43856013 29.9422916,3.36586212 C30.2057166,2.2931641 29.5496712,1.21002236 28.4769732,0.94659732 C17.7403633,-1.69001789 5.31209962,1.88699832 0.369754639,8.84142326 C-0.270109626,9.74178291 -0.0589363917,10.9903811 0.84142326,11.6302454 C1.74178291,12.2701096 2.9903811,12.0589364 3.63024536,11.1585767 Z" id="Eyebrow" fill-rule="nonzero"></path>
                                <path d="M61.6302454,11.1585767 C65.545155,5.64986673 76.2779197,2.56083721 85.5230268,4.83118046 C86.5957248,5.0946055 87.6788665,4.43856013 87.9422916,3.36586212 C88.2057166,2.2931641 87.5496712,1.21002236 86.4769732,0.94659732 C75.7403633,-1.69001789 63.3120996,1.88699832 58.3697546,8.84142326 C57.7298904,9.74178291 57.9410636,10.9903811 58.8414233,11.6302454 C59.7417829,12.2701096 60.9903811,12.0589364 61.6302454,11.1585767 Z" id="Eyebrow" fill-rule="nonzero" transform="translate(73.000154, 6.039198) scale(-1, 1) translate(-73.000154, -6.039198) "></path>
                            </g>
                        </g>
                    </g>
                    <g id="Top">
                        <mask id="mask-44" fill="white">
                            <use xlink:href="#path-43"></use>
                        </mask>
                        <g id="Mask"></g>
                        <g id="Top/Short-Hair/Shaggy" mask="url(#mask-44)">
                            <g transform="translate(-1.000000, 0.000000)">
                                <g id="Facial-Hair/-Blank" stroke="none" fill="none" transform="translate(49.000000, 72.000000)"></g>
                                <g id="Top/_Resources/Kurt" stroke="none" fill="none" transform="translate(62.000000, 86.000000)" fill-rule="evenodd" stroke-width="1">
                                    <g id="Kurts" filter="url(#filter-45)" transform="translate(5.000000, 2.000000)">
                                        <path d="M66,11.1111111 C54.9625586,11.1111111 53.3705645,2.0266011 30.6705882,0.740740741 C7.98552275,-0.283199952 0.815225204,6.4494855 0.776470588,11.1111111 C0.813236892,15.4042795 -0.352293566,26.5612661 14.3647059,39.6296296 C29.1367705,55.1420807 44.2704162,49.8818301 49.6941176,44.8148148 C55.1352081,42.4731118 61.3403442,21.4596351 66,21.4814815 C70.6596558,21.5033279 76.8647919,42.4731118 82.3058824,44.8148148 C87.7295838,49.8818301 102.86323,55.1420807 117.635294,39.6296296 C132.352294,26.5612661 131.186763,15.4042795 131.223529,11.1111111 C131.184775,6.4494855 124.014477,-0.283199952 101.329412,0.740740741 C78.6294355,2.0266011 77.0374414,11.1111111 66,11.1111111 Z" id="It!" fill="#F4F4F4" fill-rule="nonzero"></path>
                                        <path d="M55.1294118,21.4814815 C55.5103632,13.8233491 42.2156493,5.64243259 27.9529412,5.92592593 C13.6973442,6.22450879 11.8417942,15.3786982 11.6470588,18.8888889 C11.2982286,27.0220633 20.014463,45.3037598 36.1058824,44.8148148 C52.1972736,44.305848 54.9092435,26.5344305 55.1294118,21.4814815 Z" id="Did" fill="#2F383B" fill-rule="nonzero"></path>
                                        <path d="M120.352941,21.4814815 C120.733893,13.8233491 107.439179,5.64243259 93.1764706,5.92592593 C78.9208736,6.22450879 77.0653236,15.3786982 76.8705882,18.8888889 C76.521758,27.0220633 85.2379924,45.3037598 101.329412,44.8148148 C117.420803,44.305848 120.132773,26.5344305 120.352941,21.4814815 Z" id="Courtney" fill="#2F383B" fill-rule="nonzero" transform="translate(98.611765, 25.370370) scale(-1, 1) translate(-98.611765, -25.370370) "></path>
                                    </g>
                                </g>
                                <mask id="mask-47" fill="white">
                                    <use xlink:href="#path-46"></use>
                                </mask>
                                <use id="Shaggy-Hair" stroke="none" fill="#28354B" fill-rule="evenodd" transform="translate(143.465161, 67.234158) scale(-1, 1) translate(-143.465161, -67.234158) " xlink:href="#path-46"></use>
                                <g id="Color/Hair/Black" stroke="none" fill="none" mask="url(#mask-47)" fill-rule="evenodd">
                                    <g transform="translate(1.000000, 0.000000)" fill="#2C1B18" id="Color">
                                        <rect x="0" y="0" width="264" height="280"></rect>
                                    </g>
                                </g>
                            </g>
                        </g>
                    </g>
                </g>
            </g>
            <g id="Avataaar/Circle" transform="translate(528.000000, 0.000000)">
                <g id="Circle" transform="translate(12.000000, 40.000000)">
                    <g id="Circle-Background" fill="#E6E6E6" fill-rule="nonzero">
                        <circle id="path-46" cx="120" cy="120" r="120"></circle>
                    </g>
                    <g id="Color/Palette/Pastel-Blue-Clipped">
                        <mask id="mask-49" fill="white">
                            <use xlink:href="#path-48"></use>
                        </mask>
                        <g id="path-46"></g>
                        <g id="Color/Palette/Pastel-Blue" mask="url(#mask-49)" fill="#B1E2FF" fill-rule="nonzero">
                            <rect id="ðŸ–Color" x="0" y="0" width="240" height="240"></rect>
                        </g>
                    </g>
                </g>
                <g id="Avataaar-Clipped">
                    <mask id="mask-51" fill="white">
                        <use xlink:href="#path-50"></use>
                    </mask>
                    <g id="path-48"></g>
                    <g id="Avataaar" mask="url(#mask-51)">
                        <g id="Body" transform="translate(32.000000, 36.000000)">
                            <g id="path-50-link" fill="#D0C6AC" fill-rule="nonzero">
                                <path d="M124,144.610951 L124,163 L128,163 C167.764502,163 200,195.235498 200,235 L200,244 L0,244 L0,235 C-4.86974701e-15,195.235498 32.235498,163 72,163 L76,163 L76,144.610951 C58.7626345,136.422372 46.3722246,119.687011 44.3051388,99.8812385 C38.4803105,99.0577866 34,94.0521096 34,88 L34,74 C34,68.0540074 38.3245733,63.1180731 44,62.1659169 L44,56 C44,25.072054 69.072054,5.68137151e-15 100,0 C130.927946,-5.68137151e-15 156,25.072054 156,56 L156,62.1659169 C161.675427,63.1180731 166,68.0540074 166,74 L166,88 C166,94.0521096 161.51969,99.0577866 155.694861,99.8812385 C153.627775,119.687011 141.237365,136.422372 124,144.610951 Z" id="path-50"></path>
                            </g>
                            <g id="Skin/ðŸ‘¶ðŸ¾-02-Dark-Brown-Clipped">
                                <mask id="mask-53" fill="white">
                                    <use xlink:href="#path-52"></use>
                                </mask>
                                <g id="path-50"></g>
                                <g id="Skin/ðŸ‘¶ðŸ¾-02-Dark-Brown" mask="url(#mask-53)">
                                    <g transform="translate(-32.000000, 0.000000)" id="Color">
                                        <g>
                                            <rect id="Rectangle-path" fill="#AE5D29" fill-rule="nonzero" x="0" y="0" width="264" height="244"></rect>
                                        </g>
                                    </g>
                                </g>
                            </g>
                            <g id="Neck-Shadow-Clipped">
                                <mask id="mask-55" fill="white">
                                    <use xlink:href="#path-54"></use>
                                </mask>
                                <g id="path-50"></g>
                                <path d="M156,94 L156,102 C156,132.927946 130.927946,158 100,158 C69.072054,158 44,132.927946 44,102 L44,94 C44,124.927946 69.072054,150 100,150 C130.927946,150 156,124.927946 156,94 Z" id="Neck-Shadow" fill-opacity="0.100000001" fill="#000000" fill-rule="nonzero" mask="url(#mask-55)"></path>
                            </g>
                        </g>
                        <g id="Clothing/Graphic-Shirt" transform="translate(32.000000, 199.000000)">
                            <g id="Clothes" fill="#E6E6E6">
                                <path d="M133.624032,0.2681342 C170.760022,3.1373245 200,34.1798426 200,72.051724 L200,81 L0,81 L0,72.051724 C0,33.8348009 29.7752018,2.5722494 67.3929298,0.1967444 C67.1342224,1.2735458 67,2.3767131 67,3.5 C67,15.3741221 81.998461,25 100.5,25 C119.001539,25 134,15.3741221 134,3.5 C134,2.4015235 133.871641,1.3222877 133.624025,0.2681336 L133.624032,0.2681342 Z" id="path-52"></path>
                            </g>
                            <g id="Color/Palette/Red-Clipped">
                                <mask id="mask-57" fill="white">
                                    <use xlink:href="#path-56"></use>
                                </mask>
                                <g id="path-52"></g>
                                <g id="Color/Palette/Red" mask="url(#mask-57)" fill="#FF5C5C">
                                    <g transform="translate(-32.000000, -29.000000)" id="ðŸ–Color">
                                        <rect x="0" y="0" width="264" height="110"></rect>
                                    </g>
                                </g>
                            </g>
                            <g id="Clothing/Graphic/Skull-Clipped">
                                <mask id="mask-59" fill="white">
                                    <use xlink:href="#path-58"></use>
                                </mask>
                                <g id="path-52"></g>
                                <g id="Clothing/Graphic/Skull" mask="url(#mask-59)">
                                    <g transform="translate(81.000000, 31.000000)" id="Fill-49">
                                        <g>
                                            <path d="M29.2820354,17.9288113 C28.9841617,20.7059411 23.588846,22.2025715 21.6102394,20.3766824 C20.6984983,19.5350479 20.6825881,17.8029182 20.4815012,16.6751632 C20.1014249,14.5420247 19.8256486,12.4172496 19.7306295,10.2519776 C19.6727342,8.9274596 19.3253621,7.86749314 20.7745135,7.67029008 C21.65797,7.55055964 22.5675014,8.137767 23.2896464,8.6026028 C25.736719,10.1758255 29.6201265,14.7414286 29.2820354,17.9288113 M16.8813831,12.0756657 C17.1659984,14.901216 18.2014853,19.8145656 15.9457767,22.1810024 C13.9296045,24.2960933 9.7863308,22.19905 9.1631825,19.7084809 C8.3897714,16.6188195 11.4383369,12.9274245 13.307782,10.8387447 C13.881874,10.1969544 15.151594,8.4256483 16.1442119,9.018578 C16.526056,9.2461539 16.8367463,11.6301981 16.8813831,12.0756657 M18.3212536,23.1062722 C18.9678252,21.5832306 25.2342228,26.1246236 22.2744891,28.2850536 C21.7918806,28.6376421 18.1148633,29.7513112 17.4099544,29.2274906 C15.9250051,28.1235056 17.8408548,24.2630794 18.3212536,23.1062722 M37.3250687,15.5267194 C36.8817937,0.05112066 17.065234,-4.31331777 6.4756895,4.50447654 C2.426551,7.87585667 0.113389,12.0039155 0.0073212,17.2826191 C-0.0828365,21.7544627 0.6256081,25.9718792 4.0409914,29.0465744 C5.5219631,30.379896 6.5004386,31.1955596 7.2862243,33.0170469 C8.1095756,34.9234899 8.4852324,37.3524331 10.0280771,38.8495037 C10.8788292,39.6752915 12.1176128,40.3417322 13.2940816,39.8091079 C15.455655,38.8301355 14.7644465,35.8320326 15.4194152,34.1606486 C17.4559171,39.1294616 22.6302582,40.7141291 23.5694002,34.4097935 C24.6000257,36.2286397 27.2945899,38.610483 29.268335,36.6195243 C30.0806376,35.8003393 30.2030575,34.4705391 30.3409457,33.3929652 C30.5857855,31.4807998 30.1601884,30.7294032 31.6955199,29.4180909 C35.7349355,25.9683578 37.4691441,20.7464381 37.3250687,15.5267194" id="Shape" fill="#FFFFFF"></path>
                                        </g>
                                    </g>
                                </g>
                            </g>
                        </g>
                        <g id="Face" transform="translate(88.000000, 88.000000)" fill="#000000" fill-rule="nonzero">
                            <g id="Mouth/Twinkle" transform="translate(30.000000, 60.000000)" fill-opacity="0.599999964">
                                <path d="M0,2 C0,7.371763 6.1581544,11 14,11 C21.8418456,11 28,7.371763 28,2 C28,0.8954305 27.050301,0 26,0 C24.7072748,0 24.1302316,0.9051755 24,2 C22.7575758,4.9378973 19.6832595,6.7163149 14,7 C8.3167405,6.7163149 5.2424242,4.9378973 4,2 C3.8697684,0.9051755 3.2927252,0 2,0 C0.949699,0 0,0.8954305 0,2 Z" id="Mouth"></path>
                            </g>
                            <g id="Nose/Default" transform="translate(32.000000, 42.000000)" fill-opacity="0.16">
                                <path d="M0,0 C0,4.418278 5.372583,8 12,8 C18.627417,8 24,4.418278 24,0" id="Nose"></path>
                            </g>
                            <g id="Eyes/Default-ðŸ˜€" transform="translate(12.000000, 18.000000)" fill-opacity="0.599999964">
                                <circle id="Eye" cx="6" cy="6" r="6"></circle>
                                <circle id="Eye" cx="58" cy="6" r="6"></circle>
                            </g>
                            <g id="Eyebrow/Outline/Default" fill-opacity="0.599999964">
                                <g id="I-Browse">
                                    <path d="M3.63024536,11.1585767 C7.54515501,5.64986673 18.2779197,2.56083721 27.5230268,4.83118046 C28.5957248,5.0946055 29.6788665,4.43856013 29.9422916,3.36586212 C30.2057166,2.2931641 29.5496712,1.21002236 28.4769732,0.94659732 C17.7403633,-1.69001789 5.31209962,1.88699832 0.369754639,8.84142326 C-0.270109626,9.74178291 -0.0589363917,10.9903811 0.84142326,11.6302454 C1.74178291,12.2701096 2.9903811,12.0589364 3.63024536,11.1585767 Z" id="Eyebrow"></path>
                                    <path d="M61.6302461,11.1585767 C65.5451557,5.64986673 76.2779204,2.56083721 85.5230275,4.83118046 C86.5957255,5.0946055 87.6788672,4.43856013 87.9422923,3.36586212 C88.2057173,2.2931641 87.5496719,1.21002236 86.4769739,0.94659732 C75.740364,-1.69001789 63.3121003,1.88699832 58.3697553,8.84142326 C57.7298911,9.74178291 57.9410643,10.9903811 58.841424,11.6302454 C59.7417836,12.2701096 60.9903818,12.0589364 61.6302461,11.1585767 Z" id="Eyebrow" transform="translate(73.000154, 6.039198) scale(-1, 1) translate(-73.000154, -6.039198) "></path>
                                </g>
                            </g>
                        </g>
                        <g id="Top">
                            <g id="Top/Long-Hair/Big-Hair-Clipped">
                                <mask id="mask-61" fill="white">
                                    <use xlink:href="#path-60"></use>
                                </mask>
                                <g id="path-54"></g>
                                <g id="Top/Long-Hair/Big-Hair" mask="url(#mask-61)">
                                    <g transform="translate(15.000000, 13.000000)" id="Group">
                                        <g>
                                            <g id="Hair">
                                                <g id="path-56-link" fill="#314756" fill-rule="nonzero">
                                                    <path d="M217,267 L217,258 C217,218.235498 184.764502,186 145,186 L141,186 L141,167.610951 C158.530782,159.282984 171.048193,142.114792 172.791419,121.867187 C178.569129,121.002364 183,116.018625 183,110 L183,97 C183,96.4315537 182.960475,95.8723389 182.884023,95.3249541 C161.364085,83.7373848 142.890027,67.1442914 130.845581,48.302359 C112.763849,73.9237118 76.5299076,78.5347548 51.2240944,94.679971 C51.0770557,95.4306015 51,96.2063021 51,97 L51,110 C51,116.018625 55.4308707,121.002364 61.2085808,121.867187 C62.9518066,142.114792 75.4692178,159.282984 93,167.610951 L93,186 L89,186 C49.235498,186 17,218.235498 17,258 L17,267 L16.0053198,267 C-22.4337677,245.051165 20.8572256,209.888877 21.1740982,198 C21.5397764,186.255758 -0.277399696,183.560973 0.00267373922,155 C0.944497502,125.971596 31.3716806,128.588232 31.2026676,109 C31.3716806,89.9992744 19.8139454,82.1607482 31.2026676,46 C42.8395963,9.53932757 72.9165934,0.768171773 116.002651,0.0159928999 L116.002651,0 C116.16951,0.002426813 116.336177,0.0049705256 116.502651,0.0076322645 C116.669125,0.0049705256 116.835791,0.002426813 117.002651,0 L117.002651,0.0159928999 C160.088708,0.768171773 190.165705,9.53932757 201.802634,46 C213.191356,82.1607482 201.633621,89.9992744 201.802634,109 C201.633621,128.588232 232.060804,125.971596 233.002628,155 C233.282701,183.560973 211.465525,186.255758 211.831204,198 C212.148076,209.888877 255.439069,245.051165 216.999964,267.00001 L217,267 Z" id="path-56"></path>
                                                </g>
                                                <g id="Color/Hair/Black-Clipped">
                                                    <mask id="mask-63" fill="white">
                                                        <use xlink:href="#path-62"></use>
                                                    </mask>
                                                    <g id="path-56"></g>
                                                    <g id="Color/Hair/Black" mask="url(#mask-63)">
                                                        <g transform="translate(-15.000000, -13.000000)" id="Color">
                                                            <g>
                                                                <rect id="Rectangle-path" fill="#2C1B18" fill-rule="nonzero" x="0" y="0" width="264" height="280"></rect>
                                                            </g>
                                                        </g>
                                                    </g>
                                                </g>
                                            </g>
                                            <g id="Shadow">
                                                <g id="Shadow-Mask-Clipped">
                                                    <mask id="mask-65" fill="white">
                                                        <use xlink:href="#path-64"></use>
                                                    </mask>
                                                    <g id="path-58"></g>
                                                    <path d="M30.0988695,115.056827 C27.7250732,118.08281 24.5296181,122.528485 24.3618393,122.19381 C26.2345006,119.810609 27.3747977,117.011661 27.3409475,113.436088 C27.517612,95.334874 15.4366324,87.8674306 27.3409475,53.4185647 C28.0096512,51.5090274 29.1070085,49.7044671 30.585889,48.0048838 C20.2433352,82.4586863 31.3685109,90.3556196 31.2026676,109 C31.2224682,111.294844 30.8223327,113.284923 30.0988695,115.056827 Z M202.419413,48.0048838 C203.898293,49.7044671 204.995651,51.5090274 205.664354,53.4185647 C215.822041,82.8130155 208.516445,92.5627534 206.263744,106.036479 C205.964379,106.841192 206.195125,107.789747 205.880216,108.603009 C175.207016,98.1454461 147.589972,78.5596292 131.494917,55.6119279 C108.710969,85.0357527 58.3544031,85.3732378 33.6737341,110.936101 C34.0607045,110.391798 34.4280855,109.884956 34.7584999,109.446288 C57.2940449,79.527377 108.24688,80.3241416 130.845581,48.302359 C146.243536,72.3904102 172.664446,92.9495135 202.009146,103.926748 C202.310417,103.073073 202.089664,102.077381 202.376063,101.232679 C204.483829,87.4002546 211.215481,77.3069293 202.419413,48.0048838 Z" id="Shadow-Mask" fill-opacity="0.16" fill="#000000" fill-rule="nonzero" mask="url(#mask-65)"></path>
                                                </g>
                                            </g>
                                            <path d="M34.7584999,109.446288 C57.2940449,79.527377 108.24688,80.3241416 130.845581,48.302359 C146.243536,72.3904102 172.664446,92.949514 202.009146,103.926748 C202.310417,103.073073 202.089664,102.077381 202.376063,101.232679 C204.531197,87.089398 211.520377,76.8551619 201.802634,46 C190.165705,9.5393276 160.088708,0.7681718 117.002651,0.0159929 C116.336177,0.0049705 116.16951,0.0024268 116.002651,0 C72.9165934,0.7681718 42.8395963,9.5393276 31.2026676,46 C19.8139454,82.1607482 31.3716806,89.999274 31.2026676,109 C31.2350518,112.753256 30.1441426,115.691293 28.3525888,118.192923 C28.5361111,118.59459 32.5061717,112.436551 34.7584999,109.446288 Z" id="Light" fill-opacity="0.1" fill="#FFFFFF"></path>
                                        </g>
                                    </g>
                                </g>
                            </g>
                        </g>
                    </g>
                </g>
            </g>
        </g>
    </g>
</svg>