<svg xmlns="http://www.w3.org/2000/svg" width="190" height="190" viewBox="0 0 190 190">
  <g fill="none">
    <g transform="translate(12.222 12.963)">
      <path fill="#DC8D62" d="M157.987407,40.2840741 L146.943704,40.2840741 C146.943704,44.1414815 143.787778,47.2974074 139.930741,47.2974074 L139.930741,54.3107407 L165.000741,54.3107407 L165.000741,47.2974074 C161.143704,47.297037 157.987407,44.1411111 157.987407,40.2840741 Z"/>
      <rect width="25.07" height="11.014" x="139.93" y="161.948" fill="#ACB0B5"/>
      <g fill="#009C87" transform="translate(0 20)">
        <polygon points="139.931 86.718 24.63 86.718 13.792 86.718 11.375 90.337 .186 107.089 139.931 107.089"/>
        <path d="M152.465556.284814815L146.182222.284444444 146.182222 8.60444444C146.182222 10.9540741 144.26 20.2840741 141.91037 20.2840741L146.944074 20.2840741 157.987778 20.2840741 163.021481 20.2840741C160.671852 20.2840741 158.74963 10.9540741 158.74963 8.60444444L158.74963.284444444 152.465556.284814815zM11.3751852 62.2285185L24.63 62.2285185 29.0474074 62.2285185C26.6977778 62.2285185 24.7755556 52.8985185 24.7755556 50.5488889L24.7755556 42.2288889 18.4918519 42.2292593 12.2085185 42.2288889 12.2085185 50.5488889C12.2085185 52.8985185 10.2862963 62.2285185 7.93666667 62.2285185L11.3751852 62.2285185z"/>
      </g>
      <g fill="#FFCE34" transform="translate(12.963)">
        <circle cx="139.504" cy="5.493" r="5.486"/>
        <circle cx="5.529" cy="47.437" r="5.486"/>
      </g>
      <g fill="#FF8346" transform="translate(0 54.074)">
        <polygon points="165.001 .236 139.931 .236 139.931 52.644 139.931 73.014 139.931 107.876 165.001 107.876"/>
        <polygon points="24.63 52.644 24.63 28.154 11.375 28.154 11.375 56.263 13.792 52.644"/>
        <path d="M139.930741,73.0144444 L0.185555556,73.0144444 L0.185555556,118.88963 L11.3748148,118.88963 L11.3748148,109.409259 C11.3748148,105.815556 14.3148148,102.875556 17.9085185,102.875556 C21.5022222,102.875556 24.4422222,105.815556 24.4422222,109.409259 L24.4422222,118.88963 L37.5096296,118.88963 L37.5096296,109.409259 C37.5096296,105.815556 40.45,102.875556 44.0437037,102.875556 C47.6374074,102.875556 50.5774074,105.815556 50.5774074,109.409259 L50.5774074,118.88963 L63.5240741,118.88963 L63.5240741,109.409259 C63.5240741,105.815556 66.4640741,102.875556 70.0577778,102.875556 C73.6514815,102.875556 76.5914815,105.815556 76.5914815,109.409259 L76.5914815,118.88963 L89.6588889,118.88963 L89.6588889,109.409259 C89.6588889,105.815556 92.5988889,102.875556 96.1925926,102.875556 C99.7862963,102.875556 102.726296,105.815556 102.726296,109.409259 L102.726296,118.88963 L115.672963,118.88963 L115.672963,109.409259 C115.672963,105.815556 118.613333,102.875556 122.207037,102.875556 C125.800741,102.875556 128.740741,105.815556 128.740741,109.409259 L128.740741,118.88963 L139.930741,118.88963 L139.93,107.875926 L139.930741,73.0144444 L139.930741,73.0144444 Z"/>
      </g>
      <path fill="#747981" d="M13.3314815 6.81666667C13.3314815 3.22296296 10.3914815.282962963 6.79777778.282962963 3.20407407.282962963.264074074 3.22296296.264074074 6.81666667L.264074074 16.297037 13.3314815 16.297037 13.3314815 6.81666667zM26.3988889 6.81666667L26.3988889 16.297037 39.4666667 16.297037 39.4666667 6.81666667C39.4666667 3.22296296 36.5266667.282962963 32.932963.282962963 29.3392593.282962963 26.3988889 3.22333333 26.3988889 6.81666667zM52.4133333 6.81666667L52.4133333 16.297037 65.4811111 16.297037 65.4811111 6.81666667C65.4811111 3.22296296 62.5411111.282962963 58.9474074.282962963 55.3533333.282962963 52.4133333 3.22333333 52.4133333 6.81666667zM78.5481481 6.81666667L78.5481481 16.297037 91.6159259 16.297037 91.6159259 6.81666667C91.6159259 3.22296296 88.6755556.282962963 85.0822222.282962963 81.4885185.282962963 78.5481481 3.22333333 78.5481481 6.81666667zM104.562593 6.81666667L104.562593 16.297037 117.63037 16.297037 117.63037 6.81666667C117.63037 3.22296296 114.69037.282962963 111.096667.282962963 107.502963.282962963 104.562593 3.22333333 104.562593 6.81666667z" transform="translate(11.111 156.667)"/>
    </g>
    <path fill="#000" d="M45.9607407 163.848519C48.0062963 163.848519 49.6644444 162.19 49.6644444 160.144815L49.6644444 151.070741C49.6644444 149.025556 48.0062963 147.367037 45.9607407 147.367037 43.9155556 147.367037 42.257037 149.025556 42.257037 151.070741L42.257037 160.144815C42.257037 162.19 43.9155556 163.848519 45.9607407 163.848519zM118.6 163.848519C120.645185 163.848519 122.303704 162.19 122.303704 160.144815L122.303704 151.070741C122.303704 149.025556 120.645185 147.367037 118.6 147.367037 116.554815 147.367037 114.896296 149.025556 114.896296 151.070741L114.896296 160.144815C114.896296 162.19 116.554815 163.848519 118.6 163.848519zM89.1555556 163.848519C91.2007407 163.848519 92.8592593 162.19 92.8592593 160.144815L92.8592593 151.070741C92.8592593 149.025556 91.2007407 147.367037 89.1555556 147.367037 87.11 147.367037 85.4518519 149.025556 85.4518519 151.070741L85.4518519 160.144815C85.4518519 162.19 87.1103704 163.848519 89.1555556 163.848519zM75.4051852 163.848519C77.4507407 163.848519 79.1088889 162.19 79.1088889 160.144815L79.1088889 151.070741C79.1088889 149.025556 77.4507407 147.367037 75.4051852 147.367037 73.36 147.367037 71.7014815 149.025556 71.7014815 151.070741L71.7014815 160.144815C71.7014815 162.19 73.36 163.848519 75.4051852 163.848519zM61.6548148 163.848519C63.7 163.848519 65.3585185 162.19 65.3585185 160.144815L65.3585185 151.070741C65.3585185 149.025556 63.7 147.367037 61.6548148 147.367037 59.6096296 147.367037 57.9511111 149.025556 57.9511111 151.070741L57.9511111 160.144815C57.9511111 162.19 59.6096296 163.848519 61.6548148 163.848519zM102.905926 163.848519C104.951111 163.848519 106.60963 162.19 106.60963 160.144815L106.60963 151.070741C106.60963 149.025556 104.951111 147.367037 102.905926 147.367037 100.860741 147.367037 99.2022222 149.025556 99.2022222 151.070741L99.2022222 160.144815C99.2022222 162.19 100.860741 163.848519 102.905926 163.848519zM32.21 163.848519C34.2551852 163.848519 35.9137037 162.19 35.9137037 160.144815L35.9137037 151.070741C35.9137037 149.025556 34.2551852 147.367037 32.21 147.367037 30.1648148 147.367037 28.5062963 149.025556 28.5062963 151.070741L28.5062963 160.144815C28.5062963 162.19 30.1648148 163.848519 32.21 163.848519zM132.35037 163.848519C134.395556 163.848519 136.054074 162.19 136.054074 160.144815L136.054074 151.070741C136.054074 149.025556 134.395556 147.367037 132.35037 147.367037 130.305185 147.367037 128.646667 149.025556 128.646667 151.070741L128.646667 160.144815C128.646667 162.19 130.305185 163.848519 132.35037 163.848519zM167.084074 78.5711111L162.291481 78.5711111C160.246296 78.5711111 158.587778 80.2292593 158.587778 82.2748148 158.587778 84.32 160.246296 85.9785185 162.291481 85.9785185L167.084074 85.9785185C169.129259 85.9785185 170.787778 84.32 170.787778 82.2748148 170.787778 80.2292593 169.12963 78.5711111 167.084074 78.5711111zM164.688148 123.525926C162.642963 123.525926 160.984444 125.184444 160.984444 127.22963L160.984444 127.405926C160.984444 129.451111 162.642963 131.10963 164.688148 131.10963 166.733333 131.10963 168.391852 129.451111 168.391852 127.405926L168.391852 127.22963C168.391852 125.184074 166.733333 123.525926 164.688148 123.525926zM164.688148 134.473704C162.642963 134.473704 160.984444 136.132222 160.984444 138.177407L160.984444 153.524815C160.984444 155.57037 162.642963 157.228519 164.688148 157.228519 166.733333 157.228519 168.391852 155.57037 168.391852 153.524815L168.391852 138.177407C168.391852 136.132222 166.733333 134.473704 164.688148 134.473704zM115.068519 123.385185L115.244815 123.385185C117.29037 123.385185 118.948519 121.727037 118.948519 119.681481 118.948519 117.636296 117.29037 115.977778 115.244815 115.977778L115.068519 115.977778C113.023333 115.977778 111.364815 117.636296 111.364815 119.681481 111.364815 121.726667 113.023333 123.385185 115.068519 123.385185z"/>
    <path fill="#000" d="M185.926667,189.63037 C187.971852,189.63037 189.63037,187.972222 189.63037,185.926667 C189.63037,183.881481 187.971852,182.222963 185.926667,182.222963 L180.926667,182.222963 L180.926667,182.222963 L180.926667,60.26 L180.926667,60.26 C180.926667,58.2148148 179.268148,56.5562963 177.222963,56.5562963 C177.124074,56.5562963 177.026296,56.55 176.92963,56.5414815 C178.126296,55.9274074 178.946667,54.6840741 178.946667,53.247037 C178.946667,51.7411111 178.048148,50.4455556 176.758148,49.8662963 C175.821481,48.1948148 174.675185,43.2148148 174.675185,41.5677778 L174.675185,36.9511111 L176.643704,36.9511111 C178.688889,36.9511111 180.347407,35.2925926 180.347407,33.2474074 C180.347407,31.2022222 178.688889,29.5437037 176.643704,29.5437037 L170.971481,29.5437037 L168.391111,29.5437037 L168.391111,26.8633333 C171.618519,25.4359259 173.877407,22.2055556 173.877407,18.4555556 C173.877407,14.7055556 171.618519,11.4751852 168.391111,10.0477778 L168.391111,3.7037037 C168.391111,1.65814815 166.732593,0 164.687407,0 C162.641852,0 160.983704,1.65814815 160.983704,3.7037037 L160.983704,10.0481481 C157.756667,11.4755556 155.497778,14.7059259 155.497778,18.4555556 C155.497778,22.2051852 157.756296,25.4355556 160.983704,26.862963 L160.983704,29.5433333 L158.404074,29.5433333 L152.731481,29.5433333 C150.686296,29.5433333 149.027778,31.2018519 149.027778,33.247037 C149.027778,35.2922222 150.686296,36.9507407 152.731481,36.9507407 L154.70037,36.9507407 L154.70037,41.5674074 C154.70037,43.2144444 153.554074,48.1944444 152.617407,49.8659259 C151.327407,50.4451852 150.428519,51.7411111 150.428519,53.2466667 C150.428519,54.6840741 151.248889,55.9274074 152.445556,56.5411111 C152.348889,56.5496296 152.251481,56.5559259 152.152593,56.5559259 C150.107407,56.5559259 148.448889,58.2144444 148.448889,60.2596296 L148.448889,60.2596296 L148.448889,115.977778 L126.016296,115.977778 C123.971111,115.977778 122.312593,117.636296 122.312593,119.681481 C122.312593,121.727037 123.971111,123.385185 126.016296,123.385185 L148.448889,123.385185 L148.448889,136.347778 L19.3359259,136.347778 L27.9944444,123.385185 L27.9944444,123.385185 L27.9944444,123.385185 L27.9944444,123.385185 L27.9944444,123.385185 L96.7696296,123.385185 C98.8148148,123.385185 100.473333,121.727037 100.473333,119.681481 C100.473333,117.636296 98.8148148,115.977778 96.7696296,115.977778 L40.5555556,115.977778 L40.5555556,98.8951852 L41.2692593,98.8951852 C43.3148148,98.8951852 44.972963,97.2366667 44.972963,95.1914815 C44.972963,93.6855556 44.0744444,92.39 42.7844444,91.8107407 C41.8477778,90.1392593 40.7014815,85.1592593 40.7014815,83.5122222 L40.7014815,78.8955556 L42.6696296,78.8955556 C44.7148148,78.8955556 46.3733333,77.237037 46.3733333,75.1918519 C46.3733333,73.1466667 44.7148148,71.4881481 42.6696296,71.4881481 L36.9977778,71.4881481 L34.4174074,71.4881481 L34.4174074,68.8077778 C37.6448148,67.3803704 39.9037037,64.15 39.9037037,60.4 C39.9037037,56.6503704 37.6448148,53.4196296 34.4174074,51.9922222 L34.4174074,45.6481481 C34.4174074,43.602963 32.7592593,41.9444444 30.7137037,41.9444444 C28.6685185,41.9444444 27.01,43.602963 27.01,45.6481481 L27.01,51.9925926 C23.782963,53.42 21.5244444,56.6503704 21.5244444,60.4 C21.5244444,64.15 23.782963,67.38 27.01,68.8074074 L27.01,71.4877778 L24.43,71.4877778 L18.7577778,71.4877778 C16.7125926,71.4877778 15.0540741,73.1462963 15.0540741,75.1914815 C15.0540741,77.2366667 16.7125926,78.8951852 18.7577778,78.8951852 L20.7262963,78.8951852 L20.7262963,83.5118519 C20.7262963,85.1588889 19.58,90.1388889 18.6437037,91.8103704 C17.3533333,92.3896296 16.4548148,93.6855556 16.4548148,95.1911111 C16.4548148,97.147037 17.9722222,98.7448148 19.8933333,98.8814815 L19.8933333,122.176667 L9.33962963,137.976667 C9.33777778,137.97963 9.33555556,137.982593 9.3337037,137.985556 L9.32814815,137.994074 C9.32481481,137.998889 9.32296296,138.004074 9.31962963,138.008519 C9.23888889,138.13037 9.16740741,138.258148 9.10111111,138.38963 C9.08481481,138.421852 9.06962963,138.454444 9.05444444,138.487037 C8.99814815,138.607407 8.94777778,138.730741 8.90444444,138.857778 C8.89814815,138.875926 8.89037037,138.893704 8.88444444,138.912222 C8.83814815,139.055926 8.80074074,139.203704 8.77185185,139.354444 C8.76592593,139.385926 8.76259259,139.417407 8.75740741,139.448519 C8.73851852,139.562963 8.72481481,139.678889 8.71703704,139.796667 C8.7137037,139.844815 8.71111111,139.892593 8.70962963,139.94037 C8.70851852,139.977407 8.70407407,140.013704 8.70407407,140.051111 L8.70407407,182.222593 L3.70407407,182.222593 C1.65888889,182.222593 0.00037037037,183.881111 0.00037037037,185.926296 C0.00037037037,187.971852 1.65888889,189.63 3.70407407,189.63 L185.926667,189.63 L185.926667,189.63037 Z M166.47037,18.4555556 C166.47037,19.4381481 165.670741,20.2381481 164.687778,20.2381481 C163.705185,20.2381481 162.905185,19.4385185 162.905185,18.4555556 C162.905185,17.472963 163.704815,16.672963 164.687778,16.672963 C165.670741,16.6733333 166.47037,17.472963 166.47037,18.4555556 Z M28.9318519,60.4 C28.9318519,59.4174074 29.7311111,58.6174074 30.7137037,58.6174074 C31.6962963,58.6174074 32.4962963,59.417037 32.4962963,60.4 C32.4962963,61.3825926 31.6966667,62.1825926 30.7137037,62.1825926 C29.7311111,62.1825926 28.9318519,61.3825926 28.9318519,60.4 Z M33.1481481,115.977778 L27.3007407,115.977778 L27.3007407,98.8951852 L33.1481481,98.8951852 L33.1481481,115.977778 Z M30.7066667,78.8955556 C30.7092593,78.8955556 30.7114815,78.8959259 30.7137037,78.8959259 C30.7162963,78.8959259 30.7185185,78.8955556 30.7207407,78.8955556 L33.2940741,78.8955556 L33.2940741,83.5122222 C33.2940741,85.2218519 33.8985185,88.5614815 34.7,91.2803704 C34.7196296,91.3462963 34.7396296,91.4155556 34.7614815,91.4881481 L26.6666667,91.4881481 C26.6881481,91.4159259 26.7081481,91.3462963 26.7277778,91.2803704 C27.5292593,88.5618519 28.1337037,85.2222222 28.1337037,83.5122222 L28.1337037,78.8955556 L30.7066667,78.8955556 Z M155.856667,171.209259 L155.856667,171.209259 L155.856667,70.9774074 L173.51963,70.9774074 L173.51963,171.209259 L155.856667,171.209259 L155.856667,171.209259 Z M155.856667,63.3040741 C158.791481,62.2196296 161.125926,59.8855556 162.21,56.9507407 L167.165556,56.9507407 C168.25,59.8855556 170.584074,62.22 173.519259,63.3040741 L173.519259,63.57 L155.856296,63.57 L155.856296,63.3040741 L155.856667,63.3040741 Z M164.68037,36.9511111 C164.682963,36.9511111 164.685185,36.9514815 164.687407,36.9514815 C164.69,36.9514815 164.692222,36.9511111 164.694444,36.9511111 L167.267778,36.9511111 L167.267778,41.5677778 C167.267778,43.2774074 167.872222,46.617037 168.673704,49.3359259 C168.693333,49.4018519 168.713333,49.4711111 168.735185,49.5437037 L160.640741,49.5437037 C160.662222,49.4714815 160.682593,49.4018519 160.702222,49.3359259 C161.503704,46.6174074 162.108148,43.2777778 162.108148,41.5677778 L162.108148,36.9511111 L164.68037,36.9511111 Z M16.1114815,143.755185 L148.448889,143.755185 L148.448889,182.222963 L148.448889,182.222963 L144.667037,182.222963 L144.667037,176.446296 C144.667037,170.801481 140.074444,166.208889 134.429259,166.208889 C128.784444,166.208889 124.191481,170.801111 124.191481,176.446296 L124.191481,182.222963 L118.652222,182.222963 L118.652222,176.446296 C118.652222,170.801481 114.05963,166.208889 108.414444,166.208889 C102.76963,166.208889 98.177037,170.801111 98.177037,176.446296 L98.177037,182.222963 L92.517037,182.222963 L92.517037,176.446296 C92.517037,170.801481 87.9244444,166.208889 82.2792593,166.208889 C76.6344444,166.208889 72.0418519,170.801111 72.0418519,176.446296 L72.0418519,182.222963 L66.5025926,182.222963 L66.5025926,176.446296 C66.5025926,170.801481 61.91,166.208889 56.2648148,166.208889 C50.6196296,166.208889 46.027037,170.801111 46.027037,176.446296 L46.027037,182.222963 L40.367037,182.222963 L40.367037,176.446296 C40.367037,170.801481 35.7748148,166.208889 30.1296296,166.208889 C24.4844444,166.208889 19.8918519,170.801111 19.8918519,176.446296 L19.8918519,182.222963 L16.1114815,182.222963 L16.1114815,143.755185 Z M27.3007407,182.222963 L27.3007407,176.446296 C27.3007407,174.885926 28.5703704,173.616296 30.1311111,173.616296 C31.6914815,173.616296 32.9611111,174.885926 32.9611111,176.446296 L32.9611111,182.222963 L27.3007407,182.222963 Z M53.4359259,182.222963 L53.4359259,176.446296 C53.4359259,174.885926 54.7055556,173.616296 56.2662963,173.616296 C57.827037,173.616296 59.0966667,174.885926 59.0966667,176.446296 L59.0966667,182.222963 L53.4359259,182.222963 Z M79.4503704,182.222963 L79.4503704,176.446296 C79.4503704,174.885926 80.72,173.616296 82.2803704,173.616296 L82.2807407,173.616296 C83.8411111,173.616296 85.1107407,174.885926 85.1107407,176.446296 L85.1107407,182.222963 L79.4503704,182.222963 Z M105.585556,182.222963 L105.585556,176.446296 C105.585556,174.885926 106.855185,173.616296 108.415556,173.616296 L108.415926,173.616296 C109.976296,173.616296 111.245926,174.885926 111.245926,176.446296 L111.245926,182.222963 L105.585556,182.222963 Z M131.59963,182.222963 L131.59963,176.446296 C131.59963,174.885926 132.869259,173.616296 134.43,173.616296 C135.990741,173.616296 137.26037,174.885926 137.26037,176.446296 L137.26037,182.222963 L131.59963,182.222963 Z M155.856667,182.222963 L155.856667,178.616667 L173.51963,178.616667 L173.51963,182.222963 L155.856667,182.222963 Z"/>
  </g>
</svg>
