<svg height="512" viewBox="0 0 512 512" width="512" xmlns="http://www.w3.org/2000/svg"><g id="filled_outline" data-name="filled outline"><path d="m152 104v-32h40v24h-16l40 88-32 32z" fill="#bfe28f"/><path d="m313.167 270.111h53.666v35.777h-53.666z" fill="#83b45a" transform="matrix(.447 -.894 .894 .447 -69.648 463.308)"/><path d="m240 144h48v40a24 24 0 0 1 -24 24 24 24 0 0 1 -24-24z" fill="#bfe28f"/><path d="m184 216 32-32 78.311 39.155a32 32 0 0 1 17.689 28.622v204.223h-128z" fill="#83b45a"/><path d="m160 40a16 16 0 0 0 16 16 16 16 0 0 0 16-16v-1.373a16 16 0 0 1 4.686-11.313l3.314-3.314h-24a16 16 0 0 0 -16 16z" fill="#f1b355"/><path d="m168 456h160v32h-160z" fill="#6f5438"/><path d="m262.122 488h65.878v-32h-15.994a400.2 400.2 0 0 1 -49.884 32z" fill="#613a25"/><path d="m162.16 47.891a15.95 15.95 0 0 0 29.84-7.891v-1.373a16.028 16.028 0 0 1 .338-3.229 47.742 47.742 0 0 1 -30.178 12.493z" fill="#f1a531"/><path d="m318.082 307.041 25.918 12.959 24-48-10.833-5.417a128.5 128.5 0 0 1 -39.085 40.458z" fill="#699148"/><path d="m240 144h48v16h-48z" fill="#83b45a"/><path d="m371.578 264.845-32-16a8 8 0 0 0 -10.733 3.577l-8.845 17.69v-18.335a39.782 39.782 0 0 0 -22.111-35.777l-21.231-10.616a32.043 32.043 0 0 0 19.342-29.384v-24h16v-16h-16.984l8.412-21.029-14.856-5.942-10.788 26.971h-5.784v-32h-16v32h-5.784l-10.788-26.971-14.856 5.942 8.412 21.029h-16.984v16h16v24a31.95 31.95 0 0 0 .9 7.5l-10.786-5.393-33.69-74.107h3.576a8 8 0 0 0 8-8v-24a8 8 0 0 0 -8-8h-40a8 8 0 0 0 -8 8v32a8.013 8.013 0 0 0 .308 2.2l31.692 110.921v230.879h-8a8 8 0 0 0 -8 8v32a8 8 0 0 0 8 8h160a8 8 0 0 0 8-8v-32a8 8 0 0 0 -8-8h-8v-131.056l20.422 10.211a7.993 7.993 0 0 0 10.733-3.577l24-48a8 8 0 0 0 -3.577-10.733zm-91.578-112.845v24a16 16 0 0 1 -32 0v-24zm24 99.777v128.909l-10.907-10.907 5.878-2.351a8 8 0 0 0 4.98-8.311l-14.376-129.385 1.157.579a23.868 23.868 0 0 1 13.268 21.466zm-47.871 34.792-16 88a8 8 0 0 0 1.215 5.869l10.53 15.8-59.874 23.946v-64.462a294.208 294.208 0 0 0 74.1-94.028l8.943-17.887 12.337 111.026-29.546 11.819 14.04-77.221zm-18.454-82.787-5.364 12.518a87.336 87.336 0 0 1 -40.311 43.431v-40.417l25.58-25.58zm-45.675 73.578a103.27 103.27 0 0 0 55.018-54.76l4.993-11.652 17.256 8.628-17.481 34.961a278.093 278.093 0 0 1 -59.786 79.846zm-32-197.36h24v8h-8a8 8 0 0 0 -7.283 11.311l37.706 82.952-18.466 18.466-27.957-97.85zm32 357.416 37.486-14.994-4.263 25.578h-33.223zm128 42.584h-144v-16h144zm-33.754-32-6.485-25.94-15.522 3.88 5.515 22.06h-28.31l5.422-32.53 20.1-8.042a8 8 0 0 0 3.685-11.866l-8.846-13.27 15.12-6.048 27.075 27.07v44.686zm54.176-138.733-17.689-8.845 16.845-33.689 17.689 8.845z"/><path d="m200 40v-1.373a7.946 7.946 0 0 1 2.344-5.657l3.313-3.313a8 8 0 0 0 -5.657-13.657h-24a24 24 0 1 0 24 24zm-16-1.373v1.373a8 8 0 1 1 -8-8h8.922a24.1 24.1 0 0 0 -.922 6.627z"/></g></svg>