<svg xmlns="http://www.w3.org/2000/svg" width="232" height="480" viewBox="0 0 232 480">
  <g fill="#605367">
    <path d="M227.578,248.845 L195.578,232.845 C191.626392,230.86907 186.82117,232.470512 184.845,236.422 L176,254.112 L176,235.777 C176.051468,220.611692 167.476171,206.736318 153.889,200 L132.658,189.384 C144.386168,184.320518 151.986308,172.774529 152,160 L152,136 L168,136 L168,120 L151.016,120 L159.428,98.971 L144.572,93.029 L133.784,120 L128,120 L128,88 L112,88 L112,120 L106.216,120 L95.428,93.029 L80.572,98.971 L88.984,120 L72,120 L72,136 L88,136 L88,160 C88.0023724,162.526793 88.3044834,165.044384 88.9,167.5 L78.114,162.107 L44.424,88 L48,88 C52.418278,88 56,84.418278 56,80 L56,56 C56,51.581722 52.418278,48 48,48 L8,48 C3.581722,48 0,51.581722 0,56 L0,88 C2.41432049e-05,88.7440767 0.103686736,89.4845238 0.308,90.2 L32,201.121 L32,432 L24,432 C19.581722,432 16,435.581722 16,440 L16,472 C16,476.418278 19.581722,480 24,480 L184,480 C188.418278,480 192,476.418278 192,472 L192,440 C192,435.581722 188.418278,432 184,432 L176,432 L176,300.944 L196.422,311.155 C198.319313,312.105796 200.516857,312.263028 202.530207,311.592036 C204.543557,310.921044 206.207415,309.476918 207.155,307.578 L231.155,259.578 C233.13093,255.626392 231.529488,250.82117 227.578,248.845 Z M136,136 L136,160 C136,168.836556 128.836556,176 120,176 C111.163444,176 104,168.836556 104,160 L104,136 L136,136 Z M160,235.777 L160,364.686 L149.093,353.779 L154.971,351.428 C158.310577,350.092182 160.348079,346.691844 159.951,343.117 L145.575,213.732 L146.732,214.311 C154.884982,218.352146 160.030826,226.677493 160,235.777 Z M112.129,270.569 L96.129,358.569 C95.7581893,360.608863 96.1937912,362.713018 97.344,364.438 L107.874,380.238 L48,404.184 L48,339.722 C78.8831996,313.789045 104.105281,281.783891 122.1,245.694 L131.043,227.807 L143.38,338.833 L113.834,350.652 L127.874,273.431 L112.129,270.569 Z M93.675,187.782 L88.311,200.3 C80.345814,219.032286 66.0876536,234.394003 48,243.731 L48,203.314 L73.58,177.734 L93.675,187.782 Z M48,261.36 C72.7627794,250.956073 92.4977935,231.313604 103.018,206.6 L108.011,194.948 L125.267,203.576 L107.786,238.537 C92.832514,268.538097 72.5780928,295.588485 48,318.383 L48,261.36 Z M16,64 L40,64 L40,72 L32,72 C29.2798404,71.9998877 26.7460055,73.3819731 25.2733931,75.6690414 C23.8007808,77.9561096 23.5911939,80.834747 24.717,83.311 L62.423,166.263 L43.957,184.729 L16,86.879 L16,64 Z M48,421.416 L85.486,406.422 L81.223,432 L48,432 L48,421.416 Z M176,464 L32,464 L32,448 L176,448 L176,464 Z M142.246,432 L135.761,406.06 L120.239,409.94 L125.754,432 L97.444,432 L102.866,399.47 L122.966,391.428 C125.204595,390.532593 126.91997,388.675335 127.635031,386.372782 C128.350091,384.070229 127.988564,381.567987 126.651,379.562 L117.805,366.292 L132.925,360.244 L160,387.314 L160,432 L142.246,432 Z M196.422,293.267 L178.733,284.422 L195.578,250.733 L213.267,259.578 L196.422,293.267 Z"/>
    <path d="M56,24 L56,22.627 C55.9942076,20.5039091 56.8382936,18.4667954 58.344,16.97 L61.657,13.657 C63.945107,11.3690109 64.62961,7.92796528 63.3913114,4.9384931 C62.1530128,1.94902091 59.2357885,-0.000117908123 56,0 L32,0 C22.2929061,-1.0658141e-14 13.5416352,5.84741227 9.82689122,14.8155976 C6.11214722,23.783783 8.16548535,34.1066108 15.0294373,40.9705627 C21.8933892,47.8345147 32.216217,49.8878528 41.1844024,46.1731088 C50.1525877,42.4583648 56,33.7070939 56,24 L56,24 Z M40,22.627 L40,24 C40,28.418278 36.418278,32 32,32 C27.581722,32 24,28.418278 24,24 C24,19.581722 27.581722,16 32,16 L40.922,16 C40.3080301,18.1553851 39.9977069,20.3858756 40,22.627 L40,22.627 Z"/>
  </g>
</svg>
