<?xml version="1.0" encoding="utf-8"?>
<!-- Generator: Adobe Illustrator 21.0.0, SVG Export Plug-In . SVG Version: 6.00 Build 0)  -->
<svg version="1.1" id="Layer_1" xmlns="http://www.w3.org/2000/svg" xmlns:xlink="http://www.w3.org/1999/xlink" x="0px" y="0px"
	 viewBox="0 0 400 400" style="enable-background:new 0 0 400 400;" xml:space="preserve">
<style type="text/css">
	.st0{fill:#4353FF;}
	.st1{fill:#FFFFFF;}
</style>
<g>
	<path class="st0" d="M400,200c0,110-90,200-200,200S0,310,0,200S90,0,200,0S400,90,400,200z"/>
</g>
<path class="st1" d="M261,174.3c0,0-17.3,54.2-18.6,58.8c-0.5-4.6-13.1-102-13.1-102c-29.5,0-45.2,20.9-53.5,43.2
	c0,0-21,54.4-22.7,59c-0.1-4.3-3.2-58.4-3.2-58.4c-1.8-27.2-26.6-43.7-46.7-43.7l24.2,147.6c30.9-0.1,47.5-21,56.2-43.2
	c0,0,18.5-48,19.3-50.2c0.2,2.1,13.3,93.4,13.3,93.4c30.9,0,47.6-19.6,56.6-41L316,131.1C285.4,131.1,269.3,152,261,174.3z"/>
</svg>
