<?xml version="1.0" encoding="utf-8"?>
<!-- Generator: Adobe Illustrator 23.0.3, SVG Export Plug-In . SVG Version: 6.00 Build 0)  -->
<svg version="1.1" id="Layer_1" xmlns="http://www.w3.org/2000/svg" xmlns:xlink="http://www.w3.org/1999/xlink" x="0px" y="0px"
	 viewBox="0 0 800.5 196.2" style="enable-background:new 0 0 800.5 196.2;" xml:space="preserve">
<style type="text/css">
	.st0{fill:#FFFFFF;}
	.st1{fill-rule:evenodd;clip-rule:evenodd;fill:#FFFFFF;}
</style>
<g>
	<g>
		<path class="st0" d="M167.2,98.4l-54.9,10c-1.4,1.8-4.7,4.8-6.3,5.6c-6.9,3.5-11.6,2.5-15.7,1.4c-2.6-0.7-4.1-1-6.3-2l-13.4,1.8
			l8.1,67.9l94.1-17L167.2,98.4z M83.4,176.7l-0.8-7.4L98,145.9l17.4,5.1l15-25.1l18,11.9l13.7-28.7l4.9,52.2L83.4,176.7z M79.5,110
			c-6.8-4.4-13.8-10.6-16.9-14.1c-0.5-0.4-0.4-2.1-0.4-2.1c2.8,2.2,14.3,10.4,26.4,14.1c4.3,1.3,10.9,1.8,16.6-1.4
			c4.4-2.5,9.6-6.8,12.7-11.2l0.6,1c0,0.7-1.5,3.9-2.2,5.2c1.3,0.8,2.3,1,3.8,1.4l10.1-1.6c3.6-5.8,6.2-15.2,3.4-24.2
			c-1.6-5.1-9.8-15.4-10.4-15.9c-2.1-2,0.3-9.6-3.7-18c-4.3-8.8-15.6-18-20.5-22.1c1.4,1,10.3,4.6,14.4,9.6c0.4-0.5,0.6-3.2,0.9-3.9
			c-3.6-4.6-3.8-12.9-3.8-15.1c0-4.1-2.1-8.7-2.1-8.7s3.6,2.8,4.5,7.7c1.1,5.7,3.4,10.3,6.5,14.1c5.8,7.2,11,10.9,13.7,8.2
			c3.2-3.2-3.2-17.5-11.3-25.5c-9.5-9.3-12-8.1-17.5-6.1c-4.4,1.5-6.8,14.2-18.4,13.9c-2-0.2-7-0.4-9.5-0.3c1.3-1.8,2.4-3.2,2.4-3.2
			s-3.9,1.6-7.2,3.6l-0.3-0.4c1.1-2.4,2.3-3.8,2.3-3.8s-3.1,1.9-5.9,4.1c0.5-2.8,2.5-4.6,2.5-4.6s-3.9,0.7-8.9,6.2
			c-5.7,1.5-7,2.6-11.6,4.6c-7.4-1.6-10.8-4.2-14.1-9c-2.5-3.6-7-4.2-11.6-2.3c-6.7,2.8-15.1,6.5-15.1,6.5s2.8-0.1,5.6,0
			c-3.9,1.5-7.7,3.5-7.7,3.5s1.8-0.1,4.1,0c-1.6,1.3-2.4,1.9-3.9,2.9c-3.6,2.6-6.5,5.6-6.5,5.6s2.4-1.1,4.6-1.7
			c-1.5,3.5-4.6,6.1-4,10.4c0.5,3.9,5.3,12,11.6,17c0.5,0.4,9,8.3,15.4,5.1c6.4-3.2,8.9-6.1,10-10.5c1.2-5.1,0.5-8.9-2.1-19.9
			c-0.9-3.6-3.1-11.1-4.2-14.6l0.2-0.2c2.1,4.4,7.4,16.1,9.6,23.9c3.4,12.2,2.3,18.4,0.8,20.7c-4.7,6.8-16.6,7.8-22,4
			c-0.8,13.1,2.1,18.9,3.1,21.8c-0.5,3.3,1.7,9.6,1.7,9.6s0.2-2.8,1.2-4.3c0.3,3.3,1.9,7.3,1.9,7.3s-0.1-2.4,0.7-4.5
			c1.1,1.8,1.9,2.2,2.9,3.6c1,3.6,3,6.2,3,6.2s-0.3-1.9-0.2-3.9c5,4.8,5.8,11.8,6.3,17.1c1.4,14.7-23.2,26.4-28,35.6
			c-3.6,5.4-5.8,14.1,0.3,19.2c14.8,12.3,9.1,15.7,16.5,21.1c10.2,7.4,22.9,4.1,27.2-1.9c6-8.4,4.5-16.3,2.2-23.7
			c-1.8-5.8-6.5-15.4-12.4-19.1c-6-3.8-11.9-4.5-16.8-4l0.5-0.5c7.1-1.4,14.6-0.6,20,2.8c6.1,3.9,11.7,10.7,14.6,21
			c3.3-0.5,3.8-0.7,6.8-1.1L65,111.6L79.5,110z M113.8,43.3c6.3,2.9,5.5,8.5,5.6,11.8c0.1,0.9,0,1.6-0.1,2c-0.9-0.5-2.2-0.8-4.4-0.7
			c-0.6,0-1.3,0.1-1.9,0.2c-2.3-1.2-3.7-3.7-5-6.3c-0.1-0.2-0.2-0.5-0.3-0.7c0-0.1-0.1-0.2-0.1-0.3c0,0,0-0.1,0-0.1
			c-0.7-2.2-0.2-2.7,0.1-3.3s1.4-1.3-0.2-1.8c-0.1,0-0.3-0.1-0.5-0.1C108.1,42.6,111.4,42.2,113.8,43.3z M106,79.9
			c1.2-0.9,6.8-2.7,12-3.4c2.7-0.3,6.6-0.5,7.4,0c1.6,0.9,1.6,3.7,0.5,6.3c-1.6,3.8-3.9,7.9-6.6,8.2c-4.3,0.6-8.3-1.7-12.9-5.2
			C104.8,84.6,103.8,81.6,106,79.9z M65.6,51.4c6.8-4.6,15.5-2.8,14-1.4c-2.8,2.7,0.9,1.9,1.3,6.8c0.3,3.6-0.9,5.6-1.9,6.7
			c-2.1,0.3-4.7,0.8-7.8,1.8c-1.8,0.6-3.4,1.2-4.8,1.9c-0.4-0.2-0.8-0.5-1.2-0.9C60.5,62.1,60.7,54.8,65.6,51.4z"/>
	</g>
	<g>
		<path class="st1" d="M249.2,141.8H211v-88h38.2c27.5,0,41.3,13.9,41.3,41.6C290.5,126.3,276.8,141.8,249.2,141.8z M227.4,127.6
			h19.4c18.3,0,27.4-10.7,27.4-32.2c0-18.3-9.1-27.4-27.4-27.4h-19.4V127.6L227.4,127.6z"/>
		<polygon class="st1" points="307.6,141.8 290.9,141.8 328.3,53.8 345.9,53.8 384.1,141.8 366.5,141.8 355.4,117.8 327.2,117.8 
			332.8,103.7 351.1,103.7 336.7,70.6 		"/>
		<polygon class="st1" points="374.8,53.8 441.7,53.8 441.7,68 416.5,68 416.5,141.8 400.1,141.8 400.1,68 374.8,68 		"/>
		<polygon class="st1" points="450.1,141.8 433.3,141.8 470.8,53.8 488.3,53.8 526.5,141.8 509,141.8 497.9,117.8 469.6,117.8 
			475.2,103.7 493.5,103.7 479.1,70.6 		"/>
		<path class="st1" d="M575.6,141.8h-38.2v-88h38.2c27.5,0,41.3,13.9,41.3,41.6C616.9,126.3,603.1,141.8,575.6,141.8z M553.7,127.6
			h19.4c18.3,0,27.4-10.7,27.4-32.2c0-18.3-9.2-27.4-27.4-27.4h-19.4V127.6z"/>
		<path class="st1" d="M628,97.9c0-29.8,14.8-44.7,44.3-44.7c29,0,43.6,14.9,43.6,44.7c0,29.7-14.5,44.5-43.6,44.5
			C644,142.4,629.3,127.6,628,97.9z M672.2,128.2c17.7,0,26.6-10.2,26.6-30.7c0-20.2-8.9-30.2-26.6-30.2
			c-18.2,0-27.3,10.1-27.3,30.2C644.9,118,654,128.2,672.2,128.2z"/>
		<path class="st1" d="M783.9,106.2v20.6c-3.8,1-7.1,1.5-10.1,1.5c-20,0-30-10.6-30-31.7c0-19.5,10.6-29.2,31.7-29.2
			c8.8,0,17,1.6,24.7,4.9V57.5c-7.6-2.9-16.2-4.3-25.9-4.3c-31.6,0-47.5,14.4-47.5,43.4c0,30.6,15.5,45.8,46.7,45.8
			c10.7,0,19.6-1.6,26.7-4.7v-46h-26.4l-5.5,14.5H783.9z"/>
	</g>
</g>
</svg>
