<svg xmlns="http://www.w3.org/2000/svg" xmlns:xlink="http://www.w3.org/1999/xlink" width="175" height="39.652" viewBox="0 0 175 39.652">
  <defs>
    <clipPath id="clip-path">
      <rect id="Rectangle_6" data-name="Rectangle 6" width="175" height="39.652" fill="#b17acc"/>
    </clipPath>
  </defs>
  <g id="SalesLoft_Logo" data-name="SalesLoft Logo" clip-path="url(#clip-path)">
    <path id="Path_1" data-name="Path 1" d="M899.023,437.114c-1.86.2-3.861.34-5.839.633-5.6.83-11.025,2.2-15.787,5.466-.425.291-.816.634-1.229.944-3.582,2.7-3.734,6.295-2.178,9.806a16.714,16.714,0,0,0,5.457,6.525,9.621,9.621,0,0,1,3.63,5.245,9.228,9.228,0,0,1-7.848,11.421,10.728,10.728,0,0,1-7.483-2.328,17.3,17.3,0,0,1-7.634-12.741,17.746,17.746,0,0,1,5.808-15.413c5.016-4.752,11.119-7.173,17.758-8.5a66.618,66.618,0,0,1,15.343-1.057" transform="translate(-860 -437.307)" fill="#b17acc"/>
    <path id="Path_2" data-name="Path 2" d="M913.241,466.59a5.818,5.818,0,0,0,6.121,1.985,3.451,3.451,0,0,0,1.054-.468,2.053,2.053,0,0,0,0-3.629,34.149,34.149,0,0,0-4.126-1.7c-.766-.3-1.557-.548-2.306-.885-4.1-1.84-4.283-5.919-2.832-8.948A6.677,6.677,0,0,1,913.7,450.2a11.875,11.875,0,0,1,12.128.327c.249.177.479.38.776.618l-3.513,3.847A5.154,5.154,0,0,0,919,453.5a5.567,5.567,0,0,0-2,.519,2.038,2.038,0,0,0-.143,3.746,32.984,32.984,0,0,0,3.957,1.51c.748.277,1.527.488,2.24.835a5.992,5.992,0,0,1,3.519,6.946,6.922,6.922,0,0,1-5.061,5.874,11.854,11.854,0,0,1-11.29-1.763c-.143-.109-.281-.228-.414-.349a1.907,1.907,0,0,1-.182-.239l3.613-3.987" transform="translate(-866.203 -438.761)" fill="#b17acc"/>
    <path id="Path_3" data-name="Path 3" d="M889.025,477.475c.641-.681,1.313-1.347,1.931-2.062a11.872,11.872,0,0,0,.283-15.153c-1.153-1.422-2.486-2.7-3.635-4.125a10.493,10.493,0,0,1-1.656-2.755,4.036,4.036,0,0,1,.87-4.052,10.151,10.151,0,0,1,3.926-2.945,1.161,1.161,0,0,1,.962.159,17.446,17.446,0,0,1,7.251,11.483,17.968,17.968,0,0,1-9.44,19.207c-.172.091-.347.173-.492.244" transform="translate(-863.214 -438.466)" fill="#b17acc"/>
    <path id="Path_4" data-name="Path 4" d="M975.783,471.289a8.223,8.223,0,0,1-4.523,2.883,9.08,9.08,0,0,1-10.41-4.288c-2.234-4.433-.551-11.1,6.241-12.257A10.694,10.694,0,0,1,971,457.7a7.14,7.14,0,0,1,5.485,6.7c.081.992.1,1.99.153,3.092H965.078a3.223,3.223,0,0,0,2.068,2.9c1.629.62,3.385.523,5.2-1.629.571.412,1.15.828,1.725,1.25.558.409,1.109.826,1.711,1.274m-10.777-7.223h6.517a2.908,2.908,0,0,0-2.949-3.083,3.307,3.307,0,0,0-3.568,3.083" transform="translate(-872.49 -439.86)" fill="#b17acc"/>
    <path id="Path_5" data-name="Path 5" d="M942.043,472.248c-2.154,2.268-4.688,2.6-7.431,1.886a4.907,4.907,0,0,1-.648-9.253,14.8,14.8,0,0,1,5.66-1.086c.767-.033,1.535-.005,2.294-.005a2.865,2.865,0,0,0-2.943-3,5.062,5.062,0,0,0-3.508,1.2c-.26.209-.509.433-.87.74-.42-.459-.816-.928-1.251-1.358-.419-.415-.879-.788-1.515-1.349a25.845,25.845,0,0,1,2.6-1.586,11.573,11.573,0,0,1,7.719-.662,5.4,5.4,0,0,1,4.189,5.075c.186,1.843.174,3.707.209,5.564.031,1.652-.011,3.306.016,4.958.009.541-.169.73-.71.712-1.032-.033-2.067-.031-3.1,0-.525.015-.771-.139-.72-.7.036-.374.007-.753.007-1.13m-1.736-5.313a6.366,6.366,0,0,0-3.779.885,1.627,1.627,0,0,0,.256,2.923,4.773,4.773,0,0,0,2.106.284,3.16,3.16,0,0,0,3.064-2.492c.29-1.564.256-1.6-1.337-1.6h-.311" transform="translate(-868.873 -439.848)" fill="#b17acc"/>
    <path id="Path_6" data-name="Path 6" d="M1052.449,459.425c0,3.164-.055,6.314.024,9.461.037,1.489,1.327,2.269,2.985,1.985.5-.086.994-.232,1.64-.387a16.968,16.968,0,0,1-.023,1.8.779.779,0,0,1-.494.485,7.42,7.42,0,0,1-4.266.1,3.074,3.074,0,0,1-2.21-2.882,29.043,29.043,0,0,1-.16-3.008c-.024-2.247-.008-4.495-.008-6.742V459.3h-3.628c-.957,0-1.914.037-2.867-.012-.62-.031-.789.188-.786.792q.034,5.772,0,11.546c0,.332-.112.934-.227.947a8.388,8.388,0,0,1-1.981-.037c-.083-.01-.151-.5-.152-.774q-.015-5.657-.009-11.314c0-1.146,0-1.146-1.138-1.147-.543,0-1.086-.018-1.627.005-.463.021-.682-.159-.643-.629,0-.052,0-.1,0-.155-.028-1.284-.028-1.284,1.231-1.285,2.179,0,2.158,0,2.188-2.162a31.781,31.781,0,0,1,.193-3.855,4.565,4.565,0,0,1,4.652-4.025,17.076,17.076,0,0,1,1.919.142c.448.046.609.273.477.749a13.758,13.758,0,0,0-.253,1.5c-.629-.068-1.23-.186-1.832-.191a2.35,2.35,0,0,0-2.606,2.211c-.156,1.69-.142,3.4-.154,5.1a.724.724,0,0,0,.5.5c2.065.036,4.131.023,6.2.026.45,0,.556-.249.55-.649-.016-1.059.009-2.117-.011-3.176-.009-.46.151-.654.627-.646,2.3.043,1.823-.284,1.871,1.795a16.82,16.82,0,0,1-.009,1.858c-.055.672.24.851.853.833,1.032-.03,2.067.012,3.1-.014.534-.013.771.177.715.72a3.5,3.5,0,0,0,0,.7c.048.521-.2.667-.689.661-1.239-.016-2.479.007-3.719.018a1.027,1.027,0,0,0-.23.1" transform="translate(-882.109 -438.574)" fill="#b17acc"/>
    <path id="Path_7" data-name="Path 7" d="M993.559,459.435l-3.008,3c-.088-.075-.242-.2-.392-.334a3.5,3.5,0,0,0-2.713-.886c-.971.076-1.531.487-1.6,1.164-.085.9.581,1.139,1.236,1.32,1.141.316,2.31.536,3.445.874,1.76.522,3.22,1.411,3.655,3.384a4.648,4.648,0,0,1-2.646,5.529,11.516,11.516,0,0,1-9.387.019,5.639,5.639,0,0,1-1.05-.647,8.341,8.341,0,0,1-.655-.578l2.985-3.327a4.486,4.486,0,0,0,3.068,1.7,5.747,5.747,0,0,0,1.9-.2c.369-.117.873-.585.871-.892a1.5,1.5,0,0,0-.756-1.088,14.668,14.668,0,0,0-2.356-.719c-.718-.2-1.457-.341-2.161-.578a4.127,4.127,0,0,1-3.138-3.714A4.873,4.873,0,0,1,983,458.707a8.482,8.482,0,0,1,5.86-1.213,7.762,7.762,0,0,1,4.109,1.43c.221.172.426.364.595.511" transform="translate(-875.056 -439.852)" fill="#b17acc"/>
    <rect id="Rectangle_5" data-name="Rectangle 5" width="4.823" height="25.2" transform="translate(80.202 8.941)" fill="#b17acc"/>
    <path id="Path_8" data-name="Path 8" d="M1024.654,474.485a7.921,7.921,0,0,1-8.294-8.185c0-4.732,3.5-8.126,8.373-8.121a8.154,8.154,0,1,1-.078,16.306m-5.638-8.165c0,4.24,3.62,6.957,7.534,5.652a5.768,5.768,0,0,0,3.739-6.342,5.648,5.648,0,0,0-11.273.69" transform="translate(-879.545 -439.946)" fill="#b17acc"/>
    <path id="Path_9" data-name="Path 9" d="M999.7,461.178c0-3.589.022-7.179-.017-10.768-.008-.772.248-.959.974-.942,1.7.042,1.7.01,1.7,1.67q0,9.181,0,18.362c0,1.077,0,1.078,1.109,1.078,2.944,0,5.888.019,8.832-.013.689-.008.967.149.935.9-.072,1.675.2,1.487-1.5,1.491-3.692.008-7.386-.015-11.078.017-.725.006-.983-.176-.975-.946.039-3.616.017-7.231.017-10.847" transform="translate(-877.461 -438.857)" fill="#b17acc"/>
  </g>
</svg>
