<?xml version="1.0" encoding="UTF-8" standalone="no"?>
<!-- Generator: Gravit.io -->
<!-- internet by Andreas Vögele from the Noun Project -->
<svg xmlns="http://www.w3.org/2000/svg" xmlns:xlink="http://www.w3.org/1999/xlink" style="isolation:isolate" viewBox="0 0 464.896 395.656" width="464.896pt" height="395.656pt"><defs><clipPath id="_clipPath_ieLo0OHAMTACxE7nIM9gN7d8DyNr4t2C"><rect width="464.896" height="395.656"/></clipPath></defs><g clip-path="url(#_clipPath_ieLo0OHAMTACxE7nIM9gN7d8DyNr4t2C)"><clipPath id="_clipPath_GVjDHYjs9cN7JhQ4wS7qWTZfQEFeUvqw"><rect x="0" y="0" width="464.896" height="395.656" transform="matrix(1,0,0,1,0,0)" fill="rgb(255,255,255)"/></clipPath><g clip-path="url(#_clipPath_GVjDHYjs9cN7JhQ4wS7qWTZfQEFeUvqw)"><g><g><path d=" M 415.439 0 L 49.457 0 C 22.325 0 0 22.325 0 49.457 L 0 257.177 C 0 284.309 22.325 306.634 49.457 306.634 L 180.568 306.634 L 168.154 375.874 L 148.371 375.874 C 142.946 375.874 138.48 380.34 138.48 385.765 C 138.48 391.191 142.946 395.657 148.371 395.657 L 316.525 395.657 C 321.95 395.657 326.416 391.191 326.416 385.765 C 326.416 380.34 321.95 375.874 316.525 375.874 L 296.742 375.874 L 284.328 306.634 L 415.439 306.634 C 442.571 306.634 464.896 284.309 464.896 257.177 L 464.896 49.457 C 464.896 22.325 442.571 0 415.439 0 Z  M 276.663 375.874 L 188.233 375.874 L 200.697 306.634 L 264.199 306.634 L 276.663 375.874 Z  M 445.113 257.177 C 445.113 273.458 431.72 286.851 415.439 286.851 L 49.457 286.851 C 35.05 286.836 22.632 276.332 20.228 262.123 L 400.602 262.123 C 406.027 262.123 410.493 257.657 410.493 252.231 C 410.493 246.806 406.027 242.34 400.602 242.34 L 19.783 242.34 L 19.783 49.457 C 19.783 33.176 33.176 19.783 49.457 19.783 L 415.439 19.783 C 431.72 19.783 445.113 33.176 445.113 49.457 L 445.113 257.177 Z " fill="rgb(96,83,103)"/><path d=" M 279.679 104.256 C 274.472 102.772 268.962 105.829 267.464 111.031 L 255.05 154.405 L 241.449 124.731 C 239.916 121.116 236.375 118.742 232.448 118.697 C 228.571 118.707 225.039 120.997 223.447 124.533 L 209.698 154.9 L 197.482 111.081 C 196.29 106.813 192.368 103.84 187.937 103.84 C 182.501 103.84 178.026 108.316 178.026 113.752 C 178.026 114.657 178.149 115.552 178.391 116.422 L 198.174 186.503 C 199.307 190.499 202.838 193.372 206.978 193.674 L 207.72 193.674 C 211.503 193.61 214.935 191.374 216.523 187.937 L 232.448 152.575 L 248.126 187.195 C 249.733 190.707 253.255 192.967 257.117 192.967 C 261.514 192.967 265.406 190.034 266.623 185.81 L 286.406 116.571 C 286.678 115.656 286.816 114.711 286.816 113.757 C 286.816 109.365 283.893 105.477 279.679 104.256 Z " fill="rgb(96,83,103)"/><path d=" M 151.091 104.256 C 145.883 102.772 140.374 105.829 138.875 111.031 L 126.462 154.405 L 112.861 124.731 C 111.328 121.116 107.787 118.742 103.86 118.697 C 99.982 118.707 96.451 120.997 94.859 124.533 L 81.11 154.9 L 68.894 111.081 C 67.702 106.813 63.78 103.84 59.348 103.84 C 53.913 103.84 49.437 108.316 49.437 113.752 C 49.437 114.657 49.561 115.552 49.803 116.422 L 69.586 186.503 C 70.719 190.499 74.25 193.372 78.389 193.674 L 79.131 193.674 C 82.915 193.61 86.347 191.374 87.935 187.937 L 103.86 152.575 L 119.538 187.195 C 121.145 190.707 124.666 192.967 128.529 192.967 C 132.926 192.967 136.818 190.034 138.035 185.81 L 157.817 116.571 C 158.089 115.656 158.228 114.711 158.228 113.757 C 158.228 109.365 155.305 105.477 151.091 104.256 Z " fill="rgb(96,83,103)"/><path d=" M 408.268 104.256 C 403.06 102.772 397.55 105.829 396.052 111.031 L 383.638 154.405 L 370.037 124.731 C 368.504 121.116 364.963 118.742 361.036 118.697 C 357.159 118.707 353.628 120.997 352.035 124.533 L 338.286 154.9 L 326.07 111.081 C 324.878 106.813 320.956 103.84 316.525 103.84 C 311.09 103.84 306.614 108.316 306.614 113.752 C 306.614 114.657 306.737 115.552 306.98 116.422 L 326.763 186.503 C 327.895 190.499 331.426 193.372 335.566 193.674 L 336.308 193.674 C 340.091 193.61 343.524 191.374 345.111 187.937 L 361.036 152.575 L 376.714 187.195 C 378.321 190.707 381.843 192.967 385.705 192.967 C 390.102 192.967 393.994 190.034 395.211 185.81 L 414.994 116.571 C 415.266 115.656 415.404 114.711 415.404 113.757 C 415.404 109.365 412.481 105.477 408.268 104.256 Z " fill="rgb(96,83,103)"/></g></g></g></g></svg>