<svg height="480pt" viewBox="0 0 480 480.00234" width="480pt" xmlns="http://www.w3.org/2000/svg"><path d="m312 160.003906v-16h8v-16h-17.773438c5.175782-9.957031 8.371094-20.828125 9.40625-32h8.367188v-16h-16c-4.417969 0-8 3.582032-8 8 .003906 14.070313-4.175781 27.828125-12 39.527344l-.277344.472656h-14.777344l7.910157-15.832031c6.4375-12.855469 2.75-28.46875-8.75-37.089844l-20.105469-15.078125v-18.21875c6.863281-3.886718 9.800781-12.242187 6.882812-19.566406l7.367188-9.214844c2.761719-3.453125 2.203125-8.488281-1.25-11.25-3.449219-2.761718-8.484375-2.203125-11.246094 1.25l-7.351562 9.238282c-1.558594-.320313-3.164063-.320313-4.722656 0l-7.390626-9.238282c-2.761718-3.453125-7.796874-4.011718-11.246093-1.25-3.453125 2.761719-4.011719 7.796875-1.25 11.25l7.367187 9.214844c-2.925781 7.316406-.003906 15.667969 6.839844 19.566406v18.21875l-20.109375 15.078125c-11.496094 8.625-15.179687 24.238281-8.746094 37.089844l7.914063 15.832031h-14.777344l-.3125-.472656c-7.8125-11.703125-11.976562-25.457031-11.96875-39.527344 0-4.417968-3.582031-8-8-8h-16v16h8.371094c1.03125 11.171875 4.226562 22.042969 9.40625 32h-17.777344v16h8v16h-168v16h17.761719l4 16h-21.761719v16h8v224c-4.417969 0-8 3.582032-8 8v32c0 4.417969 3.582031 8 8 8h464c4.417969 0 8-3.582031 8-8v-32c0-4.417968-3.582031-8-8-8v-224h8v-16h-21.757812l4-16h17.757812v-16zm-288 96h16v176h-16zm24 208h-32v-16h32zm0-224h-24v-32h40v32zm40 192c-4.417969 0-8 3.582032-8 8v24h-16v-24c0-4.417968-3.582031-8-8-8v-144h32zm0-160h-32v-16h32zm16 0v-16h16v16zm16 16v144h-16v-144zm-8-48h-32v-32h32zm16 224h-32v-16h32zm0-224v-32h32v32zm40 192c-4.417969 0-8 3.582032-8 8v24h-16v-24c0-4.417968-3.582031-8-8-8v-144h32zm0-160h-32v-16h32zm0-80h-129.75l-4-16h133.75zm53.496094-104.128906 18.503906-13.871094 18.496094 13.871094c3.453125 2.601562 5.492187 6.667969 5.503906 10.992188.003906 2.132812-.496094 4.238281-1.453125 6.144531l-11.488281 22.992187h-22.113282l-11.488281-22.992187c-.957031-1.90625-1.457031-4.011719-1.457031-6.144531.015625-4.320313 2.046875-8.386719 5.496094-10.992188zm-37.496094 56.128906h112v16h-112zm24 320h-32v-16h32zm-8-176v144h-16v-144zm-16-16v-16h16v16zm24-32h-32v-32h32zm56 192c-4.417969 0-8 3.582032-8 8v24h-32v-24c0-4.417968-3.582031-8-8-8v-144h48zm0-160h-48v-16h48zm-40-32v-32h32v32zm-8-48h-32v-16h112v16zm88 272h-32v-16h32zm-8-176v144h-16v-144zm-16-16v-16h16v16zm24-32h-32v-32h32zm152-32v32h-40v-32zm0 48v176h-16v-176zm-144-80h133.753906l-4 16h-129.753906zm48 96v-16h16v16zm16 16v144h-16v-144zm-24-80v32h-32v-32zm-8 224c-4.417969 0-8 3.582032-8 8v24h-16v-24c0-4.417968-3.582031-8-8-8v-144h32zm0-160h-32v-16h32zm40 192h-32v-16h32zm0-224h-16v-32h32v32zm40 192c-4.417969 0-8 3.582032-8 8v24h-16v-24c0-4.417968-3.582031-8-8-8v-144h32zm0-160h-32v-16h32zm40 176v16h-32v-16zm0 0" fill="#605367"/></svg>
