<svg xmlns="http://www.w3.org/2000/svg" width="133" height="126" viewBox="0 0 133 126">
  <g fill="none" fill-rule="evenodd">
    <g fill-rule="nonzero">
      <path fill="#763C30" d="M132.550436,56.5201794 C127.717876,19.2972681 94.1559661,2.57200903 82.4809734,0.685812419 C62.5743718,-2.52661619 43.7909341,5.725494 34.6135032,21.6844857 C32.9730928,24.5137806 31.7317011,27.5199064 30.9041067,30.5849759 C28.2144249,31.1302047 25.5690784,31.9848875 23.0124028,33.0458731 C8.21915249,39.2054839 -0.160241031,52.4972757 0.00232215918,69.3846297 C0.179663821,88.3792191 9.97779063,104.647665 27.623286,114.933331 C39.5347343,121.829737 51.7860874,126 62.1162392,126 L62.4561441,126 C85.1410983,126 103.673302,117.173189 119.116805,99.666927 C129.786862,87.5834799 134.560308,72.0518296 132.550436,56.5201794 Z M34.7760663,96.4987061 C28.5247728,92.210556 19.1700001,83.4132171 19.0369939,68.9720242 C18.9335446,57.6106368 25.1257242,52.6298989 30.3573033,50.448984 C30.6972081,50.3163608 31.0518914,50.1690017 31.4213532,50.0511144 C32.7661942,54.1329618 34.8942941,57.9348269 37.7465392,61.38303 C40.436221,64.6544023 43.5840355,67.3363381 47.1013118,69.3846297 C45.3278952,77.2536062 42.7416626,87.568744 34.7760663,96.4987061 Z M60.1654809,87.6718954 C62.1310177,83.3984812 63.9044343,78.9040283 65.4266169,74.2916881 C76.1262305,74.5274627 88.2741343,71.2560904 99.8604562,64.9491205 C103.244726,63.1218675 106.628996,62.9450366 107.530483,63.1955471 C110.826082,63.9176067 112.88029,63.7849835 114.875384,63.4313217 C113.973897,71.5213368 108.328521,80.4807708 103.481182,85.9625297 C92.9293529,97.9280894 71.8256952,108.37585 49.6284305,104.043493 C53.6481748,99.4164165 57.5644699,93.3452211 60.1654809,87.6718954 Z M91.2741641,49.4911498 C89.3972982,50.5079277 79.0080325,54.4571518 69.0473425,55.1202678 C69.0177855,47.9586151 66.8453502,42.1821379 62.6039288,37.9234596 C59.6630129,34.9762774 55.687604,32.7069471 51.0176069,31.2922997 C51.0471638,31.233356 51.0914992,31.1596765 51.1210562,31.1007328 C55.0816866,24.2337983 64.865035,17.0574096 79.4366082,19.4151554 C81.7716067,19.7982891 101.85555,23.6738337 110.574848,46.9271013 C104.707795,45.9987389 97.2003313,46.2639853 91.2741641,49.4911498 Z"/>
      <path fill="#000" d="M132.550436,56.5201794 C127.717876,19.2972681 94.1559661,2.57200903 82.4809734,0.685812419 C62.5743718,-2.52661619 43.7909341,5.725494 34.6135032,21.6844857 C32.9730928,24.5137806 31.7317011,27.5199064 30.9041067,30.5849759 C28.2144249,31.1302047 25.5690784,31.9848875 23.0124028,33.0458731 C8.21915249,39.2054839 -0.160241031,52.4972757 0.00232215918,69.3846297 C0.179663821,88.3792191 9.97779063,104.647665 27.623286,114.933331 C39.5347343,121.829737 51.7860874,126 62.1162392,126 L62.4561441,126 C85.1410983,126 103.673302,117.173189 119.116805,99.666927 C129.786862,87.5834799 134.560308,72.0518296 132.550436,56.5201794 Z M116.900034,97.7217867 C102.04767,114.550197 84.2396115,123.052818 62.4561441,123.052818 L62.1162392,123.052818 C52.3033339,123.052818 40.5840058,119.015178 29.1011332,112.384018 C19.4360126,106.740164 3.1796936,93.359957 2.95801652,69.1930629 C2.79545333,53.5729972 10.5245941,41.3569269 24.1503451,35.6836012 C26.7956916,34.5784078 29.5444873,33.7826686 32.32284,33.2816477 C32.32284,33.2816477 32.3464856,33.2772269 32.3686533,33.2698589 C32.9006783,33.1947058 41.3849989,32.058567 46.8471221,33.2138625 L46.8352993,33.2521758 L48.3427035,33.6205736 C48.3574819,33.6205736 48.3870389,33.6353095 48.4018174,33.6353095 L48.5348236,33.6647814 C53.4560547,34.887862 57.5940268,37.0687768 60.5053858,40.0012231 C64.2591176,43.7588804 66.0916481,48.7101465 66.1064266,55.1792115 C55.7585406,54.4379952 47.6643716,44.0403363 33.4460039,46.4997599 C32.680479,46.6323831 30.1060692,47.3691786 29.2193609,47.7375764 C23.1601875,50.2574172 15.9630717,56.0044225 16.0812995,69.0014961 C16.1995273,80.9228481 22.2291438,91.5017586 33.0898427,98.9139219 C31.8351504,101.72406 31.2070654,106.219987 35.3819837,109.050755 C36.4770684,109.791971 37.7524506,110.153001 39.1209371,110.153001 C41.5859862,110.153001 44.362861,108.975602 46.9771727,106.759321 C47.0673213,106.805002 47.1559922,106.843316 47.2490966,106.843316 C47.263875,106.843316 47.263875,106.843316 47.263875,106.843316 C51.5496319,106.843316 55.8058317,108.132708 59.9733608,108.132708 C79.1262603,108.132708 96.3579584,98.5956262 105.697953,88.0005062 C111.32855,81.6198567 117.402502,71.6495393 117.919749,62.5574822 C117.921227,62.5397991 117.919749,62.522116 117.921227,62.5044329 C122.944429,59.6088263 123.186796,56.3065087 122.849847,54.5440937 C122.205506,51.159255 118.52271,48.3417488 113.938428,47.5577983 C113.935473,47.5489567 113.932517,47.5401152 113.929561,47.5312737 C104.988586,21.2718802 82.4661949,16.9247864 79.9095193,16.5121809 C63.8453204,13.9039246 52.9831436,21.9497321 48.5643805,29.6418776 C48.4032952,29.9189128 48.5821147,30.1974215 48.4505863,30.4744566 C43.9919214,29.3736841 37.7465392,29.7730272 34.7908448,30.1016381 C34.7908448,30.1001645 34.7908448,30.1001645 34.7908448,30.0986909 C34.7908448,27.6967374 36.2243566,25.3684634 37.5100836,23.128605 C44.8402056,10.3967778 58.6063521,2.94040681 74.1828614,2.94040681 C76.8134294,2.94040681 79.3878392,3.22038912 82.0922996,3.66246645 C93.1909319,5.4602476 125.040016,21.4929188 129.6509,57.0506722 C131.5588,71.7276396 127.008509,86.2719838 116.900034,97.7217867 Z M115.012823,50.8321177 C117.597578,51.6617495 119.60745,53.310698 119.947355,55.0937432 C120.239969,56.6365931 118.970498,58.4446894 116.988705,59.6206151 C116.716781,59.7827101 116.084263,59.9123861 115.77687,59.9890129 C113.320688,60.6093947 111.653677,60.9497943 108.254628,60.1982628 C106.599439,59.7267136 102.461467,60.1923684 98.4565014,62.3585474 C86.9292934,68.6389926 74.8552819,71.4771291 64.4364593,71.4771291 C64.4364593,71.4771291 64.3256207,71.4771291 64.3197093,71.4771291 C64.2916302,71.4771291 64.2620733,71.4771291 64.2339942,71.4771291 C64.2339942,71.4771291 63.3132954,71.3400851 63.2999948,71.3518739 C57.5452579,71.2457753 51.9368278,68.6168888 50.1323764,67.6958943 C49.9742468,67.6148468 49.8397627,67.5337993 49.7437026,67.4836972 C49.7156235,67.4689613 49.681633,67.4453838 49.6594653,67.4335951 C49.6402533,67.42328 49.6195634,67.4100177 49.5707945,67.3820194 C49.5456711,67.3687571 49.5264591,67.3569684 49.5235034,67.3525476 L49.4791679,67.3378117 C45.9027778,65.4221433 42.7254063,62.7844152 40.020946,59.5130429 C37.4642704,56.4185016 35.543069,53.0145062 34.3016774,49.3600002 C45.9190341,46.7031155 55.155579,57.6180048 65.8241578,58.1426032 C66.4551985,58.1426032 67.0832836,58.2162828 67.7158022,58.2162828 C78.7700991,58.2162828 90.5189842,53.3092244 92.6766411,52.1156156 C98.7949284,48.7852997 106.908309,48.9916024 112.479793,50.3178344 L115.036469,50.9220068 L115.012823,50.8321177 Z M45.9338126,103.866662 L45.8377525,103.904975 L45.7993285,103.863714 C42.5628431,106.942046 39.1238927,108.023662 37.0460396,106.611962 C33.4607823,104.18201 35.6952873,99.9395413 36.1076067,99.2587422 C44.9081866,89.88965 48.0914694,79.1368557 49.5693166,70.8140131 C49.5693166,70.8125395 49.5693166,70.8110659 49.5693166,70.8095923 C52.525011,72.0267786 57.3294922,74.0514928 62.7398907,74.241586 C61.2620435,78.4236376 59.4502029,82.5909532 57.6930426,86.4488147 C54.855576,92.6526333 50.2934617,99.3132651 45.9338126,103.866662 Z M34.7760663,96.4987061 C28.5247728,92.210556 19.1700001,83.4132171 19.0369939,68.9720242 C18.9335446,57.6106368 25.1257242,52.6298989 30.3573033,50.448984 C30.6972081,50.3163608 31.0518914,50.1690017 31.4213532,50.0511144 C32.7661942,54.1329618 34.8942941,57.9348269 37.7465392,61.38303 C40.436221,64.6544023 43.5840355,67.3363381 47.1013118,69.3846297 C45.3278952,77.2536062 42.7416626,87.568744 34.7760663,96.4987061 Z M60.1654809,87.6718954 C62.1310177,83.3984812 63.9044343,78.9040283 65.4266169,74.2916881 C76.1262305,74.5274627 88.2741343,71.2560904 99.8604562,64.9491205 C103.244726,63.1218675 106.628996,62.9450366 107.530483,63.1955471 C110.826082,63.9176067 112.88029,63.7849835 114.875384,63.4313217 C113.973897,71.5213368 108.328521,80.4807708 103.481182,85.9625297 C92.9293529,97.9280894 71.8256952,108.37585 49.6284305,104.043493 C53.6481748,99.4164165 57.5644699,93.3452211 60.1654809,87.6718954 Z M91.2741641,49.4911498 C89.3972982,50.5079277 79.0080325,54.4571518 69.0473425,55.1202678 C69.0177855,47.9586151 66.8453502,42.1821379 62.6039288,37.9234596 C59.6630129,34.9762774 55.687604,32.7069471 51.0176069,31.2922997 C51.0471638,31.233356 51.0914992,31.1596765 51.1210562,31.1007328 C55.0816866,24.2337983 64.865035,17.0574096 79.4366082,19.4151554 C81.7716067,19.7982891 101.85555,23.6738337 110.574848,46.9271013 C104.707795,45.9987389 97.2003313,46.2639853 91.2741641,49.4911498 Z"/>
    </g>
    <path fill="#D8D8D8" d="M73.2148715 112.73768C73.2148715 113.552576 72.5542738 114.211271 71.7370244 114.211271L70.2591772 114.211271C69.4419277 114.211271 68.78133 113.552576 68.78133 112.73768 68.78133 111.922784 69.4419277 111.264089 70.2591772 111.264089L71.7370244 111.264089C72.5542738 111.264089 73.2148715 111.922784 73.2148715 112.73768zM85.5578512 107.049618C86.2287938 107.512326 86.3972684 108.431847 85.9347022 109.100857 85.6479999 109.514936 85.1854337 109.737449 84.7169561 109.737449 84.4272981 109.737449 84.1346844 109.65198 83.8790168 109.476623L82.6730935 108.646991C82.0021509 108.184284 81.8336763 107.264763 82.2962425 106.595752 82.7602865 105.925268 83.6795074 105.760226 84.3534057 106.219987L85.5578512 107.049618zM106.033424 53.0867121C106.705844 53.5479461 106.874319 54.467467 106.411753 55.1364773 106.12505 55.5505564 105.662484 55.7745423 105.194007 55.7745423 104.905826 55.7745423 104.611735 55.689074 104.357545 55.5137167L103.154578 54.6855585C102.482157 54.2243245 102.313683 53.3048036 102.776249 52.6357932 103.238815 51.9667829 104.160992 51.7973199 104.831934 52.2585539L106.033424 53.0867121zM83.3292576 114.234849C83.1578274 114.897965 82.5578214 115.338568 81.9001794 115.338568 81.7775181 115.338568 81.6519011 115.323832 81.5277619 115.291413L80.1119843 114.925963C79.6656745 114.811023 79.3390703 114.495674 79.1587729 114.106646 79.1469501 114.106646 79.1366052 114.111067 79.1262603 114.111067 78.6563049 114.111067 78.1937387 113.888555 77.9070363 113.471528 77.4444702 112.801044 77.6159004 111.884471 78.2883209 111.421763L79.4927664 110.595079C80.1651868 110.133845 81.0844078 110.306255 81.5484518 110.975265 81.8262871 111.377555 81.8499326 111.860893 81.6991922 112.289708L82.2696412 112.437067C83.0588116 112.641897 83.5332006 113.445004 83.3292576 114.234849zM94.5017823 107.499064L94.147099 108.913711C93.9801023 109.582721 93.3771406 110.02922 92.7150651 110.02922 92.5953595 110.02922 92.4756538 110.014484 92.3544704 109.985012 91.5638221 109.787551 91.082044 108.987391 91.2800755 108.197546L91.6347588 106.782898C91.8327903 105.99158 92.6352613 105.511189 93.4273874 105.711598 94.2195135 105.909059 94.7012917 106.709219 94.5017823 107.499064zM67.3034828 12.5334849C67.3034828 13.3483808 66.6428851 14.007076 65.8256356 14.007076L64.3477884 14.007076C63.530539 14.007076 62.8699413 13.3483808 62.8699413 12.5334849 62.8699413 11.718589 63.530539 11.0598938 64.3477884 11.0598938L65.8256356 11.0598938C66.6428851 11.0598938 67.3034828 11.718589 67.3034828 12.5334849zM73.0212736 10.8196984C73.3064981 11.5815451 72.9193021 12.4303335 72.1537773 12.7147366L70.7823351 13.2260727C70.6123826 13.2894371 70.4379967 13.318909 70.2650886 13.318909 69.6665604 13.318909 69.1035007 12.9534584 68.8803457 12.3610747 68.5951212 11.5992281 68.9823172 10.7504397 69.747842 10.4660366L71.1192842 9.95470047C71.8862869 9.67177098 72.736049 10.0563783 73.0212736 10.8196984zM44.0170448 41.5337579C43.7318203 40.7704377 44.1175384 39.9216492 44.8815854 39.6357725L46.2515497 39.1229628C47.0155967 38.8415069 47.8697924 39.2216934 48.1550169 39.9850136 48.2643776 40.2767846 48.2481212 40.5729765 48.1786624 40.8529588L49.0092125 41.4556575C49.6698102 41.933101 49.8161171 42.8555691 49.3358168 43.5127907 49.0476366 43.9106603 48.5968932 44.1199102 48.1387606 44.1199102 47.8372797 44.1199102 47.5343211 44.027074 47.2712643 43.8384543L46.0875087 42.9808243C45.8894771 42.837886 45.7535152 42.6477927 45.6515437 42.4429636 45.5673065 42.4576995 45.484547 42.4886449 45.4003097 42.4886449 44.8032595 42.4886449 44.2401997 42.1246679 44.0170448 41.5337579zM38.0347194 36.1993581C38.1041782 35.3888829 38.8371904 34.7714483 39.6307943 34.855443L41.0879517 34.977751C41.9007676 35.0455362 42.5052071 35.7572807 42.4357483 36.5692294 42.370723 37.3369704 41.7263816 37.9190389 40.9652903 37.9190389 40.9239106 37.9190389 40.881053 37.9175653 40.8396733 37.9131445L39.382516 37.7908364C38.5711779 37.7230513 37.9652606 37.0098332 38.0347194 36.1993581zM52.6801849 40.4108814C52.8087576 39.6092479 53.5550705 39.0551776 54.3737978 39.1892744L55.8191324 39.4191546C56.6245591 39.547357 57.1728404 40.3033093 57.0442677 41.10789 56.9289956 41.8314233 56.3009105 42.3486537 55.5871104 42.3486537 55.5102623 42.3486537 55.4319364 42.3427594 55.3521326 42.3294971L53.9067981 42.0996168C53.1013714 41.9714144 52.5530901 41.2154622 52.6801849 40.4108814zM32.7218588 43.6660442C32.1854002 43.0530303 32.2489477 42.1231943 32.8637321 41.5882807L33.9662061 40.6289729C34.5795127 40.0911122 35.5135121 40.1559502 36.0499706 40.7704377 36.5864291 41.3834516 36.5228817 42.3132875 35.9080973 42.8482011L34.8056233 43.8075089C34.5263102 44.0521251 34.1790161 44.1714859 33.8346777 44.1714859 33.4223583 44.1714859 33.0129947 44.0005494 32.7218588 43.6660442zM8.11718103 61.8088979L7.01470704 62.7667321C6.73539392 63.0098746 6.38809983 63.1292355 6.04376144 63.1292355 5.63291992 63.1292355 5.2220784 62.9582989 4.92946466 62.6237938 4.39300614 62.0107799 4.45803141 61.0794703 5.07281584 60.5445567L6.17528984 59.5867225C6.78711857 59.0532825 7.72111799 59.1151733 8.26053221 59.7296608 8.79699074 60.3426747 8.73196546 61.2739843 8.11718103 61.8088979zM11.4896283 73.8422428C11.2280494 74.3535789 10.7108028 74.6482972 10.1699108 74.6482972 9.945278 74.6482972 9.71621168 74.5967215 9.50192384 74.4891493L8.19698478 73.8289805C7.46988397 73.4605827 7.18022592 72.5734809 7.54968772 71.8470005 7.91914951 71.1219937 8.80585782 70.8331698 9.53739217 71.2015676L10.8423312 71.8617364C11.569432 72.2301342 11.8590901 73.1157624 11.4896283 73.8422428zM10.777306 78.324907C11.4482486 78.7876146 11.6152453 79.7071354 11.1512013 80.3761458L10.3191733 81.575649C10.032471 81.9882545 9.57138266 82.2107667 9.1029051 82.2107667 8.81324706 82.2107667 8.51915547 82.1252984 8.2634879 81.9484675 7.59254528 81.4857599 7.42554855 80.566239 7.88959257 79.8972287L8.72162053 78.6977255C9.18566455 78.0287152 10.1048855 77.8621994 10.777306 78.324907zM55.2206042 11.8011101C55.6831704 12.4715941 55.5117401 13.3881677 54.8393197 13.8508754L53.6348742 14.67756C53.3792067 14.8529173 53.0880708 14.936912 52.7998906 14.936912 52.3299352 14.936912 51.867369 14.7143997 51.5806666 14.2973735 51.1181005 13.6268895 51.2895307 12.7103158 51.9619512 12.2476082L53.1663967 11.4209236C53.840295 10.9611632 54.7580381 11.1306262 55.2206042 11.8011101zM81.7642175 8.06703026C81.5277619 8.63141566 80.9794806 8.97034161 80.4016424 8.97034161 80.2095222 8.97034161 80.0159243 8.93497543 79.8297155 8.85540151L78.4819189 8.29101611C77.7282168 7.97566762 77.3750113 7.11214323 77.6912706 6.36208536 78.0060521 5.6090803 78.8779819 5.25541844 79.6257726 5.57371411L80.9735692 6.13809951C81.7272713 6.453448 82.0804768 7.31697239 81.7642175 8.06703026zM99.4038014 18.0344005C99.2161148 18.6798334 98.6264538 19.0998069 97.9835903 19.0998069 97.8491062 19.0998069 97.7101886 19.0806502 97.5742266 19.0423368L96.168794 18.6385729C95.3855349 18.4131134 94.9318359 17.5967439 95.1579465 16.8142671 95.3855349 16.036211 96.1968731 15.5852921 96.9875213 15.8063307L98.392954 16.2100947C99.176213 16.4355542 99.6299121 17.2519236 99.4038014 18.0344005zM100.278687 56.2077781L100.148636 57.6592653C100.079178 58.4255327 99.4363141 59.0017068 98.6781785 59.0017068 98.6353209 59.0017068 98.5895076 59.0002332 98.5451722 58.9958124 97.7323563 58.9236065 97.1323503 58.2074412 97.2047648 57.3969661L97.3348154 55.9454789C97.4087077 55.1364773 98.1284193 54.5367258 98.9382796 54.6089317 99.7510955 54.6811377 100.351101 55.397303 100.278687 56.2077781zM68.8670451 9.06759863C68.3690106 9.06759863 67.8813211 8.81561455 67.6049636 8.36174849 67.1793436 7.66621348 67.3995429 6.75995495 68.0970867 6.33703431L69.3458676 5.57813489C70.0448893 5.15226706 70.9522875 5.37330572 71.3764296 6.06884073 71.8020496 6.76437573 71.5818504 7.67063426 70.8843065 8.0935549L69.6355257 8.85245432C69.3931587 8.99981343 69.1286241 9.06759863 68.8670451 9.06759863zM88.6509853 8.32490871L88.296302 9.73955617C88.1293053 10.4085665 87.5263436 10.8550646 86.8642681 10.8550646 86.7445625 10.8550646 86.6248569 10.8403287 86.5036734 10.8108569 85.7130251 10.6133957 85.231247 9.81323572 85.4292785 9.02339089L85.7839618 7.60874343C85.9805155 6.81742501 86.7844644 6.33998149 87.5765904 6.5374427 88.3687165 6.73343031 88.8504947 7.53359028 88.6509853 8.32490871zM58.471868 114.20243C58.307827 114.875861 57.7019097 115.328253 57.0368784 115.328253 56.9216064 115.328253 56.8033786 115.314991 56.6866287 115.286993L55.2649397 114.942172C54.4713357 114.749132 53.985124 113.951919 54.178722 113.162074 54.37232 112.372229 55.174791 111.885944 55.9639614 112.078985L57.3856504 112.423805C58.1792543 112.615372 58.665466 113.412585 58.471868 114.20243zM70.7941578 116.277246C71.4517998 116.757637 71.595151 117.680105 71.1148507 118.337326L70.2503101 119.516199C69.960652 119.911122 69.5113865 120.118898 69.0547317 120.118898 68.751773 120.118898 68.4473365 120.026062 68.1828019 119.835968 67.5251599 119.355578 67.3818087 118.43311 67.862109 117.775888L68.7266496 116.597015C69.2113835 115.941267 70.1335602 115.798329 70.7941578 116.277246z"/>
  </g>
</svg>
