<svg width="995" height="166" xmlns="http://www.w3.org/2000/svg"><g fill-rule="nonzero" fill="none"><path d="M389.893 15.769c0-8.37 6.754-15.146 15.079-15.146 8.351 0 15.129 6.776 15.129 15.146 0 8.363-6.778 15.151-15.129 15.151-8.325 0-15.079-6.788-15.079-15.151" fill="#FFFFFE"/><path d="M628.246 116.509c0-8.364 6.761-15.146 15.089-15.146 8.342 0 15.123 6.782 15.123 15.146 0 8.352-6.781 15.146-15.123 15.146-8.328 0-15.089-6.794-15.089-15.146" fill="#2393C5"/><path d="M141.939 109.972c-13.006 0-22.049-10.345-22.049-25.102 0-14.761 9.043-25.085 22.049-25.085 13.086 0 22.24 10.324 22.24 25.085 0 14.99-8.959 25.102-22.24 25.102zm0-72.248c-27.523 0-47.502 19.823-47.502 47.146 0 27.318 19.979 47.152 47.502 47.152 27.636 0 47.692-19.834 47.692-47.152 0-27.323-20.056-47.146-47.692-47.146zM360.626 87.22c-1.069-1.998-2.282-3.714-3.597-5.056l-.835-.891.874-.835a37.441 37.441 0 0 0 3.803-4.75l24.283-36.11h-29.478l-18.247 28.236c-1.041 1.515-3.123 2.295-6.253 2.295h-4.159V16.704c0-10.685-6.655-12.134-13.837-12.134h-12.312l.023 126.06h26.126V92.822h2.455c2.979 0 5.011.346 5.941 1.949l14.41 27.217c4.027 7.372 8.031 8.642 15.586 8.642h20.029l-14.917-24.655-9.895-18.755M487.476 37.518c-13.286 0-21.766 5.914-26.522 10.891l-1.587 1.615-.562-2.199c-1.392-5.329-6.097-8.286-13.174-8.286h-11.716l.067 91.046h25.954V88.623c0-4.087.54-7.662 1.62-10.908 2.889-9.822 10.947-15.947 21.02-15.947 8.102 0 11.259 4.276 11.259 15.34v39.646c0 9.443 4.366 13.831 13.815 13.831h12.338l-.055-57.909c0-22.986-11.215-35.158-32.457-35.158M405.312 39.578h-12.301l.078 70.394h-.011v20.636h13.136c.167 0 .294.022.456.022l6.131-.022h6.074v-.023h.051l.044-77.158c0-9.333-4.449-13.849-13.658-13.849M243.883 109.972c-13.008 0-22.068-10.345-22.068-25.102 0-14.761 9.06-25.085 22.068-25.085 13.057 0 22.217 10.324 22.217 25.085 0 14.99-8.937 25.102-22.217 25.102zm0-72.248c-27.552 0-47.536 19.823-47.536 47.146 0 27.318 19.984 47.152 47.536 47.152 27.601 0 47.691-19.834 47.691-47.152 0-27.323-20.09-47.146-47.691-47.146z" fill="#FFFFFE"/><path d="M800.16 109.972c-13.008 0-22.073-10.345-22.073-25.102 0-14.761 9.065-25.085 22.073-25.085 13.074 0 22.25 10.324 22.25 25.085 0 14.99-8.965 25.102-22.25 25.102zm0-72.248c-27.53 0-47.52 19.823-47.52 47.146 0 27.318 19.99 47.152 47.52 47.152 27.617 0 47.709-19.834 47.709-47.152 0-27.323-20.092-47.146-47.709-47.146z" fill="#2393C5"/><path d="M574.669 105.975c-14.166 0-19.222-12.396-19.222-23.984 0-5.117 1.269-21.777 17.84-21.777 8.242 0 19.255 2.35 19.255 22.635 0 19.116-9.722 23.126-17.873 23.126zm31.338-66.63c-4.922 0-8.72 1.948-10.625 5.546l-.701 1.397-1.203-1.047c-4.199-3.636-11.705-7.924-23.898-7.924-24.266 0-40.627 18.225-40.627 45.354 0 27.09 16.918 46.011 41.105 46.011 8.264 0 14.789-1.905 19.979-5.836l2.005-1.515v2.528c0 12.172-7.863 18.888-22.14 18.888-6.916 0-13.219-1.692-17.44-3.219-5.5-1.671-8.73-.29-10.959 5.235l-2.07 5.089-2.918 7.451 1.815.967c9.142 4.833 20.992 7.73 31.728 7.73 22.096 0 47.92-11.315 47.92-43.154l.078-83.501h-12.049zM45.286 108.926l-21.126-.023V83.646c0-5.408 2.1-8.208 6.727-8.849h14.399c10.284 0 16.939 6.476 16.939 16.978 0 10.769-6.488 17.151-16.939 17.151zM24.16 40.787v-6.643c0-5.825 2.467-8.592 7.873-8.943h10.803c9.266 0 14.828 5.552 14.828 14.845 0 7.077-3.803 15.323-14.488 15.323H24.16V40.787zm48.115 25.201l-3.82-2.138 3.324-2.839c3.882-3.347 10.385-10.83 10.385-23.793 0-19.818-15.374-32.603-39.155-32.603H12.773C5.713 4.877.078 10.607 0 17.706v112.456h43.543c26.438 0 43.522-14.389 43.522-36.683 0-12.011-5.524-22.262-14.79-27.491z" fill="#FFFFFE"/><path d="M963.8 37.818c-10.781 0-21.205 5.029-27.865 13.509l-1.894 2.372-1.467-2.683c-4.791-8.753-13.076-13.198-24.59-13.198-12.051 0-20.135 6.722-23.901 10.725l-2.46 2.667-.936-3.502c-1.381-5.057-5.869-7.818-12.684-7.818h-10.902L857 130.585h24.779V90.55c0-3.525.445-6.983 1.324-10.602 2.363-9.683 8.865-20.085 19.791-19.054 6.748.663 10.035 5.868 10.035 15.924v53.767h24.965V90.55c0-4.376.391-7.662 1.404-10.952 2.004-9.233 8.787-18.704 19.332-18.704 7.641 0 10.459 4.315 10.459 15.924v40.504c0 9.188 4.086 13.263 13.241 13.263h11.648l.045-57.909c0-23.142-10.201-34.858-30.223-34.858M738.308 99.092c-.078.089-10.76 11.337-24.791 11.337-12.807 0-25.725-7.841-25.725-25.386 0-15.129 10.024-25.709 24.368-25.709 4.654 0 9.966 1.677 10.779 4.494l.123.484c1.904 6.342 7.695 6.693 8.83 6.693h13.566V59.146c0-15.659-19.914-21.328-33.298-21.328-28.645 0-49.457 19.962-49.457 47.42 0 27.485 20.568 47.397 48.923 47.397 24.622 0 37.997-16.17 38.108-16.327l.724-.89-10.748-17.853-1.402 1.527" fill="#2393C5"/></g></svg>