<?xml version="1.0" encoding="iso-8859-1"?>
<!-- Generator: Adobe Illustrator 19.0.0, SVG Export Plug-In . SVG Version: 6.00 Build 0)  -->
<svg version="1.1" id="Capa_1" xmlns="http://www.w3.org/2000/svg" xmlns:xlink="http://www.w3.org/1999/xlink" x="0px" y="0px"
	 viewBox="0 0 211.627 211.627" style="enable-background:new 0 0 211.627 211.627;" xml:space="preserve">
<rect x="30.72" y="104.107" style="fill:#FBAD4A;" width="27.307" height="102.4"/>
<path d="M58.027,209.92H30.72c-1.884,0-3.413-1.529-3.413-3.413v-102.4c0-1.884,1.529-3.413,3.413-3.413h27.307
	c1.884,0,3.413,1.529,3.413,3.413v102.4C61.44,208.391,59.911,209.92,58.027,209.92z M34.133,203.093h20.48V107.52h-20.48V203.093z"
	/>
<polygon style="fill:#997843;" points="44.373,42.667 30.72,104.107 58.027,104.107 "/>
<path d="M58.027,107.52H30.72c-1.034,0-2.016-0.469-2.664-1.278c-0.647-0.807-0.893-1.865-0.669-2.877l13.653-61.44
	c0.346-1.562,1.732-2.673,3.331-2.673c1.599,0,2.985,1.111,3.331,2.673l13.653,61.44c0.225,1.01-0.022,2.068-0.669,2.877
	C60.042,107.051,59.061,107.52,58.027,107.52z M34.975,100.693h18.797l-9.399-42.291L34.975,100.693z"/>
<circle style="fill:#F97DA3;" cx="44.373" cy="32.427" r="6.827"/>
<path d="M44.373,42.667c-5.647,0-10.24-4.593-10.24-10.24s4.593-10.24,10.24-10.24s10.24,4.593,10.24,10.24
	S50.021,42.667,44.373,42.667z M44.373,29.013c-1.882,0-3.413,1.531-3.413,3.413c0,1.882,1.531,3.413,3.413,3.413
	c1.882,0,3.413-1.531,3.413-3.413C47.787,30.544,46.256,29.013,44.373,29.013z"/>
<rect x="40.96" y="117.76" width="6.827" height="13.653"/>
<rect x="40.96" y="141.653" width="6.827" height="13.653"/>
<rect x="40.96" y="165.547" width="6.827" height="13.653"/>
<rect x="40.96" y="189.44" width="6.827" height="13.653"/>
<rect x="58.027" y="83.627" style="fill:#FBAD4A;" width="27.307" height="122.88"/>
<path d="M85.333,209.92H58.027c-1.884,0-3.413-1.529-3.413-3.413V83.627c0-1.884,1.529-3.413,3.413-3.413h27.307
	c1.884,0,3.413,1.529,3.413,3.413v122.88C88.747,208.391,87.217,209.92,85.333,209.92z M61.44,203.093h20.48V87.04H61.44V203.093z"
	/>
<polygon style="fill:#997843;" points="71.68,22.187 58.027,83.627 85.333,83.627 "/>
<path d="M85.333,87.04H58.027c-1.034,0-2.016-0.469-2.664-1.278c-0.647-0.807-0.893-1.865-0.669-2.877l13.653-61.44
	c0.348-1.56,1.732-2.671,3.333-2.671s2.985,1.111,3.331,2.673l13.653,61.44c0.225,1.01-0.022,2.068-0.669,2.877
	C87.349,86.571,86.368,87.04,85.333,87.04z M62.281,80.213h18.797L71.68,37.922L62.281,80.213z"/>
<circle style="fill:#F97DA3;" cx="71.68" cy="11.947" r="6.827"/>
<path d="M71.68,22.187c-5.647,0-10.24-4.593-10.24-10.24s4.593-10.24,10.24-10.24c5.647,0,10.24,4.593,10.24,10.24
	S77.327,22.187,71.68,22.187z M71.68,8.533c-1.882,0-3.413,1.531-3.413,3.413s1.531,3.413,3.413,3.413s3.413-1.531,3.413-3.413
	S73.562,8.533,71.68,8.533z"/>
<rect x="68.267" y="117.76" width="6.827" height="13.653"/>
<rect x="68.267" y="141.653" width="6.827" height="13.653"/>
<rect x="68.267" y="165.547" width="6.827" height="13.653"/>
<rect x="150.187" y="104.107" style="fill:#FBAD4A;" width="27.307" height="102.4"/>
<path d="M177.493,209.92h-27.307c-1.884,0-3.413-1.529-3.413-3.413v-102.4c0-1.884,1.529-3.413,3.413-3.413h27.307
	c1.884,0,3.413,1.529,3.413,3.413v102.4C180.907,208.391,179.378,209.92,177.493,209.92z M153.6,203.093h20.48V107.52H153.6V203.093
	z"/>
<polygon style="fill:#997843;" points="163.84,42.667 177.493,104.107 150.187,104.107 "/>
<path d="M177.493,107.52h-27.307c-1.034,0-2.016-0.469-2.664-1.278c-0.647-0.807-0.893-1.865-0.669-2.877l13.653-61.44
	c0.346-1.562,1.732-2.673,3.331-2.673s2.985,1.111,3.331,2.673l13.653,61.44c0.225,1.01-0.022,2.068-0.669,2.877
	C179.509,107.051,178.528,107.52,177.493,107.52z M154.441,100.693h18.797l-9.399-42.291L154.441,100.693z"/>
<circle style="fill:#F97DA3;" cx="163.84" cy="32.427" r="6.827"/>
<path d="M163.84,42.667c-5.647,0-10.24-4.593-10.24-10.24s4.593-10.24,10.24-10.24c5.647,0,10.24,4.593,10.24,10.24
	S169.487,42.667,163.84,42.667z M163.84,29.013c-1.882,0-3.413,1.531-3.413,3.413c0,1.882,1.531,3.413,3.413,3.413
	c1.882,0,3.413-1.531,3.413-3.413C167.253,30.544,165.722,29.013,163.84,29.013z"/>
<rect x="160.427" y="117.76" width="6.827" height="13.653"/>
<rect x="160.427" y="141.653" width="6.827" height="13.653"/>
<rect x="160.427" y="165.547" width="6.827" height="13.653"/>
<rect x="122.88" y="83.627" style="fill:#FBAD4A;" width="27.307" height="122.88"/>
<path d="M150.187,209.92H122.88c-1.884,0-3.413-1.529-3.413-3.413V83.627c0-1.884,1.529-3.413,3.413-3.413h27.307
	c1.884,0,3.413,1.529,3.413,3.413v122.88C153.6,208.391,152.071,209.92,150.187,209.92z M126.293,203.093h20.48V87.04h-20.48
	V203.093z"/>
<polygon style="fill:#997843;" points="136.533,22.187 150.187,83.627 122.88,83.627 "/>
<path d="M150.187,87.04H122.88c-1.034,0-2.016-0.469-2.664-1.278c-0.647-0.807-0.893-1.865-0.669-2.877l13.653-61.44
	c0.348-1.56,1.732-2.671,3.333-2.671s2.985,1.111,3.331,2.673l13.653,61.44c0.225,1.01-0.022,2.068-0.669,2.877
	C152.202,86.571,151.221,87.04,150.187,87.04z M127.135,80.213h18.797l-9.399-42.291L127.135,80.213z"/>
<circle style="fill:#F97DA3;" cx="136.533" cy="11.947" r="6.827"/>
<path d="M136.533,22.187c-5.647,0-10.24-4.593-10.24-10.24s4.593-10.24,10.24-10.24s10.24,4.593,10.24,10.24
	S142.181,22.187,136.533,22.187z M136.533,8.533c-1.882,0-3.413,1.531-3.413,3.413s1.531,3.413,3.413,3.413s3.413-1.531,3.413-3.413
	S138.416,8.533,136.533,8.533z"/>
<rect x="133.12" y="117.76" width="6.827" height="13.653"/>
<rect x="133.12" y="141.653" width="6.827" height="13.653"/>
<rect x="133.12" y="165.547" width="6.827" height="13.653"/>
<path style="fill:#FEDA38;" d="M104.107,83.627L104.107,83.627c-10.368,0-18.773,8.405-18.773,18.773v104.107h37.547V102.4
	C122.88,92.032,114.475,83.627,104.107,83.627z"/>
<path d="M122.88,209.92H85.333c-1.884,0-3.413-1.529-3.413-3.413V102.4c0-12.233,9.953-22.187,22.187-22.187
	s22.187,9.953,22.187,22.187v104.107C126.293,208.391,124.764,209.92,122.88,209.92z M88.747,203.093h30.72V102.4
	c0-8.468-6.89-15.36-15.36-15.36s-15.36,6.892-15.36,15.36V203.093z"/>
<rect x="68.267" y="189.44" width="6.827" height="13.653"/>
<path d="M208.213,209.92H3.413c-1.884,0-3.413-1.529-3.413-3.413s1.529-3.413,3.413-3.413h204.8c1.884,0,3.413,1.529,3.413,3.413
	S210.098,209.92,208.213,209.92z"/>
<circle style="fill:#26BBEC;" cx="104.107" cy="136.533" r="18.773"/>
<path d="M104.107,158.72c-12.233,0-22.187-9.953-22.187-22.187s9.953-22.187,22.187-22.187s22.187,9.953,22.187,22.187
	S116.34,158.72,104.107,158.72z M104.107,121.173c-8.47,0-15.36,6.892-15.36,15.36s6.89,15.36,15.36,15.36s15.36-6.892,15.36-15.36
	S112.577,121.173,104.107,121.173z"/>
<path style="fill:#997843;" d="M104.107,168.96L104.107,168.96c-4.712,0-8.533,3.821-8.533,8.533v29.013h17.067v-29.013
	C112.64,172.781,108.819,168.96,104.107,168.96z"/>
<path d="M112.64,209.92H95.573c-1.884,0-3.413-1.529-3.413-3.413v-29.013c0-6.588,5.361-11.947,11.947-11.947
	c6.586,0,11.947,5.359,11.947,11.947v29.013C116.053,208.391,114.524,209.92,112.64,209.92z M98.987,203.093h10.24v-25.6
	c0-2.823-2.297-5.12-5.12-5.12s-5.12,2.297-5.12,5.12V203.093z"/>
<g>
</g>
<g>
</g>
<g>
</g>
<g>
</g>
<g>
</g>
<g>
</g>
<g>
</g>
<g>
</g>
<g>
</g>
<g>
</g>
<g>
</g>
<g>
</g>
<g>
</g>
<g>
</g>
<g>
</g>
</svg>
