<?xml version="1.0" encoding="iso-8859-1"?>
<svg version="1.1" id="Capa_1" xmlns="http://www.w3.org/2000/svg" xmlns:xlink="http://www.w3.org/1999/xlink" x="0px" y="0px"
	 viewBox="0 0 211.627 211.627" style="enable-background:new 0 0 211.627 211.627;" xml:space="preserve">
<g>
	<g>
		<path  fill="#605367" d="M58.027,100.693H30.72c-1.884,0-3.413,1.529-3.413,3.413v102.4c0,1.884,1.529,3.413,3.413,3.413h27.307
			c1.884,0,3.413-1.529,3.413-3.413v-102.4C61.44,102.223,59.911,100.693,58.027,100.693z M54.613,203.093h-20.48V107.52h20.48
			V203.093z"/>
	</g>
</g>
<g>
	<g>
		<path  fill="#605367" d="M61.356,103.364l-13.653-61.44c-0.346-1.562-1.732-2.673-3.331-2.673c-1.599,0-2.985,1.111-3.331,2.673l-13.653,61.44
			c-0.224,1.012,0.022,2.07,0.669,2.877c0.649,0.809,1.63,1.278,2.664,1.278h27.307c1.034,0,2.016-0.469,2.661-1.278
			C61.334,105.433,61.582,104.375,61.356,103.364z M34.975,100.693l9.399-42.291l9.399,42.291H34.975z"/>
	</g>
</g>
<g>
	<g>
		<path  fill="#605367" d="M44.373,22.187c-5.647,0-10.24,4.593-10.24,10.24s4.593,10.24,10.24,10.24s10.24-4.593,10.24-10.24
			S50.021,22.187,44.373,22.187z M44.373,35.84c-1.882,0-3.413-1.531-3.413-3.413s1.531-3.413,3.413-3.413s3.413,1.531,3.413,3.413
			S46.256,35.84,44.373,35.84z"/>
	</g>
</g>
<g>
	<g>
		<rect fill="#605367" x="40.96" y="117.76" width="6.827" height="13.653"/>
	</g>
</g>
<g>
	<g>
		<rect fill="#605367" x="40.96" y="141.653" width="6.827" height="13.653"/>
	</g>
</g>
<g>
	<g>
		<rect fill="#605367" x="40.96" y="165.547" width="6.827" height="13.653"/>
	</g>
</g>
<g>
	<g>
		<rect fill="#605367" x="40.96" y="189.44" width="6.827" height="13.653"/>
	</g>
</g>
<g>
	<g>
		<path  fill="#605367" d="M85.333,80.213H58.027c-1.884,0-3.413,1.529-3.413,3.413v122.88c0,1.884,1.529,3.413,3.413,3.413h27.307
			c1.884,0,3.413-1.529,3.413-3.413V83.627C88.747,81.743,87.218,80.213,85.333,80.213z M81.92,203.093H61.44V87.04h20.48V203.093z"
			/>
	</g>
</g>
<g>
	<g>
		<path  fill="#605367" d="M88.665,82.886l-13.653-61.44c-0.346-1.562-1.731-2.673-3.331-2.673c-1.601,0-2.985,1.111-3.333,2.671l-13.653,61.44
			c-0.224,1.012,0.022,2.07,0.669,2.877c0.648,0.809,1.63,1.278,2.664,1.278h27.307c1.034,0,2.016-0.469,2.662-1.277
			C88.643,84.955,88.89,83.896,88.665,82.886z M62.281,80.213l9.399-42.291l9.399,42.291H62.281z"/>
	</g>
</g>
<g>
	<g>
		<path  fill="#605367" d="M71.68,1.707c-5.647,0-10.24,4.593-10.24,10.24c0,5.647,4.593,10.24,10.24,10.24c5.647,0,10.24-4.593,10.24-10.24
			C81.92,6.299,77.327,1.707,71.68,1.707z M71.68,15.36c-1.882,0-3.413-1.531-3.413-3.413s1.531-3.413,3.413-3.413
			s3.413,1.531,3.413,3.413S73.563,15.36,71.68,15.36z"/>
	</g>
</g>
<g>
	<g>
		<rect fill="#605367" x="68.267" y="117.76" width="6.827" height="13.653"/>
	</g>
</g>
<g>
	<g>
		<rect fill="#605367" x="68.267" y="141.653" width="6.827" height="13.653"/>
	</g>
</g>
<g>
	<g>
		<rect fill="#605367" x="68.267" y="165.547" width="6.827" height="13.653"/>
	</g>
</g>
<g>
	<g>
		<path  fill="#605367" d="M177.493,100.693h-27.307c-1.884,0-3.413,1.529-3.413,3.413v102.4c0,1.884,1.529,3.413,3.413,3.413h27.307
			c1.884,0,3.413-1.529,3.413-3.413v-102.4C180.907,102.223,179.378,100.693,177.493,100.693z M174.08,203.093H153.6V107.52h20.48
			V203.093z"/>
	</g>
</g>
<g>
	<g>
		<path  fill="#605367" d="M180.823,103.364l-13.653-61.44c-0.346-1.562-1.732-2.673-3.331-2.673s-2.985,1.111-3.331,2.673l-13.653,61.44
			c-0.224,1.012,0.022,2.07,0.669,2.877c0.649,0.809,1.63,1.278,2.664,1.278h27.307c1.034,0,2.016-0.469,2.661-1.278
			C180.801,105.433,181.048,104.375,180.823,103.364z M154.441,100.693l9.399-42.291l9.399,42.291H154.441z"/>
	</g>
</g>
<g>
	<g>
		<path  fill="#605367" d="M163.84,22.187c-5.647,0-10.24,4.593-10.24,10.24s4.593,10.24,10.24,10.24c5.647,0,10.24-4.593,10.24-10.24
			S169.487,22.187,163.84,22.187z M163.84,35.84c-1.882,0-3.413-1.531-3.413-3.413s1.531-3.413,3.413-3.413s3.413,1.531,3.413,3.413
			S165.722,35.84,163.84,35.84z"/>
	</g>
</g>
<g>
	<g>
		<rect fill="#605367" x="160.427" y="117.76" width="6.827" height="13.653"/>
	</g>
</g>
<g>
	<g>
		<rect fill="#605367" x="160.427" y="141.653" width="6.827" height="13.653"/>
	</g>
</g>
<g>
	<g>
		<rect fill="#605367" x="160.427" y="165.547" width="6.827" height="13.653"/>
	</g>
</g>
<g>
	<g>
		<path  fill="#605367" d="M150.187,80.213H122.88c-1.884,0-3.413,1.529-3.413,3.413v122.88c0,1.884,1.529,3.413,3.413,3.413h27.307
			c1.884,0,3.413-1.529,3.413-3.413V83.627C153.6,81.743,152.071,80.213,150.187,80.213z M146.773,203.093h-20.48V87.04h20.48
			V203.093z"/>
	</g>
</g>
<g>
	<g>
		<path  fill="#605367" d="M153.518,82.886l-13.653-61.44c-0.346-1.562-1.731-2.673-3.331-2.673c-1.601,0-2.985,1.111-3.333,2.671l-13.653,61.44
			c-0.224,1.012,0.022,2.07,0.669,2.877c0.648,0.809,1.63,1.278,2.664,1.278h27.307c1.034,0,2.016-0.469,2.662-1.277
			C153.496,84.955,153.743,83.896,153.518,82.886z M127.135,80.213l9.399-42.291l9.399,42.291H127.135z"/>
	</g>
</g>
<g>
	<g>
		<path  fill="#605367" d="M136.533,1.707c-5.647,0-10.24,4.593-10.24,10.24c0,5.647,4.593,10.24,10.24,10.24c5.647,0,10.24-4.593,10.24-10.24
			C146.773,6.299,142.181,1.707,136.533,1.707z M136.533,15.36c-1.882,0-3.413-1.531-3.413-3.413s1.531-3.413,3.413-3.413
			s3.413,1.531,3.413,3.413S138.416,15.36,136.533,15.36z"/>
	</g>
</g>
<g>
	<g>
		<rect fill="#605367" x="133.12" y="117.76" width="6.827" height="13.653"/>
	</g>
</g>
<g>
	<g>
		<rect fill="#605367" x="133.12" y="141.653" width="6.827" height="13.653"/>
	</g>
</g>
<g>
	<g>
		<rect fill="#605367" x="133.12" y="165.547" width="6.827" height="13.653"/>
	</g>
</g>
<g>
	<g>
		<path  fill="#605367" d="M104.107,80.213c-12.233,0-22.187,9.953-22.187,22.187v104.107c0,1.884,1.529,3.413,3.413,3.413h37.547
			c1.884,0,3.413-1.529,3.413-3.413V102.4C126.293,90.167,116.34,80.213,104.107,80.213z M119.467,203.093h-30.72V102.4
			c0-8.469,6.89-15.36,15.36-15.36c8.47,0,15.36,6.891,15.36,15.36V203.093z"/>
	</g>
</g>
<g>
	<g>
		<rect fill="#605367" x="68.267" y="189.44" width="6.827" height="13.653"/>
	</g>
</g>
<g>
	<g>
		<path  fill="#605367" d="M208.213,203.093H3.413c-1.884,0-3.413,1.529-3.413,3.413s1.529,3.413,3.413,3.413h204.8c1.884,0,3.413-1.529,3.413-3.413
			S210.098,203.093,208.213,203.093z"/>
	</g>
</g>
<g>
	<g>
		<path  fill="#605367" d="M104.107,114.347c-12.233,0-22.187,9.953-22.187,22.187c0,12.233,9.953,22.187,22.187,22.187s22.187-9.953,22.187-22.187
			C126.293,124.3,116.34,114.347,104.107,114.347z M104.107,151.893c-8.47,0-15.36-6.892-15.36-15.36
			c0-8.469,6.89-15.36,15.36-15.36c8.47,0,15.36,6.892,15.36,15.36C119.467,145.002,112.577,151.893,104.107,151.893z"/>
	</g>
</g>
<g>
	<g>
		<path  fill="#605367" d="M104.107,165.547c-6.586,0-11.947,5.359-11.947,11.947v29.013c0,1.884,1.529,3.413,3.413,3.413h17.067
			c1.884,0,3.413-1.529,3.413-3.413v-29.013C116.053,170.906,110.693,165.547,104.107,165.547z M109.227,203.093h-10.24v-25.6
			c0-2.823,2.297-5.12,5.12-5.12s5.12,2.297,5.12,5.12V203.093z"/>
	</g>
</g>
<g>
</g>
<g>
</g>
<g>
</g>
<g>
</g>
<g>
</g>
<g>
</g>
<g>
</g>
<g>
</g>
<g>
</g>
<g>
</g>
<g>
</g>
<g>
</g>
<g>
</g>
<g>
</g>
<g>
</g>
</svg>
