<?xml version="1.0" encoding="UTF-8" standalone="no"?>
<svg width="1886px" height="929px" viewBox="0 0 1886 929" version="1.1" xmlns="http://www.w3.org/2000/svg" xmlns:xlink="http://www.w3.org/1999/xlink">
    <!-- Generator: Sketch 39.1 (31720) - http://www.bohemiancoding.com/sketch -->
    <title>itnig-light</title>
    <desc>Created with Sketch.</desc>
    <defs></defs>
    <g id="Identity" stroke="none" stroke-width="1" fill="none" fill-rule="evenodd">
        <g id="Export" transform="translate(-800.000000, -2223.000000)" fill="#FFFFFF">
            <path d="M2192.33645,2688.4542 C2192.33645,2829.50093 2282.25374,2927.35209 2413.60351,2927.35209 C2462.96986,2927.35209 2501.75771,2913.24742 2525.55935,2895.61658 L2525.55935,2940.57523 C2525.55935,2991.70466 2492.06075,3015.5063 2440.04977,3015.5063 C2390.68341,3015.5063 2365.61172,2993.80226 2360.13363,2962.66814 L2209.53994,2997.01249 C2222.66733,3072.94982 2291.95071,3151.26377 2446.22056,3151.26377 C2592.55654,3151.26377 2686,3062.22803 2686,2929.11518 L2686,2458.37173 L2534.37477,2458.37173 L2534.37477,2488.34416 C2511.45467,2468.06869 2470.90374,2448.67476 2413.60351,2448.67476 C2282.25374,2448.67476 2192.33645,2546.52593 2192.33645,2688.4542 Z M2440.95727,2595.28909 C2493.59241,2595.28909 2528.07749,2629.80984 2528.07749,2680.38675 L2528.07749,2695.64011 C2528.07749,2746.21702 2493.59241,2780.73777 2440.95727,2780.73777 C2387.41463,2780.73777 2352.02204,2747.01983 2352.02204,2688.41483 C2352.02204,2629.00703 2387.41463,2595.28909 2440.95727,2595.28909 Z M2133.11525,2917.65513 L2133.11525,2458.37173 L1972.6746,2458.37173 L1972.6746,2917.65513 L2133.11525,2917.65513 Z M2052.89492,2223 C2002.64703,2223 1959.45147,2265.31402 1959.45147,2317.325 C1959.45147,2369.33598 2000.88394,2410.76846 2052.89492,2410.76846 C2104.9059,2410.76846 2146.33838,2369.33598 2146.33838,2317.325 C2146.33838,2265.31402 2104.9059,2223 2052.89492,2223 Z M1713.36966,2448.67476 C1656.06943,2448.67476 1618.16312,2468.06869 1600.53228,2490.10724 L1600.53228,2458.37173 L1448.90705,2458.37173 L1448.90705,2917.65513 L1609.3477,2917.65513 L1609.3477,2670.82336 C1609.3477,2624.10163 1634.03088,2598.53691 1671.93719,2598.53691 C1710.72504,2598.53691 1731.88204,2622.33855 1731.88204,2669.94182 L1731.88204,2917.65513 L1892.3227,2917.65513 L1892.3227,2631.15397 C1892.3227,2513.02733 1820.03625,2448.67476 1713.36966,2448.67476 Z M1271.67762,2595.89229 L1370.41033,2595.89229 L1370.41033,2458.37173 L1272.55917,2458.37173 L1273.44071,2310.27266 L1113.00006,2310.27266 C1113.00006,2310.27266 1113.00006,2387.67078 1113.00006,2394.03942 C1113.00006,2436.86872 1089.36107,2458.37172 1048.62952,2458.37172 C1041.87459,2458.37172 1028.37202,2458.37173 1028.37202,2458.37173 L1028.37202,2595.89229 L1111.23697,2595.89229 L1110.35543,2766.91144 C1109.47389,2877.1042 1183.52342,2927.35209 1292.83463,2927.35209 C1331.62248,2927.35209 1349.25331,2925.85257 1370.41032,2923.20794 L1370.41032,2782.4246 C1360.66185,2783.66075 1350.13487,2783.66074 1332.50403,2783.66074 C1301.65005,2783.66074 1270.79608,2765.14836 1270.79608,2724.59742 L1271.67762,2595.89229 Z M973.663783,2917.65513 L973.663783,2458.37173 L813.223131,2458.37173 L813.223131,2917.65513 L973.663783,2917.65513 Z M893.443457,2223 C843.19556,2223 800,2265.31402 800,2317.325 C800,2369.33598 841.432476,2410.76846 893.443457,2410.76846 C945.454438,2410.76846 986.886914,2369.33598 986.886914,2317.325 C986.886914,2265.31402 945.454438,2223 893.443457,2223 Z" id="itnig-light"></path>
        </g>
    </g>
</svg>