<svg id="Capa_1" enable-background="new 0 0 509.01 509.01" height="512" viewBox="0 0 509.01 509.01" width="512" xmlns="http://www.w3.org/2000/svg"><path d="m348.382 39.005h150v462.5h-150z" fill="#ffe5a0"/><path d="m445.523 170.628h-44.289c-3.372 0-6.106-2.734-6.106-6.106v-67.785c0-15.602 12.648-28.25 28.25-28.25 15.602 0 28.25 12.648 28.25 28.25v67.786c.001 3.371-2.733 6.105-6.105 6.105z" fill="#655e67"/><path d="m397.511 501.505h-49.13v-462.5h35v448.37c0 7.81 6.32 14.13 14.13 14.13z" fill="#ffdd81"/><path d="m418.381 96.735v67.79c0 3.37 2.73 6.1 6.1 6.1h-23.25c-3.37 0-6.1-2.73-6.1-6.1v-67.79c0-15.6 12.65-28.25 28.25-28.25 4.14 0 8.08.89 11.62 2.51-9.8 4.42-16.62 14.29-16.62 25.74z" fill="#544f56"/><path d="m160.63 204.691h187.75v296.814h-187.75z" fill="#f0a70a"/><path d="m348.38 501.505h-187.75v-194.854c0-51.846 42.029-93.875 93.875-93.875 51.846 0 93.875 42.029 93.875 93.875z" fill="#fed22b"/><circle cx="254.38" cy="301.572" fill="#f0a70a" r="55.572"/><path d="m309.951 501.51h-111.143v-62.938c0-30.691 24.88-55.572 55.572-55.572 30.691 0 55.572 24.88 55.572 55.572v62.938z" fill="#655e67"/><path d="m160.632 39.005v462.5h-135.87c-7.81 0-14.13-6.32-14.13-14.13v-448.37z" fill="#ffe5a0"/><path d="m107.774 170.628h-44.288c-3.372 0-6.106-2.734-6.106-6.106v-67.785c0-15.602 12.648-28.25 28.25-28.25 15.602 0 28.25 12.648 28.25 28.25v67.786c0 3.371-2.734 6.105-6.106 6.105z" fill="#655e67"/><path d="m59.762 501.505h-35c-7.81 0-14.13-6.32-14.13-14.13v-448.37h35v448.37c0 7.81 6.32 14.13 14.13 14.13z" fill="#ffdd81"/><path d="m80.632 96.735v67.79c0 3.37 2.73 6.1 6.1 6.1h-23.25c-3.37 0-6.1-2.73-6.1-6.1v-67.79c0-15.6 12.65-28.25 28.25-28.25 4.14 0 8.08.89 11.62 2.51-9.8 4.42-16.62 14.29-16.62 25.74z" fill="#544f56"/><path d="m272.002 214.398c-43.48 8.19-76.37 46.37-76.37 92.24v194.85l-35 .017v-194.867c0-51.85 42.03-93.88 93.87-93.88 5.98 0 11.83.56 17.5 1.64z" fill="#fdc202"/><path d="m271.882 354.325c-5.5 1.83-11.39 2.82-17.5 2.82-30.69 0-55.57-24.88-55.57-55.57s24.88-55.57 55.57-55.57c6.11 0 12 .99 17.5 2.82-22.12 7.33-38.07 28.18-38.07 52.75s15.95 45.42 38.07 52.75z" fill="#e38803"/><path d="m271.882 385.815c-22.12 7.33-38.07 28.19-38.07 52.76v62.93h-35v-62.93c0-30.69 24.88-55.58 55.57-55.58 6.11 0 12 .99 17.5 2.82z" fill="#544f56"/><path d="m63.485 178.128h44.289c7.502 0 13.605-6.104 13.605-13.605v-67.787c0-19.713-16.037-35.75-35.75-35.75s-35.75 16.037-35.75 35.75v67.786c.001 7.502 6.104 13.606 13.606 13.606zm1.395-81.392c0-11.441 9.309-20.75 20.75-20.75s20.75 9.309 20.75 20.75v66.392h-41.5z"/><path d="m401.235 178.128h44.289c7.502 0 13.605-6.104 13.605-13.605v-67.787c0-19.713-16.037-35.75-35.75-35.75s-35.75 16.037-35.75 35.75v67.786c.001 7.502 6.104 13.606 13.606 13.606zm1.395-81.392c0-11.441 9.309-20.75 20.75-20.75s20.75 9.309 20.75 20.75v66.392h-41.5z"/><path d="m498.38 0c-4.143 0-7.5 3.357-7.5 7.5v24h-22.5v-24c0-4.143-3.357-7.5-7.5-7.5s-7.5 3.357-7.5 7.5v24h-22.5v-24c0-4.143-3.357-7.5-7.5-7.5s-7.5 3.357-7.5 7.5v24h-22.5v-24c0-4.143-3.357-7.5-7.5-7.5s-7.5 3.357-7.5 7.5v24h-22.5v-24c0-4.143-3.357-7.5-7.5-7.5s-7.5 3.357-7.5 7.5v189.691h-22.75v-29.085c0-4.143-3.357-7.5-7.5-7.5s-7.5 3.357-7.5 7.5v29.085h-22.5v-29.085c0-4.143-3.357-7.5-7.5-7.5s-7.5 3.357-7.5 7.5v29.085h-22.5v-29.085c0-4.143-3.357-7.5-7.5-7.5s-7.5 3.357-7.5 7.5v29.085h-22.5v-29.085c0-4.143-3.357-7.5-7.5-7.5s-7.5 3.357-7.5 7.5v29.085h-22.5c0-8.487 0-180.913 0-189.691 0-4.143-3.357-7.5-7.5-7.5s-7.5 3.357-7.5 7.5v24h-22.5v-24c0-4.143-3.357-7.5-7.5-7.5s-7.5 3.357-7.5 7.5v24h-22.5v-24c0-4.143-3.357-7.5-7.5-7.5s-7.5 3.357-7.5 7.5v24h-22.5v-24c0-4.143-3.357-7.5-7.5-7.5s-7.5 3.357-7.5 7.5v24h-22.5v-24c0-4.143-3.357-7.5-7.5-7.5s-7.5 3.357-7.5 7.5v479.88c0 11.927 9.703 21.63 21.63 21.63h459.49c11.927 0 21.63-9.703 21.63-21.63 0-7.044 0-476.51 0-479.88 0-4.143-3.358-7.5-7.5-7.5zm-345.25 338.5h-32.5c-4.143 0-7.5 3.357-7.5 7.5s3.357 7.5 7.5 7.5h32.5v140.51h-128.37c-3.655 0-6.63-2.975-6.63-6.63v-133.88h72.5c4.143 0 7.5-3.357 7.5-7.5s-3.357-7.5-7.5-7.5h-72.5v-126.309h135zm0-141.309h-135v-150.691h135zm15 15h49.576c-20.676 8.083-38.069 22.768-49.576 41.448zm172.75 281.819h-23.429v-34.171c0-4.143-3.357-7.5-7.5-7.5s-7.5 3.357-7.5 7.5v34.171h-96.143v-55.438c0-26.507 21.564-48.071 48.071-48.071 23.824 0 43.795 17.05 47.485 40.541.644 4.092 4.477 6.884 8.573 6.245 4.092-.643 6.888-4.481 6.245-8.573-2.308-14.688-9.809-28.153-21.122-37.914-40.559-34.99-104.253-6.243-104.253 47.772v55.438h-23.177v-187.359c0-47.627 38.748-86.375 86.375-86.375s86.375 38.748 86.375 86.375zm0-240.37c-11.507-18.681-28.9-33.366-49.576-41.448h49.576zm150 233.74c0 3.655-2.975 6.63-6.63 6.63h-128.37v-140.51h135zm0-290.189h-70.375c-4.143 0-7.5 3.357-7.5 7.5s3.357 7.5 7.5 7.5h70.375v126.309h-135c0-1.581 0-122.233 0-126.309h34.625c4.143 0 7.5-3.357 7.5-7.5s-3.357-7.5-7.5-7.5h-34.625v-150.691h135z"/><path d="m254.38 238.5c-34.777 0-63.071 28.294-63.071 63.071 0 34.778 28.294 63.072 63.071 63.072s63.071-28.294 63.071-63.072c0-34.777-28.294-63.071-63.071-63.071zm0 111.144c-26.507 0-48.071-21.565-48.071-48.072s21.564-48.072 48.071-48.072 48.071 21.564 48.071 48.071-21.564 48.073-48.071 48.073z"/><path d="m254.38 260.251c-4.143 0-7.5 3.357-7.5 7.5v13.82c0 4.143 3.357 7.5 7.5 7.5s7.5-3.357 7.5-7.5v-13.82c0-4.143-3.358-7.5-7.5-7.5z"/><path d="m221.341 291.156c12.991 7.501 13.113 7.916 15.712 7.916 7.643 0 10.388-10.167 3.757-13.996l-11.969-6.91c-3.59-2.07-8.175-.843-10.245 2.745-2.072 3.587-.842 8.174 2.745 10.245z"/><path d="m233.31 305.076-11.969 6.91c-6.632 3.83-3.881 13.996 3.757 13.996 2.611 0 2.748-.431 15.712-7.916 3.587-2.071 4.816-6.658 2.745-10.245-2.072-3.588-6.66-4.814-10.245-2.745z"/><path d="m254.38 314.071c-4.143 0-7.5 3.357-7.5 7.5v13.82c0 4.143 3.357 7.5 7.5 7.5s7.5-3.357 7.5-7.5v-13.82c0-4.142-3.358-7.5-7.5-7.5z"/><path d="m287.419 311.986-11.969-6.91c-3.59-2.07-8.175-.843-10.245 2.745-2.071 3.587-.842 8.174 2.745 10.245 12.991 7.501 13.113 7.916 15.712 7.916 7.643 0 10.388-10.167 3.757-13.996z"/><path d="m279.919 278.166-11.969 6.91c-3.587 2.071-4.816 6.658-2.745 10.245 2.071 3.588 6.66 4.815 10.245 2.745l11.969-6.91c3.587-2.071 4.816-6.658 2.745-10.245-2.07-3.588-6.659-4.815-10.245-2.745z"/><path d="m56.063 271.25v35.712c0 4.143 3.357 7.5 7.5 7.5s7.5-3.357 7.5-7.5v-35.712c5.288-2.73 8.919-8.238 8.919-14.589 0-9.054-7.365-16.419-16.419-16.419s-16.42 7.365-16.42 16.419c.001 6.351 3.632 11.859 8.92 14.589z"/><path d="m100.196 271.25v35.712c0 4.143 3.357 7.5 7.5 7.5s7.5-3.357 7.5-7.5v-35.712c5.289-2.73 8.92-8.238 8.92-14.589 0-9.054-7.366-16.419-16.42-16.419s-16.419 7.365-16.419 16.419c0 6.351 3.631 11.859 8.919 14.589z"/><path d="m401.313 240.242c-17.124 0-22.771 23.125-7.5 31.008v35.712c0 4.143 3.357 7.5 7.5 7.5s7.5-3.357 7.5-7.5v-35.712c15.287-7.891 9.616-31.008-7.5-31.008z"/><path d="m437.946 271.25v35.712c0 4.143 3.357 7.5 7.5 7.5s7.5-3.357 7.5-7.5v-35.712c15.287-7.891 9.619-31.008-7.5-31.008-17.12 0-22.772 23.124-7.5 31.008z"/></svg>