
<svg width="503px" height="510px" viewBox="0 0 503 510" version="1.1" xmlns="http://www.w3.org/2000/svg" xmlns:xlink="http://www.w3.org/1999/xlink">
    <g id="Page-1" stroke="none" stroke-width="1" fill="none" fill-rule="evenodd">
        <g id="cathedral-(1)" fill="#605367" fill-rule="nonzero">
            <path d="M60.485,178.128 L104.774,178.128 C112.276,178.128 118.379,172.024 118.379,164.523 L118.379,96.736 C118.379,77.023 102.342,60.986 82.629,60.986 C62.916,60.986 46.879,77.023 46.879,96.736 L46.879,164.522 C46.88,172.024 52.983,178.128 60.485,178.128 Z M61.88,96.736 C61.88,85.295 71.189,75.986 82.63,75.986 C94.071,75.986 103.38,85.295 103.38,96.736 L103.38,163.128 L61.88,163.128 L61.88,96.736 Z" id="Shape"></path>
            <path d="M398.235,178.128 L442.524,178.128 C450.026,178.128 456.129,172.024 456.129,164.523 L456.129,96.736 C456.129,77.023 440.092,60.986 420.379,60.986 C400.666,60.986 384.629,77.023 384.629,96.736 L384.629,164.522 C384.63,172.024 390.733,178.128 398.235,178.128 Z M399.63,96.736 C399.63,85.295 408.939,75.986 420.38,75.986 C431.821,75.986 441.13,85.295 441.13,96.736 L441.13,163.128 L399.63,163.128 L399.63,96.736 Z" id="Shape"></path>
            <path d="M495.38,0 C491.237,0 487.88,3.357 487.88,7.5 L487.88,31.5 L465.38,31.5 L465.38,7.5 C465.38,3.357 462.023,0 457.88,0 C453.737,0 450.38,3.357 450.38,7.5 L450.38,31.5 L427.88,31.5 L427.88,7.5 C427.88,3.357 424.523,0 420.38,0 C416.237,0 412.88,3.357 412.88,7.5 L412.88,31.5 L390.38,31.5 L390.38,7.5 C390.38,3.357 387.023,0 382.88,0 C378.737,0 375.38,3.357 375.38,7.5 L375.38,31.5 L352.88,31.5 L352.88,7.5 C352.88,3.357 349.523,0 345.38,0 C341.237,0 337.88,3.357 337.88,7.5 L337.88,197.191 L315.13,197.191 L315.13,168.106 C315.13,163.963 311.773,160.606 307.63,160.606 C303.487,160.606 300.13,163.963 300.13,168.106 L300.13,197.191 L277.63,197.191 L277.63,168.106 C277.63,163.963 274.273,160.606 270.13,160.606 C265.987,160.606 262.63,163.963 262.63,168.106 L262.63,197.191 L240.13,197.191 L240.13,168.106 C240.13,163.963 236.773,160.606 232.63,160.606 C228.487,160.606 225.13,163.963 225.13,168.106 L225.13,197.191 L202.63,197.191 L202.63,168.106 C202.63,163.963 199.273,160.606 195.13,160.606 C190.987,160.606 187.63,163.963 187.63,168.106 L187.63,197.191 L165.13,197.191 C165.13,188.704 165.13,16.278 165.13,7.5 C165.13,3.357 161.773,0 157.63,0 C153.487,0 150.13,3.357 150.13,7.5 L150.13,31.5 L127.63,31.5 L127.63,7.5 C127.63,3.357 124.273,0 120.13,0 C115.987,0 112.63,3.357 112.63,7.5 L112.63,31.5 L90.13,31.5 L90.13,7.5 C90.13,3.357 86.773,0 82.63,0 C78.487,0 75.13,3.357 75.13,7.5 L75.13,31.5 L52.63,31.5 L52.63,7.5 C52.63,3.357 49.273,0 45.13,0 C40.987,0 37.63,3.357 37.63,7.5 L37.63,31.5 L15.13,31.5 L15.13,7.5 C15.13,3.357 11.773,0 7.63,0 C3.487,0 0.13,3.357 0.13,7.5 L0.13,487.38 C0.13,499.307 9.833,509.01 21.76,509.01 L481.25,509.01 C493.177,509.01 502.88,499.307 502.88,487.38 C502.88,480.336 502.88,10.87 502.88,7.5 C502.88,3.357 499.522,0 495.38,0 Z M150.13,338.5 L117.63,338.5 C113.487,338.5 110.13,341.857 110.13,346 C110.13,350.143 113.487,353.5 117.63,353.5 L150.13,353.5 L150.13,494.01 L21.76,494.01 C18.105,494.01 15.13,491.035 15.13,487.38 L15.13,353.5 L87.63,353.5 C91.773,353.5 95.13,350.143 95.13,346 C95.13,341.857 91.773,338.5 87.63,338.5 L15.13,338.5 L15.13,212.191 L150.13,212.191 L150.13,338.5 Z M150.13,197.191 L15.13,197.191 L15.13,46.5 L150.13,46.5 L150.13,197.191 Z M165.13,212.191 L214.706,212.191 C194.03,220.274 176.637,234.959 165.13,253.639 L165.13,212.191 Z M337.88,494.01 L314.451,494.01 L314.451,459.839 C314.451,455.696 311.094,452.339 306.951,452.339 C302.808,452.339 299.451,455.696 299.451,459.839 L299.451,494.01 L203.308,494.01 L203.308,438.572 C203.308,412.065 224.872,390.501 251.379,390.501 C275.203,390.501 295.174,407.551 298.864,431.042 C299.508,435.134 303.341,437.926 307.437,437.287 C311.529,436.644 314.325,432.806 313.682,428.714 C311.374,414.026 303.873,400.561 292.56,390.8 C252.001,355.81 188.307,384.557 188.307,438.572 L188.307,494.01 L165.13,494.01 L165.13,306.651 C165.13,259.024 203.878,220.276 251.505,220.276 C299.132,220.276 337.88,259.024 337.88,306.651 L337.88,494.01 Z M337.88,253.64 C326.373,234.959 308.98,220.274 288.304,212.192 L337.88,212.192 L337.88,253.64 Z M487.88,487.38 C487.88,491.035 484.905,494.01 481.25,494.01 L352.88,494.01 L352.88,353.5 L487.88,353.5 L487.88,487.38 Z M487.88,197.191 L417.505,197.191 C413.362,197.191 410.005,200.548 410.005,204.691 C410.005,208.834 413.362,212.191 417.505,212.191 L487.88,212.191 L487.88,338.5 L352.88,338.5 C352.88,336.919 352.88,216.267 352.88,212.191 L387.505,212.191 C391.648,212.191 395.005,208.834 395.005,204.691 C395.005,200.548 391.648,197.191 387.505,197.191 L352.88,197.191 L352.88,46.5 L487.88,46.5 L487.88,197.191 Z" id="Shape"></path>
            <path d="M251.38,238.5 C216.603,238.5 188.309,266.794 188.309,301.571 C188.309,336.349 216.603,364.643 251.38,364.643 C286.157,364.643 314.451,336.349 314.451,301.571 C314.451,266.794 286.157,238.5 251.38,238.5 L251.38,238.5 Z M251.38,349.644 C224.873,349.644 203.309,328.079 203.309,301.572 C203.309,275.065 224.873,253.5 251.38,253.5 C277.887,253.5 299.451,275.064 299.451,301.571 C299.451,328.078 277.887,349.644 251.38,349.644 L251.38,349.644 Z" id="Shape"></path>
            <path d="M251.38,260.251 C247.237,260.251 243.88,263.608 243.88,267.751 L243.88,281.571 C243.88,285.714 247.237,289.071 251.38,289.071 C255.523,289.071 258.88,285.714 258.88,281.571 L258.88,267.751 C258.88,263.608 255.522,260.251 251.38,260.251 Z" id="Path"></path>
            <path d="M218.341,291.156 C231.332,298.657 231.454,299.072 234.053,299.072 C241.696,299.072 244.441,288.905 237.81,285.076 L225.841,278.166 C222.251,276.096 217.666,277.323 215.596,280.911 C213.524,284.498 214.754,289.085 218.341,291.156 Z" id="Path"></path>
            <path d="M230.31,305.076 L218.341,311.986 C211.709,315.816 214.46,325.982 222.098,325.982 C224.709,325.982 224.846,325.551 237.81,318.066 C241.397,315.995 242.626,311.408 240.555,307.821 C238.483,304.233 233.895,303.007 230.31,305.076 Z" id="Path"></path>
            <path d="M251.38,314.071 C247.237,314.071 243.88,317.428 243.88,321.571 L243.88,335.391 C243.88,339.534 247.237,342.891 251.38,342.891 C255.523,342.891 258.88,339.534 258.88,335.391 L258.88,321.571 C258.88,317.429 255.522,314.071 251.38,314.071 Z" id="Path"></path>
            <path d="M284.419,311.986 L272.45,305.076 C268.86,303.006 264.275,304.233 262.205,307.821 C260.134,311.408 261.363,315.995 264.95,318.066 C277.941,325.567 278.063,325.982 280.662,325.982 C288.305,325.982 291.05,315.815 284.419,311.986 Z" id="Path"></path>
            <path d="M276.919,278.166 L264.95,285.076 C261.363,287.147 260.134,291.734 262.205,295.321 C264.276,298.909 268.865,300.136 272.45,298.066 L284.419,291.156 C288.006,289.085 289.235,284.498 287.164,280.911 C285.094,277.323 280.505,276.096 276.919,278.166 Z" id="Path"></path>
            <path d="M53.063,271.25 L53.063,306.962 C53.063,311.105 56.42,314.462 60.563,314.462 C64.706,314.462 68.063,311.105 68.063,306.962 L68.063,271.25 C73.351,268.52 76.982,263.012 76.982,256.661 C76.982,247.607 69.617,240.242 60.563,240.242 C51.509,240.242 44.143,247.607 44.143,256.661 C44.144,263.012 47.775,268.52 53.063,271.25 Z" id="Path"></path>
            <path d="M97.196,271.25 L97.196,306.962 C97.196,311.105 100.553,314.462 104.696,314.462 C108.839,314.462 112.196,311.105 112.196,306.962 L112.196,271.25 C117.485,268.52 121.116,263.012 121.116,256.661 C121.116,247.607 113.75,240.242 104.696,240.242 C95.642,240.242 88.277,247.607 88.277,256.661 C88.277,263.012 91.908,268.52 97.196,271.25 Z" id="Path"></path>
            <path d="M398.313,240.242 C381.189,240.242 375.542,263.367 390.813,271.25 L390.813,306.962 C390.813,311.105 394.17,314.462 398.313,314.462 C402.456,314.462 405.813,311.105 405.813,306.962 L405.813,271.25 C421.1,263.359 415.429,240.242 398.313,240.242 Z" id="Path"></path>
            <path d="M434.946,271.25 L434.946,306.962 C434.946,311.105 438.303,314.462 442.446,314.462 C446.589,314.462 449.946,311.105 449.946,306.962 L449.946,271.25 C465.233,263.359 459.565,240.242 442.446,240.242 C425.326,240.242 419.674,263.366 434.946,271.25 Z" id="Path"></path>
        </g>
    </g>
</svg>
