<?xml version="1.0" standalone="no"?>
<!DOCTYPE svg PUBLIC "-//W3C//DTD SVG 20010904//EN"
 "http://www.w3.org/TR/2001/REC-SVG-20010904/DTD/svg10.dtd">
<svg version="1.0" xmlns="http://www.w3.org/2000/svg"
 width="400.000000pt" height="400.000000pt" viewBox="0 0 400.000000 400.000000"
 preserveAspectRatio="xMidYMid meet">

<g transform="translate(0.000000,400.000000) scale(0.100000,-0.100000)"
fill="#000000" stroke="none">
<path d="M1521 3604 c-12 -15 -21 -29 -21 -33 0 -33 33 -159 55 -211 15 -36
36 -96 46 -135 27 -105 109 -338 124 -354 20 -20 45 -6 45 25 0 14 -11 63 -24
108 -14 44 -39 160 -56 256 -40 225 -66 329 -87 352 -23 26 -58 22 -82 -8z"/>
<path d="M2403 3623 c-29 -6 -41 -22 -57 -79 -8 -27 -34 -118 -59 -201 -47
-155 -84 -340 -86 -424 -1 -50 20 -72 45 -47 23 24 134 320 134 358 0 11 15
51 34 88 33 67 76 210 76 256 0 36 -38 58 -87 49z"/>
<path d="M2744 3378 c-21 -21 -36 -38 -31 -38 4 0 -2 -9 -12 -19 -25 -25 -63
-110 -54 -124 3 -5 1 -7 -4 -4 -6 4 -20 -20 -32 -56 -12 -34 -26 -69 -31 -78
-10 -19 6 -39 31 -39 21 0 32 29 22 56 -6 16 -5 17 9 6 14 -11 20 -5 46 40 16
29 39 62 51 72 20 19 31 63 11 51 -5 -3 -7 -11 -4 -19 3 -7 -2 -13 -11 -13
-17 0 -20 13 -5 22 6 3 10 11 10 16 0 6 -4 7 -10 4 -17 -10 -11 2 8 16 9 7 14
9 10 5 -4 -5 0 -15 10 -22 25 -19 34 -17 22 5 -7 13 -7 22 0 26 10 6 14 -1 11
-20 -1 -5 13 8 31 29 37 45 45 82 25 110 -10 14 -19 17 -33 11 -18 -8 -18 -9
3 -12 21 -4 41 -38 29 -50 -3 -4 -6 1 -6 10 0 10 -4 17 -10 17 -5 0 -18 8 -28
18 -17 17 -20 17 -58 -20z m76 -15 c0 -7 7 -16 15 -21 14 -7 13 -10 -4 -26
-13 -12 -21 -14 -26 -6 -3 6 -1 9 6 8 6 -2 14 3 16 10 3 7 -1 11 -9 10 -7 -2
-12 3 -10 10 2 11 -11 16 -31 13 -5 -1 -6 3 -2 9 3 5 1 10 -4 10 -6 0 -11 -5
-11 -12 0 -6 -3 -8 -7 -4 -5 4 0 14 11 21 14 11 22 11 37 2 10 -6 19 -17 19
-24z m-112 -80 c-6 -7 -16 -13 -22 -13 -6 0 -3 5 6 11 10 5 15 17 12 27 -5 14
-4 14 4 2 8 -10 8 -18 0 -27z m-20 -58 c-3 -3 -9 2 -12 12 -6 14 -5 15 5 6 7
-7 10 -15 7 -18z m-6 -45 c-5 -13 -3 -13 11 -2 8 8 13 21 10 30 -4 13 -3 14 5
3 6 -8 15 -10 23 -5 8 4 1 -6 -16 -22 -27 -28 -31 -29 -42 -15 -11 13 -12 10
-9 -19 2 -19 0 -44 -5 -55 -6 -15 -8 -16 -8 -4 -1 9 -8 22 -16 29 -8 7 -15 18
-15 24 0 6 8 2 16 -9 16 -19 16 -19 11 8 -2 15 0 30 4 33 5 3 9 17 9 32 0 24
1 25 14 7 8 -11 11 -26 8 -35z m-66 -87 c-4 -9 -1 -20 5 -24 6 -3 9 -13 7 -20
-3 -10 -9 -7 -17 9 -12 22 -9 52 5 52 3 0 3 -8 0 -17z"/>
<path d="M2568 2866 c-42 -13 -93 -31 -112 -40 -19 -9 -37 -16 -41 -16 -15 0
-221 -106 -235 -120 -3 -3 -26 -18 -51 -33 -25 -14 -72 -54 -103 -88 l-58 -62
-24 29 c-14 16 -32 39 -41 52 -19 27 -148 114 -253 169 -73 39 -156 69 -253
92 -91 21 -515 10 -600 -15 -17 -6 -18 -27 -12 -472 4 -257 8 -622 10 -812 2
-190 4 -369 4 -398 1 -62 15 -72 66 -48 61 29 143 39 270 31 181 -10 275 -37
395 -114 25 -16 68 -42 95 -57 28 -14 68 -40 91 -56 50 -36 180 -176 213 -229
12 -22 26 -39 30 -39 4 0 22 22 40 49 35 55 142 145 192 163 18 6 48 22 66 34
19 12 55 30 81 39 26 9 90 36 142 61 97 45 109 47 345 74 98 11 232 -5 328
-38 41 -14 49 -14 57 -2 5 8 7 17 4 21 -17 28 -19 284 -5 594 12 251 27 748
25 825 -1 30 -6 131 -10 225 l-9 170 -55 13 c-34 8 -142 15 -285 18 -220 4
-233 3 -307 -20z m-1112 -394 c46 -28 84 -84 84 -126 0 -22 -4 -26 -29 -26
-21 0 -36 9 -55 35 -49 64 -158 88 -211 47 -59 -46 -85 -103 -85 -185 0 -128
117 -216 229 -171 51 20 74 61 44 78 -10 6 -27 11 -38 12 -97 4 -95 3 -95 27
0 43 8 45 135 39 l120 -7 0 -130 0 -130 -35 0 c-31 0 -35 3 -38 28 l-3 27 -29
-20 c-35 -25 -110 -27 -195 -5 -75 19 -132 74 -163 158 -19 51 -21 66 -12 126
12 82 23 115 56 159 75 97 218 126 320 64z m254 -11 c6 -12 10 -104 10 -229
l0 -210 83 -6 c45 -3 98 -7 117 -9 33 -2 35 -4 35 -37 l0 -35 -140 -3 c-77 -1
-150 0 -162 3 -21 5 -21 7 -21 267 0 145 2 266 5 271 9 15 62 7 73 -12z m587
11 c14 -9 57 -91 105 -197 17 -38 41 -86 53 -105 12 -19 43 -77 70 -128 52
-101 51 -112 -8 -112 -25 0 -31 8 -67 86 l-39 86 -128 -4 -128 -3 -38 -77
c-34 -71 -40 -78 -66 -78 -17 0 -32 4 -35 9 -6 10 47 137 109 261 25 50 45 95
45 101 0 20 69 157 82 162 19 8 32 8 45 -1z m521 -25 c65 -30 148 -110 167
-162 25 -65 18 -194 -15 -258 -35 -69 -75 -87 -222 -100 -88 -8 -120 -8 -131
1 -14 12 -17 47 -33 396 -4 92 -2 131 6 136 6 4 50 7 98 7 66 0 97 -4 130 -20z
m-700 -794 c150 -285 184 -354 177 -362 -4 -3 -32 -7 -63 -7 -31 -1 -77 -9
-102 -18 -25 -10 -106 -26 -180 -36 -75 -10 -148 -24 -163 -29 -25 -10 -27 -9
-27 15 0 13 14 51 30 84 17 33 30 71 30 86 0 15 6 32 14 38 8 6 23 47 34 92
11 45 39 124 61 177 23 53 41 105 41 116 0 16 23 51 35 51 2 0 52 -93 113
-207z m-545 92 c66 -30 151 -114 169 -163 7 -20 13 -75 13 -122 0 -108 -29
-172 -95 -209 -56 -32 -272 -54 -294 -30 -24 24 -50 521 -29 542 3 4 46 7 95
7 74 0 98 -4 141 -25z m1092 5 c4 -6 -5 -25 -19 -43 -15 -18 -61 -83 -102
-146 l-76 -114 -1 -129 0 -130 -36 6 c-20 3 -41 6 -47 6 -7 0 -8 15 -3 48 4
26 8 79 8 118 1 63 -2 76 -29 115 -90 130 -126 182 -136 200 -6 10 -18 27 -27
37 -22 24 -13 32 35 32 34 0 42 -5 73 -47 19 -27 46 -70 60 -98 14 -27 34 -61
44 -74 l18 -24 38 58 c20 32 40 66 43 74 7 20 64 104 77 113 15 11 73 9 80 -2z"/>
<path d="M2232 2277 c-18 -45 -32 -85 -32 -89 0 -5 39 -8 86 -8 75 0 85 2 74
15 -6 8 -28 45 -47 82 -19 37 -38 71 -42 75 -4 4 -21 -29 -39 -75z"/>
<path d="M2660 2238 c0 -90 3 -180 6 -200 l7 -38 72 0 c40 0 86 5 104 11 43
15 78 78 86 155 7 55 5 66 -18 105 -15 24 -42 59 -60 77 -29 28 -45 35 -103
42 -38 5 -75 9 -81 10 -10 0 -13 -39 -13 -162z"/>
<path d="M1410 1533 c0 -93 3 -185 7 -207 l6 -38 87 4 c59 3 96 9 113 21 38
25 67 98 67 169 0 49 -5 67 -29 101 -53 77 -82 97 -152 107 -109 16 -99 33
-99 -157z"/>
<path d="M880 384 l0 -137 72 5 c59 5 75 10 90 28 27 33 23 76 -7 96 -23 15
-24 18 -10 34 16 18 20 57 7 77 -12 18 -59 33 -108 33 l-44 0 0 -136z m108 90
c12 -8 22 -19 22 -25 0 -18 -40 -49 -65 -49 -23 0 -25 4 -25 45 0 40 2 45 23
45 12 0 33 -7 45 -16z m20 -116 c36 -30 -3 -78 -63 -78 -23 0 -25 4 -25 43 0
24 3 47 7 51 9 8 63 -3 81 -16z"/>
<path d="M1189 497 c-47 -31 -61 -62 -56 -125 5 -75 44 -114 119 -119 41 -3
60 1 86 17 86 54 78 198 -13 236 -50 20 -97 17 -136 -9z m120 -21 c70 -37 65
-155 -8 -186 -64 -26 -131 20 -131 90 0 51 12 75 48 94 34 19 56 20 91 2z"/>
<path d="M1533 500 c-65 -39 -86 -107 -53 -174 48 -101 196 -102 243 -3 22 46
21 79 -3 126 -33 66 -122 91 -187 51z m140 -50 c49 -55 26 -140 -45 -162 -68
-20 -135 40 -122 112 15 88 106 116 167 50z"/>
<path d="M1820 385 c0 -125 2 -136 18 -133 13 2 18 16 22 63 3 37 10 60 17 60
6 0 30 -28 52 -62 28 -43 47 -63 61 -63 11 0 20 2 20 5 0 3 -23 40 -51 82
l-51 75 46 47 c51 51 55 61 27 61 -10 0 -39 -22 -65 -50 -26 -27 -49 -50 -51
-50 -2 0 -5 21 -7 47 -2 36 -7 49 -20 51 -16 3 -18 -8 -18 -133z"/>
<path d="M2095 495 c-47 -46 -30 -85 56 -128 54 -27 64 -61 24 -79 -21 -9 -32
-8 -62 6 -46 22 -65 7 -27 -23 47 -37 123 -22 144 29 17 41 -3 72 -66 103 -55
27 -67 50 -42 75 16 16 44 15 72 -3 21 -14 24 -14 29 -1 8 21 -30 46 -71 46
-22 0 -41 -8 -57 -25z"/>
<path d="M2320 385 c0 -111 3 -135 15 -135 10 0 15 16 17 63 l3 62 67 3 67 3
3 -63 c2 -50 6 -63 21 -66 15 -3 17 8 17 133 0 125 -2 136 -17 133 -14 -2 -19
-15 -21 -56 l-3 -52 -70 0 -69 0 0 55 c0 42 -3 55 -15 55 -13 0 -15 -22 -15
-135z"/>
<path d="M2683 502 c-48 -26 -67 -59 -67 -117 0 -83 50 -135 129 -135 83 0
139 56 137 137 -1 103 -107 164 -199 115z m128 -38 c52 -47 41 -137 -22 -169
-109 -57 -195 112 -91 178 32 21 85 16 113 -9z"/>
<path d="M2964 507 c-2 -7 -3 -67 -2 -132 3 -103 5 -120 20 -123 14 -3 17 6
20 55 l3 58 42 3 c31 2 48 10 63 29 11 14 20 32 20 39 0 29 -25 64 -53 74 -42
14 -107 13 -113 -3z m104 -33 c42 -29 22 -74 -35 -74 -32 0 -33 2 -33 38 0 21
3 42 7 45 11 12 37 8 61 -9z"/>
</g>
</svg>
