
<svg width="455px" height="419px" viewBox="0 0 455 419" version="1.1" xmlns="http://www.w3.org/2000/svg" xmlns:xlink="http://www.w3.org/1999/xlink">
    <g id="Page-1" stroke="none" stroke-width="1" fill="none" fill-rule="evenodd">
        <g id="toronto-hover" fill-rule="nonzero">
            <path d="M433.072,382.278 L433.072,341.088 L381.732,341.088 L381.732,381.99 L433.072,382.278 Z M7.5,384.399 L446.978,384.399 L446.978,409.898 L7.5,409.898 L7.5,384.399 Z" id="Shape" fill="#B3B3B3"></path>
            <path d="M107.192,83.658 L110.272,121.698 L87.272,121.698 L90.342,83.658 L107.192,83.658 Z M103.732,347.738 L103.732,382.278 L84.522,382.278 L90.602,158.788 L106.942,158.788 L111.872,340.178 C109.122,342.498 106.472,344.948 103.952,347.508 C103.872,347.588 103.792,347.658 103.732,347.738 L103.732,347.738 Z" id="Shape" fill="#CCCCCC"></path>
            <path d="M110.272,121.698 L110.512,121.698 C115.642,121.698 120.272,123.768 123.632,127.128 C126.982,130.488 129.062,135.118 129.062,140.238 C129.062,150.488 120.762,158.788 110.512,158.788 L87.022,158.788 C81.902,158.788 77.262,156.708 73.912,153.358 C70.4305985,149.8799 68.4767951,145.159108 68.482,140.238 C68.482,129.998 76.782,121.698 87.022,121.698 L110.272,121.698 L110.272,121.698 Z" id="Path" fill="#ED2E2E"></path>
            <path d="M97.912,153.358 C94.4305985,149.8799 92.4767951,145.159108 92.482,140.238 C92.482,130.084 100.646,121.849 110.767,121.711 C110.681,121.71 110.598,121.698 110.512,121.698 L87.022,121.698 C76.782,121.698 68.482,129.998 68.482,140.238 C68.482,145.368 70.562,149.998 73.912,153.358 C77.262,156.708 81.902,158.788 87.022,158.788 L110.512,158.788 C110.598,158.788 110.681,158.776 110.767,158.775 C105.939044,158.717205 101.325259,156.77299 97.912,153.358 L97.912,153.358 Z" id="Path" fill="#D82525"></path>
            <path d="M272.852,347.508 L103.952,347.508 C106.472,344.948 109.122,342.498 111.872,340.178 C132.522,322.718 159.232,312.198 188.402,312.198 C210.572,312.198 231.322,318.278 249.072,328.868 C257.759648,334.04398 265.75092,340.307955 272.852,347.508 L272.852,347.508 Z M273.062,347.728 L273.062,382.278 L103.732,382.278 L103.732,347.738 C103.792,347.658 103.872,347.588 103.952,347.508 L272.852,347.508 C272.932,347.588 273.002,347.648 273.062,347.728 Z" id="Shape" fill="#3B9DFF"></path>
            <path d="M211.912,314.528 C191.962,318.528 173.832,327.528 158.872,340.178 C156.122,342.498 153.472,344.948 150.952,347.508 L103.952,347.508 C106.472,344.948 109.122,342.498 111.872,340.178 C132.522,322.718 159.232,312.198 188.402,312.198 C196.452,312.198 204.312,312.998 211.912,314.528 L211.912,314.528 Z M150.952,347.508 C150.872,347.588 150.792,347.658 150.732,347.738 L150.732,382.278 L103.732,382.278 L103.732,347.738 C103.792,347.658 103.872,347.588 103.952,347.508 L150.952,347.508 Z" id="Shape" fill="#1E79C4"></path>
            <path d="M341.732,298.198 L341.732,382.278 L273.062,382.278 L273.062,347.728 L273.072,347.738 L273.062,347.508 L272.852,347.508 C265.75092,340.307955 257.759648,334.04398 249.072,328.868 L249.072,250.948 L341.732,250.948 L341.732,298.198 L341.732,298.198 Z" id="Path" fill="#E6E6E6"></path>
            <polygon id="Path" fill="#CCCCCC" points="381.732 250.948 381.732 382.278 341.732 382.278 341.732 250.948 289.072 250.948 289.072 214.728 381.732 214.728"></polygon>
            <path d="M331.782,29.858 C359.532,29.858 382.032,52.358 382.032,80.108 C382.032,107.858 359.532,130.358 331.782,130.358 C304.032,130.358 281.542,107.858 281.542,80.108 C281.542,52.358 304.032,29.858 331.782,29.858 Z" id="Path" fill="#FFD039"></path>
            <path d="M331.786,137.855 C363.628,137.855 389.533,111.95 389.533,80.107 C389.533,48.264 363.628,22.36 331.786,22.36 C299.943,22.36 274.038,48.265 274.038,80.108 C274.038,111.951 299.943,137.855 331.786,137.855 L331.786,137.855 Z M331.786,37.36 C355.357,37.36 374.533,56.536 374.533,80.108 C374.533,103.68 355.357,122.856 331.786,122.856 C308.215,122.856 289.038,103.68 289.038,80.108 C289.038,56.536 308.215,37.36 331.786,37.36 Z M7.5,389.776 L446.979,389.776 C451.122,389.776 454.479,386.418 454.479,382.276 C454.479,378.134 451.122,374.776 446.979,374.776 L440.569,374.776 L440.569,341.086 C440.569,336.943864 437.211136,333.586 433.069,333.586 L389.229,333.586 L389.229,214.726 C389.229,210.583864 385.871136,207.226 381.729,207.226 L342.899,207.226 L342.899,187.393 C342.899,183.251 339.542,179.893 335.399,179.893 C331.256,179.893 327.899,183.251 327.899,187.393 L327.899,207.226 L289.069,207.226 C284.926864,207.226 281.569,210.583864 281.569,214.726 L281.569,243.446 L249.069,243.446 C244.926864,243.446 241.569,246.803864 241.569,250.946 L241.569,316.375 C225.136,308.73 207.09,304.699 188.399,304.699 C163.304,304.699 139.368,311.96 118.972,325.463 L114.637,165.958 C127.046,163.977 136.561,153.201 136.561,140.242 C136.561,128.213 128.361,118.067 117.259,115.088 L114.671,83.05 C114.35627,79.1546283 111.103065,76.1538121 107.195,76.154 L106.271,76.154 L106.271,7.704 C106.271,3.562 102.914,0.204 98.771,0.204 C94.628,0.204 91.271,3.562 91.271,7.704 L91.271,76.155 L90.347,76.155 C86.4389346,76.1548121 83.1857295,79.1556283 82.871,83.051 L80.283,115.089 C69.181,118.068 60.981,128.214 60.981,140.243 C60.981,153.201 70.493,163.974 82.9,165.958 L77.22,374.776 L7.5,374.776 C3.357,374.776 0,378.134 0,382.276 C0,386.418 3.357,389.776 7.5,389.776 Z M111.231,374.776 L111.231,355.01 L265.565,355.01 L265.565,374.777 L111.231,374.777 L111.231,374.776 Z M425.568,348.586 L425.568,374.776 L389.228,374.776 L389.228,348.586 L425.568,348.586 Z M296.568,222.227 L374.228,222.227 L374.228,243.447 L363.061,243.447 C358.918,243.447 355.561,246.805 355.561,250.947 C355.561,255.089 358.918,258.447 363.061,258.447 L374.228,258.447 L374.228,267.947 L363.061,267.947 C358.918,267.947 355.561,271.305 355.561,275.447 C355.561,279.589 358.918,282.947 363.061,282.947 L374.228,282.947 L374.228,292.447 L363.061,292.447 C358.918,292.447 355.561,295.805 355.561,299.947 C355.561,304.089 358.918,307.447 363.061,307.447 L374.228,307.447 L374.228,316.947 L363.061,316.947 C358.918,316.947 355.561,320.305 355.561,324.447 C355.561,328.589 358.918,331.947 363.061,331.947 L374.228,331.947 L374.228,341.447 L363.061,341.447 C358.918,341.447 355.561,344.805 355.561,348.947 C355.561,353.089 358.918,356.447 363.061,356.447 L374.228,356.447 L374.228,374.777 L349.228,374.777 L349.228,250.947 C349.228,246.804864 345.870136,243.447 341.728,243.447 L296.568,243.447 L296.568,222.227 L296.568,222.227 Z M334.229,258.446 L334.229,268.369 L292.399,268.369 C288.256,268.369 284.899,271.727 284.899,275.869 C284.899,280.011 288.256,283.369 292.399,283.369 L334.229,283.369 L334.229,290.702 L292.399,290.702 C288.256,290.702 284.899,294.06 284.899,298.202 C284.899,302.344 288.256,305.702 292.399,305.702 L334.229,305.702 L334.229,313.035 L292.399,313.035 C288.256,313.035 284.899,316.393 284.899,320.535 C284.899,324.677 288.256,328.035 292.399,328.035 L334.229,328.035 L334.229,335.868 L292.399,335.868 C288.256,335.868 284.899,339.226 284.899,343.368 C284.899,347.51 288.256,350.868 292.399,350.868 L334.229,350.868 L334.229,374.775 L280.565,374.775 L280.565,347.415 C280.534952,344.933818 279.278198,342.62852 277.209,341.259 C272.349586,336.438467 267.110365,332.016547 261.542,328.036 L271.736,328.036 C275.879,328.036 279.236,324.678 279.236,320.536 C279.236,316.394 275.879,313.036 271.736,313.036 L256.569,313.036 L256.569,305.703 L271.736,305.703 C275.879,305.703 279.236,302.345 279.236,298.203 C279.236,294.061 275.879,290.703 271.736,290.703 L256.569,290.703 L256.569,283.37 L271.736,283.37 C275.879,283.37 279.236,280.012 279.236,275.87 C279.236,271.728 275.879,268.37 271.736,268.37 L256.569,268.37 L256.569,258.446 L334.229,258.446 L334.229,258.446 Z M252.484,340.01 L124.305,340.01 C142.913,326.814 165.088,319.7 188.398,319.7 C211.698,319.7 233.864,326.808 252.484,340.01 L252.484,340.01 Z M97.266,91.154 L100.276,91.154 L102.138,114.198 L95.404,114.198 L97.266,91.154 L97.266,91.154 Z M75.981,140.243 C75.981,134.153 80.936,129.199 87.026,129.199 L110.515,129.199 C116.605,129.199 121.559,134.154 121.559,140.243 C121.559,146.333 116.605,151.288 110.515,151.288 L87.026,151.288 C80.937,151.288 75.981,146.333 75.981,140.243 L75.981,140.243 Z M97.897,166.288 L99.639,166.288 L104.274,336.836 C102.674535,338.271863 101.111376,339.747662 99.586,341.262 C97.5180114,342.631458 96.2620853,344.935862 96.232,347.416 L96.231,374.776 L92.225,374.776 L97.897,166.288 Z M446.979,403.275 L7.5,403.275 C3.357,403.275 0,406.633 0,410.775 C0,414.917 3.357,418.275 7.5,418.275 L446.979,418.275 C451.121136,418.275 454.479,414.917136 454.479,410.775 C454.479,406.632864 451.121136,403.275 446.979,403.275 Z" id="Shape" fill="#000000"></path>
        </g>
    </g>
</svg>
