<svg xmlns="http://www.w3.org/2000/svg" viewBox="0 0 454.479 454.479" width="512" height="512"><path fill="#b3b3b3" d="M433.072 400.278v-41.19h-51.34v40.902M7.5 402.399h439.478v25.499H7.5z"/><path fill="#ccc" d="M107.192 101.658l3.08 38.04h-23l3.07-38.04zm-3.46 264.08v34.54h-19.21l6.08-223.49h16.34l4.93 181.39c-2.75 2.32-5.4 4.77-7.92 7.33-.08.08-.16.15-.22.23z"/><path d="M110.272 139.698h.24c5.13 0 9.76 2.07 13.12 5.43 3.35 3.36 5.43 7.99 5.43 13.11 0 10.25-8.3 18.55-18.55 18.55h-23.49c-5.12 0-9.76-2.08-13.11-5.43a18.518 18.518 0 0 1-5.43-13.12c0-10.24 8.3-18.54 18.54-18.54h23.25z" fill="#ed2e2e"/><path d="M97.912 171.358a18.518 18.518 0 0 1-5.43-13.12c0-10.154 8.164-18.389 18.285-18.527-.086-.001-.169-.013-.255-.013h-23.49c-10.24 0-18.54 8.3-18.54 18.54 0 5.13 2.08 9.76 5.43 13.12 3.35 3.35 7.99 5.43 13.11 5.43h23.49c.086 0 .169-.012.255-.013a18.488 18.488 0 0 1-12.855-5.417z" fill="#d82525"/><path d="M272.852 365.508h-168.9c2.52-2.56 5.17-5.01 7.92-7.33 20.65-17.46 47.36-27.98 76.53-27.98 22.17 0 42.92 6.08 60.67 16.67a118.81 118.81 0 0 1 23.78 18.64zm.21.22v34.55h-169.33v-34.54c.06-.08.14-.15.22-.23h168.9c.08.08.15.14.21.22z" fill="#3b9dff"/><path d="M211.912 332.528c-19.95 4-38.08 13-53.04 25.65-2.75 2.32-5.4 4.77-7.92 7.33h-47c2.52-2.56 5.17-5.01 7.92-7.33 20.65-17.46 47.36-27.98 76.53-27.98 8.05 0 15.91.8 23.51 2.33zm-60.96 32.98c-.08.08-.16.15-.22.23v34.54h-47v-34.54c.06-.08.14-.15.22-.23h47z" fill="#1e79c4"/><path d="M341.732 316.198v84.08h-68.67v-34.55l.01.01-.01-.23h-.21a118.81 118.81 0 0 0-23.78-18.64v-77.92h92.66v47.25z" fill="#e6e6e6"/><path fill="#ccc" d="M381.732 268.948v131.33h-40v-131.33h-52.66v-36.22h92.66z"/><path d="M331.782 47.858c27.75 0 50.25 22.5 50.25 50.25s-22.5 50.25-50.25 50.25-50.24-22.5-50.24-50.25 22.49-50.25 50.24-50.25z" fill="#ffd039"/><path d="M331.786 155.855c31.842 0 57.747-25.905 57.747-57.748S363.628 40.36 331.786 40.36c-31.843 0-57.748 25.905-57.748 57.748s25.905 57.747 57.748 57.747zm0-100.495c23.571 0 42.747 19.176 42.747 42.748s-19.176 42.748-42.747 42.748-42.748-19.176-42.748-42.748 19.177-42.748 42.748-42.748zM7.5 407.776h439.479c4.143 0 7.5-3.358 7.5-7.5s-3.357-7.5-7.5-7.5h-6.41v-33.69a7.5 7.5 0 0 0-7.5-7.5h-43.84v-118.86a7.5 7.5 0 0 0-7.5-7.5h-38.83v-19.833c0-4.142-3.357-7.5-7.5-7.5s-7.5 3.358-7.5 7.5v19.833h-38.83a7.5 7.5 0 0 0-7.5 7.5v28.72h-32.5a7.5 7.5 0 0 0-7.5 7.5v65.429c-16.433-7.645-34.479-11.676-53.17-11.676-25.095 0-49.031 7.261-69.427 20.764l-4.335-159.505c12.409-1.981 21.924-12.757 21.924-25.716 0-12.029-8.2-22.175-19.302-25.154l-2.588-32.038a7.5 7.5 0 0 0-7.476-6.896h-.924v-68.45c0-4.142-3.357-7.5-7.5-7.5s-7.5 3.358-7.5 7.5v68.451h-.924a7.5 7.5 0 0 0-7.476 6.896l-2.588 32.038c-11.102 2.979-19.302 13.125-19.302 25.154 0 12.958 9.512 23.731 21.919 25.715l-5.68 208.818H7.5c-4.143 0-7.5 3.358-7.5 7.5s3.357 7.5 7.5 7.5zm103.731-15V373.01h154.334v19.767H111.231zm314.337-26.19v26.19h-36.34v-26.19h36.34zm-129-126.359h77.66v21.22h-11.167c-4.143 0-7.5 3.358-7.5 7.5s3.357 7.5 7.5 7.5h11.167v9.5h-11.167c-4.143 0-7.5 3.358-7.5 7.5s3.357 7.5 7.5 7.5h11.167v9.5h-11.167c-4.143 0-7.5 3.358-7.5 7.5s3.357 7.5 7.5 7.5h11.167v9.5h-11.167c-4.143 0-7.5 3.358-7.5 7.5s3.357 7.5 7.5 7.5h11.167v9.5h-11.167c-4.143 0-7.5 3.358-7.5 7.5s3.357 7.5 7.5 7.5h11.167v18.33h-25v-123.83a7.5 7.5 0 0 0-7.5-7.5h-45.16v-21.22zm37.661 36.219v9.923h-41.83c-4.143 0-7.5 3.358-7.5 7.5s3.357 7.5 7.5 7.5h41.83v7.333h-41.83c-4.143 0-7.5 3.358-7.5 7.5s3.357 7.5 7.5 7.5h41.83v7.333h-41.83c-4.143 0-7.5 3.358-7.5 7.5s3.357 7.5 7.5 7.5h41.83v7.833h-41.83c-4.143 0-7.5 3.358-7.5 7.5s3.357 7.5 7.5 7.5h41.83v23.907h-53.664v-27.36a7.491 7.491 0 0 0-3.356-6.156 127.666 127.666 0 0 0-15.667-13.223h10.194c4.143 0 7.5-3.358 7.5-7.5s-3.357-7.5-7.5-7.5h-15.167v-7.333h15.167c4.143 0 7.5-3.358 7.5-7.5s-3.357-7.5-7.5-7.5h-15.167v-7.333h15.167c4.143 0 7.5-3.358 7.5-7.5s-3.357-7.5-7.5-7.5h-15.167v-9.923h77.66zm-81.745 81.564H124.305c18.608-13.196 40.783-20.31 64.093-20.31 23.3 0 45.466 7.108 64.086 20.31zM97.266 109.154h3.01l1.862 23.044h-6.734l1.862-23.044zm-21.285 49.089c0-6.09 4.955-11.044 11.045-11.044h23.489c6.09 0 11.044 4.955 11.044 11.044 0 6.09-4.954 11.045-11.044 11.045H87.026c-6.089 0-11.045-4.955-11.045-11.045zm21.916 26.045h1.742l4.635 170.548a128.403 128.403 0 0 0-4.688 4.426 7.49 7.49 0 0 0-3.354 6.154l-.001 27.36h-4.006l5.672-208.488zm349.082 236.987H7.5c-4.143 0-7.5 3.358-7.5 7.5s3.357 7.5 7.5 7.5h439.479a7.5 7.5 0 0 0 0-15z" fill="#333"/></svg>