<svg xmlns="http://www.w3.org/2000/svg" viewBox="0 0 512 512"><path fill="#605367" d="M373.778 45.468c-35.873 0-65.057 29.184-65.057 65.057 0 35.873 29.184 65.056 65.057 65.056 35.872 0 65.056-29.184 65.056-65.057 0-35.873-29.184-65.056-65.056-65.056zm0 113.215c-26.554 0-48.158-21.603-48.158-48.158s21.604-48.158 48.158-48.158c26.554 0 48.157 21.603 48.157 48.158.001 26.555-21.602 48.158-48.157 48.158zm129.773 283.805h-7.221v-37.954a8.449 8.449 0 0 0-8.449-8.449h-49.389V262.181a8.449 8.449 0 0 0-8.449-8.449h-43.745v-22.343c0-4.666-3.782-8.449-8.449-8.449s-8.449 3.783-8.449 8.449v22.343h-43.745a8.449 8.449 0 0 0-8.449 8.449v32.355h-36.613a8.449 8.449 0 0 0-8.449 8.449v73.71c-18.513-8.613-38.843-13.154-59.899-13.154-28.271 0-55.237 8.18-78.214 23.392l-4.884-179.693c13.979-2.232 24.699-14.372 24.699-28.971 0-13.551-9.238-24.982-21.745-28.338l-2.916-36.093a8.448 8.448 0 0 0-8.422-7.769h-1.041V28.957c0-4.666-3.782-8.449-8.449-8.449s-8.449 3.783-8.449 8.449v77.115h-1.041a8.45 8.45 0 0 0-8.422 7.769l-2.916 36.093C77.938 153.29 68.7 164.72 68.7 178.272c0 14.598 10.716 26.735 24.693 28.97l-6.399 235.247H8.449A8.449 8.449 0 0 0 0 450.938a8.449 8.449 0 0 0 8.449 8.449h495.102a8.449 8.449 0 0 0 8.449-8.449 8.449 8.449 0 0 0-8.449-8.45zm-291.308-62.047c26.249 0 51.22 8.008 72.197 22.881H140.038c20.963-14.867 45.944-22.881 72.205-22.881zM109.576 122.969h3.391l2.098 25.961h-7.586l2.097-25.961zm2.614 281.763a8.443 8.443 0 0 0-3.779 6.933l-.001 30.823h-4.513l6.39-234.875h1.962l5.222 192.133a145.665 145.665 0 0 0-5.281 4.986zM98.04 190.714c-6.86 0-12.443-5.582-12.443-12.443s5.582-12.442 12.443-12.442h26.461c6.861 0 12.442 5.582 12.442 12.442 0 6.861-5.581 12.443-12.442 12.443H98.04zm201.136 251.775H125.309V420.22h173.867v22.269zm77.355-119.876h-47.124a8.449 8.449 0 0 0-8.449 8.449 8.449 8.449 0 0 0 8.449 8.449h47.124v8.261h-47.124a8.449 8.449 0 0 0-8.449 8.449 8.449 8.449 0 0 0 8.449 8.449h47.124v8.261h-47.124a8.449 8.449 0 0 0-8.449 8.449 8.449 8.449 0 0 0 8.449 8.449h47.124v8.824h-47.124a8.449 8.449 0 0 0-8.449 8.449 8.449 8.449 0 0 0 8.449 8.449h47.124v26.933h-60.456v-30.823a8.438 8.438 0 0 0-3.781-6.935 143.922 143.922 0 0 0-17.65-14.897h11.484a8.449 8.449 0 0 0 8.449-8.449 8.449 8.449 0 0 0-8.449-8.449h-17.087v-8.261h17.087a8.449 8.449 0 0 0 8.449-8.449 8.449 8.449 0 0 0-8.449-8.449h-17.087v-8.261h17.087a8.449 8.449 0 0 0 8.449-8.449 8.449 8.449 0 0 0-8.449-8.449h-17.087v-11.179h87.489v11.179zm45.061-28.076h-12.58a8.449 8.449 0 0 0-8.449 8.449 8.449 8.449 0 0 0 8.449 8.449h12.58v10.702h-12.58a8.449 8.449 0 0 0-8.449 8.449 8.449 8.449 0 0 0 8.449 8.449h12.58v10.702h-12.58a8.449 8.449 0 0 0-8.449 8.449 8.449 8.449 0 0 0 8.449 8.449h12.58v10.702h-12.58a8.449 8.449 0 0 0-8.449 8.449 8.449 8.449 0 0 0 8.449 8.449h12.58v10.702h-12.58a8.449 8.449 0 0 0-8.449 8.449 8.449 8.449 0 0 0 8.449 8.449h12.58v20.65h-28.164V302.986a8.449 8.449 0 0 0-8.449-8.449h-50.876v-23.906h87.489v23.906zm57.838 147.951h-40.939v-29.505h40.939v29.505zm24.121 32.106H8.449A8.449 8.449 0 0 0 0 483.043a8.449 8.449 0 0 0 8.449 8.449h495.102a8.45 8.45 0 0 0 0-16.898z"/></svg>