<svg height="512" viewBox="0 0 512 512" width="512" xmlns="http://www.w3.org/2000/svg"><path fill="#605367" d="m312 264a56 56 0 1 0 -56 56 56.063 56.063 0 0 0 56-56zm-56 40a40 40 0 1 1 40-40 40.047 40.047 0 0 1 -40 40z"/><path fill="#605367" d="m344 184v8h-16v-40a8 8 0 0 0 -8-8 8 8 0 0 0 -8 8v8h-3.055l-12.945-25.891v-78.109a8 8 0 0 0 -8-8 8 8 0 0 0 -8 8v14.109l-16-32v-14.109a8 8 0 0 0 -8-8 8 8 0 0 0 -8 8v14.109l-16 32v-14.109a8 8 0 0 0 -8-8 8 8 0 0 0 -8 8v78.109l-12.945 25.891h-3.055v-8a8 8 0 0 0 -8-8 8 8 0 0 0 -8 8v40h-16v-8a8 8 0 0 0 -8-8 8 8 0 0 0 -8 8v144a8 8 0 0 0 8 8h8v24a8 8 0 0 0 8 8h8v128h16v-128h112v128h16v-128h8a8 8 0 0 0 8-8v-24h8a8 8 0 0 0 8-8v-144a8 8 0 0 0 -8-8 8 8 0 0 0 -8 8zm-80 152v16h-16v-16zm16 0h16v16h-16zm-24-16h-56v-112h112v112zm-24-208h48v16h-48zm24-54.113 19.055 38.113h-38.11zm-27.055 86.113h54.11l8 16h-70.11zm83.055 32v16h-112v-16zm-144 32h16v112h-16zm16 144v-16h16v16zm32-16h16v16h-16zm112 16h-16v-16h16zm16-32h-16v-112h16z"/><path fill="#605367" d="m216 496h16v-104a8 8 0 0 0 -8-8 8 8 0 0 0 -8 8z"/><path fill="#605367" d="m248 496h16v-104a8 8 0 0 0 -8-8 8 8 0 0 0 -8 8z"/><path fill="#605367" d="m280 496h16v-104a8 8 0 0 0 -8-8 8 8 0 0 0 -8 8z"/><path fill="#605367" d="m280 240a8 8 0 0 0 -11.312 0l-12.688 12.688-4.688-4.688a8 8 0 0 0 -11.312 0 8 8 0 0 0 0 11.312l10.344 10.344a8 8 0 0 0 11.312 0l18.344-18.344a8 8 0 0 0 0-11.312z"/></svg>
