<svg id="Capa_1" enable-background="new 0 0 512 512" height="512" viewBox="0 0 512 512" width="512" xmlns="http://www.w3.org/2000/svg"><path d="m382 121h40v310h-40z" fill="#ff6977" transform="matrix(-1 0 0 -1 804 552)"/><path d="m352 431h100v40h-100z" fill="#98a1b3" transform="matrix(-1 0 0 -1 804 902)"/><g fill="#ff6977"><path d="m422 331h80v40h-80z" transform="matrix(-1 0 0 -1 924 702)"/><path d="m130 331h252v40h-252z" transform="matrix(-1 0 0 -1 512 702)"/><path d="m90 121h40v310h-40z"/></g><path d="m60 431h100v40h-100z" fill="#98a1b3"/><path d="m10 331h80v40h-80z" fill="#ff6977"/><path d="m402 51c5.51 0 10-4.49 10-10s-4.49-10-10-10-10 4.49-10 10 4.49 10 10 10z"/><path d="m110 51c5.51 0 10-4.49 10-10s-4.49-10-10-10-10 4.49-10 10 4.49 10 10 10z"/><path d="m505.601 248.317c-13.642-5.266-26.022-13.007-36.799-23.007-23.388-21.704-36.802-52.433-36.802-84.31v-20c0-5.522-4.477-10-10-10h-10v-30c0-5.51-4.49-10-10-10s-10 4.49-10 10v30h-10c-5.523 0-10 4.478-10 10v20c0 62.237-51.31 114.746-113.664 116.001-64.144 1.292-118.336-51.996-118.336-116.001v-20c0-5.522-4.477-10-10-10h-10v-30c0-5.51-4.49-10-10-10s-10 4.49-10 10v30h-10c-5.523 0-10 4.478-10 10v20c0 31.877-13.414 62.606-36.802 84.311-10.776 10-23.157 17.741-36.799 23.007-3.856 1.488-6.399 5.196-6.399 9.328v113.354c0 5.522 4.477 10 10 10h70v40h-20c-5.523 0-10 4.478-10 10v40c0 5.522 4.477 10 10 10h100c5.523 0 10-4.478 10-10v-40c0-5.522-4.477-10-10-10h-20v-40h232v40h-20c-5.523 0-10 4.478-10 10v40c0 5.522 4.477 10 10 10h100c5.523 0 10-4.478 10-10v-40c0-5.522-4.477-10-10-10h-20v-40h70c5.523 0 10-4.478 10-10v-113.354c0-4.132-2.543-7.84-6.399-9.329zm-13.601 72.683h-20v-67.731c6.334 4.242 13.012 7.932 20 11.048zm-40-84.097v84.097h-20v-109.363c5.601 9.134 12.299 17.631 20 25.266zm-80 84.097h-20v-83.682c7.7-7.682 14.399-16.228 20-25.405zm-40 0h-20v-56.031c6.987-3.156 13.666-6.887 20-11.166zm-40 0h-26v-44.36c8.828-.64 17.516-2.13 26-4.456zm-46 0h-26v-48.816c8.484 2.326 17.172 3.816 26 4.456zm-46 0h-20v-67.197c6.334 4.279 13.013 8.01 20 11.166zm-40-83.682v83.682h-20v-109.087c5.601 9.178 12.3 17.724 20 25.405zm-80 83.682h-20v-84.097c7.701-7.636 14.399-16.132 20-25.267zm-60-56.684c6.988-3.116 13.666-6.806 20-11.048v67.732h-20zm0 96.684v-20h60v20zm130 100h-80v-20h80zm-50-40v-290h20v290zm40-60v-20h232v20zm302 100h-80v-20h80zm-50-40v-290h20v290zm100-60h-60v-20h60z"/></svg>
