<svg height="512" viewBox="0 0 512 512" width="512" xmlns="http://www.w3.org/2000/svg"><g id="filled_outline" data-name="filled outline"><path d="m256 40-32 64v8h64v-8z" fill="#8c6847"/><path d="m192 496v-152h128v152" fill="#f1b355"/><path d="m200 480c-2.7 0-5.341-.239-8-.4v16.4h128v-99.8a127.925 127.925 0 0 1 -120 83.8z" fill="#f1a531"/><path d="m224 104h64v40h-64z" fill="#f6c869"/><path d="m224 128h64v16h-64z" fill="#f6bc44"/><path d="m288 136h-64l-16 32v16h96v-16z" fill="#694626"/><path d="m212 160-4 8v16h96v-16l-4-8z" fill="#4f2e11"/><path d="m192 168h128v40h-128z" fill="#f09c57"/><path d="m192 352h128v16h-128z" fill="#f1a531"/><path d="m176 296h160v64h-160z" fill="#e37c55"/><path d="m176 304h160v32h-160z" fill="#e36333"/><path d="m160 200h192v128h-192z" fill="#f09c57"/><g fill="#f08833"><path d="m184 200h16v128h-16z"/><path d="m312 200h16v128h-16z"/><path d="m192 192h128v16h-128z"/></g><path d="m242.667 96a47.946 47.946 0 0 1 -13.667-2l-5 10v8h64v-8l-11.158-22.316a47.839 47.839 0 0 1 -34.175 14.316z" fill="#694626"/><path d="m192 200h128v128h-128z" fill="#f1b355"/><path d="m311.6 200a127.8 127.8 0 0 1 -119.6 119.6v8.4h128v-128z" fill="#f1a531"/><circle cx="256" cy="264" fill="#fff5cb" r="48"/><path d="m237.352 308.241a48.023 48.023 0 0 0 62.889-62.889 128.3 128.3 0 0 1 -62.889 62.889z" fill="#ffeea5"/><path d="m312 264a56 56 0 1 0 -56 56 56.063 56.063 0 0 0 56-56zm-56 40a40 40 0 1 1 40-40 40.047 40.047 0 0 1 -40 40z"/><path d="m344 184v8h-16v-40a8 8 0 0 0 -8-8 8 8 0 0 0 -8 8v8h-3.055l-12.945-25.891v-78.109a8 8 0 0 0 -8-8 8 8 0 0 0 -8 8v14.109l-16-32v-14.109a8 8 0 0 0 -8-8 8 8 0 0 0 -8 8v14.109l-16 32v-14.109a8 8 0 0 0 -8-8 8 8 0 0 0 -8 8v78.109l-12.945 25.891h-3.055v-8a8 8 0 0 0 -8-8 8 8 0 0 0 -8 8v40h-16v-8a8 8 0 0 0 -8-8 8 8 0 0 0 -8 8v144a8 8 0 0 0 8 8h8v24a8 8 0 0 0 8 8h8v128h16v-128h112v128h16v-128h8a8 8 0 0 0 8-8v-24h8a8 8 0 0 0 8-8v-144a8 8 0 0 0 -8-8 8 8 0 0 0 -8 8zm-80 152v16h-16v-16zm16 0h16v16h-16zm-24-16h-56v-112h112v112zm-24-208h48v16h-48zm24-54.113 19.055 38.113h-38.11zm-27.055 86.113h54.11l8 16h-70.11zm83.055 32v16h-112v-16zm-144 32h16v112h-16zm16 144v-16h16v16zm32-16h16v16h-16zm112 16h-16v-16h16zm16-32h-16v-112h16z"/><path d="m216 496h16v-104a8 8 0 0 0 -8-8 8 8 0 0 0 -8 8z"/><path d="m248 496h16v-104a8 8 0 0 0 -8-8 8 8 0 0 0 -8 8z"/><path d="m280 496h16v-104a8 8 0 0 0 -8-8 8 8 0 0 0 -8 8z"/><path d="m280 240a8 8 0 0 0 -11.312 0l-12.688 12.688-4.688-4.688a8 8 0 0 0 -11.312 0 8 8 0 0 0 0 11.312l10.344 10.344a8 8 0 0 0 11.312 0l18.344-18.344a8 8 0 0 0 0-11.312z"/></g></svg>