<svg xmlns="http://www.w3.org/2000/svg" width="604" height="129" viewBox="0 0 604 129">
  <g fill="none">
    <path fill="#FFF" d="M213.2,74.3 L209.6,84.5 L209.3,84.5 C208.7,82.2 207.6,78.7 205.8,74.5 L186.5,26 L167.6,26 L167.6,103.3 L180.1,103.3 L180.1,55.6 C180.1,52.6 180.1,49.2 180,45 C179.9,42.9 179.7,41.3 179.6,40.1 L179.9,40.1 C180.5,43.1 181.2,45.3 181.7,46.7 L204.9,103.1 L213.7,103.1 L236.7,46.2 C237.2,44.9 237.7,42.3 238.2,40.1 L238.5,40.1 C238.2,45.8 238,50.9 237.9,54 L237.9,103 L251.2,103 L251.2,25.8 L233,25.8 L213.2,74.3 L213.2,74.3 Z M263.8,47.6 L276.8,47.6 L276.8,103 L263.8,103 L263.8,47.6 Z M270.4,24.2 C268.2,24.2 266.4,25 264.9,26.4 C263.4,27.8 262.6,29.6 262.6,31.8 C262.6,33.9 263.4,35.7 264.9,37.1 C266.4,38.5 268.2,39.2 270.4,39.2 C272.6,39.2 274.5,38.4 275.9,37.1 C277.4,35.7 278.2,33.9 278.2,31.8 C278.2,29.7 277.4,27.9 275.9,26.4 C274.6,25 272.7,24.2 270.4,24.2 L270.4,24.2 Z M322.9,47.1 C320.5,46.6 318,46.3 315.6,46.3 C309.7,46.3 304.3,47.6 299.8,50.2 C295.3,52.8 291.7,56.4 289.4,60.9 C287,65.5 285.8,70.8 285.8,76.9 C285.8,82.2 287,86.9 289.3,91.2 C291.6,95.4 294.8,98.8 299.1,101.1 C303.2,103.4 308,104.6 313.4,104.6 C319.6,104.6 324.9,103.3 329.1,100.9 L329.2,100.8 L329.2,88.8 L328.7,89.2 C326.8,90.6 324.6,91.8 322.4,92.5 C320.1,93.3 318,93.7 316.2,93.7 C311,93.7 306.9,92.2 304,88.9 C301,85.7 299.5,81.3 299.5,75.8 C299.5,70.1 301,65.6 304.1,62.3 C307.2,59 311.3,57.3 316.3,57.3 C320.5,57.3 324.8,58.7 328.7,61.5 L329.2,61.9 L329.2,49.2 L329.1,49.1 C327.4,48.4 325.5,47.6 322.9,47.1 L322.9,47.1 Z M365.8,46.7 C362.6,46.7 359.6,47.7 357,49.8 C354.8,51.6 353.3,54.2 352,57.3 L351.9,57.3 L351.9,47.6 L338.9,47.6 L338.9,103 L351.9,103 L351.9,74.7 C351.9,69.9 352.9,65.9 355.1,63 C357.3,60 360.1,58.5 363.5,58.5 C364.7,58.5 365.9,58.8 367.4,59 C368.8,59.4 369.8,59.8 370.5,60.3 L371,60.7 L371,47.7 L370.7,47.6 C369.8,47 368,46.7 365.8,46.7 L365.8,46.7 Z M401.2,46.4 C392.1,46.4 384.8,49.1 379.7,54.4 C374.5,59.7 372,67 372,76.2 C372,84.8 374.6,91.8 379.6,96.9 C384.6,101.9 391.4,104.5 399.9,104.5 C408.8,104.5 415.9,101.8 421,96.4 C426.2,91 428.7,83.8 428.7,74.9 C428.7,66.1 426.3,59.1 421.4,54 C416.7,48.9 409.8,46.4 401.2,46.4 L401.2,46.4 Z M411.6,89 C409.2,92.1 405.4,93.6 400.7,93.6 C396,93.6 392.2,92.1 389.5,88.8 C386.8,85.7 385.5,81.2 385.5,75.5 C385.5,69.6 386.9,65.1 389.5,61.9 C392.2,58.7 395.9,57.1 400.6,57.1 C405.2,57.1 408.8,58.6 411.4,61.7 C414,64.8 415.4,69.3 415.4,75.2 C415.2,81.2 414.1,85.9 411.6,89 L411.6,89 Z M457.7,70.6 C453.6,68.9 451,67.6 449.8,66.5 C448.8,65.5 448.3,64.1 448.3,62.3 C448.3,60.8 448.9,59.3 450.4,58.3 C451.9,57.3 453.6,56.8 456.1,56.8 C458.3,56.8 460.6,57.2 462.8,57.8 C465,58.4 467,59.3 468.6,60.5 L469.1,60.9 L469.1,48.7 L468.8,48.6 C467.3,48 465.3,47.4 462.9,46.9 C460.5,46.5 458.3,46.3 456.5,46.3 C450.3,46.3 445.2,47.8 441.2,51.1 C437.2,54.2 435.3,58.4 435.3,63.3 C435.3,65.9 435.7,68.2 436.6,70.1 C437.5,72 438.8,73.8 440.6,75.3 C442.4,76.7 445,78.3 448.6,79.8 C451.6,81.1 453.9,82.1 455.3,82.9 C456.7,83.7 457.6,84.6 458.3,85.3 C458.8,86.1 459.1,87.1 459.1,88.4 C459.1,92.1 456.3,93.9 450.6,93.9 C448.4,93.9 446.1,93.5 443.4,92.6 C440.7,91.7 438.2,90.4 436.1,88.9 L435.6,88.5 L435.6,101.2 L435.9,101.3 C437.8,102.2 440.1,102.8 442.9,103.5 C445.7,104 448.2,104.4 450.4,104.4 C457.1,104.4 462.6,102.9 466.5,99.6 C470.5,96.4 472.6,92.3 472.6,87 C472.6,83.3 471.6,80 469.4,77.5 C466.5,75.1 462.9,72.6 457.7,70.6 L457.7,70.6 Z M506.9,46.4 C497.8,46.4 490.5,49.1 485.4,54.4 C480.3,59.7 477.7,67 477.7,76.2 C477.7,84.8 480.3,91.8 485.3,96.9 C490.3,101.9 497.1,104.5 505.6,104.5 C514.5,104.5 521.6,101.8 526.7,96.4 C531.9,91 534.4,83.8 534.4,74.9 C534.4,66.1 532,59.1 527.1,54 C522.4,48.9 515.5,46.4 506.9,46.4 L506.9,46.4 Z M517.2,89 C514.8,92.1 511,93.6 506.3,93.6 C501.5,93.6 497.8,92.1 495.1,88.8 C492.4,85.7 491.1,81.2 491.1,75.5 C491.1,69.6 492.5,65.1 495.1,61.9 C497.8,58.7 501.5,57.1 506.2,57.1 C510.7,57.1 514.4,58.6 517,61.7 C519.6,64.8 521,69.3 521,75.2 C521,81.2 519.7,85.9 517.2,89 L517.2,89 Z M603.9,58.3 L603.9,47.6 L590.8,47.6 L590.8,31.2 L590.4,31.3 L578,35 L577.7,35.1 L577.7,47.6 L558.1,47.6 L558.1,40.6 C558.1,37.4 558.9,34.9 560.3,33.3 C561.7,31.7 563.8,30.9 566.4,30.9 C568.2,30.9 570.1,31.3 572.2,32.2 L572.7,32.5 L572.7,21.2 L572.4,21.1 C570.6,20.5 568.2,20.1 565.1,20.1 C561.2,20.1 557.8,21 554.7,22.5 C551.6,24.2 549.3,26.5 547.6,29.6 C545.9,32.6 545,36 545,39.9 L545,47.6 L535.9,47.6 L535.9,58.2 L545,58.2 L545,103 L558.1,103 L558.1,58.3 L577.7,58.3 L577.7,86.8 C577.7,98.5 583.2,104.4 594.2,104.4 C596,104.4 597.9,104.1 599.7,103.8 C601.6,103.4 603,102.9 603.8,102.5 L603.9,102.4 L603.9,91.7 L603.4,92.1 C602.6,92.6 601.9,93 600.7,93.3 C599.7,93.6 598.8,93.7 598.1,93.7 C595.5,93.7 593.7,93.1 592.4,91.6 C591.2,90.2 590.6,87.9 590.6,84.5 L590.6,58.3 L603.9,58.3 L603.9,58.3 Z"/>
    <polygon fill="#F25022" points="0 0 61.3 0 61.3 61.3 0 61.3"/>
    <polygon fill="#7FBA00" points="67.7 0 129 0 129 61.3 67.7 61.3"/>
    <polygon fill="#00A4EF" points="0 67.7 61.3 67.7 61.3 129 0 129"/>
    <polygon fill="#FFB900" points="67.7 67.7 129 67.7 129 129 67.7 129"/>
  </g>
</svg>
