<?xml version="1.0" encoding="UTF-8"?>
<svg width="1180px" height="1180px" viewBox="0 0 1180 1180" version="1.1" 
    xmlns="http://www.w3.org/2000/svg" 
    xmlns:xlink="http://www.w3.org/1999/xlink">
    <g stroke="none" fill="none" fill-rule="evenodd">
        <g id="Group">
            <path d="M472.2,1088.2 C382.6,1088.2 330.6,1041.8 304.2,985.8 L395.4,930.6 C413,961.8 429,988.2 467.4,988.2 C504.2,988.2 527.4,973.8 527.4,917.8 L527.4,537 L639.4,537 L639.4,919.4 C639.4,1035.4 571.4,1088.2 472.2,1088.2 Z" id="Path" fill="#FFFFFF" fill-rule="nonzero"></path>
            <path d="M904.2,1088.2 C800.2,1088.2 733,1038.6 700.2,973.8 L791.4,921 C815.4,960.2 846.6,989 901.8,989 C948.2,989 977.8,965.8 977.8,933.8 C977.8,895.4 947.4,881.8 896.2,859.4 L868.2,847.4 C787.4,813 733.8,769.8 733.8,678.6 C733.8,594.6 797.8,530.6 897.8,530.6 C969,530.6 1020.2,555.4 1057,620.2 L969.8,676.2 C950.6,641.8 929.8,628.2 897.8,628.2 C865,628.2 844.2,649 844.2,676.2 C844.2,709.8 865,723.4 913,744.2 L941,756.2 C1036.2,797 1089.8,838.6 1089.8,932.2 C1089.8,1033 1010.6,1088.2 904.2,1088.2 Z" id="Path" fill="#FFFFFF" fill-rule="nonzero"></path>
        </g>
    </g>
</svg>
