<?xml version="1.0" encoding="UTF-8"?>
<svg width="202px" height="119px" viewBox="0 0 202 119" version="1.1" xmlns="http://www.w3.org/2000/svg" xmlns:xlink="http://www.w3.org/1999/xlink">
    <!-- Generator: Sketch 56.2 (81672) - https://sketch.com -->
    <title>Artboard</title>
    <desc>Created with Sketch.</desc>
    <g id="Artboard" stroke="none" stroke-width="1" fill="none" fill-rule="evenodd">
        <g id="Group" fill="#FFFFFF" fill-rule="nonzero">
            <path d="M47.232,100.688 L54.072,108.536 L47.376,114.08 L40.104,105.728 C36.72,107.312 32.904,108.248 28.8,108.248 C14.688,108.248 3.456,97.592 3.456,83.12 C3.456,68.648 14.688,57.992 28.8,57.992 C42.912,57.992 54.144,68.648 54.144,83.12 C54.144,90.104 51.552,96.224 47.232,100.688 Z M33.768,98.528 L27.936,91.832 L34.704,86.288 L40.896,93.416 C42.768,90.752 43.776,87.224 43.776,83.12 C43.776,73.976 37.728,66.992 28.8,66.992 C19.872,66.992 13.824,73.976 13.824,83.12 C13.824,92.264 19.872,99.248 28.8,99.248 C30.6,99.248 32.256,99.032 33.768,98.528 Z M69.048,108.248 C62.352,108.248 57.6,103.352 57.6,94.64 L57.6,76.928 L67.32,76.928 L67.32,93.992 C67.32,97.448 68.976,99.464 72.432,99.464 C76.32,99.464 78.48,97.232 78.48,93.344 L78.48,76.928 L88.2,76.928 L88.2,107.6 L78.48,107.6 L78.696,102.56 C76.824,106.232 73.296,108.248 69.048,108.248 Z M101.088,95.216 C102.024,98.384 104.616,100.184 109.008,100.184 C112.536,100.184 115.2,98.816 116.712,97.736 L122.256,103.712 C119.304,106.304 115.56,108.248 109.152,108.248 C98.208,108.248 91.152,101.624 91.152,92.192 C91.152,82.904 98.568,76.28 108.072,76.28 C119.088,76.28 125.064,84.488 124.344,95.216 L101.088,95.216 Z M100.944,89.6 L114.552,89.6 C114.12,86.216 111.96,84.2 108.144,84.2 C104.328,84.2 101.736,85.928 100.944,89.6 Z M136.224,95.216 C137.16,98.384 139.752,100.184 144.144,100.184 C147.672,100.184 150.336,98.816 151.848,97.736 L157.392,103.712 C154.44,106.304 150.696,108.248 144.288,108.248 C133.344,108.248 126.288,101.624 126.288,92.192 C126.288,82.904 133.704,76.28 143.208,76.28 C154.224,76.28 160.2,84.488 159.48,95.216 L136.224,95.216 Z M136.08,89.6 L149.688,89.6 C149.256,86.216 147.096,84.2 143.28,84.2 C139.464,84.2 136.872,85.928 136.08,89.6 Z M162.504,107.6 L162.504,76.928 L172.224,76.928 L172.08,82.472 C174.312,77.432 177.912,76.28 181.08,76.28 C183.096,76.28 184.608,76.856 185.832,77.504 L182.736,86.36 C181.512,85.784 180.36,85.424 178.992,85.424 C174.6,85.424 172.224,87.44 172.224,93.992 L172.224,107.6 L162.504,107.6 Z" id="Queer"></path>
        </g>
    </g>
</svg>