<svg height="512pt" viewBox="-8 0 512 512" width="512pt" xmlns="http://www.w3.org/2000/svg"><path d="m7.726562 10.300781h92.714844v30.90625h-92.714844zm0 0" fill="#bde8ff"/><path d="m487.789062 41.207031h-30.976562l-15.449219-15.453125 15.449219-15.453125h30.976562zm0 0" fill="#a1cbff"/><path d="m395.003906 10.300781h61.878906v30.90625h-61.878906zm0 0" fill="#bde8ff"/><path d="m395.035156 0-30.917968 72.113281 61.824218-30.90625v-41.207031zm0 0" fill="#ba0000"/><g fill="#dc0000"><path d="m333.226562 0-46.359374 87.566406 108.167968-46.359375v-41.207031zm0 0"/><path d="m69.539062 0v41.207031l139.074219 46.359375-46.359375-87.566406zm0 0"/><path d="m425.941406 41.207031v470.792969h-30.867187l-41.265625-279.570312 41.265625-191.222657zm0 0"/></g><path d="m395.035156 41.207031v470.792969h-61.773437l-41.265625-279.570312 41.265625-191.222657zm0 0" fill="#fe0000"/><path d="m69.46875 41.207031v470.792969h92.679688l41.261718-279.570312-41.261718-191.222657zm0 0" fill="#fe0000"/><path d="m333.261719 41.207031-85.539063 68.527344-85.46875-68.527344v-41.207031h171.007813zm0 0" fill="#4e4b44"/><path d="m162.253906 41.207031h171.007813v470.792969h-171.007813zm0 0" fill="#68645b"/><path d="m302.355469 388.839844-21.851563-21.855469-32.78125 32.78125-32.78125-32.78125-21.851562 21.855469 32.78125 32.777344-32.78125 32.78125 21.851562 21.851562 32.78125-32.777344 32.78125 32.777344 21.851563-21.851562-32.78125-32.78125zm0 0" fill="#fff"/><path d="m302.355469 243.824219-21.851563-21.855469-32.78125 32.78125-32.78125-32.78125-21.851562 21.855469 32.78125 32.78125-32.78125 32.777343 21.851562 21.855469 32.78125-32.78125 32.78125 32.78125 21.851563-21.855469-32.78125-32.777343zm0 0" fill="#fff"/><path d="m302.355469 98.808594-21.851563-21.851563-32.78125 32.777344-32.78125-32.777344-21.851562 21.851563 32.78125 32.78125-32.78125 32.777344 21.851562 21.855468 32.78125-32.78125 32.78125 32.78125 21.851563-21.855468-32.78125-32.777344zm0 0" fill="#fff"/><path d="m7.726562 51.507812c-4.265624 0-7.726562-3.457031-7.726562-7.726562v-36.054688c0-4.265624 3.460938-7.726562 7.726562-7.726562 4.265626 0 7.726563 3.460938 7.726563 7.726562v36.054688c0 4.269531-3.460937 7.726562-7.726563 7.726562zm0 0" fill="#a1cbff"/><path d="m487.789062 51.507812c-4.265624 0-7.726562-3.457031-7.726562-7.726562v-36.054688c0-4.265624 3.460938-7.726562 7.726562-7.726562 4.265626 0 7.726563 3.460938 7.726563 7.726562v36.054688c0 4.269531-3.460937 7.726562-7.726563 7.726562zm0 0" fill="#86adff"/></svg>