<?xml version="1.0" encoding="UTF-8"?>
<svg width="635px" height="579px" viewBox="0 0 635 579" version="1.1" xmlns="http://www.w3.org/2000/svg" xmlns:xlink="http://www.w3.org/1999/xlink">
    <!-- Generator: Sketch 51.3 (57544) - http://www.bohemiancoding.com/sketch -->
    <title>React-icon</title>
    <desc>Created with Sketch.</desc>
    <defs></defs>
    <g id="Page-1" stroke="none" stroke-width="1" fill="none" fill-rule="evenodd">
        <g id="React-icon" fill-rule="nonzero">
            <rect id="Rectangle" fill="#E9E5EF" x="0" y="0" width="635" height="579"></rect>
            <path d="M563.3,282.5 C563.3,250 522.6,219.2 460.2,200.1 C474.6,136.5 468.2,85.9 440,69.7 C433.5,65.9 425.9,64.1 417.6,64.1 L417.6,86.4 C422.2,86.4 425.9,87.3 429,89 C442.6,96.8 448.5,126.5 443.9,164.7 C442.8,174.1 441,184 438.8,194.1 C419.2,189.3 397.8,185.6 375.3,183.2 C361.8,164.7 347.8,147.9 333.7,133.2 C366.3,102.9 396.9,86.3 417.7,86.3 L417.7,64 C417.7,64 417.7,64 417.7,64 C390.2,64 354.2,83.6 317.8,117.6 C281.4,83.8 245.4,64.4 217.9,64.4 L217.9,86.7 C238.6,86.7 269.3,103.2 301.9,133.3 C287.9,148 273.9,164.7 260.6,183.2 C238,185.6 216.6,189.3 197,194.2 C194.7,184.2 193,174.5 191.8,165.2 C187.1,127 192.9,97.3 206.4,89.4 C209.4,87.6 213.3,86.8 217.9,86.8 L217.9,64.5 C217.9,64.5 217.9,64.5 217.9,64.5 C209.5,64.5 201.9,66.3 195.3,70.1 C167.2,86.3 160.9,136.8 175.4,200.2 C113.2,219.4 72.7,250.1 72.7,282.5 C72.7,315 113.4,345.8 175.8,364.9 C161.4,428.5 167.8,479.1 196,495.3 C202.5,499.1 210.1,500.9 218.5,500.9 C246,500.9 282,481.3 318.4,447.3 C354.8,481.1 390.8,500.5 418.3,500.5 C426.7,500.5 434.3,498.7 440.9,494.9 C469,478.7 475.3,428.2 460.8,364.8 C522.8,345.7 563.3,314.9 563.3,282.5 Z M433.1,215.8 C429.4,228.7 424.8,242 419.6,255.3 C415.5,247.3 411.2,239.3 406.5,231.3 C401.9,223.3 397,215.5 392.1,207.9 C406.3,210 420,212.6 433.1,215.8 Z M387.3,322.3 C379.5,335.8 371.5,348.6 363.2,360.5 C348.3,361.8 333.2,362.5 318,362.5 C302.9,362.5 287.8,361.8 273,360.6 C264.7,348.7 256.6,336 248.8,322.6 C241.2,309.5 234.3,296.2 228,282.8 C234.2,269.4 241.2,256 248.7,242.9 C256.5,229.4 264.5,216.6 272.8,204.7 C287.7,203.4 302.8,202.7 318,202.7 C333.1,202.7 348.2,203.4 363,204.6 C371.3,216.5 379.4,229.2 387.2,242.6 C394.8,255.7 401.7,269 408,282.4 C401.7,295.8 394.8,309.2 387.3,322.3 Z M419.6,309.3 C425,322.7 429.6,336.1 433.4,349.1 C420.3,352.3 406.5,355 392.2,357.1 C397.1,349.4 402,341.5 406.6,333.4 C411.2,325.4 415.5,317.3 419.6,309.3 Z M318.2,416 C308.9,406.4 299.6,395.7 290.4,384 C299.4,384.4 308.6,384.7 317.9,384.7 C327.3,384.7 336.6,384.5 345.7,384 C336.7,395.7 327.4,406.4 318.2,416 Z M243.8,357.1 C229.6,355 215.9,352.4 202.8,349.2 C206.5,336.3 211.1,323 216.3,309.7 C220.4,317.7 224.7,325.7 229.4,333.7 C234.1,341.7 238.9,349.5 243.8,357.1 Z M317.7,149 C327,158.6 336.3,169.3 345.5,181 C336.5,180.6 327.3,180.3 318,180.3 C308.6,180.3 299.3,180.5 290.2,181 C299.2,169.3 308.5,158.6 317.7,149 Z M243.7,207.9 C238.8,215.6 233.9,223.5 229.3,231.6 C224.7,239.6 220.4,247.6 216.3,255.6 C210.9,242.2 206.3,228.8 202.5,215.8 C215.6,212.7 229.4,210 243.7,207.9 Z M153.2,333.1 C117.8,318 94.9,298.2 94.9,282.5 C94.9,266.8 117.8,246.9 153.2,231.9 C161.8,228.2 171.2,224.9 180.9,221.8 C186.6,241.4 194.1,261.8 203.4,282.7 C194.2,303.5 186.8,323.8 181.2,343.3 C171.3,340.2 161.9,336.8 153.2,333.1 Z M207,476 C193.4,468.2 187.5,438.5 192.1,400.3 C193.2,390.9 195,381 197.2,370.9 C216.8,375.7 238.2,379.4 260.7,381.8 C274.2,400.3 288.2,417.1 302.3,431.8 C269.7,462.1 239.1,478.7 218.3,478.7 C213.8,478.6 210,477.7 207,476 Z M444.2,399.8 C448.9,438 443.1,467.7 429.6,475.6 C426.6,477.4 422.7,478.2 418.1,478.2 C397.4,478.2 366.7,461.7 334.1,431.6 C348.1,416.9 362.1,400.2 375.4,381.7 C398,379.3 419.4,375.6 439,370.7 C441.3,380.8 443.1,390.5 444.2,399.8 Z M482.7,333.1 C474.1,336.8 464.7,340.1 455,343.2 C449.3,323.6 441.8,303.2 432.5,282.3 C441.7,261.5 449.1,241.2 454.7,221.7 C464.6,224.8 474,228.2 482.8,231.9 C518.2,247 541.1,266.8 541.1,282.5 C541,298.2 518.1,318.1 482.7,333.1 Z" id="Shape" fill="#84729A"></path>
            <circle id="Oval" fill="#84729A" cx="317.9" cy="282.5" r="45.7"></circle>
        </g>
    </g>
</svg>