<?xml version="1.0" encoding="UTF-8"?>
<svg width="502px" height="512px" viewBox="0 0 502 512" version="1.1" xmlns="http://www.w3.org/2000/svg" xmlns:xlink="http://www.w3.org/1999/xlink">
    <!-- Generator: Sketch 53.2 (72643) - https://sketchapp.com -->
    <title>cologne (1)</title>
    <desc>Created with Sketch.</desc>
    <g id="Page-1" stroke="none" stroke-width="1" fill="none" fill-rule="evenodd">
        <g id="cologne-(1)" fill="#605367" fill-rule="nonzero">
            <path d="M56.133,306.953 L82.176,306.953 C92.184,306.953 100.326,298.811 100.326,288.803 L100.326,259.858 C100.326,242.67 86.342,228.687 69.154,228.687 C51.966,228.687 37.983,242.671 37.983,259.858 L37.983,288.803 C37.984,298.812 46.126,306.953 56.133,306.953 Z M52.985,259.859 C52.985,250.943 60.239,243.689 69.155,243.689 C78.071,243.689 85.325,250.943 85.325,259.859 L85.325,288.804 C85.325,290.54 83.912,291.952 82.176,291.952 L56.133,291.952 C54.397,291.952 52.985,290.54 52.985,288.804 L52.985,259.859 Z" id="Shape"></path>
            <path d="M401.674,259.859 L401.674,288.804 C401.674,298.812 409.816,306.954 419.824,306.954 L445.867,306.954 C455.875,306.954 464.017,298.812 464.017,288.804 L464.017,259.859 C464.017,242.671 450.034,228.688 432.846,228.688 C415.657,228.688 401.674,242.672 401.674,259.859 L401.674,259.859 Z M449.015,259.859 L449.015,288.804 C449.015,290.54 447.603,291.952 445.867,291.952 L419.824,291.952 C418.088,291.952 416.676,290.54 416.676,288.804 L416.676,259.859 C416.676,250.943 423.93,243.689 432.846,243.689 C441.762,243.689 449.015,250.943 449.015,259.859 L449.015,259.859 Z" id="Shape"></path>
            <path d="M181.713,298.353 C177.571,298.353 174.212,301.711 174.212,305.854 L174.212,319.168 C174.212,323.31 177.57,326.669 181.713,326.669 C185.855,326.669 189.214,323.311 189.214,319.168 L189.214,305.854 C189.213,301.711 185.855,298.353 181.713,298.353 Z" id="Path"></path>
            <path d="M320.287,326.669 C324.429,326.669 327.788,323.311 327.788,319.168 L327.788,305.854 C327.788,301.712 324.43,298.353 320.287,298.353 C316.145,298.353 312.786,301.711 312.786,305.854 L312.786,319.168 C312.787,323.31 316.145,326.669 320.287,326.669 Z" id="Path"></path>
            <path d="M251,334.594 C260.169,334.594 268.888,330.623 274.922,323.699 C277.643,320.576 277.318,315.838 274.195,313.116 C271.071,310.395 266.333,310.719 263.612,313.842 C260.428,317.496 255.831,319.592 251,319.592 C246.169,319.592 241.571,317.497 238.388,313.843 C235.667,310.72 230.928,310.394 227.805,313.116 C224.682,315.837 224.356,320.576 227.078,323.699 C233.112,330.623 241.831,334.594 251,334.594 Z" id="Path"></path>
            <path d="M493.677,512 C497.819,512 501.178,508.642 501.178,504.499 L501.178,397.74 C501.178,393.598 497.82,390.239 493.677,390.239 C489.535,390.239 486.176,393.597 486.176,397.74 L486.176,496.999 L464.016,496.999 L464.016,418.237 C464.016,401.049 450.033,387.065 432.845,387.065 C415.657,387.065 401.674,401.049 401.674,418.237 L401.674,496.999 L379.514,496.999 L379.514,189.907 L486.177,189.907 L486.177,367.874 C486.177,372.016 489.535,375.375 493.678,375.375 C497.82,375.375 501.179,372.017 501.179,367.874 L501.179,182.406 C501.179,181.769 501.045,180.826 500.839,180.167 L452.606,14.312 C447.098,-4.729 418.617,-4.812 413.085,14.312 L364.853,180.168 C364.672,180.732 364.513,181.626 364.513,182.407 L364.513,234.652 L272.835,98.727 C262.418,83.28 239.615,83.233 229.165,98.727 L137.488,234.652 L137.488,182.407 C137.488,181.303 137.17,180.269 137.148,180.169 L88.916,14.312 C83.43,-4.654 54.944,-4.871 49.395,14.312 L36.881,57.344 C35.724,61.321 38.011,65.484 41.989,66.641 C45.967,67.798 50.129,65.511 51.286,61.533 L63.739,18.709 C65.583,13.705 72.723,13.696 74.572,18.709 L119.995,174.906 L18.316,174.906 L42.94,90.23 C44.097,86.253 41.81,82.09 37.832,80.933 C33.855,79.776 29.692,82.063 28.535,86.041 L1.165,180.161 C0.958,180.81 0.822,181.769 0.822,182.406 L0.822,504.499 C0.822,508.642 4.18,512 8.323,512 L493.677,512 Z M416.675,418.237 C416.675,409.321 423.929,402.067 432.845,402.067 C441.761,402.067 449.015,409.321 449.015,418.237 L449.015,496.999 L416.675,496.999 L416.675,418.237 Z M15.823,189.907 L122.486,189.907 L122.486,496.999 L100.326,496.999 L100.326,418.237 C100.326,401.049 86.342,387.065 69.154,387.065 C51.966,387.065 37.983,401.049 37.983,418.237 L37.983,496.999 L15.823,496.999 L15.823,189.907 Z M52.985,496.999 L52.985,418.237 C52.985,409.321 60.239,402.067 69.155,402.067 C78.071,402.067 85.325,409.321 85.325,418.237 L85.325,496.999 L52.985,496.999 Z M137.488,266.686 L364.512,266.686 L364.512,496.999 L309.387,496.999 L309.387,422.456 C309.387,390.262 283.195,364.069 251,364.069 C218.805,364.069 192.613,390.261 192.613,422.456 L192.613,496.999 L137.488,496.999 L137.488,266.686 Z M207.614,496.999 L207.614,422.456 C207.614,398.533 227.077,379.071 251,379.071 C274.923,379.071 294.385,398.534 294.385,422.456 L294.385,496.999 L207.614,496.999 Z M427.429,18.709 C429.273,13.705 436.414,13.697 438.262,18.709 L483.685,174.906 L382.005,174.906 L427.429,18.709 Z M241.602,107.115 C246.086,100.467 255.9,100.446 260.398,107.115 L357.906,251.685 L144.093,251.685 L241.602,107.115 Z" id="Shape"></path>
        </g>
    </g>
</svg>