<svg id="Capa_1" enable-background="new 0 0 512 512" height="512" viewBox="0 0 512 512" width="512" xmlns="http://www.w3.org/2000/svg"><path d="m86.729 16.452c-4.117-11.936-20.997-11.936-25.114 0l-48.27 165.985 60.827 21.562 60.827-21.562z" fill="#5bd6fd"/><path d="m43.345 182.437 45.827-157.584-2.443-8.401c-4.117-11.936-20.997-11.936-25.114 0l-48.27 165.985 60.827 21.562 15-5.317z" fill="#0091e1"/><path d="m425.271 16.452c4.117-11.936 20.997-11.936 25.114 0l48.27 165.985-60.827 21.562-60.827-21.562z" fill="#5bd6fd"/><path d="m407.002 182.437 45.827-157.584-2.443-8.401c-4.117-11.936-20.997-11.936-25.114 0l-48.27 165.985 60.827 21.562 15-5.317z" fill="#0091e1"/><path d="m134.998 259.209 105.387-156.25c3.501-5.191 9.353-8.303 15.615-8.303 6.262 0 12.114 3.112 15.615 8.303l105.387 156.25-121.002 20.93z" fill="#5bd6fd"/><path d="m164.998 259.208 105.387-156.25c.197-.292.404-.575.615-.854-3.548-4.675-9.091-7.449-15-7.449-6.262 0-12.114 3.112-15.615 8.303l-105.387 156.25 121.002 20.931 15-2.594z" fill="#0091e1"/><path d="m377.002 259.209h-242.004l-26.312 122.645 26.312 122.646h70.12l51.883-18.129 49.881 18.129h70.12l28.314-127.65z" fill="#a19dae"/><path d="m164.998 259.208h-30l-26.312 122.646 26.312 122.646h30z" fill="#827f98"/><path d="m13.345 182.437v322.063h37.158l23.669-13.596 23.668 13.596h37.158v-322.063z" fill="#a19dae"/><path d="m13.345 182.437h30v322.063h-30z" fill="#827f98"/><path d="m498.655 182.437v322.063h-37.158l-23.669-13.596-23.668 13.596h-37.158v-322.063z" fill="#a19dae"/><path d="m377.002 182.437h30v322.063h-30z" fill="#827f98"/><path d="m74.172 236.214c-13.072 0-23.669 10.597-23.669 23.669v28.942c0 5.881 4.767 10.648 10.648 10.648h26.041c5.881 0 10.648-4.767 10.648-10.648v-28.942c0-13.072-10.597-23.669-23.668-23.669z" fill="#5bd6fd"/><path d="m97.84 504.5v-86.254c0-13.072-10.597-23.669-23.669-23.669s-23.669 10.597-23.669 23.669v86.254z" fill="#827f98"/><path d="m437.828 236.214c13.072 0 23.669 10.597 23.669 23.669v28.942c0 5.881-4.767 10.648-10.648 10.648h-26.041c-5.881 0-10.648-4.767-10.648-10.648v-28.942c0-13.072 10.597-23.669 23.668-23.669z" fill="#5bd6fd"/><path d="m414.16 504.5v-86.254c0-13.072 10.597-23.669 23.669-23.669s23.669 10.597 23.669 23.669v86.254z" fill="#827f98"/><path d="m256 371.583c-28.101 0-50.882 22.78-50.882 50.882v82.035h101.763v-82.036c.001-28.101-22.78-50.881-50.881-50.881z" fill="#827f98"/><path d="m61.133 306.953h26.043c10.008 0 18.15-8.142 18.15-18.15v-28.945c0-17.188-13.984-31.171-31.172-31.171s-31.171 13.984-31.171 31.171v28.945c.001 10.009 8.143 18.15 18.15 18.15zm-3.148-47.094c0-8.916 7.254-16.17 16.17-16.17s16.17 7.254 16.17 16.17v28.945c0 1.736-1.413 3.148-3.149 3.148h-26.043c-1.736 0-3.148-1.412-3.148-3.148z"/><path d="m406.674 259.859v28.945c0 10.008 8.142 18.15 18.15 18.15h26.043c10.008 0 18.15-8.142 18.15-18.15v-28.945c0-17.188-13.983-31.171-31.171-31.171-17.189 0-31.172 13.984-31.172 31.171zm47.341 0v28.945c0 1.736-1.412 3.148-3.148 3.148h-26.043c-1.736 0-3.148-1.412-3.148-3.148v-28.945c0-8.916 7.254-16.17 16.17-16.17s16.169 7.254 16.169 16.17z"/><path d="m186.713 298.353c-4.142 0-7.501 3.358-7.501 7.501v13.314c0 4.142 3.358 7.501 7.501 7.501 4.142 0 7.501-3.358 7.501-7.501v-13.314c-.001-4.143-3.359-7.501-7.501-7.501z"/><path d="m325.287 326.669c4.142 0 7.501-3.358 7.501-7.501v-13.314c0-4.142-3.358-7.501-7.501-7.501-4.142 0-7.501 3.358-7.501 7.501v13.314c.001 4.142 3.359 7.501 7.501 7.501z"/><path d="m256 334.594c9.169 0 17.888-3.971 23.922-10.895 2.721-3.123 2.396-7.861-.727-10.583-3.124-2.721-7.862-2.397-10.583.726-3.184 3.654-7.781 5.75-12.612 5.75s-9.429-2.095-12.612-5.749c-2.721-3.123-7.46-3.449-10.583-.727-3.123 2.721-3.449 7.46-.727 10.583 6.034 6.924 14.753 10.895 23.922 10.895z"/><path d="m13.323 512h485.354c4.142 0 7.501-3.358 7.501-7.501v-106.759c0-4.142-3.358-7.501-7.501-7.501-4.142 0-7.501 3.358-7.501 7.501v99.259h-22.16v-78.762c0-17.188-13.983-31.172-31.171-31.172s-31.171 13.984-31.171 31.172v78.762h-22.16v-307.092h106.663v177.967c0 4.142 3.358 7.501 7.501 7.501 4.142 0 7.501-3.358 7.501-7.501v-185.468c0-.637-.134-1.58-.34-2.239l-48.233-165.855c-5.508-19.041-33.989-19.124-39.521 0l-48.232 165.856c-.181.564-.34 1.458-.34 2.239v52.245l-91.678-135.925c-10.417-15.447-33.22-15.494-43.67 0l-91.677 135.925v-52.245c0-1.104-.318-2.138-.34-2.238l-48.232-165.857c-5.486-18.966-33.972-19.183-39.521 0l-12.514 43.032c-1.157 3.977 1.13 8.14 5.108 9.297s8.14-1.13 9.297-5.108l12.453-42.824c1.844-5.004 8.984-5.013 10.833 0l45.423 156.197h-101.679l24.624-84.676c1.157-3.977-1.13-8.14-5.108-9.297-3.977-1.157-8.14 1.13-9.297 5.108l-27.37 94.12c-.207.649-.343 1.608-.343 2.245v322.093c0 4.143 3.358 7.501 7.501 7.501zm408.352-93.763c0-8.916 7.254-16.17 16.17-16.17s16.17 7.254 16.17 16.17v78.762h-32.34zm-400.852-228.33h106.663v307.092h-22.16v-78.762c0-17.188-13.984-31.172-31.172-31.172s-31.171 13.984-31.171 31.172v78.762h-22.16zm37.162 307.092v-78.762c0-8.916 7.254-16.17 16.17-16.17s16.17 7.254 16.17 16.17v78.762zm84.503-230.313 227.024.001v230.312h-55.125v-74.543c0-32.194-26.192-58.387-58.387-58.387s-58.387 26.192-58.387 58.387v74.543h-55.125zm70.126 230.313v-74.543c0-23.923 19.463-43.385 43.386-43.385s43.385 19.463 43.385 43.385v74.543zm219.815-478.29c1.844-5.004 8.985-5.012 10.833 0l45.423 156.197h-101.68zm-185.827 88.406c4.484-6.648 14.298-6.669 18.796 0l97.508 144.57h-213.813z"/></svg>