<svg height="480pt" viewBox="0 0 480 480.00234" width="480pt" xmlns="http://www.w3.org/2000/svg"><path d="m240 36.003906c-2.429688 0-4.726562-1.105468-6.246094-3l-16-20c-2.761718-3.453125-2.203125-8.488281 1.246094-11.25 3.453125-2.761718 8.488281-2.203125 11.25 1.25l9.75 12.199219 9.753906-12.191406c2.761719-3.453125 7.796875-4.011719 11.246094-1.25 3.453125 2.761719 4.011719 7.796875 1.25 11.25l-16 20c-1.519531 1.894531-3.820312 2.992187-6.25 2.992187zm0 0" fill="#6b9777"/><path d="m232 16.003906h16v72h-16zm0 0" fill="#6b9777"/><path d="m448 200.003906h-416l-8-32h432zm0 0" fill="#b99f7c"/><path d="m48 248.003906h384v32h-384zm0 0" fill="#c7ab86"/><path d="m48 248.003906h384v8h-384zm0 0" fill="#b69d7b"/><path d="m450 192.003906 2-8h-424l2 8zm0 0" fill="#a89071"/><path d="m176 248.003906h32v192h-32zm0 0" fill="#e0c097"/><path d="m272 248.003906h32v192h-32zm0 0" fill="#e0c097"/><path d="m352 248.003906h32v192h-32zm0 0" fill="#e0c097"/><path d="m432 248.003906h32v192h-32zm0 0" fill="#e0c097"/><path d="m16 248.003906h32v192h-32zm0 0" fill="#e0c097"/><path d="m96 248.003906h32v192h-32zm0 0" fill="#e0c097"/><path d="m16 200.003906h448v48h-448zm0 0" fill="#e0c097"/><path d="m0 160.003906h480v16h-480zm0 0" fill="#b99f7c"/><path d="m176 136.003906h128v64h-128zm0 0" fill="#e0c097"/><path d="m8 440.003906h48v32h-48zm0 0" fill="#c7ab86"/><path d="m88 440.003906h48v32h-48zm0 0" fill="#c7ab86"/><path d="m168 440.003906h48v32h-48zm0 0" fill="#c7ab86"/><path d="m264 440.003906h48v32h-48zm0 0" fill="#c7ab86"/><path d="m344 440.003906h48v32h-48zm0 0" fill="#c7ab86"/><path d="m424 440.003906h48v32h-48zm0 0" fill="#c7ab86"/><path d="m264 200.003906h48v48h-48zm0 0" fill="#f3d0a4"/><path d="m360 200.003906h48v48h-48zm0 0" fill="#f3d0a4"/><path d="m72 200.003906h48v48h-48zm0 0" fill="#f3d0a4"/><path d="m168 200.003906h48v48h-48zm0 0" fill="#f3d0a4"/><path d="m269.707031 108.59375-13.707031 27.410156h-32l-13.703125-27.410156c-1.507813-3.015625-2.296875-6.34375-2.296875-9.71875 0-6.84375 3.222656-13.289062 8.695312-17.394531l23.304688-17.476563 23.304688 17.476563c5.476562 4.105469 8.695312 10.550781 8.695312 17.394531 0 3.375-.785156 6.703125-2.292969 9.71875zm0 0" fill="#85bc94"/><path d="m294.65625 140.441406-13.3125-8.878906 2.6875-4c7.820312-11.710938 11.988281-25.480469 11.96875-39.558594 0-4.417968 3.582031-8 8-8h16v16h-8.367188c-1.3125 14.449219-6.226562 28.339844-14.289062 40.40625zm0 0" fill="#85bc94"/><path d="m185.34375 140.441406-2.6875-4c-8.066406-12.074218-12.980469-25.976562-14.285156-40.4375h-8.371094v-16h16c4.417969 0 8 3.582032 8 8 0 14.070313 4.175781 27.828125 12 39.527344l2.6875 4zm0 0" fill="#85bc94"/><path d="m256 28.003906c0 8.835938-7.164062 16-16 16s-16-7.164062-16-16c0-8.839844 7.164062-16 16-16s16 7.160156 16 16zm0 0" fill="#85bc94"/><path d="m160 128.003906h160v16h-160zm0 0" fill="#e0c097"/><path d="m200 160.003906h80v16h-80zm0 0" fill="#c1a682"/><path d="m208 168.003906h72v8h-72zm0 0" fill="#c7ab86"/><path d="m472 480.003906h-464c-4.417969 0-8-3.582031-8-8 0-4.417968 3.582031-8 8-8h464c4.417969 0 8 3.582032 8 8 0 4.417969-3.582031 8-8 8zm0 0" fill="#b99f7c"/><path d="m0 192.003906h480v16h-480zm0 0" fill="#e8c79d"/><g fill="#d8b991"><path d="m16 424.003906h32v16h-32zm0 0"/><path d="m96 424.003906h32v16h-32zm0 0"/><path d="m176 424.003906h32v16h-32zm0 0"/><path d="m272 424.003906h32v16h-32zm0 0"/><path d="m352 424.003906h32v16h-32zm0 0"/><path d="m432 424.003906h32v16h-32zm0 0"/><path d="m16 248.003906h32v16h-32zm0 0"/><path d="m96 248.003906h32v16h-32zm0 0"/><path d="m176 248.003906h32v16h-32zm0 0"/><path d="m272 248.003906h32v16h-32zm0 0"/><path d="m352 248.003906h32v16h-32zm0 0"/><path d="m432 248.003906h32v16h-32zm0 0"/></g><path d="m264 120.003906h-48l4 8h40zm0 0" fill="#6b9777"/><path d="m177.777344 128.003906h18.503906l-.3125-.472656c-1.566406-2.421875-2.988281-4.9375-4.253906-7.527344h-17.496094c1.070312 2.710938 2.214844 5.390625 3.558594 8zm0 0" fill="#6b9777"/><path d="m302.226562 128.003906c1.34375-2.609375 2.488282-5.289062 3.558594-8h-17.496094c-1.265624 2.589844-2.6875 5.105469-4.257812 7.527344l-.308594.472656zm0 0" fill="#6b9777"/><path d="m312 160.003906v-16h8v-16h-17.773438c5.175782-9.957031 8.371094-20.828125 9.40625-32h8.367188v-16h-16c-4.417969 0-8 3.582032-8 8 .003906 14.070313-4.175781 27.828125-12 39.527344l-.277344.472656h-14.777344l7.910157-15.832031c6.4375-12.855469 2.75-28.46875-8.75-37.089844l-20.105469-15.078125v-18.21875c6.863281-3.886718 9.800781-12.242187 6.882812-19.566406l7.367188-9.214844c2.761719-3.453125 2.203125-8.488281-1.25-11.25-3.449219-2.761718-8.484375-2.203125-11.246094 1.25l-7.351562 9.238282c-1.558594-.320313-3.164063-.320313-4.722656 0l-7.390626-9.238282c-2.761718-3.453125-7.796874-4.011718-11.246093-1.25-3.453125 2.761719-4.011719 7.796875-1.25 11.25l7.367187 9.214844c-2.925781 7.316406-.003906 15.667969 6.839844 19.566406v18.21875l-20.109375 15.078125c-11.496094 8.625-15.179687 24.238281-8.746094 37.089844l7.914063 15.832031h-14.777344l-.3125-.472656c-7.8125-11.703125-11.976562-25.457031-11.96875-39.527344 0-4.417968-3.582031-8-8-8h-16v16h8.371094c1.03125 11.171875 4.226562 22.042969 9.40625 32h-17.777344v16h8v16h-168v16h17.761719l4 16h-21.761719v16h8v224c-4.417969 0-8 3.582032-8 8v32c0 4.417969 3.582031 8 8 8h464c4.417969 0 8-3.582031 8-8v-32c0-4.417968-3.582031-8-8-8v-224h8v-16h-21.757812l4-16h17.757812v-16zm-288 96h16v176h-16zm24 208h-32v-16h32zm0-224h-24v-32h40v32zm40 192c-4.417969 0-8 3.582032-8 8v24h-16v-24c0-4.417968-3.582031-8-8-8v-144h32zm0-160h-32v-16h32zm16 0v-16h16v16zm16 16v144h-16v-144zm-8-48h-32v-32h32zm16 224h-32v-16h32zm0-224v-32h32v32zm40 192c-4.417969 0-8 3.582032-8 8v24h-16v-24c0-4.417968-3.582031-8-8-8v-144h32zm0-160h-32v-16h32zm0-80h-129.75l-4-16h133.75zm53.496094-104.128906 18.503906-13.871094 18.496094 13.871094c3.453125 2.601562 5.492187 6.667969 5.503906 10.992188.003906 2.132812-.496094 4.238281-1.453125 6.144531l-11.488281 22.992187h-22.113282l-11.488281-22.992187c-.957031-1.90625-1.457031-4.011719-1.457031-6.144531.015625-4.320313 2.046875-8.386719 5.496094-10.992188zm-37.496094 56.128906h112v16h-112zm24 320h-32v-16h32zm-8-176v144h-16v-144zm-16-16v-16h16v16zm24-32h-32v-32h32zm56 192c-4.417969 0-8 3.582032-8 8v24h-32v-24c0-4.417968-3.582031-8-8-8v-144h48zm0-160h-48v-16h48zm-40-32v-32h32v32zm-8-48h-32v-16h112v16zm88 272h-32v-16h32zm-8-176v144h-16v-144zm-16-16v-16h16v16zm24-32h-32v-32h32zm152-32v32h-40v-32zm0 48v176h-16v-176zm-144-80h133.753906l-4 16h-129.753906zm48 96v-16h16v16zm16 16v144h-16v-144zm-24-80v32h-32v-32zm-8 224c-4.417969 0-8 3.582032-8 8v24h-16v-24c0-4.417968-3.582031-8-8-8v-144h32zm0-160h-32v-16h32zm40 192h-32v-16h32zm0-224h-16v-32h32v32zm40 192c-4.417969 0-8 3.582032-8 8v24h-16v-24c0-4.417968-3.582031-8-8-8v-144h32zm0-160h-32v-16h32zm40 176v16h-32v-16zm0 0"/></svg>