<svg xmlns="http://www.w3.org/2000/svg" width="376" height="241" viewBox="0 0 376 241">
  <g fill="none" transform="translate(0 -.5)">
    <path fill="#fff" d="M99 71.1L104.8 72.5C102.7 76.4 101 79.2 99.7 80.9 98.7 82.4 97 84.2 94.5 86.4 84.7 95.6 71.4 100.1 54.7 100.1 44.2 100.1 34.8 98 26.5 93.7 22.3 91.5 18.7 88.9 15.6 86.1 12.5 83.2 9.7 79.8 7.4 75.8 2.8 68.2.5 59.5.5 49.7.5 43.5 1.9 37.2 4.6 30.9 7.3 24.6 10.8 19.2 15.3 14.6 24.5 5.3 36.4.7 51 .7L53.4.7 53.4 94.4C56.6 94.8 58.7 95 59.7 95 69 95 77.6 92 85.6 86.1 88.5 83.9 90.8 81.8 92.6 79.9 94.3 78 96.4 75.1 99 71.1zM84.6 1.3C88.3 1.3 91.7 2.2 94.6 3.9 97.6 5.7 100 8 101.7 11 103.5 13.9 104.3 17.3 104.3 21 104.3 24.7 103.4 28.1 101.7 31 99.9 33.9 97.5 36.3 94.5 38 91.6 39.8 88.2 40.6 84.6 40.6 81 40.6 77.8 39.7 74.8 38 71.8 36.2 69.4 33.8 67.7 30.8 65.9 27.8 65 24.5 65 21 65 17.3 65.9 14 67.6 11.1 69.4 8 71.8 5.6 74.7 3.9 77.7 2.2 80.9 1.3 84.6 1.3zM170.9 1.1L170.9 101 168.2 101C158.3 101 149.2 98.8 141 94.5 132.9 90.2 126.5 84.2 121.8 76.5 117.1 68.8 114.8 60.3 114.8 51.1 114.8 44.2 116.1 37.7 118.8 31.5 121.4 25.5 125.2 20.2 130.1 15.5 135 10.9 140.7 7.3 147 4.9 153.4 2.4 160.3 1.2 167.6 1.2L170.9 1.2 170.9 1.1zM182.5 101L182.5 1.1 184.5 1.1C192.5 1.1 199.9 2.3 206.5 4.7 213.3 7.2 219 10.6 223.7 15.1 228.6 19.6 232.4 25 235.1 31.1 237.8 37.4 239.1 44.1 239.1 51.2 239.1 60.6 236.8 69.1 232.1 76.7 227.5 84.2 221 90.2 212.8 94.5 204.6 98.8 195.3 100.9 185.1 100.9L182.5 100.9 182.5 101zM118.1 180.7L118.1 116.4 171.3 116.4 171.3 214.6 165.4 214.6C155.8 214.6 147.5 213.2 140.4 210.5 136.8 209.1 133.6 207.5 130.9 205.5 128.2 203.5 125.9 201.3 123.9 198.8 120 193.6 118.1 187.6 118.1 180.7zM182.6 214.6L182.6 116.4 236.3 116.4 236.3 214.6 182.6 214.6zM254.5 241.3L254.5 116.4 307.9 116.4 307.9 241.3 254.5 241.3zM319.4 215.1L319.4 116.4 322.5 116.4C332.2 116.4 341.1 118.6 349.3 122.9 357.4 127.2 363.9 133.2 368.6 140.8 373.2 148.3 375.6 156.7 375.6 165.9 375.6 173.1 374.4 179.7 372 185.7 369.6 191.7 366.1 196.9 361.6 201.3 357.1 205.8 351.6 209.2 345.3 211.6 339.1 214 332.2 215.2 324.8 215.2 324.5 215.1 324.2 215.1 323.7 215.1 323.2 215.1 322.8 215.1 322.4 215L319.4 215 319.4 215.1z"/>
    <path fill="#E7501E" d="M232.1,60.1 C235.8,60.1 239.2,61 242.1,62.7 C245.1,64.5 247.5,66.8 249.2,69.8 C251,72.7 251.8,76.1 251.8,79.8 C251.8,83.5 250.9,86.9 249.2,89.8 C247.4,92.7 245,95.1 242,96.8 C239.1,98.6 235.7,99.4 232.1,99.4 C228.5,99.4 225.3,98.5 222.3,96.8 C219.3,95 216.9,92.6 215.2,89.6 C213.4,86.6 212.5,83.3 212.5,79.8 C212.5,76.1 213.4,72.8 215.1,69.9 C216.9,66.8 219.3,64.4 222.2,62.7 C225.2,61 228.5,60.1 232.1,60.1 Z"/>
  </g>
</svg>
