<svg xmlns="http://www.w3.org/2000/svg" width="190" height="190" viewBox="0 0 190 190">
  <g fill="#605367">
    <path d="M46 147C43.7912 147 42 148.710697 42 150.820225L42 160.179775C42 162.289303 43.7912 164 46 164 48.2092 164 50 162.289303 50 160.179775L50 150.820225C50 148.710697 48.2092 147 46 147zM119 147C116.7912 147 115 148.710697 115 150.820225L115 160.179775C115 162.289303 116.7912 164 119 164 121.2088 164 123 162.289303 123 160.179775L123 150.820225C123 148.710697 121.2088 147 119 147zM89 147C86.7908 147 85 148.710697 85 150.820225L85 160.179775C85 162.289303 86.7912 164 89 164 91.2088 164 93 162.289303 93 160.179775L93 150.820225C93 148.710697 91.2088 147 89 147zM76 147C73.7912 147 72 148.710697 72 150.820225L72 160.179775C72 162.289303 73.7912 164 76 164 78.2092 164 80 162.289303 80 160.179775L80 150.820225C80 148.710697 78.2092 147 76 147zM61 147C58.7912 147 57 148.710697 57 150.820225L57 160.179775C57 162.289303 58.7912 164 61 164 63.2088 164 65 162.289303 65 160.179775L65 150.820225C65 148.710697 63.2092 147 61 147zM103 147C100.7912 147 99 148.710697 99 150.820225L99 160.179775C99 162.289303 100.7912 164 103 164 105.2088 164 107 162.289303 107 160.179775L107 150.820225C107 148.710697 105.2088 147 103 147zM33 147C30.7912 147 29 148.710697 29 150.820225L29 160.179775C29 162.289303 30.7912 164 33 164 35.2088 164 37 162.289303 37 160.179775L37 150.820225C37 148.710697 35.2088 147 33 147zM132 147C129.7912 147 128 148.710697 128 150.820225L128 160.179775C128 162.289303 129.7912 164 132 164 134.2088 164 136 162.289303 136 160.179775L136 150.820225C136 148.710697 134.2088 147 132 147zM167.357013 79L162.642987 79C160.63133 79 159 80.7908 159 83 159 85.2088 160.63133 87 162.642987 87L167.357013 87C169.36867 87 171 85.2088 171 83 171 80.7908 169.369035 79 167.357013 79zM165 123C162.7912 123 161 124.74956 161 126.907013L161 127.092987C161 129.25044 162.7912 131 165 131 167.2088 131 169 129.25044 169 127.092987L169 126.907013C169 124.74917 167.2088 123 165 123zM165 135C162.7912 135 161 136.676389 161 138.743611L161 154.256389C161 156.323985 162.7912 158 165 158 167.2088 158 169 156.323985 169 154.256389L169 138.743611C169 136.676389 167.2088 135 165 135zM115.092987 116L114.907013 116C112.74956 116 111 117.7912 111 120 111 122.2088 112.74956 124 114.907013 124L115.092987 124C117.25083 124 119 122.2092 119 120 119 117.7912 117.25083 116 115.092987 116z"/>
    <path d="M186.288699,182.578154 L181.278943,182.578154 L181.278943,60.3774595 C181.278943,58.3282878 179.617188,56.6665365 177.568013,56.6665365 C177.468931,56.6665365 177.370962,56.6602279 177.274107,56.6516928 C178.473108,56.0364217 179.29508,54.7906649 179.29508,53.3508268 C179.29508,51.8419655 178.394808,50.5438846 177.102291,49.9634962 C176.163797,48.2887567 175.015264,43.2990496 175.015264,41.6488022 L175.015264,37.0231366 L176.987623,37.0231366 C179.036799,37.0231366 180.698553,35.3613853 180.698553,33.3122136 C180.698553,31.2630419 179.036799,29.6012906 176.987623,29.6012906 L168.718928,29.6012906 L168.718928,26.9156956 C171.952633,25.4855059 174.215929,22.2488389 174.215929,18.4915293 C174.215929,14.7342198 171.952633,11.4975527 168.718928,10.067363 L168.718928,3.710923 C168.718928,1.66138023 167.057174,0 165.007998,0 C162.958451,0 161.297068,1.66138023 161.297068,3.710923 L161.297068,10.0677341 C158.063734,11.4979238 155.800438,14.7345909 155.800438,18.4915293 C155.800438,22.2484678 158.063363,25.4851348 161.297068,26.9153245 L161.297068,29.6009195 L153.028744,29.6009195 C150.979568,29.6009195 149.317814,31.2626708 149.317814,33.3118425 C149.317814,35.3610142 150.979568,37.0227655 153.028744,37.0227655 L155.001475,37.0227655 L155.001475,41.6484311 C155.001475,43.2986785 153.852942,48.2883856 152.914447,49.9631251 C151.62193,50.5435135 150.721288,51.8419655 150.721288,53.3504557 C150.721288,54.7906649 151.543259,56.0364217 152.74226,56.6513217 C152.645405,56.6598568 152.547808,56.6661654 152.448726,56.6661654 C150.39955,56.6661654 148.737795,58.3279167 148.737795,60.3770884 L148.737795,116.203843 L126.261433,116.203843 C124.212257,116.203843 122.550503,117.865594 122.550503,119.914766 C122.550503,121.964309 124.212257,123.625689 126.261433,123.625689 L148.737795,123.625689 L148.737795,136.613548 L19.3732825,136.613548 L28.0486952,123.625689 L96.9580723,123.625689 C99.007248,123.625689 100.669003,121.964309 100.669003,119.914766 C100.669003,117.865594 99.007248,116.203843 96.9580723,116.203843 L40.6343152,116.203843 L40.6343152,99.0879528 L41.3494114,99.0879528 C43.3989582,99.0879528 45.0603417,97.4262015 45.0603417,95.3770298 C45.0603417,93.8681685 44.16007,92.5700876 42.867553,91.9896993 C41.9290587,90.3149597 40.7805258,85.3252526 40.7805258,83.6750052 L40.7805258,79.0493397 L42.7525142,79.0493397 C44.8016898,79.0493397 46.4634444,77.3875883 46.4634444,75.3384166 C46.4634444,73.289245 44.8016898,71.6274936 42.7525142,71.6274936 L34.4841905,71.6274936 L34.4841905,68.9418987 C37.7178951,67.5117089 39.9811914,64.2750419 39.9811914,60.5177324 C39.9811914,56.7607939 37.7178951,53.5237558 34.4841905,52.093566 L34.4841905,45.737126 C34.4841905,43.6879543 32.822807,42.026203 30.7732602,42.026203 C28.7240845,42.026203 27.06233,43.6879543 27.06233,45.737126 L27.06233,52.0939371 C23.8289964,53.5241269 21.5660712,56.7607939 21.5660712,60.5177324 C21.5660712,64.2750419 23.8289964,67.5113378 27.06233,68.9415276 L27.06233,71.6271226 L18.7940063,71.6271226 C16.7448306,71.6271226 15.083076,73.2888739 15.083076,75.3380456 C15.083076,77.3872172 16.7448306,79.0489686 18.7940063,79.0489686 L20.7663657,79.0489686 L20.7663657,83.6746341 C20.7663657,85.3248815 19.6178328,90.3145886 18.6797096,91.9893282 C17.3868215,92.5697165 16.4865498,93.8681685 16.4865498,95.3766587 C16.4865498,97.3363971 18.006918,98.9372893 19.9317775,99.0742224 L19.9317775,122.414815 L9.35748172,138.245612 C9.35562626,138.248581 9.3533997,138.25155 9.35154424,138.254519 L9.34597784,138.263054 C9.342638,138.267878 9.34078254,138.273073 9.3374427,138.277526 C9.25654442,138.399616 9.18492347,138.527642 9.11849782,138.65938 C9.10216972,138.691665 9.08695491,138.724321 9.07174009,138.756978 C9.01533395,138.877583 8.9648653,139.001156 8.92144742,139.128441 C8.91513884,139.146624 8.90734588,139.164437 8.9014084,139.182991 C8.85502177,139.326975 8.81754137,139.475041 8.78859612,139.626076 C8.78265863,139.657619 8.77931879,139.689161 8.77412349,139.720333 C8.75519774,139.835001 8.7414673,139.951153 8.73367435,140.06916 C8.73033451,140.117402 8.72773686,140.165273 8.72625249,140.213144 C8.72513921,140.250253 8.72068609,140.28662 8.72068609,140.3241 L8.72068609,182.577783 L3.71093025,182.577783 C1.66175457,182.577783 0,184.239534 0,186.288706 C0,188.338249 1.66175457,189.999629 3.71093025,189.999629 L186.28907,189.999629 L186.28907,190 C188.338245,190 190,188.33862 190,186.289077 C189.999629,184.239905 188.338245,182.578154 186.288699,182.578154 Z M33.2124547,116.203843 L27.353638,116.203843 L27.353638,99.0879528 L33.2124547,99.0879528 L33.2124547,116.203843 Z M30.7732602,58.7316651 C31.75777,58.7316651 32.5593309,59.5328534 32.5593309,60.5177324 C32.5593309,61.5022402 31.7581411,62.3037996 30.7732602,62.3037996 C29.7887504,62.3037996 28.9879317,61.5022402 28.9879317,60.5177324 C28.9879317,59.5332245 29.7887504,58.7316651 30.7732602,58.7316651 Z M26.7795571,91.4582951 C27.5826024,88.7344776 28.1882262,85.3883383 28.1882262,83.6750052 L28.1882262,79.0493397 L32.7586079,79.0493397 C31.9952695,79.0493397 30.7751157,79.0493397 30.7732602,79.0497107 C30.7710337,79.0497107 33.0476894,79.0493397 33.3300912,79.0493397 C33.3490169,79.0493397 33.3590364,79.0493397 33.3586653,79.0493397 L33.3586653,83.6750052 C33.3586653,85.3879672 33.9642891,88.7341065 34.7673344,91.4582951 C34.7870024,91.5243495 34.8070414,91.5937438 34.8289359,91.6664779 L26.7183267,91.6664779 C26.7398501,91.5941149 26.7598891,91.5243495 26.7795571,91.4582951 Z M33.0250527,182.578154 L27.353638,182.578154 L27.353638,176.790227 C27.353638,175.226816 28.6257449,173.954711 30.1895309,173.954711 C31.7529458,173.954711 33.0250527,175.226816 33.0250527,176.790227 L33.0250527,182.578154 Z M59.2116031,182.578154 L53.5398173,182.578154 L53.5398173,176.790227 C53.5398173,175.226816 54.8119242,173.954711 56.3757102,173.954711 C57.9394962,173.954711 59.2116031,175.226816 59.2116031,176.790227 L59.2116031,182.578154 Z M85.276435,182.578154 L79.6050203,182.578154 L79.6050203,176.790227 C79.6050203,175.226816 80.8771272,173.954711 82.4405421,173.954711 L82.4409132,173.954711 C84.0043281,173.954711 85.276435,175.226816 85.276435,176.790227 L85.276435,182.578154 Z M111.462243,182.578154 L105.790829,182.578154 L105.790829,176.790227 C105.790829,175.226816 107.062935,173.954711 108.62635,173.954711 L108.626721,173.954711 C110.190136,173.954711 111.462243,175.226816 111.462243,176.790227 L111.462243,182.578154 Z M137.527817,182.578154 L131.856032,182.578154 L131.856032,176.790227 C131.856032,175.226816 133.128138,173.954711 134.691924,173.954711 C136.25571,173.954711 137.527817,175.226816 137.527817,176.790227 L137.527817,182.578154 Z M148.738167,182.578154 L144.948936,182.578154 L144.948936,176.790227 C144.948936,171.13441 140.347382,166.532865 134.691182,166.532865 C129.035353,166.532865 124.433429,171.134039 124.433429,176.790227 L124.433429,182.578154 L118.883362,182.578154 L118.883362,176.790227 C118.883362,171.13441 114.281808,166.532865 108.625608,166.532865 C102.969779,166.532865 98.3682258,171.134039 98.3682258,176.790227 L98.3682258,182.578154 L92.6971822,182.578154 L92.6971822,176.790227 C92.6971822,171.13441 88.0956287,166.532865 82.4394288,166.532865 C76.7836,166.532865 72.1820465,171.134039 72.1820465,176.790227 L72.1820465,182.578154 L66.6319792,182.578154 L66.6319792,176.790227 C66.6319792,171.13441 62.0304257,166.532865 56.3742258,166.532865 C50.7180259,166.532865 46.1164724,171.134039 46.1164724,176.790227 L46.1164724,182.578154 L40.4454288,182.578154 L40.4454288,176.790227 C40.4454288,171.13441 35.8442464,166.532865 30.1880465,166.532865 C24.5318466,166.532865 19.9302931,171.134039 19.9302931,176.790227 L19.9302931,182.578154 L16.1425466,182.578154 L16.1425466,144.035394 L148.738167,144.035394 L148.738167,182.578154 Z M165.00874,16.7054621 C165.993621,16.7058332 166.794811,17.5070215 166.794811,18.4915293 C166.794811,19.4760372 165.993621,20.2775966 165.00874,20.2775966 C164.02423,20.2775966 163.222669,19.4764083 163.222669,18.4915293 C163.222669,17.5070215 164.023859,16.7054621 165.00874,16.7054621 Z M161.015408,49.4320921 C161.818453,46.7082746 162.424077,43.3621353 162.424077,41.6488022 L162.424077,37.0231366 L167.591177,37.0231366 C167.58895,37.0231366 167.596372,37.0231366 167.593774,37.0231366 L167.593774,41.6488022 C167.593774,43.3617642 168.199398,46.7079035 169.002443,49.4320921 C169.022111,49.4981465 169.04215,49.5675408 169.064045,49.6402748 L160.953807,49.6402748 C160.97533,49.5679118 160.99574,49.4981465 161.015408,49.4320921 Z M156.160027,63.4274671 L156.160027,63.4274671 C159.100939,62.3409088 161.439939,60.0022851 162.526128,57.0617498 L167.491353,57.0617498 C168.577913,60.0022851 170.916541,62.3412799 173.857453,63.4274671 L173.857453,63.6939114 L156.160027,63.6939114 L156.160027,63.4274671 L156.160027,63.4274671 Z M173.857824,182.578154 L156.160398,182.578154 L156.160398,178.964828 L173.857824,178.964828 L173.857824,182.578154 Z M173.857824,171.542982 L156.160398,171.542982 L156.160398,71.1157574 L173.857824,71.1157574 L173.857824,171.542982 Z"/>
  </g>
</svg>
