<?xml version="1.0" encoding="UTF-8"?>
<svg width="496px" height="496px" viewBox="0 0 496 496" version="1.1" xmlns="http://www.w3.org/2000/svg" xmlns:xlink="http://www.w3.org/1999/xlink">
    <!-- Generator: Sketch 53.2 (72643) - https://sketchapp.com -->
    <title>kaminarimon-gate</title>
    <desc>Created with Sketch.</desc>
    <g id="Page-1" stroke="none" stroke-width="1" fill="none" fill-rule="evenodd">
        <g id="kaminarimon-gate" fill="#605367" fill-rule="nonzero">
            <path d="M486.984,49.248 C492.88,39.408 496,28.152 496,16.68 L496,0 L476.584,0 L474.224,2.472 C456.256,21.232 431.056,32 405.08,32 L90.92,32 C64.944,32 39.744,21.232 21.776,2.472 L19.416,1.77635684e-15 L0,0 L0,16.68 C0,28.152 3.12,39.408 9.024,49.256 C20.4,68.216 41.208,80 63.328,80 L71.576,80 C68.512,111.72 47.488,139.648 17.264,150.976 L8,154.464 L8,176 L24,176 L24,208 L0,208 L0,256 L16,256 L16,496 L480,496 L480,256 L496,256 L496,208 L472,208 L472,176 L488,176 L488,154.464 L478.736,150.976 C448.52,139.648 427.496,111.72 424.432,80 L432.68,80 C454.792,80 475.6,68.216 486.984,49.248 Z M22.744,41.032 C18.768,34.392 16.48,26.896 16.064,19.2 C36.48,37.592 63.328,48 90.92,48 L405.088,48 C432.68,48 459.528,37.592 479.936,19.2 C479.52,26.896 477.24,34.384 473.264,41.024 C464.752,55.192 449.2,64 432.672,64 L63.328,64 C46.8,64 31.248,55.192 22.744,41.032 Z M376,208 L376,176 L408,176 L408,208 L376,208 Z M167.968,80 C167.728,93.208 165.016,121.368 147.536,140.312 C136.528,152.232 121.08,158.728 101.64,159.784 C105.096,157.168 108.384,154.328 111.368,151.088 C132.648,127.96 135.8,95.392 136,80 L167.968,80 Z M312,80 C312.2,95.392 315.352,127.96 336.632,151.088 C339.616,154.336 342.912,157.168 346.36,159.784 C326.92,158.728 311.472,152.24 300.464,140.312 C282.976,121.368 280.272,93.208 280.032,80 L312,80 Z M264,80 C264.2,95.392 267.352,127.96 288.632,151.088 C291.704,154.424 295.08,157.336 298.64,160 L197.352,160 C200.912,157.328 204.296,154.416 207.36,151.088 C228.648,127.96 231.8,95.392 232,80 L264,80 Z M215.968,80 C215.728,93.208 213.016,121.368 195.536,140.312 C184.528,152.232 169.08,158.728 149.64,159.784 C153.096,157.168 156.384,154.328 159.368,151.088 C180.648,127.96 183.8,95.392 184,80 L215.968,80 Z M120,176 L120,208 L88,208 L88,176 L120,176 Z M136,176 L168,176 L168,208 L136,208 L136,176 Z M184,176 L216,176 L216,208 L184,208 L184,176 Z M232,176 L264,176 L264,208 L232,208 L232,176 Z M280,176 L312,176 L312,208 L280,208 L280,176 Z M328,176 L360,176 L360,208 L328,208 L328,176 Z M348.472,140.312 C330.984,121.368 328.28,93.208 328.04,80 L360,80 C360.2,95.392 363.352,127.96 384.632,151.088 C387.616,154.336 390.912,157.168 394.36,159.784 C374.928,158.728 359.48,152.24 348.472,140.312 Z M87.64,80 L119.96,80 C119.72,93.208 117.008,121.368 99.528,140.312 C87.472,153.376 70.136,160 48,160 L35.848,160 C65.216,143.848 84.92,113.632 87.64,80 Z M40,176 L72,176 L72,208 L40,208 L40,176 Z M32,256 L48,256 L48,480 L32,480 L32,256 Z M303.36,304 L288,304 L288,320 L304,320 L304,336 L288,336 L288,352 L303.36,352 C299.456,379.088 276.152,400 248,400 C219.848,400 196.544,379.088 192.64,352 L208,352 L208,336 L192,336 L192,320 L208,320 L208,304 L192.64,304 C196.544,276.912 219.848,256 248,256 C276.152,256 299.456,276.912 303.36,304 Z M240,415.528 C242.632,415.824 245.296,416 248,416 C250.704,416 253.368,415.824 256,415.528 L256,424 C256,428.416 252.408,432 248,432 C243.592,432 240,428.416 240,424 L240,415.528 Z M176,312 L176,344 C176,375.28 196.08,401.888 224,411.8 L224,424 C224,437.232 234.768,448 248,448 C261.232,448 272,437.232 272,424 L272,411.8 C299.92,401.888 320,375.28 320,344 L320,312 C320,289.392 309.504,269.208 293.152,256 L336,256 L336,480 L160,480 L160,256 L202.848,256 C186.496,269.208 176,289.392 176,312 Z M432,432 L384,432 L384,416 L432,416 L432,432 Z M432,400 L384,400 L384,336 L432,336 L432,400 Z M432,320 L384,320 L384,304 L432,304 L432,320 Z M384,448 L432,448 L432,480 L384,480 L384,448 Z M432,288 L384,288 L384,256 L432,256 L432,288 Z M368,480 L352,480 L352,256 L368,256 L368,480 Z M144,480 L128,480 L128,256 L144,256 L144,480 Z M112,432 L64,432 L64,416 L112,416 L112,432 Z M112,400 L64,400 L64,336 L112,336 L112,400 Z M112,320 L64,320 L64,304 L112,304 L112,320 Z M64,448 L112,448 L112,480 L64,480 L64,448 Z M112,288 L64,288 L64,256 L112,256 L112,288 Z M464,480 L448,480 L448,256 L464,256 L464,480 Z M480,240 L16,240 L16,224 L480,224 L480,240 Z M456,208 L424,208 L424,176 L456,176 L456,208 Z M460.152,160 L448,160 C425.864,160 408.528,153.376 396.472,140.312 C378.984,121.368 376.28,93.208 376.04,80 L408.36,80 C411.08,113.632 430.784,143.848 460.152,160 Z" id="Shape"></path>
            <path d="M272,288 L224,288 L224,336 L272,336 L272,288 Z M256,320 L240,320 L240,304 L256,304 L256,320 Z" id="Shape"></path>
            <polygon id="Path" points="400 352 416 352 416 384 400 384"></polygon>
            <polygon id="Path" points="80 352 96 352 96 376 80 376"></polygon>
        </g>
    </g>
</svg>